<svg width="201" height="28" viewBox="0 0 201 28" fill="none" xmlns="http://www.w3.org/2000/svg">
<path d="M0.518282 26.1237C0.0343001 26.3897 -0.142372 26.9977 0.123674 27.4817C0.389719 27.9657 0.997737 28.1424 1.48172 27.8763L0.518282 26.1237ZM201 27L194.953 17.163L189.457 27.3184L201 27ZM1 27L1.48172 27.8763C2.32555 27.4125 3.17214 26.9543 4.02145 26.502L3.55134 25.6194L3.08123 24.7367C2.22413 25.1933 1.36981 25.6556 0.518282 26.1237L1 27ZM8.70767 22.9602L9.15414 23.855C10.8774 22.9952 12.6112 22.1588 14.3554 21.3463L13.9331 20.4398L13.5108 19.5333C11.7504 20.3535 10.0004 21.1976 8.2612 22.0654L8.70767 22.9602ZM19.2246 18.0614L19.6222 18.9789C21.3886 18.2136 23.165 17.4725 24.9512 16.756L24.5789 15.8279L24.2066 14.8997C22.4034 15.6231 20.6101 16.3713 18.8271 17.1438L19.2246 18.0614ZM29.9926 13.7422L30.3392 14.6802C32.1441 14.0132 33.9586 13.3712 35.7822 12.7543L35.4618 11.8071L35.1413 10.8598C33.3001 11.4826 31.4682 12.1308 29.646 12.8041L29.9926 13.7422ZM40.9827 10.0251L41.2766 10.981C43.1151 10.4158 44.9625 9.87618 46.8184 9.36234L46.5516 8.3986L46.2848 7.43485C44.4107 7.95371 42.5453 8.49862 40.6889 9.06924L40.9827 10.0251ZM52.1643 6.92967L52.4038 7.90057C54.2703 7.44018 56.1451 7.00577 58.0277 6.59768L57.8159 5.62038L57.604 4.64307C55.7028 5.05518 53.8097 5.49386 51.9248 5.95877L52.1643 6.92967ZM63.5024 4.4722L63.6863 5.45514C65.5752 5.10166 67.4716 4.77459 69.3753 4.47425L69.2195 3.48646L69.0637 2.49868C67.1411 2.80199 65.226 3.1323 63.3184 3.48927L63.5024 4.4722ZM74.9628 2.6642L75.0903 3.65603C76.9955 3.41098 78.9075 3.19263 80.8261 3.00131L80.7269 2.00625L80.6277 1.01118C78.6901 1.20439 76.7591 1.4249 74.8352 1.67238L74.9628 2.6642ZM86.5068 1.51302L86.5777 2.5105C88.4927 2.37453 90.414 2.26545 92.3413 2.18359L92.2989 1.18449L92.2565 0.185394C90.3102 0.268061 88.37 0.378212 86.436 0.515527L86.5068 1.51302ZM98.0986 1.02047L98.1128 2.02037C99.0738 2.0068 100.036 2 101 2V1V0C100.027 0 99.055 0.00687015 98.0845 0.0205712L98.0986 1.02047ZM101 1V2C101.964 2 102.926 2.0068 103.887 2.02037L103.901 1.02047L103.916 0.0205715C102.945 0.00687021 101.973 0 101 0V1ZM109.701 1.18449L109.659 2.18359C111.586 2.26545 113.507 2.37453 115.422 2.51051L115.493 1.51302L115.564 0.515528C113.63 0.378213 111.69 0.268062 109.744 0.185395L109.701 1.18449ZM121.273 2.00625L121.174 3.00132C123.093 3.19263 125.005 3.41098 126.91 3.65603L127.037 2.6642L127.165 1.67238C125.241 1.4249 123.31 1.20439 121.372 1.01118L121.273 2.00625ZM132.781 3.48647L132.625 4.47425C134.528 4.77459 136.425 5.10167 138.314 5.45514L138.498 4.4722L138.682 3.48927C136.774 3.1323 134.859 2.80199 132.936 2.49868L132.781 3.48647ZM144.184 5.62038L143.972 6.59768C145.855 7.00577 147.73 7.44018 149.596 7.90057L149.836 6.92967L150.075 5.95877C148.19 5.49386 146.297 5.05518 144.396 4.64307L144.184 5.62038ZM155.448 8.3986L155.182 9.36234C157.038 9.87618 158.885 10.4158 160.723 10.981L161.017 10.0251L161.311 9.06924C159.455 8.49862 157.589 7.9537 155.715 7.43485L155.448 8.3986ZM166.538 11.8071L166.218 12.7543C168.041 13.3712 169.856 14.0132 171.661 14.6802L172.007 13.7422L172.354 12.8041C170.532 12.1308 168.7 11.4826 166.859 10.8598L166.538 11.8071ZM177.421 15.8279L177.049 16.756C178.835 17.4725 180.611 18.2136 182.378 18.979L182.775 18.0614L183.173 17.1438C181.39 16.3713 179.597 15.6231 177.793 14.8998L177.421 15.8279ZM188.067 20.4398L187.645 21.3463C189.389 22.1588 191.123 22.9952 192.846 23.855L193.292 22.9602L193.739 22.0654C192 21.1976 190.25 20.3535 188.489 19.5333L188.067 20.4398ZM0.518282 26.1237C0.0343001 26.3897 -0.142372 26.9977 0.123674 27.4817C0.389719 27.9657 0.997737 28.1424 1.48172 27.8763L0.518282 26.1237ZM201 27L194.953 17.163L189.457 27.3184L201 27ZM1 27L1.48172 27.8763C2.32555 27.4125 3.17214 26.9543 4.02145 26.502L3.55134 25.6194L3.08123 24.7367C2.22413 25.1933 1.36981 25.6556 0.518282 26.1237L1 27ZM8.70767 22.9602L9.15414 23.855C10.8774 22.9952 12.6112 22.1588 14.3554 21.3463L13.9331 20.4398L13.5108 19.5333C11.7504 20.3535 10.0004 21.1976 8.2612 22.0654L8.70767 22.9602ZM19.2246 18.0614L19.6222 18.9789C21.3886 18.2136 23.165 17.4725 24.9512 16.756L24.5789 15.8279L24.2066 14.8997C22.4034 15.6231 20.6101 16.3713 18.8271 17.1438L19.2246 18.0614ZM29.9926 13.7422L30.3392 14.6802C32.1441 14.0132 33.9586 13.3712 35.7822 12.7543L35.4618 11.8071L35.1413 10.8598C33.3001 11.4826 31.4682 12.1308 29.646 12.8041L29.9926 13.7422ZM40.9827 10.0251L41.2766 10.981C43.1151 10.4158 44.9625 9.87618 46.8184 9.36234L46.5516 8.3986L46.2848 7.43485C44.4107 7.95371 42.5453 8.49862 40.6889 9.06924L40.9827 10.0251ZM52.1643 6.92967L52.4038 7.90057C54.2703 7.44018 56.1451 7.00577 58.0277 6.59768L57.8159 5.62038L57.604 4.64307C55.7028 5.05518 53.8097 5.49386 51.9248 5.95877L52.1643 6.92967ZM63.5024 4.4722L63.6863 5.45514C65.5752 5.10166 67.4716 4.77459 69.3753 4.47425L69.2195 3.48646L69.0637 2.49868C67.1411 2.80199 65.226 3.1323 63.3184 3.48927L63.5024 4.4722ZM74.9628 2.6642L75.0903 3.65603C76.9955 3.41098 78.9075 3.19263 80.8261 3.00131L80.7269 2.00625L80.6277 1.01118C78.6901 1.20439 76.7591 1.4249 74.8352 1.67238L74.9628 2.6642ZM86.5068 1.51302L86.5777 2.5105C88.4927 2.37453 90.414 2.26545 92.3413 2.18359L92.2989 1.18449L92.2565 0.185394C90.3102 0.268061 88.37 0.378212 86.436 0.515527L86.5068 1.51302ZM98.0986 1.02047L98.1128 2.02037C99.0738 2.0068 100.036 2 101 2V1V0C100.027 0 99.055 0.00687015 98.0845 0.0205712L98.0986 1.02047ZM101 1V2C101.964 2 102.926 2.0068 103.887 2.02037L103.901 1.02047L103.916 0.0205715C102.945 0.00687021 101.973 0 101 0V1ZM109.701 1.18449L109.659 2.18359C111.586 2.26545 113.507 2.37453 115.422 2.51051L115.493 1.51302L115.564 0.515528C113.63 0.378213 111.69 0.268062 109.744 0.185395L109.701 1.18449ZM121.273 2.00625L121.174 3.00132C123.093 3.19263 125.005 3.41098 126.91 3.65603L127.037 2.6642L127.165 1.67238C125.241 1.4249 123.31 1.20439 121.372 1.01118L121.273 2.00625ZM132.781 3.48647L132.625 4.47425C134.528 4.77459 136.425 5.10167 138.314 5.45514L138.498 4.4722L138.682 3.48927C136.774 3.1323 134.859 2.80199 132.936 2.49868L132.781 3.48647ZM144.184 5.62038L143.972 6.59768C145.855 7.00577 147.73 7.44018 149.596 7.90057L149.836 6.92967L150.075 5.95877C148.19 5.49386 146.297 5.05518 144.396 4.64307L144.184 5.62038ZM155.448 8.3986L155.182 9.36234C157.038 9.87618 158.885 10.4158 160.723 10.981L161.017 10.0251L161.311 9.06924C159.455 8.49862 157.589 7.9537 155.715 7.43485L155.448 8.3986ZM166.538 11.8071L166.218 12.7543C168.041 13.3712 169.856 14.0132 171.661 14.6802L172.007 13.7422L172.354 12.8041C170.532 12.1308 168.7 11.4826 166.859 10.8598L166.538 11.8071ZM177.421 15.8279L177.049 16.756C178.835 17.4725 180.611 18.2136 182.378 18.979L182.775 18.0614L183.173 17.1438C181.39 16.3713 179.597 15.6231 177.793 14.8998L177.421 15.8279ZM188.067 20.4398L187.645 21.3463C189.389 22.1588 191.123 22.9952 192.846 23.855L193.292 22.9602L193.739 22.0654C192 21.1976 190.25 20.3535 188.489 19.5333L188.067 20.4398Z" fill="#D42028"/>
</svg>
