<svg width="201" height="28" viewBox="0 0 201 28" fill="none" xmlns="http://www.w3.org/2000/svg">
<path d="M0.518282 1.87633C0.0343001 1.61028 -0.142372 1.00226 0.123674 0.518282C0.389719 0.0342999 0.997737 -0.142372 1.48172 0.123674L0.518282 1.87633ZM201 1L194.953 10.837L189.457 0.681591L201 1ZM1 1L1.48172 0.123674C2.32555 0.58753 3.17214 1.04567 4.02145 1.49804L3.55134 2.38065L3.08123 3.26325C2.22413 2.80674 1.36981 2.34441 0.518282 1.87633L1 1ZM8.70767 5.03983L9.15414 4.14503C10.8774 5.00484 12.6112 5.84119 14.3554 6.65372L13.9331 7.56019L13.5108 8.46665C11.7504 7.64653 10.0004 6.8024 8.2612 5.93462L8.70767 5.03983ZM19.2246 9.93863L19.6222 9.02105C21.3886 9.78637 23.165 10.5275 24.9512 11.244L24.5789 12.1721L24.2066 13.1003C22.4034 12.3769 20.6101 11.6287 18.8271 10.8562L19.2246 9.93863ZM29.9926 14.2578L30.3392 13.3198C32.1441 13.9868 33.9586 14.6288 35.7822 15.2457L35.4618 16.1929L35.1413 17.1402C33.3001 16.5174 31.4682 15.8692 29.646 15.1959L29.9926 14.2578ZM40.9827 17.9749L41.2766 17.019C43.1151 17.5842 44.9625 18.1238 46.8184 18.6377L46.5516 19.6014L46.2848 20.5651C44.4107 20.0463 42.5453 19.5014 40.6889 18.9308L40.9827 17.9749ZM52.1643 21.0703L52.4038 20.0994C54.2703 20.5598 56.1451 20.9942 58.0277 21.4023L57.8159 22.3796L57.604 23.3569C55.7028 22.9448 53.8097 22.5061 51.9248 22.0412L52.1643 21.0703ZM63.5024 23.5278L63.6863 22.5449C65.5752 22.8983 67.4716 23.2254 69.3753 23.5258L69.2195 24.5135L69.0637 25.5013C67.1411 25.198 65.226 24.8677 63.3184 24.5107L63.5024 23.5278ZM74.9628 25.3358L75.0903 24.344C76.9955 24.589 78.9075 24.8074 80.8261 24.9987L80.7269 25.9938L80.6277 26.9888C78.6901 26.7956 76.7591 26.5751 74.8352 26.3276L74.9628 25.3358ZM86.5068 26.487L86.5777 25.4895C88.4927 25.6255 90.414 25.7345 92.3413 25.8164L92.2989 26.8155L92.2565 27.8146C90.3102 27.7319 88.37 27.6218 86.436 27.4845L86.5068 26.487ZM98.0986 26.9795L98.1128 25.9796C99.0738 25.9932 100.036 26 101 26V27V28C100.027 28 99.055 27.9931 98.0845 27.9794L98.0986 26.9795ZM101 27V26C101.964 26 102.926 25.9932 103.887 25.9796L103.901 26.9795L103.916 27.9794C102.945 27.9931 101.973 28 101 28V27ZM109.701 26.8155L109.659 25.8164C111.586 25.7345 113.507 25.6255 115.422 25.4895L115.493 26.487L115.564 27.4845C113.63 27.6218 111.69 27.7319 109.744 27.8146L109.701 26.8155ZM121.273 25.9937L121.174 24.9987C123.093 24.8074 125.005 24.589 126.91 24.344L127.037 25.3358L127.165 26.3276C125.241 26.5751 123.31 26.7956 121.372 26.9888L121.273 25.9937ZM132.781 24.5135L132.625 23.5258C134.528 23.2254 136.425 22.8983 138.314 22.5449L138.498 23.5278L138.682 24.5107C136.774 24.8677 134.859 25.198 132.936 25.5013L132.781 24.5135ZM144.184 22.3796L143.972 21.4023C145.855 20.9942 147.73 20.5598 149.596 20.0994L149.836 21.0703L150.075 22.0412C148.19 22.5061 146.297 22.9448 144.396 23.3569L144.184 22.3796ZM155.448 19.6014L155.182 18.6377C157.038 18.1238 158.885 17.5842 160.723 17.019L161.017 17.9749L161.311 18.9308C159.455 19.5014 157.589 20.0463 155.715 20.5651L155.448 19.6014ZM166.538 16.1929L166.218 15.2457C168.041 14.6288 169.856 13.9868 171.661 13.3198L172.007 14.2578L172.354 15.1959C170.532 15.8692 168.7 16.5174 166.859 17.1402L166.538 16.1929ZM177.421 12.1721L177.049 11.244C178.835 10.5275 180.611 9.78637 182.378 9.02105L182.775 9.93863L183.173 10.8562C181.39 11.6287 179.597 12.3769 177.793 13.1002L177.421 12.1721ZM188.067 7.56018L187.645 6.65372C189.389 5.84119 191.123 5.00484 192.846 4.14502L193.292 5.03982L193.739 5.93462C192 6.8024 190.25 7.64653 188.489 8.46665L188.067 7.56018ZM0.518282 1.87633C0.0343001 1.61028 -0.142372 1.00226 0.123674 0.518282C0.389719 0.0342999 0.997737 -0.142372 1.48172 0.123674L0.518282 1.87633ZM201 1L194.953 10.837L189.457 0.681591L201 1ZM1 1L1.48172 0.123674C2.32555 0.58753 3.17214 1.04567 4.02145 1.49804L3.55134 2.38065L3.08123 3.26325C2.22413 2.80674 1.36981 2.34441 0.518282 1.87633L1 1ZM8.70767 5.03983L9.15414 4.14503C10.8774 5.00484 12.6112 5.84119 14.3554 6.65372L13.9331 7.56019L13.5108 8.46665C11.7504 7.64653 10.0004 6.8024 8.2612 5.93462L8.70767 5.03983ZM19.2246 9.93863L19.6222 9.02105C21.3886 9.78637 23.165 10.5275 24.9512 11.244L24.5789 12.1721L24.2066 13.1003C22.4034 12.3769 20.6101 11.6287 18.8271 10.8562L19.2246 9.93863ZM29.9926 14.2578L30.3392 13.3198C32.1441 13.9868 33.9586 14.6288 35.7822 15.2457L35.4618 16.1929L35.1413 17.1402C33.3001 16.5174 31.4682 15.8692 29.646 15.1959L29.9926 14.2578ZM40.9827 17.9749L41.2766 17.019C43.1151 17.5842 44.9625 18.1238 46.8184 18.6377L46.5516 19.6014L46.2848 20.5651C44.4107 20.0463 42.5453 19.5014 40.6889 18.9308L40.9827 17.9749ZM52.1643 21.0703L52.4038 20.0994C54.2703 20.5598 56.1451 20.9942 58.0277 21.4023L57.8159 22.3796L57.604 23.3569C55.7028 22.9448 53.8097 22.5061 51.9248 22.0412L52.1643 21.0703ZM63.5024 23.5278L63.6863 22.5449C65.5752 22.8983 67.4716 23.2254 69.3753 23.5258L69.2195 24.5135L69.0637 25.5013C67.1411 25.198 65.226 24.8677 63.3184 24.5107L63.5024 23.5278ZM74.9628 25.3358L75.0903 24.344C76.9955 24.589 78.9075 24.8074 80.8261 24.9987L80.7269 25.9938L80.6277 26.9888C78.6901 26.7956 76.7591 26.5751 74.8352 26.3276L74.9628 25.3358ZM86.5068 26.487L86.5777 25.4895C88.4927 25.6255 90.414 25.7345 92.3413 25.8164L92.2989 26.8155L92.2565 27.8146C90.3102 27.7319 88.37 27.6218 86.436 27.4845L86.5068 26.487ZM98.0986 26.9795L98.1128 25.9796C99.0738 25.9932 100.036 26 101 26V27V28C100.027 28 99.055 27.9931 98.0845 27.9794L98.0986 26.9795ZM101 27V26C101.964 26 102.926 25.9932 103.887 25.9796L103.901 26.9795L103.916 27.9794C102.945 27.9931 101.973 28 101 28V27ZM109.701 26.8155L109.659 25.8164C111.586 25.7345 113.507 25.6255 115.422 25.4895L115.493 26.487L115.564 27.4845C113.63 27.6218 111.69 27.7319 109.744 27.8146L109.701 26.8155ZM121.273 25.9937L121.174 24.9987C123.093 24.8074 125.005 24.589 126.91 24.344L127.037 25.3358L127.165 26.3276C125.241 26.5751 123.31 26.7956 121.372 26.9888L121.273 25.9937ZM132.781 24.5135L132.625 23.5258C134.528 23.2254 136.425 22.8983 138.314 22.5449L138.498 23.5278L138.682 24.5107C136.774 24.8677 134.859 25.198 132.936 25.5013L132.781 24.5135ZM144.184 22.3796L143.972 21.4023C145.855 20.9942 147.73 20.5598 149.596 20.0994L149.836 21.0703L150.075 22.0412C148.19 22.5061 146.297 22.9448 144.396 23.3569L144.184 22.3796ZM155.448 19.6014L155.182 18.6377C157.038 18.1238 158.885 17.5842 160.723 17.019L161.017 17.9749L161.311 18.9308C159.455 19.5014 157.589 20.0463 155.715 20.5651L155.448 19.6014ZM166.538 16.1929L166.218 15.2457C168.041 14.6288 169.856 13.9868 171.661 13.3198L172.007 14.2578L172.354 15.1959C170.532 15.8692 168.7 16.5174 166.859 17.1402L166.538 16.1929ZM177.421 12.1721L177.049 11.244C178.835 10.5275 180.611 9.78637 182.378 9.02105L182.775 9.93863L183.173 10.8562C181.39 11.6287 179.597 12.3769 177.793 13.1002L177.421 12.1721ZM188.067 7.56018L187.645 6.65372C189.389 5.84119 191.123 5.00484 192.846 4.14502L193.292 5.03982L193.739 5.93462C192 6.8024 190.25 7.64653 188.489 8.46665L188.067 7.56018Z" fill="#D42028"/>
</svg>
