<svg width="80" height="80" viewBox="0 0 80 80" fill="none" xmlns="http://www.w3.org/2000/svg">
<path d="M58.6 4.5C53 1.6 46.7 0 40 0C33.3 0 27 1.6 21.4 4.5C8.7 11.2 0 24.6 0 40C0 55.4 8.7 68.8 21.5 75.5C27 78.3 33.3 80 40 80C46.7 80 52.9 78.3 58.5 75.4C71.3 68.8 80 55.4 80 40C80 24.6 71.3 11.2 58.6 4.5ZM4 40C4 26.9 11 15.5 21.5 9.1C26.6 6 32.5 4.2 39 4L34.5 36.7L21.5 46.8L8.3 57.1C5.6 52 4 46.2 4 40ZM58.6 70.8C53.1 74.1 46.8 76 40 76C33.2 76 26.8 74.1 21.4 70.8C16.5 67.9 12.5 63.9 9.5 59.1L21.4 54.2L40 46.6L58.6 54.1L70.6 59C67.6 63.9 63.4 67.9 58.6 70.8ZM58.6 46.8L45.7 36.8L41.1 4C47.4 4.2 53.4 6 58.5 9.1C69 15.4 76 26.9 76 40C76 46.2 74.5 52 71.7 57.1L58.6 46.8Z" fill="#343434"/>
</svg>
