<svg width="80" height="80" viewBox="0 0 80 80" fill="none" xmlns="http://www.w3.org/2000/svg">
<path d="M40 0C17.91 0 0 17.91 0 40C0 62.09 17.91 80 40 80C62.09 80 80 62.09 80 40C80 17.91 62.09 0 40 0ZM40 2.6C60.6533 2.6 77.3967 19.3433 77.3967 40C77.3967 60.6533 60.6567 77.3967 40 77.3967C19.3433 77.3967 2.60333 60.6533 2.60333 40C2.60333 19.3467 19.3467 2.6 40 2.6ZM37.74 4.7C36.64 4.74667 35.54 4.84 34.4333 4.96L34.0767 14.7733C34.8615 14.6405 35.6509 14.536 36.4433 14.46L36.6767 7.83333L36.6333 7.37667L36.7767 7.81L38.99 12.7733H41.01L43.2233 7.81333L43.3567 7.37667L43.3233 7.83333L43.5567 14.46C44.33 14.5333 45.1333 14.64 45.9233 14.7733L45.56 4.96C44.461 4.83616 43.3582 4.74944 42.2533 4.7L40.0767 10.1167L40 10.5167L39.9233 10.1167L37.74 4.7ZM60.06 10.78L54.9167 18.8733C55.5667 19.3733 56.4233 20.11 56.9733 20.6133L61.8167 18.1L62.1233 17.87L61.8933 18.1833L59.3867 23.0267C59.93 23.61 60.7133 24.5533 61.1533 25.1267L69.2533 19.98C68.7566 19.3374 68.2453 18.7061 67.72 18.0867L62.59 21.4667L62.24 21.7733L62.5 21.39L64.7667 16.87L63.1667 15.27L58.6467 17.5367L58.2633 17.7967L58.5667 17.4433L61.96 12.3133C61.36 11.8067 60.79 11.3433 60.06 10.78ZM18.3333 12.6167C17.1333 12.74 16.2067 13.56 13.69 16.3667C12.8173 17.3557 11.9758 18.3717 11.1667 19.4133L18.08 25.97C20.37 23.4367 21.3 22.4967 23.1067 20.5933C24.3833 19.2433 25.1067 17.6933 23.8267 16.2033C23.1333 15.3967 21.9667 15.22 20.9933 15.62L20.9 15.6533L20.9333 15.5667C21.0535 15.1244 21.0408 14.6565 20.8968 14.2214C20.7527 13.7862 20.4837 13.4032 20.1233 13.12C19.8728 12.9225 19.5856 12.7766 19.2784 12.6908C18.9711 12.605 18.6499 12.5776 18.3333 12.6167ZM18.3533 14.6667C18.8067 14.5433 19.2767 14.8667 19.38 15.3333C19.4867 15.8 19.1933 16.24 18.8667 16.6067C18.1333 17.44 15.43 20.2667 15.43 20.2667L14.09 18.99C15.48 17.29 16.96 15.7433 17.63 15.13C17.831 14.9205 18.0789 14.7616 18.3533 14.6667ZM40 16.2767C34.128 16.2741 28.4639 18.4502 24.1042 22.3838C19.7445 26.3174 16.9993 31.7287 16.4 37.57V37.5767C16.0233 41.2827 16.5241 45.0253 17.8617 48.5019C19.1993 51.9785 21.3363 55.0916 24.0999 57.5894C26.8635 60.0872 30.176 61.8996 33.7697 62.88C37.3635 63.8605 41.1375 63.9815 44.7867 63.2333C50.1356 62.1338 54.9409 59.2214 58.3906 54.9882C61.8403 50.7551 63.7228 45.4608 63.72 40C63.7138 33.7113 61.2127 27.6819 56.7655 23.2354C52.3184 18.7889 46.2887 16.2886 40 16.2833V16.2767ZM21.5433 17.0833C21.7 17.0833 21.8633 17.1267 22.01 17.2267C22.3033 17.4233 22.4367 17.76 22.3633 18.0933C22.2767 18.49 21.9467 18.8633 21.68 19.1533L18.1967 22.8867L16.7967 21.5533C16.7967 21.5533 19.42 18.78 20.28 17.89C20.62 17.5367 20.84 17.3233 21.0733 17.2067C21.2179 17.1316 21.3806 17.0895 21.5433 17.0833ZM40 19.3933C42.707 19.3903 45.388 19.9212 47.8895 20.9557C50.391 21.9902 52.6638 23.5079 54.578 25.422C56.4921 27.3362 58.0098 29.609 59.0443 32.1105C60.0788 34.612 60.6097 37.293 60.6067 40H40V60.6067C37.293 60.6097 34.612 60.0788 32.1105 59.0443C29.609 58.0098 27.3362 56.4921 25.422 54.578C23.5079 52.6638 21.9902 50.391 20.9557 47.8895C19.9212 45.388 19.3903 42.707 19.3933 40H40V19.3933Z" fill="#343434"/>
</svg>
