<svg width="100" height="38" viewBox="0 0 100 38" fill="none" xmlns="http://www.w3.org/2000/svg">
<path d="M49.9969 0C21.9305 0 -0.617188 8.43569 -0.617188 19C-0.617188 29.4855 22.0882 38 49.9969 38C77.9056 38 100.611 29.4855 100.611 19C100.69 8.59336 77.9056 0 49.9969 0ZM49.9969 36.3444C23.1919 36.3444 1.51144 28.6183 1.51144 19C1.51144 9.46058 23.2708 1.6556 49.9969 1.6556C76.8019 1.6556 98.4824 9.38174 98.4824 19C98.5612 28.6183 76.8019 36.3444 49.9969 36.3444ZM69.943 22.8631C69.943 22.9419 69.943 23.0207 69.943 23.0207C69.943 23.0996 70.1007 23.1784 70.1795 23.2573C70.1795 23.2573 70.2583 23.3361 70.1795 23.4149C69.8641 24.1245 69.5488 24.5187 69.1546 25.0705C68.7604 25.6224 68.3662 26.0166 67.8932 26.4108C67.1836 27.0415 66.0799 27.6722 65.2127 27.278C64.8185 27.0415 64.6608 26.5685 64.6608 26.0954C64.6608 24.9129 65.2127 23.6515 66.2376 22.39C67.4202 20.8921 68.8392 20.1037 69.7065 20.5768C70.6525 20.971 70.416 22.0747 69.943 22.8631ZM44.8724 14.9793C44.7936 14.5062 44.9513 13.9544 45.4243 13.5602C45.6608 13.3237 45.9762 13.3237 46.2127 13.4813C46.4492 13.639 46.2915 14.112 46.1339 14.5062C45.8973 14.9004 45.5031 15.2158 45.109 15.2158C44.9513 15.1369 44.8724 15.1369 44.8724 14.9793ZM49.9969 3.15353C24.138 3.15353 3.16705 10.3278 3.16705 19.0788C3.16705 27.751 24.138 34.9253 49.9969 34.9253C75.8558 34.9253 96.8268 27.751 96.8268 19C96.8268 10.249 75.8558 3.15353 49.9969 3.15353ZM25.9513 29.4855C23.1919 29.4855 20.748 27.8299 20.4326 24.834C20.2749 23.1784 20.748 21.7593 21.694 20.4979C22.4824 19.3942 23.9015 18.527 25.0841 18.2905C25.4782 18.2116 25.9513 18.2905 26.1878 18.527C26.5031 18.9212 26.4243 19.3154 26.109 19.5519C25.2417 20.0249 24.138 20.8133 23.5861 21.8382C23.1131 22.7054 23.0343 23.8091 23.7438 24.7552C24.8475 26.4108 27.9222 26.4896 30.8392 23.8091C31.5488 23.1784 32.1795 22.5477 32.8102 21.7593C34.0716 20.3403 34.4658 19.7884 36.2002 17.4232V17.3444C36.2002 17.3444 36.2002 17.3444 36.1214 17.2656C35.0177 17.2656 33.9928 17.6597 33.0467 18.3693C32.8102 18.6058 32.416 18.527 32.1795 18.2905C32.0218 17.9751 32.1007 17.5809 32.416 17.4232C33.9139 16.3195 35.6484 16.1618 37.304 15.8465C37.304 15.8465 37.4617 15.8465 37.5405 15.6888C38.25 14.8216 38.8019 13.9544 39.5114 13.0871C40.2998 12.1411 41.2459 11.3527 41.9554 10.6432C42.9803 9.77593 43.6899 9.46058 44.3206 9.06639C44.4782 8.98755 44.3206 8.82988 44.2417 8.82988C40.4575 8.12033 36.5156 7.17427 32.8102 8.59336C30.2085 9.53942 29.1048 11.5892 29.6567 13.0083C30.0509 13.9544 31.3123 14.112 32.5737 13.5602C33.5986 13.0871 34.4658 12.2988 35.1753 11.2739C35.5695 10.722 36.2791 11.1162 35.8849 12.0622C34.7812 14.6639 32.6525 16.7137 30.1297 16.7925C27.9222 16.8714 26.582 15.2946 26.582 13.3236C26.582 9.46058 30.9181 6.85892 35.4907 6.46473C41.0094 5.9917 46.2127 7.48963 51.6525 8.12033C55.8309 8.59336 59.8517 8.6722 64.0301 7.6473C64.5031 7.56847 64.8973 7.88382 64.8185 8.35685C64.7397 9.06639 64.1878 9.77593 62.8475 10.5643C61.2708 11.4315 59.6152 11.668 57.8807 11.668C53.7023 11.668 49.8392 10.0913 45.8185 9.22407C45.8185 9.38174 45.8973 9.61826 45.7397 9.69709C43.5322 11.3527 41.4824 13.0083 40.1422 15.2946C40.0633 15.3734 40.1421 15.3734 40.221 15.3734C41.4036 15.2946 42.4285 15.2946 43.5322 15.2158C43.6899 15.2158 43.6899 15.1369 43.6899 14.9793C43.611 14.1909 43.8475 13.2448 44.5571 12.6141C45.2666 11.9834 46.2127 11.9046 46.7646 12.3776C47.4741 12.9295 47.3953 13.8755 47.0011 14.5851C46.6069 15.2946 45.9762 15.6888 45.4243 15.9253C45.4243 15.9253 45.2666 15.9253 45.3455 16.083C45.3455 16.2407 46.2127 16.7137 46.2915 16.8714C46.3704 16.9502 46.2915 17.1867 46.2127 17.2656C46.1339 17.3444 45.9762 17.4232 45.8185 17.4232C45.6608 17.4232 45.582 17.3444 45.4243 17.2656C45.0301 17.029 44.5571 16.7137 44.3206 16.3195C44.2417 16.1618 44.1629 16.1618 43.9264 16.1618C42.7438 16.2407 40.9305 16.3983 39.6691 16.556C39.3538 16.556 39.3538 16.6349 39.2749 16.7925C37.304 20.0249 35.1753 23.5726 32.8102 25.9378C30.2874 28.7759 28.1587 29.4855 25.9513 29.4855ZM79.7978 13.5602C79.4036 14.1909 71.9928 25.5436 71.5197 26.6473C71.3621 27.0415 71.3621 27.278 71.5197 27.5145C71.9139 28.0664 72.7812 27.751 73.333 27.3568C74.9098 26.2531 76.0135 24.9129 77.2749 23.7303C77.3538 23.6515 77.4326 23.6515 77.5114 23.7303C77.6691 23.888 77.9845 24.1245 78.1422 24.2822C78.221 24.361 78.221 24.4398 78.1422 24.5187C76.9596 26.0166 75.6193 27.3568 74.3579 28.3817C72.387 29.8797 70.416 30.2739 69.3911 29.3278C68.9969 28.9336 68.8392 28.4606 68.8392 27.9875C68.8392 27.751 68.6816 27.751 68.6027 27.8299C67.4202 29.0124 65.3704 30.2739 63.5571 29.3278C61.9803 28.5394 61.665 26.7261 61.9803 25.1494C61.9803 25.1494 61.9803 24.9129 61.7438 24.9917C61.4285 25.2282 61.0343 25.4647 60.4824 25.7012C59.8517 25.9378 59.5363 26.0166 58.9056 26.0166C58.1173 26.0166 57.4865 25.7012 57.0135 24.9129C56.777 24.5187 56.6193 23.888 56.6193 23.4149C56.6193 23.3361 56.5405 23.2573 56.4617 23.4149C55.2002 25.3071 54.0177 27.1992 52.7563 29.1701C52.6774 29.249 52.5986 29.3278 52.5197 29.3278C51.7314 29.3278 50.8641 29.3278 50.0758 29.3278C49.9181 29.3278 49.8392 29.249 49.9181 29.0913C50.3911 28.2241 52.7563 24.7552 54.4119 21.7593C54.8849 20.971 54.806 20.4979 54.4907 20.3402C54.1753 20.1037 53.4658 20.4191 52.8351 20.8921C51.2583 22.0747 49.9181 23.9668 49.2085 24.834C48.8143 25.3071 48.4202 26.0954 47.3953 27.1992C45.7397 29.0124 43.5322 30.0373 41.4824 29.3278C40.2998 28.9336 39.5114 27.9876 39.1961 26.8838C39.1173 26.6473 39.0384 26.5685 38.8807 26.7261C38.5654 27.1203 37.8558 27.751 37.2251 28.1452C37.1463 28.2241 36.9886 28.3029 36.8309 28.2241C36.6733 28.1452 36.2791 27.5934 36.2002 27.3568C36.1214 27.1992 36.2002 27.1203 36.2791 27.0415C37.1463 26.3319 37.5405 25.8589 37.9347 25.4647C38.1712 25.1494 38.4077 24.7552 38.6442 24.1245C39.1173 22.8631 40.2998 20.4979 42.5861 19.2365C43.4534 18.7635 44.3206 18.4481 45.3455 18.2905C45.7397 18.2116 46.1339 18.2905 46.2127 18.6058C46.2915 18.7635 46.3704 19.0788 46.4492 19.2365C46.528 19.3942 46.4492 19.473 46.2915 19.5519C44.9513 20.1037 43.611 20.8921 42.665 22.1535C41.5612 23.5726 41.3247 25.3071 42.0343 26.2531C42.5861 26.9627 43.3745 27.1203 44.2417 26.805C45.5031 26.4108 46.528 25.3071 47.0799 23.9668C47.6318 22.5477 47.7895 20.971 47.3164 19.473C47.2376 19.2365 47.3164 19 47.4741 18.9212C47.7895 18.6846 48.2625 18.4481 48.3413 18.3693C48.6567 18.2116 48.972 18.2905 49.1297 18.527C49.6027 19.1577 49.8392 20.1037 49.8392 21.1286C49.8392 21.3651 49.9181 21.3651 50.0758 21.2075C50.8641 20.3402 51.6525 19.473 52.4409 18.7635C53.2293 18.1328 54.2542 17.6597 55.1214 17.6597C56.304 17.6597 56.9347 18.527 56.8558 19.9461C56.8558 20.1037 57.0135 20.1037 57.0924 20.0249C57.4865 19.473 57.7231 19.2365 58.1173 18.9212C58.9845 18.2116 59.7729 17.8963 60.7189 17.9751C61.8227 18.0539 62.6899 19.0788 62.5322 20.1826C62.4534 20.8921 61.9803 21.6017 61.3496 21.917C60.7977 22.2324 60.0882 22.1535 59.6152 21.7593C59.221 21.444 59.1422 20.8921 59.221 20.4191C59.221 20.3402 59.1421 20.1826 58.9845 20.3402C57.8807 21.444 57.8019 22.8631 58.5114 23.5726C59.2998 24.2822 60.4036 23.8091 61.2708 23.2573C62.8475 22.2324 64.0301 20.8921 65.3704 19.7884C66.3164 19.0788 67.3413 18.4481 68.5239 18.2905C69.1546 18.2116 69.7853 18.2116 70.416 18.527C71.2832 18.8423 71.7563 19.5519 71.8351 20.1826C71.8351 20.3403 71.9928 20.4191 72.0716 20.2614C72.7023 19.2365 76.3289 13.8755 76.6442 13.3236C76.7231 13.166 76.8019 13.0871 77.0384 13.0871C77.8268 13.0871 78.8517 13.0871 79.5612 13.0871C79.7978 13.4025 79.7978 13.4813 79.7978 13.5602Z" fill="#343434"/>
</svg>
