<svg width="16" height="12" viewBox="0 0 16 12" fill="none" xmlns="http://www.w3.org/2000/svg">
<path d="M6.63125 8.9063C6.91875 9.1938 7.33437 9.32817 7.87812 9.30942C8.42187 9.29067 8.81875 9.08755 9.06875 8.70005L12.425 3.45005C12.5125 3.31255 12.5031 3.19067 12.3969 3.08442C12.2906 2.97817 12.1687 2.9688 12.0312 3.0563L6.8375 6.45005C6.4625 6.70005 6.2625 7.10005 6.2375 7.65005C6.2125 8.20005 6.34375 8.6188 6.63125 8.9063ZM7.9625 0.0187988C8.525 0.0187988 9.11562 0.0937988 9.73437 0.243799C10.3531 0.393799 10.9625 0.637549 11.5625 0.975049C11.7 1.06255 11.7937 1.18324 11.8437 1.33711C11.8937 1.49099 11.8687 1.63786 11.7687 1.77774C11.6687 1.91761 11.5406 1.99692 11.3844 2.01567C11.2281 2.03442 11.075 2.0063 10.925 1.9313C10.4125 1.6563 9.89062 1.4563 9.35937 1.3313C8.82812 1.2063 8.3625 1.1438 7.9625 1.1438C6.2065 1.1438 4.71125 1.77017 3.47675 3.02292C2.24225 4.27555 1.625 5.7928 1.625 7.57467C1.625 8.13742 1.70312 8.7063 1.85937 9.2813C2.01562 9.8563 2.2375 10.3875 2.525 10.875H13.3812C13.6562 10.425 13.875 9.90005 14.0375 9.30005C14.2 8.70005 14.2812 8.11255 14.2812 7.53755C14.2812 7.10005 14.225 6.62817 14.1125 6.12192C14 5.61567 13.8125 5.1313 13.55 4.6688C13.4625 4.5313 13.4281 4.3813 13.4469 4.2188C13.4656 4.0563 13.5437 3.9313 13.6812 3.8438C13.8142 3.7438 13.96 3.7188 14.1185 3.7688C14.277 3.8188 14.3937 3.9188 14.4687 4.0688C14.7562 4.6313 14.9781 5.19067 15.1344 5.74692C15.2906 6.30317 15.3812 6.86255 15.4062 7.42505C15.4312 8.17505 15.3562 8.8813 15.1812 9.5438C15.0062 10.2063 14.75 10.8188 14.4125 11.3813C14.2625 11.6688 14.1031 11.8438 13.9344 11.9063C13.7656 11.9688 13.5562 12 13.3062 12H2.6C2.3875 12 2.17812 11.9469 1.97187 11.8407C1.76562 11.7344 1.6125 11.5813 1.5125 11.3813C1.1875 10.7813 0.9375 10.1719 0.7625 9.55317C0.5875 8.93442 0.5 8.27505 0.5 7.57505C0.5 6.53755 0.696875 5.55942 1.09062 4.64067C1.48437 3.72192 2.01875 2.92192 2.69375 2.24067C3.36875 1.55942 4.1605 1.0188 5.069 0.618799C5.9775 0.218799 6.942 0.0187988 7.9625 0.0187988Z" fill="#343434"/>
</svg>
