<svg width="135" height="47" viewBox="0 0 135 47" fill="none" xmlns="http://www.w3.org/2000/svg">
<path d="M59.7354 2.6543C59.7354 2.6543 52.7147 4.59058 37.9231 14.7075L37.1719 18.6944L51.3568 17.3077C51.3568 17.3077 61.8728 6.12721 61.8728 5.95384C61.8729 5.78047 59.7354 2.6543 59.7354 2.6543Z" fill="#C9CDD6"/>
<path d="M34.3034 15.141L36.4124 14.7077C36.4124 14.7077 37.5969 13.3788 38.1458 13.4944C38.6947 13.6099 39.3592 13.6966 39.0414 14.0432C38.7236 14.3899 38.4058 16.0367 37.3079 16.5278C36.2102 17.0188 33.5811 16.6144 34.3034 15.141Z" fill="#000308"/>
<path d="M11.6406 38.3511L14.2527 41.4468C14.2527 41.4468 15.1279 41.6715 16.1148 40.6846C17.1019 39.6977 32.9593 41.8057 32.9593 41.8057C32.9593 41.8057 36.2505 41.8125 38.2243 41.8006C40.1983 41.7888 89.4806 39.6181 89.4806 39.6181L97.12 41.4468C97.12 41.4468 99.8582 40.8567 101.183 41.0794C102.508 41.3019 117.38 40.6187 117.38 40.6187C117.38 40.6187 121.657 41.3821 122.314 40.0792C122.972 38.7763 127.904 21.8659 114.713 21.6027C101.522 21.3395 41.5272 31.4725 41.5272 31.4725L25.7871 22.1949L12.1009 26.4446L11.6406 38.3511Z" fill="#000308"/>
<path d="M134.469 25.5121C134.7 24.2697 132.908 23.6631 132.908 23.6631C132.908 23.6631 133.111 22.8831 132.908 21.6986C132.706 20.5141 132.215 16.7872 131.666 15.7471C131.117 14.7071 130.705 14.5889 130.705 14.5889L130.598 15.227C129.518 14.6781 125.149 14.0715 124.311 13.927C123.474 13.7826 122.335 12.9159 119.735 10.1712C117.135 7.42666 116.037 4.39327 116.037 4.39327L117.77 3.06433C118.146 2.25551 113.581 1.96651 113.581 1.96651C111.992 1.79328 91.8844 0.0886738 80.1262 0.00198938C68.368 -0.084695 59.2386 2.68865 58.7474 3.00645C58.2564 3.32411 58.5452 4.27765 58.5452 4.27765C56.0606 4.71107 40.2868 15.5736 39.3045 15.8337C38.3221 16.0936 35.8088 16.2092 34.7976 15.7759C33.7864 15.3426 36.011 14.7936 36.011 14.7936C36.011 14.7936 30.4352 14.7359 16.3949 18.1159C2.35448 21.4961 0.852043 25.1365 0.649872 25.9163C0.447562 26.6964 0.158844 27.9097 0.158844 27.9097C-0.0434655 28.9497 0.0724377 32.3296 0.01871 32.7051C-0.0350177 33.0807 0.0440505 33.3693 0.0440505 33.3693C0.0274337 33.507 0.020371 33.6405 0.0199556 33.7706C0.455178 33.8121 1.05505 33.86 1.49885 33.86C2.27929 33.86 4.23024 34.1946 4.13747 35.2909C4.04469 36.3871 4.49071 37.4834 2.91114 37.7994C1.53458 38.0749 0.835565 38.1382 0.370986 37.6208C0.325429 37.6801 0.283748 37.744 0.249822 37.8159C0.0187098 38.3069 0.687675 38.5526 0.687675 38.5526C2.94105 40.1013 14.2462 41.4467 14.2462 41.4467C12.8772 37.7655 12.8415 25.396 25.0042 25.3094C37.167 25.2227 37.3692 41.8055 37.3692 41.8055L97.1137 41.4467C96.3914 39.2389 94.9181 25.8873 108.525 25.9161C122.132 25.9449 121.104 40.7511 121.104 40.7511H121.266C122.826 40.7511 125.917 39.8194 126.957 39.6461C127.997 39.4729 131.406 37.5877 132.62 36.8944C133.833 36.2009 133.515 32.2141 133.515 31.6941C133.515 31.1742 132.909 29.3541 133.024 28.6319C133.14 27.9101 134.237 26.7544 134.469 25.5121Z" fill="#E5E5E3"/>
<path d="M2.90682 37.8004C4.48639 37.4845 4.04037 36.3882 4.13314 35.2918C4.22592 34.1954 2.27497 33.8609 1.49453 33.8609C1.05072 33.8609 0.450858 33.8129 0.0156354 33.7715C0.0120351 35.222 0.941331 36.1856 0.994228 36.6628C1.04352 37.1068 0.63212 37.2765 0.366528 37.6219C0.831245 38.1392 1.53026 38.0758 2.90682 37.8004Z" fill="#5E5E5E"/>
<path d="M117.317 2.78125C117.317 2.78125 117.805 3.03923 118.55 3.49799C119.295 3.95662 129.443 12.0689 131.02 15.1075C132.596 18.146 127.694 16.3114 127.694 16.3114L113.82 7.96971C113.82 7.96971 114.25 3.72716 117.317 2.78125Z" fill="#C9CDD6"/>
<path d="M41.5234 17.6794C41.5234 17.6794 51.464 8.43212 59.0546 5.50396C66.6449 2.57566 72.5401 2.30966 86.0255 2.6546C99.5109 2.99954 105.29 4.34799 107.718 6.3517C110.145 8.35527 111.301 9.6032 111.147 10.6746C110.993 11.7459 110.03 14.3274 108.989 14.4815C107.949 14.6356 81.3249 15.9842 80.7854 16.0227C80.2459 16.0612 41.5234 17.6794 41.5234 17.6794Z" fill="#151616"/>
<path d="M50.2661 11.8226L49.7266 16.4462L79.5103 15.3674L83.2092 3.50021C83.2092 3.50021 67.4503 2.76825 62.0949 5.15706C56.7391 7.54572 54.8127 8.23934 50.2661 11.8226Z" fill="#C9CDD6"/>
<path d="M88.7711 4.09964L86.5065 12.5846C86.5065 12.5846 86.1052 13.7598 86.5065 13.9893C86.9078 14.2186 99.2627 13.7026 99.2627 13.7026C99.2627 13.7026 108.092 13.5307 108.407 13.2439C108.722 12.9572 110.242 11.183 109.467 9.92023C108.694 8.65749 106.601 6.3929 102.273 5.47565C97.944 4.55813 89.7457 3.92752 88.7711 4.09964Z" fill="#C9CDD6"/>
<path d="M73.4784 38.4912C72.9689 38.4912 72.6247 38.4747 72.5687 38.4718L40.8089 38.1686L40.7813 38.0676C38.8355 30.965 39.302 23.3145 39.8206 20.2616C40.2882 17.5074 41.7454 17.4577 41.8073 17.457C41.8837 17.4527 41.9464 17.5172 41.9474 17.5938C41.9484 17.6699 41.8876 17.7324 41.8116 17.7339C41.757 17.7354 40.5193 17.8012 40.0937 20.308C39.5812 23.3256 39.1199 30.8664 41.021 37.8937L72.5773 38.1952C72.6412 38.1982 78.3993 38.4716 79.2569 36.661C80.1569 34.761 83.4809 20.9159 82.6232 15.5171L82.619 15.4908L82.625 15.4647L85.549 2.61453C85.566 2.5399 85.6404 2.4935 85.7147 2.51026C85.7894 2.52729 85.836 2.60151 85.819 2.67601L82.9008 15.5003C83.7502 20.9614 80.4123 34.8692 79.5072 36.7798C78.7848 38.3041 75.1953 38.4912 73.4784 38.4912Z" fill="#020305"/>
<path d="M1.14844 27.45C1.14844 27.45 1.24897 26.0105 2.93225 25.0714C4.69765 24.0866 5.64536 23.9937 6.25852 24.3652C6.87169 24.7369 7.72648 25.8704 7.78229 26.5208C7.83795 27.1712 8.04248 28.5277 6.57438 28.5648C5.10642 28.6021 1.39007 29.3081 1.14844 27.45Z" fill="#C9CDD6"/>
<path d="M120.377 18.7976C120.377 18.7976 121.972 16.9177 125.057 16.9436C128.143 16.9697 131.381 17.7605 131.331 19.8348C131.281 21.9091 126.821 21.2609 126.821 21.2609C126.821 21.2609 119.223 20.6256 120.377 18.7976Z" fill="#F42134"/>
<path d="M113.131 27.1664C113.067 27.1664 113.009 27.1217 112.995 27.0566C112.979 26.9818 113.027 26.9083 113.102 26.8925L122.048 25.0029C124.79 24.702 132.054 23.7079 132.898 22.7092C132.947 22.6509 133.034 22.6434 133.093 22.6929C133.151 22.7422 133.159 22.8296 133.109 22.888C132.022 24.1751 122.497 25.2317 122.092 25.2761L113.159 27.1636C113.15 27.1654 113.14 27.1664 113.131 27.1664Z" fill="#020305"/>
<path d="M47.5879 15.8976C47.5879 15.8976 46.5593 14.2476 49.109 12.8763C51.659 11.505 51.659 13.6049 51.6805 14.0548C51.7018 14.5049 51.8091 16.1333 50.9949 16.2833C50.1807 16.4334 47.7893 16.6063 47.5879 15.8976Z" fill="#E5E5E3"/>
<path d="M33.625 23.0477C33.625 23.0477 33.8581 23.6301 34.2462 23.8243C34.6346 24.0184 35.2558 23.9797 36.0325 23.9409C36.8092 23.902 38.1685 23.8049 37.9548 23.203C37.7411 22.6012 34.1493 22.6788 33.625 23.0477Z" fill="#C6E0DB"/>
<path d="M118.496 37.0565C118.496 42.5115 114.074 46.9334 108.619 46.9334C103.164 46.9334 98.7422 42.5115 98.7422 37.0565C98.7422 31.6016 103.164 27.1797 108.619 27.1797C114.074 27.1797 118.496 31.6016 118.496 37.0565Z" fill="#27262C"/>
<path d="M101.18 37.0565C101.18 41.1772 104.52 44.5177 108.641 44.5177C112.762 44.5177 116.102 41.1772 116.102 37.0565C116.102 32.9361 112.762 29.5957 108.641 29.5957C104.52 29.5957 101.18 32.9361 101.18 37.0565Z" fill="#C3BFBE"/>
<path d="M106.052 32.0541L107.778 34.0165C107.778 34.0165 108.077 34.4874 108.485 34.4874C108.893 34.4874 109.191 34.1577 109.191 34.1577L110.997 32.0541C110.997 32.0541 111.248 31.7559 110.997 31.5519C110.745 31.3478 109.864 31.0498 108.641 31.0498C107.417 31.0497 105.612 31.3794 106.052 32.0541Z" fill="#27262C"/>
<path d="M106.052 42.0581L107.778 40.0958C107.778 40.0958 108.077 39.625 108.485 39.625C108.893 39.625 109.192 39.9546 109.192 39.9546L110.996 42.0581C110.996 42.0581 111.248 42.3564 110.996 42.5602C110.745 42.7643 109.864 43.0626 108.641 43.0626C107.417 43.0628 105.612 42.733 106.052 42.0581Z" fill="#27262C"/>
<path d="M113.699 34.5617L111.737 36.2883C111.737 36.2883 111.266 36.5866 111.266 36.9945C111.266 37.403 111.596 37.7011 111.596 37.7011L113.699 39.5065C113.699 39.5065 113.997 39.7577 114.201 39.5065C114.406 39.2553 114.704 38.3742 114.704 37.1508C114.704 35.9271 114.374 34.122 113.699 34.5617Z" fill="#27262C"/>
<path d="M103.693 34.5617L105.655 36.2883C105.655 36.2883 106.126 36.5866 106.126 36.9945C106.126 37.403 105.796 37.7009 105.796 37.7009L103.693 39.5064C103.693 39.5064 103.394 39.7577 103.19 39.5064C102.986 39.2551 102.688 38.3742 102.688 37.1507C102.688 35.9273 103.017 34.122 103.693 34.5617Z" fill="#27262C"/>
<path d="M34.7146 37.0565C34.7146 42.5115 30.2926 46.9334 24.8376 46.9334C19.3828 46.9334 14.9609 42.5115 14.9609 37.0565C14.9609 31.6016 19.3829 27.1797 24.8376 27.1797C30.2927 27.1797 34.7146 31.6016 34.7146 37.0565Z" fill="#27262C"/>
<path d="M17.3984 37.0565C17.3984 41.1772 20.7391 44.5177 24.8602 44.5177C28.9806 44.5177 32.3206 41.1772 32.3206 37.0565C32.3206 32.9361 28.9806 29.5957 24.8602 29.5957C20.7391 29.5957 17.3984 32.9361 17.3984 37.0565Z" fill="#C3BFBE"/>
<path d="M22.2707 32.0541L23.9972 34.0165C23.9972 34.0165 24.2954 34.4874 24.7035 34.4874C25.112 34.4874 25.4103 34.1577 25.4103 34.1577L27.2154 32.0541C27.2154 32.0541 27.4665 31.7559 27.2154 31.5519C26.9644 31.3478 26.0833 31.0498 24.8601 31.0498C23.636 31.0497 21.8309 31.3794 22.2707 32.0541Z" fill="#27262C"/>
<path d="M22.2706 42.0581L23.9968 40.0958C23.9968 40.0958 24.2956 39.625 24.7036 39.625C25.1118 39.625 25.4104 39.9546 25.4104 39.9546L27.2152 42.0581C27.2152 42.0581 27.4665 42.3564 27.2152 42.5602C26.964 42.7643 26.0831 43.0626 24.8599 43.0626C23.6361 43.0628 21.8311 42.733 22.2706 42.0581Z" fill="#27262C"/>
<path d="M29.9253 34.5617L27.9634 36.2883C27.9634 36.2883 27.4922 36.5866 27.4922 36.9945C27.4922 37.403 27.822 37.7011 27.822 37.7011L29.9254 39.5065C29.9254 39.5065 30.224 39.7577 30.4276 39.5065C30.6321 39.2553 30.9305 38.3742 30.9305 37.1508C30.9303 35.9271 30.6004 34.122 29.9253 34.5617Z" fill="#27262C"/>
<path d="M19.9273 34.5617L21.8895 36.2883C21.8895 36.2883 22.3602 36.5866 22.3602 36.9945C22.3602 37.403 22.0305 37.7009 22.0305 37.7009L19.9272 39.5064C19.9272 39.5064 19.6286 39.7577 19.4241 39.5064C19.2203 39.2551 18.9219 38.3742 18.9219 37.1507C18.9222 35.9273 19.252 34.122 19.9273 34.5617Z" fill="#27262C"/>
</svg>
