<svg width="170" height="66" viewBox="0 0 170 66" fill="none" xmlns="http://www.w3.org/2000/svg">
<path d="M12.8584 58.3385H16.5101H32.6378L36.6698 58.905C36.6698 58.905 40.3392 47.4886 35.9851 44.6241C31.631 41.7597 8.8265 35.7453 12.8584 58.3385Z" fill="#0A0A0A"/>
<path d="M38.648 48.4395C38.648 48.4395 40.3976 54.5271 40.1694 56.8854C39.9413 59.2438 37.811 58.8633 37.811 58.8633L35.1484 50.2209L38.648 48.4395Z" fill="#575757"/>
<path d="M100.652 50.1895H98.0703V56.1605H100.652V50.1895Z" fill="#0A0A0A"/>
<path d="M101.541 53.2559H95.5703V56.1607H101.541V53.2559Z" fill="#0A0A0A"/>
<path d="M125.933 48.3772C125.933 48.3772 122.06 49.3372 121.678 54.7189C121.296 60.1005 122.051 59.0507 122.051 59.0507L124.372 59.5753L140.237 59.4009L141.07 59.5987L141.398 59.9528H142.184C142.184 59.9528 143.325 50.2234 136.763 48.3772C130.201 46.5309 125.933 48.3772 125.933 48.3772Z" fill="#0A0A0A"/>
<path d="M103.288 59.3308C103.288 59.3308 101.205 48.255 110.163 47.8037C119.121 47.3522 118.565 48.5674 118.565 48.5674C118.565 48.5674 123.704 52.352 122.558 60.0253L121.509 59.5392L103.288 59.3308Z" fill="#0A0A0A"/>
<path d="M38.9219 42.9883L156.367 43.6986C156.367 43.6986 162.784 46.3359 166.496 46.5387V49.5816L40.1257 50.1901L38.9219 42.9883Z" fill="#232222"/>
<path d="M96.7004 49.1406H42.4766V55.5152H96.7004V49.1406Z" fill="#7C7A7A"/>
<path d="M40.5407 41.0465C40.5407 41.0465 41.0739 50.669 40.5376 50.7404C40.0014 50.8119 36.3878 50.7237 36.3878 50.7237L35.8865 51.1445L35.4876 51.3191L30.6647 45.9886L17.9337 46.1483L13.6424 51.5685L12.5338 57.7219H4.18646L2.44266 55.7516L1.82812 52.638V46.0825L14.1766 39.1562L40.5407 41.0465Z" fill="#575757"/>
<path d="M1.73073 20.8184C1.5035 23.2391 0.951016 29.6593 1.28354 32.9441L3.42014 32.006V20.8184H1.73073Z" fill="#C9CDD6"/>
<path d="M4.32196 19.8506H1.82507C1.82507 19.8506 1.78916 20.3347 1.73438 20.8189H3.42371V32.0066L4.07335 31.6881L4.32196 19.8506Z" fill="#3F3F3F"/>
<path d="M1.80056 18.3916L0.6875 20.3695H3.30623L3.73042 18.3916H1.80056Z" fill="#575757"/>
<path d="M38.2127 17.7821L29.1345 3.68066L27.7671 3.78499C27.0662 3.78499 25.7483 3.68066 24.0723 3.68066C18.2258 3.6805 8.02448 4.32544 4.48646 8.57152C0.217544 13.6945 2.55909 16.997 2.55909 16.997L1.79577 18.3162H3.72564L3.30144 20.4141H3.82593V31.0196C3.82593 31.0196 0.770909 31.7319 0.618727 32.8984C0.466626 34.065 0.66973 40.6097 0.66973 40.6097C0.66973 40.6097 0.653832 40.61 0.617683 40.61C0.443554 40.61 -0.0466332 40.7239 0.121525 41.9425C0.324542 43.4134 -0.199459 45.217 0.0886857 45.5719C0.376911 45.9268 0.682712 46.5577 0.682712 46.5577H12.0939C12.0939 46.5577 14.8005 43.0238 16.6661 42.6276C18.5315 42.2313 24.5578 42.1529 24.5578 42.1529L35.1785 41.4719C35.1785 41.4719 36.2937 41.3904 36.2855 41.1634C36.0887 41.1617 36.3362 40.5035 36.3362 40.5035L38.2127 17.7821Z" fill="#C4C8D1"/>
<path d="M40.6038 1.14801C39.3867 0.38726 36.293 2.06094 34.8222 2.61875C33.3515 3.17656 32.3879 3.37949 30.8157 3.43032C30.004 3.45655 29.2216 3.54192 28.6528 3.61834L28.6334 3.81547C28.4378 5.82208 31.7052 15.3534 32.0861 15.9459C32.5681 16.696 32.7303 17.4897 32.7369 17.5229L32.7383 17.5294L32.7394 17.5362C32.7566 17.6472 34.4668 28.6593 34.8163 30.4076C35.1379 32.0156 35.4281 39.7176 35.4905 41.4722C37.0228 41.4836 40.9379 41.508 41.6689 41.4673C42.5818 41.4165 42.3789 40.6558 42.3789 40.6558C42.3789 40.6558 42.0747 12.4577 42.4296 9.21195C42.7847 5.9661 41.8211 1.90876 40.6038 1.14801Z" fill="#C4C8D1"/>
<path d="M33.2661 56.7874C33.2661 61.5878 29.3747 65.4792 24.5743 65.4792C19.7742 65.4792 15.8828 61.5878 15.8828 56.7874C15.8828 51.9868 19.7742 48.0957 24.5743 48.0957C29.3748 48.0957 33.2661 51.9868 33.2661 56.7874Z" fill="#27262C"/>
<path d="M18.0312 56.7864C18.0312 60.4129 20.9712 63.3523 24.5976 63.3523C28.2236 63.3523 31.1626 60.4129 31.1626 56.7864C31.1626 53.1604 28.2235 50.2207 24.5976 50.2207C20.9712 50.2207 18.0312 53.1604 18.0312 56.7864Z" fill="#C3BFBE"/>
<path d="M22.3172 52.3841L23.8367 54.1111C23.8367 54.1111 24.0993 54.5253 24.4583 54.5253C24.8175 54.5253 25.0801 54.2354 25.0801 54.2354L26.6685 52.3841C26.6685 52.3841 26.8895 52.1214 26.6685 51.942C26.4481 51.7624 25.6726 51.5 24.5962 51.5C23.5188 51.5001 21.9303 51.7899 22.3172 52.3841Z" fill="#27262C"/>
<path d="M22.3171 61.1877L23.8366 59.4606C23.8366 59.4606 24.0996 59.0469 24.4586 59.0469C24.8173 59.0469 25.0803 59.3366 25.0803 59.3366L26.6688 61.1877C26.6688 61.1877 26.8898 61.4502 26.6688 61.6295C26.4478 61.8095 25.6724 62.0719 24.5963 62.0719C23.519 62.0719 21.9306 61.7818 22.3171 61.1877Z" fill="#27262C"/>
<path d="M29.0554 54.5907L27.3285 56.1104C27.3285 56.1104 26.9141 56.3725 26.9141 56.7317C26.9141 57.0914 27.2041 57.3535 27.2041 57.3535L29.0554 58.9422C29.0554 58.9422 29.318 59.163 29.497 58.9422C29.677 58.7215 29.9396 57.9454 29.9396 56.8692C29.9396 55.7925 29.6494 54.2036 29.0554 54.5907Z" fill="#27262C"/>
<path d="M20.2437 54.5907L21.9705 56.1104C21.9705 56.1104 22.3848 56.3725 22.3848 56.7317C22.3848 57.0908 22.0946 57.3533 22.0946 57.3533L20.2437 58.9422C20.2437 58.9422 19.9812 59.163 19.8012 58.9422C19.6218 58.7208 19.3594 57.9454 19.3594 56.8692C19.3594 55.7925 19.6499 54.2036 20.2437 54.5907Z" fill="#27262C"/>
<path d="M0.53125 49.1406H4.39148V58.8635C4.39148 58.8635 2.18324 58.7895 1.32493 57.5021C0.466713 56.2146 0.534973 54.224 0.534973 54.224L0.53125 49.1406Z" fill="#3F3F3F"/>
<path d="M3.7486 50.834H0.84375V51.7216H3.7486V50.834Z" fill="#FF9F06"/>
<path d="M12.2508 58.8238H13.4679L14.1077 51.7467L17.8983 46.8816H30.5087C30.5087 46.8816 36.1722 49.6251 36.1722 58.8238H37.8116C37.8116 58.8238 37.1019 47.2044 30.9151 45.1064H18.0324C18.0324 45.1064 10.7157 49.5444 12.2508 58.8238Z" fill="#262626"/>
<path d="M9.3547 18.3164C9.3547 18.3164 5.74609 18.321 5.03044 19.3119C4.31464 20.3027 4.11145 27.4399 4.55194 30.4676L4.78546 30.9894L19.2373 28.8897V18.3164H9.3547Z" fill="#3F3F3F"/>
<path d="M18.2708 19.0002V28.2813L5.00182 30.1729C5.00182 30.1729 4.0843 21.2002 5.69891 19.8239C7.31352 18.4477 18.2708 19.0002 18.2708 19.0002Z" fill="#C9CDD6"/>
<path d="M4.93339 32.2579C4.93339 32.2579 5.27801 31.6602 5.15479 30.9165C5.0315 30.1727 4.31176 31.2515 4.32039 31.7804C4.32918 32.3095 4.29916 32.2579 4.93339 32.2579Z" fill="#3F3F3F"/>
<path d="M5.8458 31.7811V24.9336H4.79336C4.79336 24.9336 3.91302 26.4276 4.01623 28.1304C4.11943 29.8331 3.82855 31.7811 5.8458 31.7811Z" fill="#232222"/>
<path d="M20.3281 18.1218C20.3281 18.1218 21.4001 27.3059 21.3025 28.5957C21.3025 28.5957 27.9642 27.9249 29.4088 26.2739C30.8534 24.6229 29.9762 18.6378 29.0992 18.1219C28.2221 17.606 20.3281 18.1218 20.3281 18.1218Z" fill="#C9CDD6"/>
<path d="M26.4354 18.1959C28.4685 18.1959 28.8702 18.3393 28.945 18.3832C29.0783 18.4618 29.4343 19.1205 29.6823 20.6555C30.0004 22.6244 29.9787 25.1596 29.1799 26.0725C28.1235 27.2795 23.6437 28.0209 21.6113 28.2553C21.5742 26.3694 20.8442 19.9404 20.6673 18.4047C21.5905 18.3493 24.3294 18.1959 26.4354 18.1959ZM26.4354 17.8916C23.8365 17.8916 20.3281 18.1209 20.3281 18.1209C20.3281 18.1209 21.4001 27.305 21.3025 28.5948C21.3025 28.5948 27.9642 27.924 29.4088 26.273C30.8534 24.622 29.9762 18.6369 29.0992 18.121C28.807 17.949 27.7347 17.8916 26.4354 17.8916Z" fill="#3F3F3F"/>
<path d="M15.8672 39.0507C15.8672 39.0507 17.0423 36.957 18.3304 36.957C19.6185 36.957 19.5591 36.957 19.5591 36.957V39.0848L15.8672 39.0507Z" fill="#373737"/>
<path opacity="0.7" d="M3.02414 39.1523C3.02414 39.1523 3.42315 40.181 0.679688 40.6108V40.1496C0.679688 40.1496 2.3461 40.447 3.02414 39.1523Z" fill="#A3A8AC"/>
<path d="M1.17969 34.5276C1.17969 34.5276 1.26683 34.4303 1.46145 34.2803C1.51108 34.2444 1.56651 34.2041 1.62776 34.1599C1.68739 34.1131 1.7572 34.0697 1.83482 34.026C1.9891 33.9379 2.16128 33.8233 2.37406 33.7369C2.58321 33.6431 2.81149 33.5277 3.07648 33.4468C3.33832 33.3583 3.61864 33.2474 3.93196 33.182C4.54892 33.0068 5.26488 32.8992 6.04604 32.8019C6.82438 32.7268 7.66751 32.6455 8.55922 32.5594C9.45157 32.4776 10.3922 32.3912 11.3654 32.3018C12.339 32.2166 13.3451 32.1286 14.3675 32.0394C15.3901 31.9541 16.4289 31.8674 17.4678 31.7809C18.5072 31.6994 19.5466 31.618 20.5696 31.5377C21.593 31.4616 22.6001 31.3867 23.5748 31.3142C25.5245 31.1727 27.3451 31.0501 28.9062 30.9534C30.4671 30.8529 31.7695 30.7893 32.6803 30.7353C33.1362 30.7123 33.4943 30.6942 33.7383 30.6819C33.9826 30.6702 34.113 30.6641 34.113 30.6641C34.113 30.6641 33.9834 30.6788 33.7407 30.7065C33.4977 30.7335 33.1414 30.7732 32.688 30.8237C31.7806 30.9167 30.4852 31.0631 28.9288 31.2145C27.3725 31.3699 25.5562 31.5412 23.6094 31.7146C22.6357 31.7998 21.6297 31.8876 20.6073 31.9769C19.5847 32.0619 18.5458 32.1486 17.5069 32.2351C16.4675 32.3165 15.4283 32.3978 14.4051 32.4779C13.3817 32.5539 12.3746 32.6286 11.4 32.701C10.4248 32.7693 9.48208 32.8351 8.58843 32.8976C7.69422 32.9559 6.84873 33.011 6.06846 33.0619C5.29593 33.1345 4.58684 33.2044 3.9715 33.346C3.65858 33.3955 3.37938 33.491 3.11641 33.5654C2.85046 33.6327 2.62146 33.735 2.41013 33.8174C1.99006 33.9876 1.67907 34.1661 1.47581 34.3001C1.27377 34.4357 1.17969 34.5276 1.17969 34.5276Z" fill="#A3A8AC"/>
<path d="M3.57948 46.5389C3.57923 46.3134 3.55898 23.9668 3.57948 21.22C3.60054 18.3855 4.63975 17.7825 4.6838 17.7581L4.71607 17.7405L4.75295 17.7393L19.7679 17.3301L19.7779 17.4758L21.456 42.2248L21.1522 42.2454L19.4841 17.6421L4.80531 18.0426C4.65717 18.1547 3.90143 18.8434 3.88368 21.2223C3.86326 23.9678 3.88352 46.3132 3.88368 46.5387L3.57948 46.5389Z" fill="#3F3F3F"/>
<path d="M3.42188 10.0138C3.42188 10.0138 4.00808 9.9807 5.03373 9.92269C6.05914 9.86862 7.52399 9.79108 9.28175 9.69844C11.0389 9.60767 13.089 9.5018 15.2854 9.38827C16.3831 9.32913 17.5175 9.26804 18.6701 9.20591C19.8226 9.14564 20.993 9.07721 22.1631 9.00426C23.3335 8.93753 24.5034 8.86403 25.6545 8.78633C26.2299 8.74638 26.8008 8.70667 27.3648 8.66738C27.9285 8.62542 28.4855 8.58419 29.0331 8.54353C30.1278 8.4538 31.1866 8.37052 32.1887 8.27636C32.6896 8.22762 33.1774 8.18388 33.6479 8.13208C34.1189 8.08302 34.5746 8.03961 35.0101 7.98498C35.4462 7.93342 35.8645 7.88558 36.2606 7.8299C36.6571 7.77689 37.0346 7.73169 37.3863 7.67327C38.0921 7.56878 38.7038 7.45718 39.2072 7.36052C39.4575 7.30597 39.6811 7.25739 39.8754 7.21511C40.0715 7.17711 40.2319 7.12305 40.3656 7.09037C40.6312 7.01856 40.7731 6.98047 40.7731 6.98047C40.7731 6.98047 40.6347 7.02952 40.3753 7.12191C40.1177 7.2214 39.7309 7.33744 39.2349 7.47832C38.7371 7.60775 38.1304 7.76252 37.4271 7.90259C36.7252 8.04897 35.9294 8.19558 35.0578 8.3313C34.1868 8.47194 33.2405 8.60565 32.2377 8.72813C31.2352 8.8532 30.1766 8.97263 29.0799 9.07737C27.9832 9.18106 26.8499 9.28797 25.6966 9.37237C24.5433 9.45702 23.3716 9.53899 22.1993 9.61145C21.0269 9.67737 19.8539 9.7387 18.6994 9.7922C17.5449 9.84957 16.4078 9.88395 15.3076 9.92227C14.2077 9.96189 13.1439 9.98335 12.1351 10.0047C11.1266 10.0279 10.1727 10.0382 9.29225 10.0461C7.53142 10.0633 6.06358 10.0547 5.03623 10.043C4.52264 10.039 4.11904 10.0277 3.84388 10.023C3.56881 10.0168 3.42188 10.0138 3.42188 10.0138Z" fill="#D4D8DD"/>
<path d="M32.7304 17.537L32.7293 17.5302L32.7279 17.5237C32.7213 17.4905 32.5589 16.6968 32.0771 15.9467C31.6961 15.3543 28.4287 5.82288 28.6244 3.81628L28.6438 3.61914C28.112 3.69063 27.7671 3.75429 27.7656 3.75462C28.1241 3.77293 28.3217 3.78665 28.3217 3.78665C28.1187 5.86612 31.3647 15.4012 31.8209 16.1113C32.2775 16.8214 32.4297 17.5832 32.4297 17.5832C32.4297 17.5832 34.1539 28.6925 34.509 30.4674C34.8231 32.0381 35.1142 39.7228 35.177 41.4706C35.2632 41.4713 35.3652 41.4721 35.4814 41.473C35.4191 39.7183 35.1288 32.0164 34.8073 30.4083C34.4578 28.6601 32.7476 17.648 32.7304 17.537Z" fill="black"/>
<path d="M103.636 50.1897H41.2656V46.5586H105.817L103.636 50.1897Z" fill="#8A8685"/>
<path d="M102.511 54.9502H38.2812V58.8233H102.511V54.9502Z" fill="#8A8685"/>
<path d="M121.516 56.7874C121.516 61.5878 117.625 65.4792 112.824 65.4792C108.024 65.4792 104.133 61.5878 104.133 56.7874C104.133 51.9868 108.024 48.0957 112.824 48.0957C117.625 48.0957 121.516 51.9868 121.516 56.7874Z" fill="#27262C"/>
<path d="M106.273 56.7864C106.273 60.4129 109.213 63.3523 112.84 63.3523C116.466 63.3523 119.405 60.4129 119.405 56.7864C119.405 53.1604 116.466 50.2207 112.84 50.2207C109.213 50.2207 106.273 53.1604 106.273 56.7864Z" fill="#C3BFBE"/>
<path d="M110.567 52.3851L112.087 54.1121C112.087 54.1121 112.349 54.5262 112.708 54.5262C113.068 54.5262 113.33 54.2364 113.33 54.2364L114.919 52.3851C114.919 52.3851 115.14 52.1224 114.919 51.943C114.698 51.7634 113.923 51.501 112.846 51.501C111.769 51.5011 110.18 51.7909 110.567 52.3851Z" fill="#27262C"/>
<path d="M110.567 61.1887L112.087 59.4616C112.087 59.4616 112.35 59.0479 112.709 59.0479C113.067 59.0479 113.33 59.3376 113.33 59.3376L114.919 61.1887C114.919 61.1887 115.14 61.4512 114.919 61.6305C114.698 61.8104 113.922 62.0728 112.846 62.0728C111.769 62.0728 110.18 61.7828 110.567 61.1887Z" fill="#27262C"/>
<path d="M117.298 54.5927L115.571 56.1124C115.571 56.1124 115.156 56.3745 115.156 56.7336C115.156 57.0933 115.446 57.3555 115.446 57.3555L117.298 58.9442C117.298 58.9442 117.56 59.165 117.739 58.9442C117.919 58.7234 118.182 57.9474 118.182 56.8712C118.182 55.7945 117.892 54.2055 117.298 54.5927Z" fill="#27262C"/>
<path d="M108.494 54.5917L110.22 56.1114C110.22 56.1114 110.635 56.3735 110.635 56.7326C110.635 57.0918 110.345 57.3543 110.345 57.3543L108.494 58.9432C108.494 58.9432 108.231 59.164 108.051 58.9432C107.872 58.7218 107.609 57.9464 107.609 56.8702C107.609 55.7935 107.9 54.2045 108.494 54.5917Z" fill="#27262C"/>
<path d="M140.837 56.7874C140.837 61.5878 136.945 65.4792 132.145 65.4792C127.345 65.4792 123.453 61.5878 123.453 56.7874C123.453 51.9868 127.345 48.0957 132.145 48.0957C136.945 48.0957 140.837 51.9868 140.837 56.7874Z" fill="#27262C"/>
<path d="M125.594 56.7864C125.594 60.4129 128.534 63.3523 132.16 63.3523C135.786 63.3523 138.725 60.4129 138.725 56.7864C138.725 53.1604 135.786 50.2207 132.16 50.2207C128.534 50.2207 125.594 53.1604 125.594 56.7864Z" fill="#C3BFBE"/>
<path d="M129.888 52.3841L131.407 54.1111C131.407 54.1111 131.67 54.5253 132.029 54.5253C132.388 54.5253 132.65 54.2354 132.65 54.2354L134.239 52.3841C134.239 52.3841 134.46 52.1214 134.239 51.942C134.018 51.7624 133.243 51.5 132.167 51.5C131.089 51.5001 129.501 51.7899 129.888 52.3841Z" fill="#27262C"/>
<path d="M129.887 61.1877L131.407 59.4606C131.407 59.4606 131.67 59.0469 132.029 59.0469C132.387 59.0469 132.651 59.3366 132.651 59.3366L134.239 61.1877C134.239 61.1877 134.46 61.4502 134.239 61.6295C134.018 61.8095 133.243 62.0719 132.167 62.0719C131.089 62.0719 129.501 61.7818 129.887 61.1877Z" fill="#27262C"/>
<path d="M136.626 54.5907L134.899 56.1104C134.899 56.1104 134.484 56.3725 134.484 56.7317C134.484 57.0914 134.774 57.3535 134.774 57.3535L136.626 58.9422C136.626 58.9422 136.888 59.163 137.067 58.9422C137.247 58.7215 137.51 57.9454 137.51 56.8692C137.51 55.7925 137.22 54.2036 136.626 54.5907Z" fill="#27262C"/>
<path d="M127.814 54.5907L129.541 56.1104C129.541 56.1104 129.955 56.3725 129.955 56.7317C129.955 57.0908 129.665 57.3533 129.665 57.3533L127.814 58.9422C127.814 58.9422 127.552 59.163 127.371 58.9422C127.192 58.7208 126.93 57.9454 126.93 56.8692C126.93 55.7925 127.22 54.2036 127.814 54.5907Z" fill="#27262C"/>
<path d="M169.241 0H42.2344V43.3306H169.241V0Z" fill="#EDEDED"/>
<path d="M168.918 0.322761V43.0886H42.4764V0.322761H168.918ZM169.241 0H42.2344V43.3306H169.241V0Z" fill="#262626"/>
</svg>
