<svg width="80" height="52" viewBox="0 0 80 52" fill="none" xmlns="http://www.w3.org/2000/svg">
<path fill-rule="evenodd" clip-rule="evenodd" d="M80 25.7266C80.0027 45.6392 53.3987 51.682 47.5271 51.4471C42.6561 51.2523 43.4163 48.8625 46.5876 47.8055C49.7581 46.7495 64.2124 42.1042 65.3199 33.2428C65.7305 29.954 59.6773 29.5248 40 29.4847C20.3614 29.4447 14.2695 29.9545 14.6806 33.2428C15.7881 42.1037 30.2419 46.749 33.4128 47.8055C36.5837 48.8625 37.3435 51.2523 32.4733 51.4471C26.6013 51.682 -0.00318609 45.6388 2.86197e-07 25.7266C0.00273147 5.73619 26.6013 -0.22826 32.4733 0.00662216C37.3435 0.201447 36.5837 2.59032 33.4128 3.64775C30.2419 4.70471 15.7881 9.34955 14.6806 18.2109C14.2695 21.4992 20.2358 21.9708 40 21.969C59.6777 21.9672 65.7305 21.4992 65.3199 18.2109C64.2119 9.35 49.7576 4.70471 46.5876 3.64775C43.4163 2.59078 42.6561 0.201902 47.5271 0.00662216C53.3983 -0.22826 79.9973 5.73619 80 25.7266ZM13.5353 21.4637C12.9759 21.217 12.6194 21.1587 12.416 21.2939C12.2125 21.4296 11.9412 21.5994 11.4664 21.8707C10.9916 22.142 10.7545 22.4811 11.4323 22.7187C14.6137 23.8316 35.3948 23.8039 40.1097 23.8039C44.8237 23.8039 65.6053 23.8316 68.7867 22.7187C69.4649 22.4815 69.2278 22.142 68.753 21.8707C68.2782 21.5994 68.006 21.4296 67.8034 21.2939C67.6 21.1583 67.2435 21.2165 66.6841 21.4637C64.0722 22.6172 65.5807 23.0578 40.1102 23.0578C14.6382 23.0583 16.1472 22.6172 13.5353 21.4637ZM78.4724 26.3198C78.5684 24.1862 77.7058 15.8457 68.9783 9.41646C60.2494 2.98725 51.9466 1.923 49.9879 1.58206C48.0301 1.24157 46.0291 1.41182 49.7326 2.39095C64.7914 6.3721 69.6588 12.8227 72.4692 18.6556C75.2796 24.489 69.7444 24.4885 66.0823 24.6164C62.5245 24.7407 49.515 24.7844 40.1092 24.7867C30.7031 24.7844 17.6944 24.7407 14.1352 24.6164C10.4736 24.4885 4.93843 24.489 7.74882 18.6556C10.5588 12.8227 15.4266 6.3721 30.4855 2.39095C34.1899 1.41182 32.1884 1.24157 30.2296 1.58206C28.2709 1.923 19.9686 2.98725 11.2397 9.41646C2.51223 15.8461 1.65055 24.1862 1.74568 26.3198C1.81533 27.8797 2.25687 26.8309 2.2992 26.2346C2.34199 25.6383 2.84726 19.5628 7.63366 14.4769C8.17625 13.9002 8.51583 14.0699 8.10843 14.7819C7.70148 15.4943 4.10633 20.2424 4.41177 26.6188C4.71721 32.9952 9.65155 45.0243 31.4432 49.6145C32.0878 49.7497 33.614 49.6145 31.4773 49.0036C29.3406 48.3927 14.95 45.1754 8.82127 34.7928C3.05483 25.0252 12.1783 26.1108 16.7572 26.0089C20.8972 25.9165 33.5221 25.9911 39.3126 26.0061V26.0089L40.1092 26.0079L40.9054 26.0089V26.0061C46.6969 25.9911 59.3213 25.9165 63.4618 26.0089C68.0406 26.1108 77.1641 25.0252 71.3986 34.7932C65.2694 45.1758 50.8792 48.3932 48.7421 49.0041C46.6058 49.6149 48.1312 49.7501 48.7757 49.6149C70.5674 45.0247 75.5026 32.9957 75.8076 26.6193C76.1126 20.2429 72.5179 15.4947 72.111 14.7823C71.7036 14.0704 72.0436 13.9002 72.5857 14.4773C77.3726 19.5628 77.8774 25.6388 77.9202 26.2351C77.9621 26.8309 78.4032 27.8802 78.4724 26.3198Z" fill="#343434"/>
<path d="M78.4724 26.3198C78.5684 24.1862 77.7058 15.8457 68.9783 9.41646C60.2494 2.98725 51.9466 1.923 49.9879 1.58206C48.0301 1.24157 46.0291 1.41182 49.7326 2.39095C64.7914 6.3721 69.6588 12.8227 72.4692 18.6556C75.2796 24.489 69.7444 24.4885 66.0823 24.6164C62.5245 24.7407 49.515 24.7844 40.1092 24.7867C30.7031 24.7844 17.6944 24.7407 14.1352 24.6164C10.4736 24.4885 4.93843 24.489 7.74882 18.6556C10.5588 12.8227 15.4266 6.3721 30.4855 2.39095C34.1899 1.41182 32.1884 1.24157 30.2296 1.58206C28.2709 1.923 19.9686 2.98725 11.2397 9.41646C2.51223 15.8461 1.65055 24.1862 1.74568 26.3198C1.81533 27.8797 2.25687 26.8309 2.2992 26.2346C2.34199 25.6383 2.84726 19.5628 7.63366 14.4769C8.17625 13.9002 8.51583 14.0699 8.10843 14.7819C7.70148 15.4943 4.10633 20.2424 4.41177 26.6188C4.71721 32.9952 9.65155 45.0243 31.4432 49.6145C32.0878 49.7497 33.614 49.6145 31.4773 49.0036C29.3406 48.3927 14.95 45.1754 8.82127 34.7928C3.05483 25.0252 12.1783 26.1108 16.7572 26.0089C20.8972 25.9165 33.5221 25.9911 39.3126 26.0061V26.0089L40.1092 26.0079L40.9054 26.0089V26.0061C46.6969 25.9911 59.3213 25.9165 63.4618 26.0089C68.0406 26.1108 77.1641 25.0252 71.3986 34.7932C65.2694 45.1758 50.8792 48.3932 48.7421 49.0041C46.6058 49.6149 48.1312 49.7501 48.7757 49.6149C70.5674 45.0247 75.5026 32.9957 75.8076 26.6193C76.1126 20.2429 72.5179 15.4947 72.111 14.7823C71.7036 14.0704 72.0436 13.9002 72.5857 14.4773C77.3726 19.5628 77.8774 25.6388 77.9202 26.2351C77.9621 26.8309 78.4032 27.8802 78.4724 26.3198Z" fill="#343434"/>
<path d="M13.5353 21.4637C12.9759 21.217 12.6194 21.1587 12.416 21.2939C12.2125 21.4296 11.9412 21.5994 11.4664 21.8707C10.9916 22.142 10.7545 22.4811 11.4323 22.7187C14.6137 23.8316 35.3948 23.8039 40.1097 23.8039C44.8237 23.8039 65.6053 23.8316 68.7867 22.7187C69.4649 22.4815 69.2278 22.142 68.753 21.8707C68.2782 21.5994 68.006 21.4296 67.8034 21.2939C67.6 21.1583 67.2435 21.2165 66.6841 21.4637C64.0722 22.6172 65.5807 23.0578 40.1102 23.0578C14.6382 23.0583 16.1472 22.6172 13.5353 21.4637Z" fill="#343434"/>
</svg>
