<svg width="80" height="65" viewBox="0 0 80 65" fill="none" xmlns="http://www.w3.org/2000/svg">
<path d="M58.5968 5.37598C56.8047 13.6194 56.0879 17.3828 54.475 23.2966C52.8622 29.2103 51.9662 34.2281 49.9949 36.9162C48.5612 38.8875 46.2316 40.1419 43.7227 40.3211C41.393 40.5003 38.8841 40.5003 36.5545 40.3211C34.0456 40.1419 31.7159 38.8875 30.2823 36.9162C28.311 34.4073 27.2358 29.0311 25.8021 23.2966C24.3685 17.562 23.4724 13.6194 21.6804 5.37598L18.9923 5.55518C17.9171 5.55518 17.021 5.73439 16.125 5.91359C16.125 5.91359 17.2002 22.7589 17.7379 29.9272C18.2755 37.4538 19.1715 49.9982 19.8883 59.6753C19.8883 59.6753 21.5012 59.8545 24.0101 60.0337C26.5189 60.2129 27.9526 60.2129 27.9526 60.2129C29.0278 55.912 30.4615 50.1774 31.8951 47.6685C32.7911 46.2349 34.404 45.3389 36.196 45.3389C37.4505 45.1597 38.7049 45.1597 40.1386 45.1597C41.393 45.1597 42.6475 45.1597 44.0811 45.3389C45.8732 45.3389 47.486 46.2349 48.382 47.6685C49.9949 50.1774 51.2493 55.912 52.3246 60.2129C52.3246 60.2129 53.579 60.2129 56.2671 60.0337C58.9552 59.8545 60.3888 59.6753 60.3888 59.6753C61.2849 50.1774 62.1809 37.4538 62.5393 29.9272C63.0769 22.7589 64.1521 5.91359 64.1521 5.91359C63.2561 5.73439 62.3601 5.73439 61.2849 5.55518L58.5968 5.37598Z" fill="#343434"/>
<path d="M79.7466 15.4117C78.6713 4.65935 71.5031 2.50888 65.2309 1.43365C61.1092 0.896029 56.9874 0.537618 52.8657 0.358412C49.64 0.179206 42.2926 0 40.1421 0C37.9916 0 30.465 0.179206 27.4185 0.358412C23.1175 0.358412 18.9958 0.716823 14.8741 1.43365C8.60188 2.50888 1.43365 4.83856 0.358412 15.4117C0 18.9958 0 22.5799 0 26.164C0 31.0026 0.358412 35.8412 1.07523 40.6797C1.43365 44.8014 2.32967 48.744 3.40491 52.8657C5.01776 57.5251 6.45141 58.9587 8.06426 60.2131C10.9316 62.1844 13.9781 63.2596 17.383 63.7973C32.4362 65.4101 47.4895 65.4101 62.5428 63.7973C65.9477 63.2596 68.9942 62.1844 71.8615 60.2131C73.6536 58.7795 75.0872 57.5251 76.5209 52.8657C77.5961 48.9232 78.4921 44.8014 78.8505 40.6797C79.3882 35.8412 79.7466 31.0026 79.9258 26.164C80.105 22.5799 79.9258 18.9958 79.7466 15.4117ZM75.804 33.3323C75.6248 39.2461 74.7288 44.9806 73.2952 50.7152C72.7575 53.4033 71.3239 55.733 69.3526 57.7043C66.6645 59.8547 63.4388 61.1092 60.2131 61.2884C46.7727 62.722 33.3323 62.722 19.8918 61.2884C16.4869 61.1092 13.4404 59.8547 10.7523 57.7043C8.78108 55.733 7.52664 53.4033 6.80982 50.7152C5.37617 44.9806 4.65935 39.2461 4.30094 33.3323C3.94253 27.4185 3.94253 21.3255 4.48014 15.4117C5.55538 8.60188 8.78108 5.37617 15.9493 4.12173C19.8918 3.40491 24.0136 3.0465 27.9561 2.86729C31.361 2.68809 36.9164 2.50888 40.1421 2.50888C43.3678 2.50888 48.9232 2.50888 52.3281 2.86729C56.2706 3.0465 60.3923 3.40491 64.3349 4.12173C71.5031 5.37617 74.7288 8.78108 75.6248 15.4117C75.9832 21.3255 76.1624 27.4185 75.804 33.3323Z" fill="#343434"/>
</svg>
