<svg width="48" height="48" viewBox="0 0 48 48" fill="none" xmlns="http://www.w3.org/2000/svg">
<g clip-path="url(#clip0_227_7973)">
<g clip-path="url(#clip1_227_7973)">
<g clip-path="url(#clip2_227_7973)">
<path d="M24.0018 0C17.4837 0 16.6657 0.0285004 14.1056 0.145C11.5506 0.262 9.8066 0.6665 8.28058 1.26C6.70208 1.873 5.36306 2.693 4.02904 4.0275C2.69402 5.3615 1.87402 6.7005 1.25901 8.2785C0.664006 9.805 0.259002 11.5495 0.144002 14.1035C0.0300004 16.6635 0 17.482 0 24C0 30.518 0.0290008 31.3336 0.145002 33.8936C0.262504 36.4486 0.667008 38.1926 1.26001 39.7186C1.87352 41.297 2.69352 42.636 4.02804 43.97C5.36156 45.305 6.70058 46.127 8.27808 46.74C9.8051 47.3336 11.5496 47.738 14.1041 47.855C16.6642 47.9716 17.4817 48 23.9992 48C30.5178 48 31.3334 47.9716 33.8934 47.855C36.4484 47.738 38.1944 47.3336 39.7214 46.74C41.2994 46.127 42.6364 45.305 43.97 43.97C45.305 42.636 46.125 41.297 46.74 39.719C47.33 38.1926 47.735 36.448 47.855 33.894C47.97 31.334 48 30.518 48 24C48 17.482 47.97 16.664 47.855 14.104C47.735 11.549 47.33 9.805 46.74 8.279C46.125 6.7005 45.305 5.3615 43.97 4.0275C42.635 2.6925 41.3 1.8725 39.72 1.26C38.19 0.6665 36.4448 0.262 33.8898 0.145C31.3298 0.0285004 30.5148 0 23.9948 0H24.0018ZM21.8488 4.325C22.4878 4.324 23.2008 4.325 24.0018 4.325C30.4098 4.325 31.1694 4.348 33.6998 4.463C36.0398 4.57 37.3098 4.961 38.1558 5.2895C39.276 5.7245 40.0744 6.2445 40.914 7.0845C41.754 7.9245 42.274 8.7245 42.71 9.8445C43.0384 10.6895 43.43 11.9595 43.5364 14.2995C43.6514 16.8295 43.6764 17.5895 43.6764 23.9944C43.6764 30.3994 43.6514 31.1596 43.5364 33.6896C43.4294 36.0294 43.0384 37.2996 42.71 38.1446C42.275 39.2646 41.754 40.062 40.914 40.9016C40.074 41.7416 39.2764 42.2616 38.1558 42.6964C37.3108 43.0266 36.0398 43.4164 33.6998 43.5234C31.1698 43.6384 30.4098 43.6636 24.0018 43.6636C17.5932 43.6636 16.8337 43.6384 14.3036 43.5234C11.9636 43.4154 10.6936 43.0246 9.8471 42.696C8.7271 42.261 7.92708 41.741 7.08708 40.901C6.24706 40.061 5.72706 39.263 5.29106 38.1426C4.96256 37.2976 4.57104 36.0276 4.46454 33.6876C4.34954 31.1576 4.32654 30.3976 4.32654 23.9886C4.32654 17.5795 4.34954 16.8235 4.46454 14.2935C4.57154 11.9535 4.96256 10.6835 5.29106 9.8375C5.72606 8.7175 6.24706 7.9175 7.08708 7.0775C7.92708 6.2375 8.7271 5.7175 9.8471 5.2815C10.6931 4.9515 11.9636 4.5615 14.3036 4.454C16.5177 4.354 17.3757 4.324 21.8488 4.319V4.325Z" fill="url(#paint0_radial_227_7973)"/>
<path d="M36.7628 8.251C36.1932 8.251 35.6364 8.41994 35.1628 8.73644C34.689 9.05294 34.32 9.5028 34.102 10.0291C33.884 10.5554 33.827 11.1345 33.9382 11.6932C34.0494 12.2519 34.3238 12.7651 34.7268 13.1678C35.1296 13.5706 35.6428 13.8448 36.2016 13.9558C36.7604 14.0668 37.3394 14.0096 37.8658 13.7915C38.392 13.5734 38.8416 13.2041 39.158 12.7303C39.4744 12.2566 39.6432 11.6997 39.643 11.13C39.643 9.54 38.3528 8.251 36.7628 8.251Z" fill="url(#paint1_radial_227_7973)"/>
<path fill-rule="evenodd" clip-rule="evenodd" d="M23.9502 11.6162C17.1435 11.6162 11.625 17.1347 11.625 23.9412C11.625 30.7478 17.1435 36.2638 23.9502 36.2638C30.7568 36.2638 36.2738 30.7478 36.2738 23.9412C36.2738 17.1347 30.7568 11.6162 23.9502 11.6162ZM24 31.8752C28.3492 31.8752 31.875 28.3494 31.875 24.0002C31.875 19.651 28.3492 16.1252 24 16.1252C19.6507 16.1252 16.125 19.651 16.125 24.0002C16.125 28.3494 19.6507 31.8752 24 31.8752Z" fill="url(#paint2_radial_227_7973)"/>
<path d="M24.0018 0C17.4837 0 16.6657 0.0285004 14.1056 0.145C11.5506 0.262 9.8066 0.6665 8.28058 1.26C6.70208 1.873 5.36306 2.693 4.02904 4.0275C2.69402 5.3615 1.87402 6.7005 1.25901 8.2785C0.664006 9.805 0.259002 11.5495 0.144002 14.1035C0.0300004 16.6635 0 17.482 0 24C0 30.518 0.0290008 31.3336 0.145002 33.8936C0.262504 36.4486 0.667008 38.1926 1.26001 39.7186C1.87352 41.297 2.69352 42.636 4.02804 43.97C5.36156 45.305 6.70058 46.127 8.27808 46.74C9.8051 47.3336 11.5496 47.738 14.1041 47.855C16.6642 47.9716 17.4817 48 23.9992 48C30.5178 48 31.3334 47.9716 33.8934 47.855C36.4484 47.738 38.1944 47.3336 39.7214 46.74C41.2994 46.127 42.6364 45.305 43.97 43.97C45.305 42.636 46.125 41.297 46.74 39.719C47.33 38.1926 47.735 36.448 47.855 33.894C47.97 31.334 48 30.518 48 24C48 17.482 47.97 16.664 47.855 14.104C47.735 11.549 47.33 9.805 46.74 8.279C46.125 6.7005 45.305 5.3615 43.97 4.0275C42.635 2.6925 41.3 1.8725 39.72 1.26C38.19 0.6665 36.4448 0.262 33.8898 0.145C31.3298 0.0285004 30.5148 0 23.9948 0H24.0018ZM21.8488 4.325C22.4878 4.324 23.2008 4.325 24.0018 4.325C30.4098 4.325 31.1694 4.348 33.6998 4.463C36.0398 4.57 37.3098 4.961 38.1558 5.2895C39.276 5.7245 40.0744 6.2445 40.914 7.0845C41.754 7.9245 42.274 8.7245 42.71 9.8445C43.0384 10.6895 43.43 11.9595 43.5364 14.2995C43.6514 16.8295 43.6764 17.5895 43.6764 23.9944C43.6764 30.3994 43.6514 31.1596 43.5364 33.6896C43.4294 36.0294 43.0384 37.2996 42.71 38.1446C42.275 39.2646 41.754 40.062 40.914 40.9016C40.074 41.7416 39.2764 42.2616 38.1558 42.6964C37.3108 43.0266 36.0398 43.4164 33.6998 43.5234C31.1698 43.6384 30.4098 43.6636 24.0018 43.6636C17.5932 43.6636 16.8337 43.6384 14.3036 43.5234C11.9636 43.4154 10.6936 43.0246 9.8471 42.696C8.7271 42.261 7.92708 41.741 7.08708 40.901C6.24706 40.061 5.72706 39.263 5.29106 38.1426C4.96256 37.2976 4.57104 36.0276 4.46454 33.6876C4.34954 31.1576 4.32654 30.3976 4.32654 23.9886C4.32654 17.5795 4.34954 16.8235 4.46454 14.2935C4.57154 11.9535 4.96256 10.6835 5.29106 9.8375C5.72606 8.7175 6.24706 7.9175 7.08708 7.0775C7.92708 6.2375 8.7271 5.7175 9.8471 5.2815C10.6931 4.9515 11.9636 4.5615 14.3036 4.454C16.5177 4.354 17.3757 4.324 21.8488 4.319V4.325Z" fill="url(#paint3_radial_227_7973)"/>
<path d="M36.7628 8.251C36.1932 8.251 35.6364 8.41994 35.1628 8.73644C34.689 9.05294 34.32 9.5028 34.102 10.0291C33.884 10.5554 33.827 11.1345 33.9382 11.6932C34.0494 12.2519 34.3238 12.7651 34.7268 13.1678C35.1296 13.5706 35.6428 13.8448 36.2016 13.9558C36.7604 14.0668 37.3394 14.0096 37.8658 13.7915C38.392 13.5734 38.8416 13.2041 39.158 12.7303C39.4744 12.2566 39.6432 11.6997 39.643 11.13C39.643 9.54 38.3528 8.251 36.7628 8.251Z" fill="url(#paint4_radial_227_7973)"/>
<path fill-rule="evenodd" clip-rule="evenodd" d="M23.9502 11.6162C17.1435 11.6162 11.625 17.1347 11.625 23.9412C11.625 30.7478 17.1435 36.2638 23.9502 36.2638C30.7568 36.2638 36.2738 30.7478 36.2738 23.9412C36.2738 17.1347 30.7568 11.6162 23.9502 11.6162ZM24 31.8752C28.3492 31.8752 31.875 28.3494 31.875 24.0002C31.875 19.651 28.3492 16.1252 24 16.1252C19.6507 16.1252 16.125 19.651 16.125 24.0002C16.125 28.3494 19.6507 31.8752 24 31.8752Z" fill="url(#paint5_radial_227_7973)"/>
</g>
</g>
</g>
<defs>
<radialGradient id="paint0_radial_227_7973" cx="0" cy="0" r="1" gradientUnits="userSpaceOnUse" gradientTransform="translate(12.7501 51.697) rotate(-90) scale(47.5716 44.2452)">
<stop stop-color="#FFDD55"/>
<stop offset="0.1" stop-color="#FFDD55"/>
<stop offset="0.5" stop-color="#FF543E"/>
<stop offset="1" stop-color="#C837AB"/>
</radialGradient>
<radialGradient id="paint1_radial_227_7973" cx="0" cy="0" r="1" gradientUnits="userSpaceOnUse" gradientTransform="translate(12.7517 51.697) rotate(-90) scale(47.5716 44.2452)">
<stop stop-color="#FFDD55"/>
<stop offset="0.1" stop-color="#FFDD55"/>
<stop offset="0.5" stop-color="#FF543E"/>
<stop offset="1" stop-color="#C837AB"/>
</radialGradient>
<radialGradient id="paint2_radial_227_7973" cx="0" cy="0" r="1" gradientUnits="userSpaceOnUse" gradientTransform="translate(12.75 51.6972) rotate(-90) scale(47.5716 44.2452)">
<stop stop-color="#FFDD55"/>
<stop offset="0.1" stop-color="#FFDD55"/>
<stop offset="0.5" stop-color="#FF543E"/>
<stop offset="1" stop-color="#C837AB"/>
</radialGradient>
<radialGradient id="paint3_radial_227_7973" cx="0" cy="0" r="1" gradientUnits="userSpaceOnUse" gradientTransform="translate(-8.04026 3.45784) rotate(78.6806) scale(21.2646 87.654)">
<stop stop-color="#3771C8"/>
<stop offset="0.128" stop-color="#3771C8"/>
<stop offset="1" stop-color="#6600FF" stop-opacity="0"/>
</radialGradient>
<radialGradient id="paint4_radial_227_7973" cx="0" cy="0" r="1" gradientUnits="userSpaceOnUse" gradientTransform="translate(-8.03865 3.4578) rotate(78.6806) scale(21.2646 87.654)">
<stop stop-color="#3771C8"/>
<stop offset="0.128" stop-color="#3771C8"/>
<stop offset="1" stop-color="#6600FF" stop-opacity="0"/>
</radialGradient>
<radialGradient id="paint5_radial_227_7973" cx="0" cy="0" r="1" gradientUnits="userSpaceOnUse" gradientTransform="translate(-8.04028 3.45801) rotate(78.6806) scale(21.2646 87.654)">
<stop stop-color="#3771C8"/>
<stop offset="0.128" stop-color="#3771C8"/>
<stop offset="1" stop-color="#6600FF" stop-opacity="0"/>
</radialGradient>
<clipPath id="clip0_227_7973">
<rect width="48" height="48" fill="white"/>
</clipPath>
<clipPath id="clip1_227_7973">
<rect width="48" height="48" fill="white"/>
</clipPath>
<clipPath id="clip2_227_7973">
<rect width="48" height="48" fill="white"/>
</clipPath>
</defs>
</svg>
