<svg width="80" height="70" viewBox="0 0 80 70" fill="none" xmlns="http://www.w3.org/2000/svg">
<path d="M75.3494 8.82809C61.0075 -7.50469 32.6249 1.46721 17.3399 14.4339C-1.29808 31.7883 -4.28435 52.1159 5.38173 62.9869C13.6463 70.7014 25.2509 70.3478 35.2706 69.3C43.3256 67.7544 52.2321 64.3098 60.2871 57.9705C66.8228 52.81 72.8085 45.7373 77.2879 36.176C83.7843 22.3187 76.7509 10.3998 75.3494 8.82809ZM59.1738 55.7963C55.1266 59.4767 29.0623 75.6523 11.8913 58.9528C-2.34589 45.1086 10.3064 23.3796 18.0472 16.8962C19.4486 16.189 27.543 6.90273 42.4874 4.97738C53.5811 3.54973 62.9983 6.57529 68.6565 12.8884C71.6035 16.189 73.5288 20.3802 74.1313 25.3049C75.8733 39.6731 63.221 52.1159 59.1738 55.7963Z" fill="#343434"/>
<path d="M23.5312 17.5117V53.0064H38.384V35.8222C38.384 33.4516 37.9387 31.5262 35.2144 28.9853L23.5312 17.5117Z" fill="#343434"/>
<path d="M57.0246 17.5117V53.0064H42.1719V35.8222C42.1719 33.4516 42.6172 31.5262 45.3415 28.9853L57.0246 17.5117Z" fill="#343434"/>
</svg>
