<svg width="117" height="62" viewBox="0 0 117 62" fill="none" xmlns="http://www.w3.org/2000/svg">
<path d="M74.4531 48.375L84.8775 49.6253L84.4619 51.359L74.4531 49.0076V48.375Z" fill="#050102"/>
<path d="M75.1019 43.5409C75.1019 43.5409 74.9411 49.762 81.3727 49.8672C87.8043 49.9724 91.7432 46.7042 91.7432 46.7042L99.7535 46.7053L102.067 46.1007L107.741 45.3758C107.741 45.3758 108.668 42.6218 108.084 41.9157C107.5 41.2097 105.651 39.0391 105.651 39.0391C105.651 39.0391 82.3375 29.392 75.1019 43.5409Z" fill="#050102"/>
<path d="M69.0703 43.1934C69.0703 43.1934 73.7332 49.8314 74.9389 49.6204C76.145 49.4095 75.4215 42.2682 79.2801 43.3467C83.1391 44.4254 69.0703 43.1934 69.0703 43.1934Z" fill="#D5D2BF"/>
<path d="M40.9297 45.7112C40.9297 45.7112 40.9297 47.237 48.567 47.0771C56.2044 46.9171 70.9962 47.5983 77.4277 43.1174C83.8592 38.6368 41.3298 43.6208 40.9297 45.7112Z" fill="#D5D2BF"/>
<path d="M116.207 25.3438H46.7266V44.4189H83.1378C83.1378 44.4189 83.9416 44.2211 84.2233 43.0958C84.5044 41.9702 85.0673 37.8317 94.3526 37.8317C103.638 37.8317 103.196 42.9373 103.758 43.0981C104.321 43.259 106.049 42.8574 106.652 42.4554C107.255 42.0535 115.134 39.7625 115.134 39.7625C115.134 39.7625 116.219 38.6773 116.34 37.4313C116.46 36.1851 116.34 34.4166 116.34 34.4166C116.34 34.4166 117.023 32.9294 116.862 32.4066L116.887 28.0514C116.887 28.0514 116.209 26.731 116.207 25.3438Z" fill="#E8E5DE"/>
<path d="M116.283 25.0379L46.7266 24.7305V25.3449H116.207C116.207 25.3449 116.274 25.145 116.283 25.0379Z" fill="#9C9C9E"/>
<path d="M38.8746 48.928H41.5274C41.5274 48.928 44.4619 48.0438 44.5422 44.3455C44.6224 40.6475 37.7091 46.269 38.8746 48.928Z" fill="#020100"/>
<path d="M10.9472 44.4253L13.7675 48.0202C13.7675 48.0202 14.9387 46.5941 16.1183 47.0774C17.2981 47.5605 30.4998 49.0055 30.4998 49.0055C30.4998 49.0055 38.7223 51.0174 38.823 50.3743C38.9237 49.7311 38.823 45.8723 38.823 45.8723C38.823 45.8723 32.5726 33.0904 26.8649 34.5774C21.157 36.0643 10.7865 39.4411 10.9472 44.4253Z" fill="#020100"/>
<path d="M39.3295 47.5605V55.1576L38.2891 53.429V50.8164V48.0429L39.3295 47.5605Z" fill="#020100"/>
<path d="M4.25647 38.2148L2.42432 38.6769C2.42432 38.6769 -0.215442 40.0374 0.0141534 40.6193C0.24398 41.2013 0.36641 42.3193 0.351265 42.8859C0.335889 43.4525 0.858646 48.8368 6.96813 47.9134C13.0781 46.9903 4.25647 38.2148 4.25647 38.2148Z" fill="#020100"/>
<path d="M2.74349 23.2295L2.15667 23.8049C2.15667 23.8049 1.90269 23.5167 1.63622 24.7675C1.36951 26.0183 0.369267 31.8625 1.33089 34.313C2.29204 36.7633 3.46106 35.0408 3.46106 34.9589C3.46106 34.8768 2.74349 23.2295 2.74349 23.2295Z" fill="#292325"/>
<path d="M46.0551 44.5461V19.3431L45.4254 0.893605C45.4254 0.893605 45.2622 -0.00963324 43.9711 7.77468e-05C42.68 0.00978873 26.2509 0.571399 23.1158 1.29498C19.9804 2.01845 19.6223 2.13916 17.9542 3.64644C16.2862 5.15384 5.84699 18.4989 5.84699 18.4989C5.84699 18.4989 3.12571 22.9204 2.16086 23.0813V23.8048C2.16086 23.8048 2.83415 23.7246 2.83415 24.649C2.83415 25.5735 2.5278 33.9343 2.5278 33.9343L1.28906 34.1352C1.28906 34.1352 1.65461 35.6225 2.2575 37.0695C2.86062 38.5166 2.42004 38.6774 2.42004 38.6774C2.42004 38.6774 3.34582 39.1596 3.4664 40.3254C3.58698 41.4912 3.70781 46.3549 4.31116 46.9177C4.91405 47.4802 5.56721 47.9626 8.3005 47.9626C11.034 47.9626 14.1996 48.4451 14.3204 47.6411C14.441 46.8372 14.8025 36.7882 26.2988 38.1548C37.7949 39.5215 34.0968 48.7263 38.0358 48.3646C38.0358 48.3646 41.935 48.1637 46.0551 44.5461Z" fill="#E8E5DE"/>
<path d="M116.9 24.0723H46.7266V25.1127H116.9V24.0723Z" fill="#D3D2D1"/>
<path d="M36.0263 51.1882C36.0263 56.9213 31.3786 61.5686 25.6452 61.5686C19.9129 61.5686 15.2656 56.9213 15.2656 51.1882C15.2656 45.4549 19.9129 40.8076 25.6452 40.8076C31.3786 40.8076 36.0263 45.4549 36.0263 51.1882Z" fill="#27262C"/>
<path d="M17.8281 51.1882C17.8281 55.519 21.3392 59.0296 25.6705 59.0296C30.001 59.0296 33.5109 55.519 33.5109 51.1882C33.5109 46.8576 30.001 43.3467 25.6705 43.3467C21.3392 43.3467 17.8281 46.8576 17.8281 51.1882Z" fill="#C3BFBE"/>
<path d="M22.9616 45.9306L24.7762 47.9933C24.7762 47.9933 25.0899 48.4879 25.5184 48.4879C25.9477 48.4879 26.2613 48.1413 26.2613 48.1413L28.1582 45.9306C28.1582 45.9306 28.4221 45.6168 28.1582 45.4029C27.8947 45.1883 26.9687 44.875 25.6833 44.875C24.3965 44.8749 22.4996 45.2211 22.9616 45.9306Z" fill="#27262C"/>
<path d="M22.9615 56.4457L24.7757 54.3832C24.7757 54.3832 25.0901 53.8887 25.5186 53.8887C25.9474 53.8887 26.2615 54.235 26.2615 54.235L28.1584 56.4457C28.1584 56.4457 28.4223 56.7593 28.1584 56.9733C27.8947 57.188 26.9682 57.5015 25.683 57.5015C24.3966 57.5016 22.4998 57.1553 22.9615 56.4457Z" fill="#27262C"/>
<path d="M30.9946 48.5671L28.9324 50.3816C28.9324 50.3816 28.4375 50.6951 28.4375 51.1237C28.4375 51.5534 28.7838 51.8663 28.7838 51.8663L30.9946 53.764C30.9946 53.764 31.3085 54.0277 31.5222 53.764C31.7369 53.5001 32.0506 52.5738 32.0506 51.288C32.0507 50.0023 31.7041 48.1047 30.9946 48.5671Z" fill="#27262C"/>
<path d="M20.4861 48.5671L22.5481 50.3816C22.5481 50.3816 23.0427 50.6951 23.0427 51.1237C23.0427 51.5529 22.6962 51.8662 22.6962 51.8662L20.4861 53.764C20.4861 53.764 20.1725 54.0277 19.9573 53.764C19.7432 53.4996 19.4297 52.5738 19.4297 51.288C19.4296 50.0023 19.7766 48.1047 20.4861 48.5671Z" fill="#27262C"/>
<path d="M102.719 49.6214C102.719 55.0216 98.341 59.3989 92.9412 59.3989C87.5415 59.3989 83.1641 55.0216 83.1641 49.6214C83.1641 44.2212 87.5415 39.8438 92.9412 39.8438C98.341 39.8437 102.719 44.2212 102.719 49.6214Z" fill="#27262C"/>
<path d="M85.5781 49.6204C85.5781 53.6998 88.8851 57.0064 92.9648 57.0064C97.0438 57.0064 100.35 53.6998 100.35 49.6204C100.35 45.5414 97.0438 42.2344 92.9648 42.2344C88.8851 42.2344 85.5781 45.5414 85.5781 49.6204Z" fill="#C3BFBE"/>
<path d="M90.395 44.6685L92.1043 46.6113C92.1043 46.6113 92.3996 47.0775 92.8036 47.0775C93.2077 47.0775 93.5031 46.751 93.5031 46.751L95.29 44.6685C95.29 44.6685 95.5383 44.3729 95.29 44.1713C95.0417 43.9692 94.1694 43.6741 92.9587 43.6741C91.7465 43.6742 89.9596 44.0003 90.395 44.6685Z" fill="#27262C"/>
<path d="M90.3949 54.5715L92.1039 52.6289C92.1039 52.6289 92.3998 52.1631 92.8037 52.1631C93.2074 52.1631 93.5032 52.4893 93.5032 52.4893L95.2902 54.5715C95.2902 54.5715 95.5385 54.8669 95.2902 55.0686C95.0416 55.271 94.1691 55.5662 92.9586 55.5662C91.7467 55.5662 89.9598 55.24 90.3949 54.5715Z" fill="#27262C"/>
<path d="M97.9793 47.1509L96.0366 48.8602C96.0366 48.8602 95.5703 49.1553 95.5703 49.559C95.5703 49.9638 95.8968 50.2587 95.8968 50.2587L97.9793 52.046C97.9793 52.046 98.275 52.2944 98.4761 52.046C98.6784 51.7975 98.9738 50.9249 98.9738 49.7137C98.9737 48.5027 98.6474 46.7153 97.9793 47.1509Z" fill="#27262C"/>
<path d="M88.0733 47.1509L90.0158 48.8602C90.0158 48.8602 90.4818 49.1553 90.4818 49.559C90.4818 49.9634 90.1551 50.2586 90.1551 50.2586L88.0733 52.046C88.0733 52.046 87.7779 52.2944 87.5754 52.046C87.3735 51.797 87.0781 50.9249 87.0781 49.7137C87.0781 48.5027 87.4052 46.7153 88.0733 47.1509Z" fill="#27262C"/>
<path d="M33.9375 24.0723H38.7496V25.1313C38.7496 25.1313 33.9375 26.1532 33.9375 24.0723Z" fill="#090600"/>
<path d="M37.4297 27.0615C37.4297 27.461 37.7537 27.7851 38.1534 27.7851C38.553 27.7851 38.8769 27.461 38.8769 27.0615C38.8769 26.6619 38.553 26.3379 38.1534 26.3379C37.7537 26.3379 37.4297 26.6619 37.4297 27.0615Z" fill="#5B5851"/>
<path d="M42.6797 5.11455V8.18957H44.5488C44.5488 8.18957 45.2119 3.90854 42.6797 5.11455Z" fill="#3E0300"/>
<path opacity="0.5" d="M116.786 32.0356L46.9062 34L46.913 34.2412L116.793 32.2768L116.786 32.0356Z" fill="#9D9990"/>
<path opacity="0.5" d="M116.824 33.1291L46.9375 35.2266L46.9447 35.4676L116.831 33.3702L116.824 33.1291Z" fill="#9D9990"/>
<path d="M108.591 39.1984C108.591 40.2367 107.798 41.0785 106.819 41.0785C105.84 41.0785 105.047 40.2368 105.047 39.1984C105.047 38.1602 105.84 37.3184 106.819 37.3184C107.798 37.3184 108.591 38.1601 108.591 39.1984Z" fill="#0D090A"/>
<path d="M107.14 41.2305C105.844 41.2305 104.789 40.1756 104.789 38.8788C104.789 37.5823 105.844 36.5273 107.14 36.5273C108.437 36.5273 109.492 37.5823 109.492 38.8788C109.492 40.1756 108.437 41.2305 107.14 41.2305ZM107.14 36.7685C105.977 36.7685 105.03 37.7152 105.03 38.8788C105.03 40.0425 105.977 40.9892 107.14 40.9892C108.304 40.9892 109.251 40.0426 109.251 38.8788C109.251 37.7153 108.304 36.7685 107.14 36.7685Z" fill="#9D9990"/>
<path d="M106.039 39.0203C106.039 39.6884 106.532 40.2299 107.139 40.2299C107.747 40.2299 108.239 39.6884 108.239 39.0203C108.239 38.3522 107.747 37.8105 107.139 37.8105C106.532 37.8105 106.039 38.3521 106.039 39.0203Z" fill="#345781"/>
<path d="M14.5355 46.2204L5.03108 45.8562L5.00901 45.7685C3.64797 40.3233 4.19976 25.8708 4.44785 23.6263C4.72831 21.0934 18.0236 5.33365 18.1577 5.17596C20.5845 2.3244 23.5154 2.4607 23.6852 2.47145L41.7881 2.03516L41.7788 2.1673L40.6591 18.3311C40.9121 18.5896 42.2074 20.0075 42.265 22.0266C42.3261 24.1723 41.7843 39.951 41.7788 40.1101C41.7786 40.1264 41.7063 41.8288 39.3829 42.0213C37.1692 42.2046 34.3382 42.594 34.3097 42.5978L34.2767 42.359C34.3052 42.3552 37.1428 41.9649 39.3628 41.781C41.4733 41.6062 41.5377 40.1177 41.5378 40.1026C41.5432 39.9426 42.0846 24.1715 42.0237 22.0334C41.9641 19.9438 40.4664 18.4792 40.451 18.4646L40.4105 18.4256L40.4144 18.3694L41.5289 2.2828L23.6789 2.71296L23.6724 2.71251C23.6435 2.71043 20.745 2.50776 18.3414 5.33227C15.6896 8.44799 4.926 21.5012 4.68773 23.6528C4.44137 25.8783 3.89456 40.1383 5.22103 45.6222L14.5445 45.9796L14.5355 46.2204Z" fill="#76736E"/>
<path d="M10.7734 18.2921V16.2082L19.7998 4.8278C19.7998 4.8278 20.9694 3.37891 23.1206 3.37891C25.2715 3.37891 40.8118 3.37891 40.8118 3.37891L39.7294 18.2922L10.7734 18.2921Z" fill="#C9CDD6"/>
<path d="M13.2674 10.9014L13.7616 16.9014C13.7616 16.9014 12.601 15.8482 12.4721 15.4828C12.3432 15.1173 11.8273 15.1174 11.8058 14.8809C11.7843 14.6445 12.086 14.2327 12.5046 13.9013C12.9236 13.57 12.5368 11.2631 13.2674 10.9014Z" fill="#090600"/>
<path d="M12.5917 19.0806L12.2304 19.0627C12.2607 18.4578 11.7265 17.0963 11.4072 16.2828C11.2878 15.978 11.1931 15.7372 11.143 15.5808C11.0674 15.3454 11.1333 15.1756 11.202 15.0746C11.4355 14.7313 12.0314 14.683 12.0984 14.6787L12.1221 15.0398L12.1103 14.8591L12.1223 15.0396C11.9361 15.0524 11.6026 15.1284 11.501 15.2784C11.4791 15.3106 11.4538 15.3657 11.4874 15.4701C11.5341 15.6157 11.6317 15.8636 11.7442 16.1506C12.0953 17.0456 12.626 18.3982 12.5917 19.0806Z" fill="#090600"/>
<path d="M12.3641 18.7711C12.3641 18.7711 12.0631 18.9611 11.698 19.081C11.3324 19.201 10.7307 20.211 12.3641 20.211C13.9978 20.211 13.7611 19.491 13.7611 19.491C13.7611 19.491 13.0731 18.6422 12.3641 18.7711Z" fill="#090600"/>
</svg>
