<svg width="159" height="84" viewBox="0 0 159 84" fill="none" xmlns="http://www.w3.org/2000/svg">
<path fill-rule="evenodd" clip-rule="evenodd" d="M104.928 45.3641L104.191 45.3627L104.19 45.3668L103.59 45.3657L103.59 45.3616L103.405 45.3613C103.385 45.3613 103.365 45.3613 103.344 45.3612C102.118 45.3596 100.891 45.3573 99.6643 45.3543L78.3994 45.3142L78.4014 44.2663L105.93 44.3223L104.928 45.3641Z" fill="#303030"/>
<path fill-rule="evenodd" clip-rule="evenodd" d="M105.668 12.347L106.791 21.4823C106.899 23.4495 106.115 24.9406 104.441 25.9558L86.6394 34.0319C83.9865 35.3852 82.5399 38.7991 82.2995 44.2733L78.402 44.2659L78.412 38.9616C78.4049 37.3803 78.6482 35.8597 79.1419 34.4007L85.8385 14.051C86.2049 12.9354 86.8871 12.3564 87.8853 12.3135L105.668 12.347Z" fill="#EAF0F1"/>
<path fill-rule="evenodd" clip-rule="evenodd" d="M82.2957 44.274C82.5362 38.7997 83.9829 35.3861 86.6356 34.0326L104.438 25.9565C106.112 24.9413 106.895 23.4502 106.788 21.4829L105.664 12.3476L108.034 12.3522L111.924 37.5828C111.654 38.1642 111.283 38.713 110.813 39.229L105.927 44.3225L82.2957 44.274Z" fill="#D3D3D3"/>
<path fill-rule="evenodd" clip-rule="evenodd" d="M78.3834 49.5899L78.3915 45.3134L99.6564 45.3536C100.883 45.3565 102.11 45.3588 103.336 45.3605C103.357 45.3605 103.377 45.3606 103.397 45.3605L103.582 45.3608L103.582 45.3649L104.183 45.3661L104.183 45.362L104.92 45.3633L110.808 39.2279C111.279 38.7118 111.649 38.163 111.92 37.5816C112.262 36.8482 112.446 36.0627 112.472 35.2247C112.48 34.9366 112.47 34.6425 112.442 34.342L112.461 24.3905C114.457 24.3726 116.397 24.3897 118.281 24.4418C118.483 24.4476 118.684 24.4533 118.885 24.4593C119.344 24.4743 119.799 24.4912 120.251 24.5101C124.357 24.6801 128.183 25.0229 131.728 25.5393C131.751 25.5414 131.774 25.544 131.797 25.5475C133.268 25.7622 134.69 26.0067 136.064 26.281L136.005 57.703L133.095 57.6975C133.05 55.4765 132.579 53.4323 131.679 51.5643C130.961 50.0698 129.969 48.6881 128.704 47.4192C127.626 46.3372 126.466 45.4535 125.223 44.7686L125.773 43.5805C125.503 43.4574 125.229 43.3414 124.952 43.2326C123.67 42.7368 122.299 42.3995 120.839 42.2211C117.085 41.7606 113.655 42.4633 110.549 44.33C110.024 44.6451 109.509 44.9933 109.003 45.375C108.915 45.441 108.828 45.5079 108.741 45.576C106.745 47.1365 105.222 48.9636 104.172 51.0569C104.098 51.2051 104.027 51.3541 103.958 51.5039L99.3871 51.4952L99.3864 51.9307L98.6085 51.9294L98.4192 51.925C98.3975 51.9252 98.3758 51.9252 98.3547 51.9248L90.475 51.91C90.433 50.4188 89.7226 49.6518 88.3432 49.6086L78.3834 49.5899ZM146.689 57.7234L136.375 57.7039L136.435 26.3584C137.373 26.5504 138.289 26.7563 139.182 26.9765C139.252 26.9935 139.322 27.0114 139.392 27.0292C142.93 27.9163 146.108 29.0268 148.926 30.3604L148.93 30.3604L148.92 35.6162L148.916 35.6161L148.893 47.78L146.71 46.9336L146.689 57.7234Z" fill="#DEDEDE"/>
<path fill-rule="evenodd" clip-rule="evenodd" d="M78.3864 45.3137L78.3783 49.5902L75.7665 49.5854C75.3032 48.3076 75.0653 46.8813 75.0531 45.3076L78.3864 45.3137Z" fill="#D3D3D3"/>
<path fill-rule="evenodd" clip-rule="evenodd" d="M136.428 26.3586L136.369 57.7041L135.998 57.7034L136.058 26.2814C136.182 26.3065 136.305 26.3326 136.428 26.3586Z" fill="#303030"/>
<path fill-rule="evenodd" clip-rule="evenodd" d="M136.368 57.7046L146.682 57.7241L146.675 61.7263L137.084 67.4476L124.081 67.4232L119.863 70.9904L98.5652 70.9503L98.601 51.9304L99.3788 51.9317L99.3795 51.4963L103.95 51.5049C104.019 51.3551 104.091 51.2061 104.164 51.0579C105.214 48.9647 106.737 47.1378 108.733 45.5771C108.82 45.509 108.908 45.4421 108.996 45.376C109.501 44.9944 110.017 44.6461 110.541 44.331C113.647 42.4643 117.077 41.7617 120.831 42.2221C122.292 42.4005 123.663 42.7378 124.944 43.2336C125.222 43.3425 125.496 43.4585 125.766 43.5816L125.215 44.7696C126.458 45.4545 127.619 46.3382 128.697 47.4202C129.961 48.6891 130.953 50.0706 131.672 51.5653C132.571 53.4333 133.043 55.4776 133.087 57.6985L135.997 57.704L136.368 57.7046Z" fill="#B3B3B3"/>
<path fill-rule="evenodd" clip-rule="evenodd" d="M112.456 26.1173C115.157 26.0931 117.753 26.1325 120.247 26.2368C124.352 26.4064 128.178 26.7497 131.724 27.266C131.747 27.268 131.77 27.2708 131.792 27.274C133.263 27.4891 134.685 27.7336 136.059 28.0075L136.053 31.5384C134.657 31.2593 133.212 31.0109 131.717 30.7927C126.017 29.9633 119.594 29.5805 112.449 29.644L112.456 26.1173ZM139.387 28.7555C142.926 29.6428 146.104 30.7531 148.921 32.0867L148.925 32.0867L148.919 35.6174L148.915 35.6174C146.097 34.284 142.919 33.1737 139.381 32.2862C139.311 32.2684 139.241 32.2506 139.171 32.2334C138.278 32.0135 137.362 31.8074 136.423 31.6154L136.43 28.0845C137.369 28.2765 138.285 28.4823 139.177 28.7025C139.248 28.72 139.318 28.7377 139.387 28.7555Z" fill="#D3D3D3"/>
<path fill-rule="evenodd" clip-rule="evenodd" d="M77.0174 68.1201L81.0718 68.1277L81.0666 70.9169L76.9072 70.9092L67.6853 68.8118L70.3255 66.5113L77.0174 68.1201Z" fill="#303030"/>
<path fill-rule="evenodd" clip-rule="evenodd" d="M75.085 34.3258L75.0652 44.7849C75.0618 44.9613 75.0615 45.1359 75.0641 45.3088C75.0763 46.8825 75.3142 48.3088 75.7775 49.5866C75.8745 49.8546 75.9815 50.117 76.0984 50.3731C76.6435 51.5628 77.4047 52.611 78.3819 53.5172C79.154 54.2335 80.0609 54.8614 81.1029 55.4006C81.6178 55.6668 82.1655 55.9109 82.746 56.1332L82.7234 68.1319L77.0244 68.1211L70.3327 66.5124L67.6924 68.8131L61.0772 67.3052C58.7035 66.3369 57.9876 64.7568 58.9299 62.5653L64.9581 50.4246L64.9621 50.4246L68.3971 43.5067L69.7201 45.1012L70.6646 44.3531L69.4542 42.8917L74.0973 42.9004L74.1131 34.4967L75.085 34.3258Z" fill="#B3B3B3"/>
<path fill-rule="evenodd" clip-rule="evenodd" d="M138.275 53.5318C138.192 53.5315 138.122 53.5022 138.063 53.4436C138.004 53.3846 137.975 53.3137 137.975 53.2306C137.975 53.1471 138.005 53.0762 138.064 53.0172C138.123 52.9587 138.194 52.9299 138.277 52.93L141.752 52.9365C141.835 52.9366 141.906 52.9657 141.965 53.0244C142.023 53.0838 142.052 53.1546 142.052 53.238C142.052 53.3212 142.023 53.3919 141.964 53.4508C141.905 53.5093 141.834 53.5384 141.751 53.5382L138.275 53.5318ZM138.272 55.2214C138.189 55.2216 138.118 55.1919 138.059 55.1332C138.001 55.0746 137.972 55.0033 137.972 54.9202C137.972 54.8371 138.002 54.766 138.06 54.7072C138.12 54.6485 138.19 54.6196 138.274 54.6198L141.748 54.6263C141.832 54.6265 141.903 54.6555 141.961 54.7145C142.02 54.7735 142.049 54.8447 142.049 54.9279C142.048 55.0111 142.019 55.0821 141.96 55.1407C141.902 55.1991 141.83 55.2285 141.747 55.2281L138.272 55.2214ZM138.066 51.7539C138.007 51.6949 137.978 51.6237 137.978 51.5405C137.978 51.4573 138.008 51.3861 138.066 51.3275C138.126 51.269 138.196 51.2399 138.28 51.2403L141.755 51.2468C141.838 51.2467 141.909 51.276 141.968 51.3347C142.026 51.3937 142.055 51.4649 142.055 51.5481C142.055 51.6313 142.026 51.7025 141.967 51.7611C141.908 51.8195 141.837 51.8487 141.754 51.8483L138.279 51.8418C138.195 51.8419 138.125 51.8126 138.066 51.7539ZM138.07 49.6379C138.129 49.5794 138.2 49.5503 138.283 49.5505L141.758 49.557C141.841 49.5572 141.912 49.5866 141.971 49.6452C142.029 49.7042 142.058 49.775 142.058 49.8582C142.058 49.9416 142.029 50.0124 141.97 50.0716C141.911 50.1299 141.84 50.1588 141.756 50.1587L138.282 50.1522C138.198 50.152 138.128 50.1229 138.069 50.0644C138.01 50.005 137.981 49.9342 137.981 49.8508C137.982 49.7674 138.011 49.6965 138.07 49.6379ZM138.285 48.4625C138.202 48.4623 138.131 48.433 138.072 48.3742C138.013 48.3152 137.984 48.244 137.985 48.1608C137.985 48.0778 138.014 48.0067 138.073 47.9482C138.132 47.8897 138.203 47.8603 138.286 47.8608L141.761 47.8674C141.844 47.8672 141.915 47.897 141.974 47.9556C142.032 48.0142 142.061 48.0854 142.061 48.1686C142.061 48.2518 142.032 48.3228 141.973 48.3816C141.914 48.4401 141.843 48.4692 141.76 48.469L138.285 48.4625ZM137.988 46.4713C137.988 46.3882 138.017 46.3171 138.076 46.2583C138.135 46.1998 138.206 46.1706 138.289 46.1709L141.764 46.1774C141.847 46.1774 141.919 46.207 141.977 46.2656C142.036 46.3246 142.065 46.3958 142.065 46.479C142.064 46.5622 142.035 46.6332 141.976 46.6918C141.917 46.7505 141.846 46.7798 141.763 46.7795L138.288 46.7731C138.205 46.7728 138.134 46.7435 138.075 46.6844C138.017 46.6255 137.988 46.5544 137.988 46.4713ZM138.079 44.5685C138.138 44.5097 138.209 44.4808 138.293 44.4811L141.767 44.4876C141.851 44.4878 141.922 44.5168 141.98 44.5758C142.039 44.6348 142.068 44.706 142.068 44.7892C142.068 44.8724 142.038 44.9434 141.98 45.002C141.921 45.0604 141.849 45.0898 141.766 45.0894L138.291 45.0829C138.208 45.0831 138.138 45.0532 138.079 44.9947C138.02 44.9361 137.991 44.8648 137.991 44.7817C137.991 44.6984 138.021 44.6272 138.079 44.5685ZM138.295 43.3932C138.211 43.393 138.141 43.3637 138.082 43.305C138.023 43.246 137.994 43.1751 137.994 43.092C137.995 43.0086 138.024 42.9379 138.083 42.8787C138.142 42.8201 138.213 42.7914 138.296 42.7914L141.771 42.7979C141.854 42.798 141.925 42.8271 141.984 42.8858C142.042 42.9452 142.071 43.016 142.071 43.0994C142.071 43.1826 142.042 43.2534 141.983 43.3122C141.924 43.3705 141.853 43.3998 141.77 43.3996L138.295 43.3932ZM138.298 41.7032C138.215 41.7034 138.144 41.6739 138.085 41.6152C138.026 41.5562 137.997 41.4849 137.997 41.4018C137.997 41.3185 138.027 41.2476 138.086 41.1888C138.145 41.1303 138.216 41.1011 138.299 41.1015L141.774 41.108C141.857 41.1079 141.928 41.1372 141.987 41.1959C142.045 41.2549 142.074 41.3261 142.074 41.4093C142.074 41.4925 142.045 41.5635 141.986 41.6223C141.927 41.6809 141.856 41.71 141.773 41.7095L138.298 41.7032ZM138.089 39.4992C138.148 39.4407 138.219 39.4116 138.302 39.4118L141.777 39.4183C141.86 39.4183 141.931 39.4479 141.99 39.5065C142.048 39.5655 142.077 39.6364 142.077 39.7195C142.077 39.8029 142.048 39.8737 141.989 39.9329C141.93 39.9913 141.859 40.0202 141.776 40.0201L138.301 40.0136C138.218 40.0133 138.147 39.9842 138.088 39.9256C138.03 39.8662 138 39.7953 138.001 39.7119C138.001 39.6287 138.03 39.558 138.089 39.4992ZM138.304 38.3238C138.221 38.3235 138.15 38.2944 138.091 38.2355C138.033 38.1765 138.004 38.1053 138.004 38.0221C138.004 37.9389 138.033 37.8678 138.092 37.8093C138.151 37.7508 138.222 37.7213 138.305 37.7219L141.78 37.7284C141.863 37.7283 141.934 37.7581 141.993 37.8167C142.051 37.8753 142.08 37.9465 142.08 38.0297C142.08 38.1129 142.051 38.1838 141.992 38.2427C141.933 38.3014 141.862 38.3303 141.779 38.3301L138.304 38.3238ZM141.783 36.0386C141.866 36.0389 141.938 36.0682 141.996 36.1273C142.055 36.1859 142.084 36.2571 142.084 36.3403C142.083 36.4235 142.054 36.4945 141.996 36.5533C141.937 36.6117 141.865 36.6409 141.782 36.6407L138.307 36.6342C138.224 36.634 138.154 36.6047 138.095 36.546C138.036 36.487 138.007 36.4158 138.007 36.3326C138.007 36.2494 138.037 36.1784 138.096 36.1198C138.155 36.0611 138.226 36.0318 138.309 36.032L141.783 36.0386Z" fill="#303030"/>
<path fill-rule="evenodd" clip-rule="evenodd" d="M60.4495 54.5068C57.2028 54.4998 54.4303 55.6406 52.1319 57.9294C49.8333 60.2189 48.6808 62.987 48.6743 66.2338C48.6685 69.4805 49.8108 72.253 52.1007 74.5513C54.3904 76.8499 57.1584 78.0025 60.4052 78.0089C63.6516 78.0147 66.4242 76.8725 68.7225 74.5825C71.0213 72.2929 72.1737 69.5248 72.1802 66.278C72.186 63.0312 71.044 60.259 68.7538 57.9608C66.4639 55.6634 63.6958 54.5119 60.4495 54.5068ZM60.4532 52.5117C64.2494 52.5196 67.4862 53.8679 70.163 56.5564C72.8417 59.2437 74.1778 62.4853 74.1714 66.2815C74.1635 70.0793 72.8152 73.3173 70.1264 75.9956C67.4393 78.6742 64.1977 80.0102 60.4013 80.0037C56.6037 79.996 53.3655 78.6478 50.6872 75.959C48.0086 73.2705 46.6725 70.0275 46.6791 66.2298C46.687 62.4335 48.0351 59.1969 50.7238 56.5198C53.4124 53.8414 56.6555 52.5051 60.4532 52.5117Z" fill="#494949"/>
<path fill-rule="evenodd" clip-rule="evenodd" d="M60.4439 54.5067C63.6904 54.5119 66.4586 55.6633 68.7483 57.9605C71.0383 60.2587 72.1804 63.0309 72.1747 66.2777C72.1682 69.5245 71.0157 72.2925 68.7171 74.5823C66.4186 76.8722 63.6461 78.0144 60.3997 78.0086C57.1529 78.0022 54.3849 76.8496 52.0952 74.551C49.8054 72.2527 48.663 69.4802 48.6688 66.2335C48.6753 62.9867 49.828 60.2188 52.1264 57.9291C54.4248 55.6405 57.1971 54.4996 60.4439 54.5067Z" fill="#666666"/>
<path fill-rule="evenodd" clip-rule="evenodd" d="M60.8932 53.5044L60.4232 52.0165C61.1529 52.0833 61.801 52.1582 62.368 52.2409L63.0215 54.9025L61.8032 54.9001L59.5369 54.6625L60.8932 53.5044Z" fill="#666666"/>
<path fill-rule="evenodd" clip-rule="evenodd" d="M60.4258 52.0169L60.8957 53.5048L59.7146 52.5323L60.4258 52.0169Z" fill="#494949"/>
<path fill-rule="evenodd" clip-rule="evenodd" d="M65.7396 54.6508L65.8749 53.096C66.5235 53.437 67.0939 53.7543 67.5862 54.0479L67.1712 56.7577L66.0462 56.2891L64.0431 55.2018L65.7396 54.6508Z" fill="#666666"/>
<path fill-rule="evenodd" clip-rule="evenodd" d="M65.8754 53.0967L65.7401 54.6516L65.0207 53.3008L65.8754 53.0967Z" fill="#494949"/>
<path fill-rule="evenodd" clip-rule="evenodd" d="M69.7842 57.5653L70.5039 56.1809C70.9726 56.7441 71.3782 57.2553 71.7203 57.7148L70.3004 60.0589L69.4405 59.1957L68.0062 57.4251L69.7842 57.5653Z" fill="#666666"/>
<path fill-rule="evenodd" clip-rule="evenodd" d="M70.5 56.1816L69.7805 57.5661L69.6326 56.0431L70.5 56.1816Z" fill="#494949"/>
<path fill-rule="evenodd" clip-rule="evenodd" d="M72.4004 61.8011L73.5953 60.7972C73.8128 61.497 73.9919 62.1247 74.1324 62.6802L71.923 64.3031L71.4587 63.1764L70.8108 60.9912L72.4004 61.8011Z" fill="#666666"/>
<path fill-rule="evenodd" clip-rule="evenodd" d="M73.5917 60.7978L72.3966 61.8019L72.8429 60.3378L73.5917 60.7978Z" fill="#494949"/>
<path fill-rule="evenodd" clip-rule="evenodd" d="M73.1792 66.7171L74.6669 66.2471C74.6001 66.9768 74.5254 67.625 74.4426 68.1919L71.781 68.8454L71.7833 67.627L72.021 65.3608L73.1792 66.7171Z" fill="#666666"/>
<path fill-rule="evenodd" clip-rule="evenodd" d="M74.6725 66.2472L73.1846 66.7172L74.1571 65.5358L74.6725 66.2472Z" fill="#494949"/>
<path fill-rule="evenodd" clip-rule="evenodd" d="M72.0553 71.5645L73.6101 71.6997C73.269 72.3484 72.9517 72.9187 72.6582 73.411L69.9484 72.996L70.4169 71.871L71.5042 69.8679L72.0553 71.5645Z" fill="#666666"/>
<path fill-rule="evenodd" clip-rule="evenodd" d="M73.6105 71.7001L72.0556 71.5648L73.4064 70.8454L73.6105 71.7001Z" fill="#494949"/>
<path fill-rule="evenodd" clip-rule="evenodd" d="M69.1356 75.6034L70.52 76.3231C69.9568 76.7918 69.4456 77.1972 68.9861 77.5396L66.6421 76.1197L67.5052 75.2597L69.2758 73.8254L69.1356 75.6034Z" fill="#666666"/>
<path fill-rule="evenodd" clip-rule="evenodd" d="M70.5157 76.3225L69.1314 75.6028L70.6541 75.4551L70.5157 76.3225Z" fill="#494949"/>
<path fill-rule="evenodd" clip-rule="evenodd" d="M64.9045 78.2201L65.9084 79.4149C65.2086 79.6325 64.5809 79.8116 64.0253 79.9521L62.4025 77.7426L63.5292 77.2784L65.7144 76.6305L64.9045 78.2201Z" fill="#666666"/>
<path fill-rule="evenodd" clip-rule="evenodd" d="M65.9064 79.4142L64.9023 78.2193L66.3663 78.6656L65.9064 79.4142Z" fill="#494949"/>
<path fill-rule="evenodd" clip-rule="evenodd" d="M59.9952 79.0137L60.4652 80.5016C59.7355 80.4348 59.0874 80.3599 58.5205 80.2771L57.867 77.6154L59.0854 77.6178L61.3516 77.8555L59.9952 79.0137Z" fill="#666666"/>
<path fill-rule="evenodd" clip-rule="evenodd" d="M60.4632 80.5025L59.9932 79.0146L61.1744 79.9871L60.4632 80.5025Z" fill="#494949"/>
<path fill-rule="evenodd" clip-rule="evenodd" d="M55.1302 77.8704L54.9949 79.4254C54.3462 79.0843 53.7759 78.767 53.2836 78.4735L53.6986 75.7637L54.8236 76.2322L56.8267 77.3195L55.1302 77.8704Z" fill="#666666"/>
<path fill-rule="evenodd" clip-rule="evenodd" d="M54.9884 79.4251L55.1237 77.8704L55.843 79.2212L54.9884 79.4251Z" fill="#494949"/>
<path fill-rule="evenodd" clip-rule="evenodd" d="M51.0872 74.9561L50.3675 76.3405C49.8988 75.7774 49.4934 75.2661 49.151 74.8066L50.5709 72.4626L51.4309 73.3257L52.8652 75.0963L51.0872 74.9561Z" fill="#666666"/>
<path fill-rule="evenodd" clip-rule="evenodd" d="M50.3669 76.3408L51.0867 74.9562L51.2343 76.4792L50.3669 76.3408Z" fill="#494949"/>
<path fill-rule="evenodd" clip-rule="evenodd" d="M48.4751 70.7162L47.2802 71.7201C47.0627 71.0203 46.8836 70.3926 46.7431 69.8371L48.9525 68.2142L49.4168 69.3409L50.0646 71.5261L48.4751 70.7162Z" fill="#666666"/>
<path fill-rule="evenodd" clip-rule="evenodd" d="M47.2817 71.7207L48.4766 70.7168L48.0303 72.1806L47.2817 71.7207Z" fill="#494949"/>
<path fill-rule="evenodd" clip-rule="evenodd" d="M47.6786 65.8025L46.1906 66.2725C46.2574 65.5428 46.3323 64.8947 46.4152 64.3278L49.0768 63.6743L49.0744 64.8926L48.8368 67.1589L47.6786 65.8025Z" fill="#666666"/>
<path fill-rule="evenodd" clip-rule="evenodd" d="M46.1919 66.2727L47.6797 65.8027L46.7074 66.9841L46.1919 66.2727Z" fill="#494949"/>
<path fill-rule="evenodd" clip-rule="evenodd" d="M48.8228 60.954L47.268 60.8187C47.609 60.1701 47.9263 59.5997 48.2199 59.1075L50.9297 59.5225L50.4611 60.6474L49.3738 62.6506L48.8228 60.954Z" fill="#666666"/>
<path fill-rule="evenodd" clip-rule="evenodd" d="M47.2734 60.8189L48.8281 60.9541L47.4773 61.6734L47.2734 60.8189Z" fill="#494949"/>
<path fill-rule="evenodd" clip-rule="evenodd" d="M51.7389 56.9157L50.3546 56.196C50.9177 55.7273 51.4289 55.3219 51.8884 54.9795L54.2325 56.3994L53.3694 57.2594L51.5988 58.6937L51.7389 56.9157Z" fill="#666666"/>
<path fill-rule="evenodd" clip-rule="evenodd" d="M50.3483 56.1961L51.7326 56.9158L50.2098 57.0635L50.3483 56.1961Z" fill="#494949"/>
<path fill-rule="evenodd" clip-rule="evenodd" d="M55.9788 54.2987L54.9747 53.1038C55.6745 52.8863 56.3022 52.7072 56.8578 52.5667L58.4806 54.7761L57.3539 55.2404L55.1687 55.8882L55.9788 54.2987Z" fill="#666666"/>
<path fill-rule="evenodd" clip-rule="evenodd" d="M54.9727 53.1032L55.9766 54.2982L54.5128 53.8518L54.9727 53.1032Z" fill="#494949"/>
<path fill-rule="evenodd" clip-rule="evenodd" d="M53.7862 59.5975C55.6253 57.7659 57.8438 56.8525 60.4417 56.8573C63.0396 56.8622 65.2545 57.7838 67.0868 59.6226C68.9186 61.4605 69.8318 63.6778 69.8271 66.274C69.8222 68.8718 68.9006 71.0868 67.0618 72.9191C65.2226 74.7525 63.004 75.667 60.4062 75.6634C57.8083 75.6573 55.5933 74.7343 53.761 72.894C51.9306 71.0548 51.0184 68.8362 51.0245 66.2384C51.0282 63.6424 51.9488 61.4286 53.7862 59.5975Z" fill="#494949"/>
<path fill-rule="evenodd" clip-rule="evenodd" d="M55.5879 61.409C54.2487 62.745 53.578 64.3599 53.5757 66.2542C53.5711 68.1467 54.2355 69.7629 55.5697 71.1025C56.5663 72.1017 57.7179 72.7298 59.0245 72.9873C59.4698 73.0741 59.9332 73.1181 60.4146 73.119C62.3073 73.1223 63.9236 72.4562 65.2631 71.1207C65.9931 70.3954 66.5251 69.5877 66.8597 68.6976C67.1405 67.9499 67.2817 67.144 67.2834 66.2801C67.2854 64.3857 66.618 62.7685 65.2811 61.4274C63.9467 60.087 62.3329 59.4149 60.4402 59.4112C58.5465 59.4074 56.929 60.0735 55.5879 61.409ZM55.049 60.8679C56.5393 59.3844 58.3371 58.6448 60.4419 58.6493C62.5455 58.6526 64.3389 59.3992 65.8226 60.8882C67.3058 62.3772 68.0456 64.1735 68.0413 66.2772C68.0401 67.2375 67.8839 68.1334 67.5727 68.9645C67.2022 69.9538 66.612 70.8518 65.8023 71.6578C64.3131 73.1426 62.5169 73.8836 60.4132 73.8805C59.8773 73.8789 59.3614 73.8297 58.8659 73.7324C57.4147 73.4461 56.1356 72.7476 55.0287 71.6375C53.5465 70.1485 52.8083 68.3519 52.8141 66.2486C52.8162 64.1448 53.5611 62.3514 55.049 60.8679ZM60.4378 60.7814C58.9231 60.7783 57.6298 61.3106 56.5574 62.3782C55.4854 63.4465 54.9484 64.7377 54.946 66.2526C54.9444 67.3667 55.2328 68.3613 55.811 69.2368C55.7829 68.9966 55.7685 68.7503 55.7679 68.4989C55.7706 66.8678 56.3498 65.4768 57.505 64.3269C58.6609 63.176 60.055 62.6021 61.688 62.6054C63.1114 62.6076 64.3518 63.0475 65.4095 63.9265C65.1464 63.3727 64.7806 62.8613 64.3121 62.3928C63.2439 61.3211 61.9526 60.784 60.4378 60.7814ZM60.439 60.1686C62.1222 60.1723 63.5573 60.7702 64.7443 61.9623C65.6048 62.8242 66.1525 63.8153 66.3872 64.9357C66.4776 65.3619 66.5226 65.8066 66.5218 66.2701C66.5179 67.9533 65.9201 69.3882 64.7283 70.5753C63.5368 71.7643 62.0994 72.3579 60.4161 72.3567C58.7359 72.3522 57.3022 71.7557 56.1148 70.5673L56.1108 70.559C54.9244 69.3674 54.3333 67.9303 54.3374 66.2472C54.3396 64.5654 54.9363 63.1315 56.1269 61.9461C57.3184 60.7585 58.7557 60.1661 60.439 60.1686Z" fill="#DEDEDE"/>
<path fill-rule="evenodd" clip-rule="evenodd" d="M55.5932 61.409C56.9343 60.0735 58.5517 59.4075 60.4457 59.411C62.3383 59.4145 63.9522 60.0868 65.2866 61.4272C66.6235 62.7683 67.2909 64.3855 67.289 66.2799C67.2872 67.1438 67.146 67.9498 66.8652 68.6974C66.5307 69.5876 65.9986 70.3952 65.2686 71.1206C63.9291 72.4561 62.3128 73.1221 60.4202 73.1188C59.9385 73.1178 59.4751 73.0739 59.03 72.9871C57.7236 72.7297 56.572 72.1015 55.5752 71.1023C54.2411 69.7627 53.5766 68.1465 53.5812 66.254C53.5834 64.3596 54.2539 62.7449 55.5932 61.409ZM60.4443 60.1686C58.761 60.166 57.3237 60.7585 56.1324 61.9461C54.9416 63.1317 54.345 64.5654 54.3429 66.2472C54.3388 67.9303 54.9299 69.3674 56.1163 70.559L56.1202 70.5673C57.3076 71.7557 58.7413 72.3524 60.4216 72.3567C62.1048 72.3581 63.542 71.7642 64.7337 70.5753C65.9255 69.3882 66.5236 67.9531 66.5272 66.2701C66.5281 65.8066 66.4833 65.3619 66.3926 64.9357C66.158 63.8153 65.6103 62.8242 64.7498 61.9623C63.5626 60.7703 62.1274 60.1725 60.4443 60.1686Z" fill="#666666"/>
<path fill-rule="evenodd" clip-rule="evenodd" d="M60.4377 60.7811C61.9525 60.7836 63.2438 61.3207 64.3119 62.3925C64.7805 62.861 65.1462 63.3724 65.4094 63.9261C64.3517 63.0472 63.1111 62.6072 61.6878 62.6051C60.055 62.6016 58.6608 63.1756 57.5049 64.3265C56.3496 65.4765 55.7704 66.8676 55.7678 68.4985C55.7685 68.7498 55.7828 68.9961 55.8108 69.2365C55.2327 68.3609 54.9441 67.3663 54.9459 66.2523C54.9482 64.7374 55.4853 63.4461 56.5573 62.3778C57.6297 61.31 58.9229 60.778 60.4377 60.7811Z" fill="#303030"/>
<path fill-rule="evenodd" clip-rule="evenodd" d="M60.4238 64.7865C60.3182 64.787 60.2285 64.7502 60.1549 64.6763C60.0803 64.6006 60.043 64.5085 60.0427 64.401C60.0434 64.2951 60.081 64.2059 60.156 64.1319C60.2299 64.0583 60.3196 64.0221 60.4253 64.0232C60.5322 64.0225 60.6226 64.0592 60.6972 64.133C60.7708 64.2071 60.8071 64.2965 60.8063 64.4024C60.8068 64.5101 60.7701 64.602 60.6962 64.6774C60.6215 64.751 60.5306 64.7873 60.4238 64.7865ZM59.3374 65.1226C59.3372 65.2265 59.3005 65.3152 59.2273 65.3882C59.1538 65.4611 59.065 65.4974 58.9611 65.4973C58.8572 65.4971 58.7685 65.4604 58.6951 65.3871C58.6221 65.314 58.5859 65.2251 58.5863 65.1211C58.5865 65.0178 58.623 64.9303 58.6963 64.8585C58.7698 64.7856 58.8587 64.7493 58.9626 64.7494C59.0664 64.7496 59.1553 64.7863 59.2285 64.8596C59.3013 64.9317 59.3375 65.0194 59.3374 65.1226ZM58.9715 66.6961C58.9701 66.8003 58.9325 66.8888 58.8582 66.9618C58.7846 67.0348 58.696 67.0711 58.5919 67.071C58.4889 67.0707 58.4015 67.0342 58.3291 66.9608C58.2562 66.8873 58.2198 66.7988 58.2202 66.6946C58.2202 66.5917 58.257 66.5042 58.3301 66.432C58.4027 66.359 58.4904 66.3226 58.5933 66.3228C58.6973 66.3229 58.786 66.3598 58.8592 66.4328C58.9331 66.5054 58.9705 66.5932 58.9715 66.6961ZM60.8498 67.9702C60.8493 67.8656 60.8861 67.7763 60.9599 67.7015C61.0349 67.629 61.1248 67.5936 61.2293 67.5956C61.3327 67.5939 61.4214 67.6296 61.4951 67.7026C61.5697 67.7777 61.607 67.8672 61.6072 67.9718C61.6066 68.0763 61.5688 68.1659 61.4938 68.2408C61.4199 68.3154 61.331 68.353 61.2277 68.3531C61.1232 68.3525 61.0334 68.3146 60.9587 68.2398C60.8852 68.1645 60.849 68.0747 60.8498 67.9702ZM59.876 68.2315C59.801 68.3056 59.7112 68.3433 59.6067 68.3434C59.5033 68.3429 59.4145 68.305 59.3409 68.2305C59.2662 68.1561 59.2287 68.0675 59.2287 67.9638C59.2292 67.8605 59.2671 67.7719 59.3419 67.6983C59.4158 67.6247 59.5045 67.5884 59.608 67.5892C59.7124 67.5888 59.8021 67.6255 59.8769 67.6993C59.9505 67.7732 59.9868 67.8621 59.9861 67.9652C59.9865 68.069 59.9499 68.1573 59.876 68.2315ZM62.2605 65.1124C62.2609 65.217 62.2242 65.3065 62.1504 65.3813C62.0763 65.4548 61.9875 65.4909 61.884 65.49C61.7808 65.4905 61.692 65.454 61.6184 65.3803C61.5437 65.3051 61.5065 65.2154 61.5061 65.1108C61.5068 65.0075 61.5445 64.9188 61.6193 64.8449C61.6933 64.7717 61.782 64.735 61.8854 64.7361C61.9889 64.7355 62.0774 64.7723 62.1513 64.8459C62.2249 64.9202 62.2612 65.0091 62.2605 65.1124ZM61.9763 66.4388C62.0503 66.3633 62.1391 66.3248 62.2424 66.3234C62.347 66.3252 62.4367 66.3641 62.5114 66.4398C62.585 66.513 62.6214 66.6007 62.6205 66.703C62.6209 66.8075 62.5844 66.8973 62.5105 66.9721C62.4354 67.0465 62.3457 67.084 62.2411 67.0843C62.1378 67.0834 62.0491 67.046 61.9754 66.971C61.9007 66.8959 61.8635 66.8062 61.8631 66.7016C61.8638 66.5993 61.9013 66.5118 61.9763 66.4388Z" fill="#303030"/>
<path fill-rule="evenodd" clip-rule="evenodd" d="M59.8365 65.6583C59.8246 65.6703 59.8131 65.6827 59.8022 65.6954C59.7877 65.7112 59.774 65.7265 59.7613 65.7425C59.6768 65.8494 59.6234 65.9692 59.6009 66.1021C59.5938 66.1493 59.5906 66.1985 59.5913 66.2492C59.5904 66.4804 59.6713 66.6776 59.8342 66.841C59.9982 67.0058 60.1962 67.0886 60.4283 67.0897C60.6584 67.0895 60.8547 67.0074 61.0171 66.8433C61.1818 66.6805 61.2645 66.4835 61.2654 66.2523C61.2651 66.2017 61.2612 66.1525 61.2531 66.1053C61.231 65.9723 61.1782 65.8524 61.0941 65.7451C61.0804 65.729 61.0656 65.7136 61.0504 65.6978C61.0403 65.6852 61.03 65.6727 61.0191 65.6606C60.8572 65.4958 60.6612 65.4129 60.4312 65.412C60.1996 65.412 60.0011 65.4942 59.8365 65.6583ZM59.5772 65.3914C59.8139 65.1576 60.0986 65.041 60.4323 65.0429C60.7636 65.0423 61.0463 65.16 61.2798 65.3946C61.2962 65.4136 61.3117 65.4321 61.3266 65.4513C61.3473 65.4738 61.3672 65.4968 61.3859 65.5202C61.5073 65.6741 61.5842 65.8465 61.6165 66.037C61.6273 66.1057 61.6322 66.1766 61.6318 66.2499C61.6311 66.5825 61.5126 66.8661 61.2765 67.1007C61.0421 67.3357 60.7591 67.4531 60.4277 67.4524C60.0942 67.4518 59.8097 67.3335 59.5739 67.0975C59.3387 66.8622 59.2215 66.5779 59.2219 66.2455C59.2215 66.1722 59.2268 66.1014 59.2381 66.0327C59.27 65.8421 59.3465 65.6701 59.4674 65.5167C59.4863 65.4935 59.5063 65.4705 59.5269 65.4483C59.5432 65.4288 59.56 65.4102 59.5772 65.3914ZM60.7434 65.9725C60.7499 65.9807 60.7562 65.9892 60.7623 65.9977C60.8036 66.0516 60.8295 66.112 60.8403 66.1795C60.8441 66.2026 60.8462 66.2265 60.8463 66.2514C60.8463 66.3663 60.8055 66.4642 60.7238 66.5452C60.6415 66.6268 60.5422 66.6669 60.4261 66.6669C60.3101 66.6666 60.2112 66.6261 60.129 66.5441C60.0476 66.4626 60.0071 66.3646 60.0077 66.2499C60.0078 66.2249 60.01 66.2011 60.014 66.1781C60.0257 66.1107 60.0529 66.0502 60.0957 65.9965C60.1016 65.988 60.1077 65.9796 60.1146 65.9715C60.1195 65.9653 60.1249 65.959 60.1302 65.9529C60.2127 65.8713 60.3118 65.8312 60.4278 65.8312C60.5439 65.8315 60.643 65.8718 60.7249 65.954C60.7311 65.9599 60.7375 65.9663 60.7434 65.9725Z" fill="#666666"/>
<path fill-rule="evenodd" clip-rule="evenodd" d="M131.796 66.3899C131.789 70.1877 130.44 73.4257 127.752 76.104C125.064 78.7827 121.823 80.1187 118.026 80.1121C114.229 80.1043 110.991 78.7562 108.312 76.0674C105.634 73.3789 104.298 70.1359 104.304 66.3382C104.312 62.542 105.66 59.3053 108.349 56.6282C111.037 53.9498 114.28 52.6135 118.078 52.6201C121.875 52.628 125.111 53.9763 127.788 56.6648C130.467 59.3521 131.803 62.5938 131.796 66.3899ZM109.757 58.0378C107.458 60.3273 106.306 63.0954 106.299 66.342C106.293 69.5887 107.436 72.3612 109.726 74.6595C112.015 76.958 114.783 78.1107 118.03 78.1171C121.277 78.1229 124.049 76.9807 126.347 74.6907C128.646 72.401 129.799 69.6328 129.805 66.3862C129.811 63.1394 128.669 60.3672 126.379 58.069C124.089 55.7718 121.321 54.6204 118.074 54.6152C114.828 54.608 112.055 55.749 109.757 58.0378Z" fill="#494949"/>
<path fill-rule="evenodd" clip-rule="evenodd" d="M109.759 58.0377C112.058 55.7491 114.83 54.6081 118.077 54.6151C121.323 54.6203 124.091 55.7717 126.381 58.0689C128.671 60.3671 129.813 63.1393 129.807 66.3861C129.801 69.6329 128.649 72.401 126.35 74.6906C124.051 76.9806 121.279 78.1228 118.032 78.117C114.786 78.1106 112.017 76.9579 109.728 74.6594C107.438 72.3611 106.296 69.5886 106.302 66.3419C106.308 63.0951 107.461 60.3272 109.759 58.0377Z" fill="#666666"/>
<path fill-rule="evenodd" clip-rule="evenodd" d="M118.51 53.6117L118.04 52.1237C118.77 52.1906 119.418 52.2654 119.985 52.3483L120.639 55.0099L119.42 55.0076L117.154 54.7699L118.51 53.6117Z" fill="#666666"/>
<path fill-rule="evenodd" clip-rule="evenodd" d="M118.043 52.1223L118.513 53.6101L117.332 52.6378L118.043 52.1223Z" fill="#494949"/>
<path fill-rule="evenodd" clip-rule="evenodd" d="M123.357 54.7582L123.492 53.2034C124.141 53.5444 124.711 53.8617 125.203 54.1553L124.788 56.8651L123.663 56.3965L121.66 55.3092L123.357 54.7582Z" fill="#666666"/>
<path fill-rule="evenodd" clip-rule="evenodd" d="M123.493 53.2041L123.357 54.7591L122.638 53.4083L123.493 53.2041Z" fill="#494949"/>
<path fill-rule="evenodd" clip-rule="evenodd" d="M127.394 57.6717L128.113 56.2874C128.582 56.8505 128.988 57.3618 129.33 57.8213L127.91 60.1653L127.05 59.3022L125.616 57.5316L127.394 57.6717Z" fill="#666666"/>
<path fill-rule="evenodd" clip-rule="evenodd" d="M128.109 56.2871L127.39 57.6717L127.242 56.1487L128.109 56.2871Z" fill="#494949"/>
<path fill-rule="evenodd" clip-rule="evenodd" d="M130.002 61.9097L131.197 60.9056C131.414 61.6054 131.593 62.2331 131.734 62.7886L129.525 64.4115L129.06 63.2848L128.412 61.0996L130.002 61.9097Z" fill="#666666"/>
<path fill-rule="evenodd" clip-rule="evenodd" d="M131.193 60.9052L129.998 61.9093L130.444 60.4453L131.193 60.9052Z" fill="#494949"/>
<path fill-rule="evenodd" clip-rule="evenodd" d="M130.828 66.8255L132.316 66.3556C132.249 67.0853 132.174 67.7334 132.091 68.3003L129.429 68.9538L129.432 67.7354L129.669 65.4692L130.828 66.8255Z" fill="#666666"/>
<path fill-rule="evenodd" clip-rule="evenodd" d="M132.313 66.3554L130.825 66.8256L131.798 65.6442L132.313 66.3554Z" fill="#494949"/>
<path fill-rule="evenodd" clip-rule="evenodd" d="M129.664 71.6728L131.219 71.8081C130.878 72.4568 130.561 73.0271 130.268 73.5194L127.558 73.1044L128.026 71.9794L129.114 69.9763L129.664 71.6728Z" fill="#666666"/>
<path fill-rule="evenodd" clip-rule="evenodd" d="M131.22 71.8076L129.665 71.6723L131.016 70.9528L131.22 71.8076Z" fill="#494949"/>
<path fill-rule="evenodd" clip-rule="evenodd" d="M126.745 75.7123L128.129 76.432C127.566 76.9007 127.055 77.3061 126.595 77.6485L124.251 76.2286L125.115 75.3686L126.885 73.9343L126.745 75.7123Z" fill="#666666"/>
<path fill-rule="evenodd" clip-rule="evenodd" d="M128.125 76.4317L126.741 75.712L128.264 75.5643L128.125 76.4317Z" fill="#494949"/>
<path fill-rule="evenodd" clip-rule="evenodd" d="M122.521 78.3284L123.526 79.5233C122.826 79.7409 122.198 79.92 121.643 80.0605L120.02 77.851L121.146 77.3868L123.332 76.7389L122.521 78.3284Z" fill="#666666"/>
<path fill-rule="evenodd" clip-rule="evenodd" d="M123.524 79.5237L122.519 78.3286L123.983 78.7749L123.524 79.5237Z" fill="#494949"/>
<path fill-rule="evenodd" clip-rule="evenodd" d="M117.597 79.1221L118.067 80.6098C117.337 80.543 116.689 80.4683 116.122 80.3855L115.469 77.7238L116.687 77.7262L118.953 77.9639L117.597 79.1221Z" fill="#666666"/>
<path fill-rule="evenodd" clip-rule="evenodd" d="M118.065 80.6107L117.595 79.123L118.776 80.0953L118.065 80.6107Z" fill="#494949"/>
<path fill-rule="evenodd" clip-rule="evenodd" d="M112.747 77.978L112.612 79.5328C111.963 79.1917 111.393 78.8745 110.901 78.5809L111.316 75.8711L112.441 76.3396L114.444 77.4269L112.747 77.978Z" fill="#666666"/>
<path fill-rule="evenodd" clip-rule="evenodd" d="M112.613 79.5325L112.749 77.9778L113.468 79.3284L112.613 79.5325Z" fill="#494949"/>
<path fill-rule="evenodd" clip-rule="evenodd" d="M108.712 75.0626L107.992 76.447C107.524 75.8838 107.118 75.3725 106.776 74.9131L108.196 72.569L109.056 73.4322L110.49 75.2027L108.712 75.0626Z" fill="#666666"/>
<path fill-rule="evenodd" clip-rule="evenodd" d="M108 76.4468L108.719 75.0624L108.867 76.5852L108 76.4468Z" fill="#494949"/>
<path fill-rule="evenodd" clip-rule="evenodd" d="M106.1 70.8264L104.905 71.8305C104.688 71.1307 104.509 70.5029 104.368 69.9474L106.578 68.3245L107.042 69.4513L107.69 71.6364L106.1 70.8264Z" fill="#666666"/>
<path fill-rule="evenodd" clip-rule="evenodd" d="M104.907 71.8303L106.102 70.8262L105.655 72.2902L104.907 71.8303Z" fill="#494949"/>
<path fill-rule="evenodd" clip-rule="evenodd" d="M105.304 65.909L103.816 66.379C103.882 65.6493 103.957 65.0012 104.04 64.4342L106.702 63.7807L106.699 64.9991L106.462 67.2653L105.304 65.909Z" fill="#666666"/>
<path fill-rule="evenodd" clip-rule="evenodd" d="M103.825 66.3793L105.312 65.9092L104.34 67.0905L103.825 66.3793Z" fill="#494949"/>
<path fill-rule="evenodd" clip-rule="evenodd" d="M106.448 61.0634L104.893 60.9281C105.234 60.2795 105.551 59.7091 105.845 59.2168L108.555 59.6318L108.086 60.7568L106.999 62.7599L106.448 61.0634Z" fill="#B3B3B3"/>
<path fill-rule="evenodd" clip-rule="evenodd" d="M104.898 60.9282L106.453 61.0635L105.102 61.7829L104.898 60.9282Z" fill="#494949"/>
<path fill-rule="evenodd" clip-rule="evenodd" d="M109.364 57.0222L107.98 56.3024C108.543 55.8337 109.054 55.4282 109.513 55.086L111.857 56.5059L110.994 57.3658L109.224 58.8002L109.364 57.0222Z" fill="#666666"/>
<path fill-rule="evenodd" clip-rule="evenodd" d="M107.981 56.3025L109.365 57.0222L107.843 57.1699L107.981 56.3025Z" fill="#494949"/>
<path fill-rule="evenodd" clip-rule="evenodd" d="M113.596 54.4091L112.592 53.2142C113.292 52.9966 113.919 52.8175 114.475 52.677L116.098 54.8865L114.971 55.3507L112.786 55.9986L113.596 54.4091Z" fill="#666666"/>
<path fill-rule="evenodd" clip-rule="evenodd" d="M112.598 53.2145L113.602 54.4094L112.138 53.9631L112.598 53.2145Z" fill="#494949"/>
<path fill-rule="evenodd" clip-rule="evenodd" d="M111.411 59.7049C113.25 57.8733 115.469 56.9598 118.067 56.9647C120.665 56.9697 122.88 57.8913 124.712 59.73C126.544 61.568 127.457 63.7851 127.452 66.3814C127.447 68.9793 126.526 71.1942 124.687 73.0265C122.848 74.8597 120.629 75.7744 118.031 75.7708C115.433 75.7647 113.218 74.8416 111.386 73.0014C109.556 71.1622 108.644 68.9437 108.65 66.3459C108.653 63.7499 109.574 61.536 111.411 59.7049Z" fill="#494949"/>
<path fill-rule="evenodd" clip-rule="evenodd" d="M113.221 61.5182C111.882 62.8544 111.211 64.4691 111.209 66.3634C111.204 68.2558 111.868 69.8721 113.203 71.2115C114.199 72.2107 115.351 72.8388 116.657 73.0963C117.103 73.1831 117.566 73.2272 118.047 73.228C119.94 73.2313 121.556 72.5652 122.896 71.2297C123.626 70.5044 124.158 69.6967 124.492 68.8065C124.773 68.0589 124.914 67.253 124.916 66.389C124.918 64.4947 124.251 62.8774 122.914 61.5362C121.579 60.1957 119.966 59.5236 118.073 59.52C116.179 59.5167 114.562 60.1829 113.221 61.5182ZM112.682 60.9773C114.172 59.4938 115.97 58.7541 118.075 58.7587C120.178 58.762 121.972 59.5086 123.455 60.9975C124.939 62.4866 125.678 64.2828 125.674 66.3866C125.673 67.3469 125.517 68.2428 125.205 69.0739C124.835 70.0632 124.245 70.9611 123.435 71.7672C121.946 73.252 120.15 73.993 118.046 73.9899C117.51 73.9882 116.994 73.9391 116.499 73.8418C115.047 73.5554 113.768 72.857 112.662 71.7469C111.179 70.2579 110.441 68.4613 110.447 66.3579C110.449 64.2542 111.194 62.4606 112.682 60.9773ZM118.071 60.8906C116.556 60.8875 115.263 61.4197 114.19 62.4874C113.118 63.5557 112.581 64.8469 112.579 66.3618C112.577 67.4759 112.866 68.4706 113.444 69.3461C113.416 69.1057 113.402 68.8596 113.401 68.6081C113.404 66.977 113.983 65.586 115.138 64.4361C116.294 63.2852 117.688 62.7112 119.321 62.7146C120.744 62.7168 121.985 63.1568 123.043 64.0355C122.78 63.4818 122.414 62.9704 121.945 62.5019C120.877 61.4305 119.585 60.8933 118.071 60.8906ZM118.072 60.278C119.755 60.2819 121.19 60.8797 122.377 62.0719C123.238 62.9338 123.785 63.9249 124.02 65.0453C124.11 65.4714 124.155 65.9161 124.154 66.3796C124.151 68.0626 123.553 69.4977 122.361 70.6848C121.169 71.8738 119.732 72.4675 118.049 72.4662C116.368 72.4619 114.935 71.8652 113.747 70.6769L113.743 70.6688C112.557 69.4772 111.966 68.0399 111.97 66.3569C111.972 64.6751 112.569 63.2412 113.759 62.0558C114.951 60.8679 116.389 60.2755 118.072 60.278Z" fill="#DEDEDE"/>
<path fill-rule="evenodd" clip-rule="evenodd" d="M113.218 61.5184C114.559 60.183 116.177 59.5169 118.071 59.5204C119.963 59.5239 121.577 60.1961 122.912 61.5366C124.248 62.8778 124.916 64.4951 124.914 66.3894C124.912 67.2534 124.771 68.0593 124.49 68.807C124.156 69.6971 123.624 70.5048 122.894 71.2301C121.554 72.5656 119.938 73.2317 118.045 73.2284C117.564 73.2276 117.1 73.1835 116.655 73.0967C115.349 72.8392 114.197 72.2111 113.2 71.2119C111.866 69.8724 111.202 68.2561 111.206 66.3638C111.208 64.4692 111.879 62.8545 113.218 61.5184ZM118.069 60.2781C116.386 60.2756 114.949 60.868 113.757 62.0558C112.567 63.2412 111.97 64.6751 111.968 66.3569C111.964 68.0399 112.555 69.4772 113.741 70.6688L113.745 70.6769C114.932 71.8654 116.366 72.4619 118.046 72.4662C119.729 72.4675 121.167 71.8739 122.358 70.6848C123.55 69.4977 124.148 68.0626 124.152 66.3797C124.153 65.9161 124.108 65.4714 124.018 65.0453C123.783 63.9247 123.235 62.9338 122.375 62.0719C121.187 60.8798 119.752 60.2818 118.069 60.2781Z" fill="#666666"/>
<path fill-rule="evenodd" clip-rule="evenodd" d="M118.07 60.8905C119.585 60.893 120.877 61.4301 121.945 62.5019C122.413 62.9703 122.779 63.4817 123.042 64.0355C121.984 63.1565 120.744 62.7166 119.32 62.7146C117.688 62.7111 116.293 63.2851 115.137 64.4361C113.982 65.586 113.403 66.977 113.401 68.6081C113.401 68.8593 113.416 69.1057 113.443 69.346C112.865 68.4705 112.577 67.4759 112.578 66.3618C112.581 64.8469 113.118 63.5557 114.19 62.4873C115.262 61.4196 116.556 60.8874 118.07 60.8905Z" fill="#303030"/>
<path fill-rule="evenodd" clip-rule="evenodd" d="M118.041 64.8951C117.936 64.8956 117.846 64.8589 117.772 64.785C117.698 64.7092 117.66 64.6173 117.66 64.5095C117.661 64.4037 117.698 64.3143 117.773 64.2404C117.847 64.1668 117.937 64.1306 118.043 64.1317C118.15 64.1309 118.24 64.1677 118.315 64.2415C118.388 64.3156 118.425 64.405 118.424 64.5109C118.424 64.6186 118.388 64.7105 118.314 64.7859C118.239 64.8595 118.148 64.8959 118.041 64.8951ZM116.955 65.2312C116.954 65.335 116.918 65.4238 116.844 65.4968C116.771 65.5697 116.682 65.606 116.578 65.6059C116.474 65.6058 116.386 65.569 116.312 65.4957C116.239 65.4226 116.203 65.3337 116.203 65.2299C116.204 65.1266 116.24 65.0391 116.314 64.9673C116.387 64.8944 116.476 64.8581 116.58 64.8582C116.684 64.8584 116.773 64.8952 116.846 64.9683C116.918 65.0403 116.955 65.1279 116.955 65.2312ZM116.589 66.8047C116.587 66.9089 116.55 66.9973 116.475 67.0705C116.402 67.1434 116.313 67.1798 116.209 67.1796C116.106 67.1794 116.019 67.1428 115.946 67.0694C115.874 66.9959 115.837 66.9074 115.837 66.8032C115.838 66.7001 115.874 66.6128 115.947 66.5404C116.02 66.4674 116.108 66.4312 116.211 66.4313C116.314 66.4315 116.403 66.4682 116.477 66.5413C116.55 66.614 116.588 66.7018 116.589 66.8047ZM118.577 67.8099C118.652 67.7372 118.742 67.702 118.846 67.7039C118.95 67.7023 119.038 67.738 119.112 67.811C119.187 67.8861 119.224 67.9755 119.224 68.0801C119.224 68.1847 119.186 68.2743 119.111 68.349C119.037 68.4236 118.948 68.4612 118.845 68.4613C118.74 68.4607 118.651 68.4228 118.576 68.348C118.502 68.2729 118.466 68.183 118.467 68.0786C118.467 67.9742 118.503 67.8849 118.577 67.8099ZM117.493 68.3402C117.418 68.4143 117.329 68.4519 117.224 68.452C117.121 68.4515 117.032 68.4135 116.958 68.3391C116.884 68.2648 116.846 68.176 116.846 68.0725C116.847 67.9692 116.884 67.8805 116.959 67.807C117.033 67.7334 117.122 67.6971 117.225 67.6978C117.33 67.6974 117.42 67.734 117.494 67.8078C117.568 67.8817 117.604 67.9703 117.603 68.0736C117.604 68.1776 117.567 68.266 117.493 68.3402ZM119.878 65.221C119.878 65.3256 119.841 65.4151 119.768 65.4899C119.694 65.5634 119.605 65.5995 119.501 65.5986C119.398 65.5991 119.309 65.5626 119.236 65.4888C119.161 65.4137 119.124 65.324 119.123 65.2194C119.124 65.1161 119.162 65.0275 119.237 64.9535C119.311 64.8804 119.399 64.8436 119.503 64.8448C119.606 64.8441 119.695 64.881 119.769 64.9546C119.842 65.0288 119.879 65.1177 119.878 65.221ZM119.593 66.5474C119.668 66.4719 119.756 66.4334 119.86 66.432C119.964 66.4338 120.054 66.4727 120.129 66.5483C120.202 66.6215 120.239 66.7091 120.238 66.8114C120.238 66.9159 120.202 67.0057 120.128 67.0803C120.053 67.1548 119.963 67.192 119.858 67.1925C119.755 67.1918 119.666 67.154 119.592 67.0792C119.518 67.0041 119.481 66.9143 119.48 66.8098C119.481 66.7078 119.519 66.6204 119.593 66.5474Z" fill="#303030"/>
<path fill-rule="evenodd" clip-rule="evenodd" d="M117.427 65.8037C117.413 65.8195 117.399 65.8348 117.386 65.8508C117.302 65.9577 117.249 66.0775 117.226 66.2104C117.219 66.2576 117.216 66.3067 117.216 66.3574C117.216 66.5886 117.297 66.7859 117.46 66.9491C117.624 67.1139 117.821 67.1966 118.054 67.1977C118.284 67.1976 118.48 67.1154 118.643 66.9514C118.807 66.7886 118.89 66.5916 118.891 66.3605C118.891 66.3098 118.887 66.2606 118.879 66.2134C118.857 66.0805 118.804 65.9605 118.719 65.8532C118.706 65.8371 118.691 65.8217 118.676 65.8059C118.666 65.7933 118.655 65.7806 118.645 65.7688C118.483 65.6042 118.287 65.5211 118.057 65.5201C117.825 65.5202 117.626 65.6024 117.462 65.7665C117.45 65.7786 117.438 65.7911 117.427 65.8037ZM117.152 65.5564C117.168 65.5373 117.185 65.5188 117.203 65.4999C117.439 65.266 117.724 65.1495 118.057 65.1513C118.389 65.1508 118.672 65.2684 118.905 65.503C118.921 65.522 118.937 65.5406 118.952 65.5598C118.973 65.5823 118.992 65.6053 119.011 65.6286C119.132 65.7826 119.209 65.9549 119.242 66.1454C119.252 66.2141 119.257 66.2849 119.257 66.3584C119.256 66.6909 119.138 66.9747 118.901 67.2091C118.667 67.4442 118.384 67.5614 118.053 67.5608C117.719 67.5601 117.435 67.4419 117.199 67.2057C116.964 66.9704 116.846 66.6861 116.847 66.3536C116.847 66.2802 116.852 66.2092 116.863 66.1407C116.895 65.9502 116.971 65.7781 117.093 65.6247C117.112 65.6016 117.131 65.5787 117.152 65.5564ZM118.369 66.081C118.375 66.0892 118.382 66.0977 118.388 66.1061C118.429 66.1601 118.455 66.2205 118.465 66.288C118.469 66.3111 118.471 66.335 118.471 66.3598C118.471 66.4747 118.431 66.5726 118.349 66.6536C118.267 66.7353 118.167 66.7754 118.051 66.7753C117.935 66.7751 117.836 66.7345 117.754 66.6525C117.673 66.5711 117.632 66.4731 117.633 66.3582C117.633 66.3333 117.635 66.3095 117.639 66.2865C117.651 66.2191 117.678 66.1586 117.721 66.105C117.727 66.0965 117.733 66.088 117.739 66.0799C117.744 66.0737 117.75 66.0674 117.755 66.0613C117.837 65.9796 117.937 65.9395 118.053 65.9397C118.169 65.94 118.268 65.9805 118.35 66.0625C118.356 66.0684 118.363 66.0747 118.369 66.081Z" fill="#666666"/>
<path fill-rule="evenodd" clip-rule="evenodd" d="M26.6876 33.7661L29.338 38.9022L29.5025 39.2208C30.563 41.5139 30.3605 44.3147 28.8941 47.6234C28.6365 48.2034 28.3398 48.7994 28.0041 49.4112C27.0852 51.0891 25.7331 52.1199 23.9477 52.503C23.2866 52.6438 22.5664 52.6963 21.7871 52.6601C18.7046 52.4594 16.3027 51.4769 14.582 49.7125L3.29687 34.5484L4.05639 33.6188C6.21412 33.7576 8.21311 34.5203 10.0535 35.9074C15.4327 32.9272 20.9774 32.2135 26.6876 33.7661ZM23.5121 50.5474C23.8261 50.5482 24.0937 50.4386 24.3148 50.2186C24.5358 49.9983 24.6463 49.7312 24.6467 49.4169C24.6476 49.1027 24.5379 48.8355 24.3178 48.6144C24.0975 48.3936 23.8304 48.2827 23.5164 48.2825C23.2024 48.2817 22.9347 48.3912 22.7138 48.6112C22.4929 48.8316 22.3821 49.0984 22.3817 49.4125C22.381 49.7268 22.4906 49.9944 22.7107 50.2155C22.9307 50.4364 23.1981 50.5472 23.5121 50.5474Z" fill="#999999"/>
<path fill-rule="evenodd" clip-rule="evenodd" d="M29.3423 38.903L26.6919 33.7669C28.6458 32.1629 29.2823 30.2428 28.6009 28.0069L29.8554 27.4853C33.1273 31.2146 32.9562 35.0205 29.3423 38.903Z" fill="#7D7D7D"/>
<path fill-rule="evenodd" clip-rule="evenodd" d="M23.5129 50.5478C23.1989 50.5476 22.9315 50.4369 22.7114 50.2159C22.4914 49.9948 22.3816 49.7272 22.3823 49.4129C22.3828 49.0986 22.4934 48.8318 22.7143 48.6117C22.9353 48.3916 23.2031 48.2819 23.5171 48.2829C23.8312 48.2832 24.0982 48.3938 24.3184 48.6148C24.5385 48.8359 24.6482 49.1031 24.6473 49.4174C24.6469 49.7317 24.5364 49.9987 24.3154 50.2191C24.0945 50.4391 23.8269 50.5486 23.5129 50.5478Z" fill="#303030"/>
<path fill-rule="evenodd" clip-rule="evenodd" d="M69.4499 42.891L67.6642 40.7436C67.872 40.4335 67.9759 40.0805 67.9766 39.684C67.9773 39.1462 67.7874 38.6861 67.4067 38.3047C67.0267 37.9226 66.5673 37.731 66.0295 37.7297C65.4915 37.7289 65.0318 37.9189 64.65 38.2995C64.2679 38.6794 64.0763 39.1387 64.075 39.6765C64.0742 39.9782 64.1327 40.2548 64.2507 40.5072L52.6353 46.7167C49.5415 48.45 46.2423 49.7051 42.7372 50.4826C37.1856 51.7076 31.6377 52.6538 26.0939 53.321C24.98 53.323 24.2634 53.0502 23.9429 52.5027C25.7285 52.1198 27.0805 51.0888 27.9994 49.4109C28.3351 48.7991 28.632 48.2032 28.8894 47.6231C32.0662 45.9086 35.2426 44.2377 38.4189 42.6107C40.7713 41.406 43.1231 40.2255 45.4752 39.0692C48.7822 37.444 52.0888 35.8664 55.3952 34.3359C56.2813 33.9256 57.1676 33.5187 58.0537 33.1153C59.8368 32.3056 61.6197 31.5094 63.4027 30.7272C68.6857 28.3994 71.601 29.7724 72.1492 34.847L74.1088 34.4959L74.093 42.8995L69.4499 42.891Z" fill="#DEDEDE"/>
<path fill-rule="evenodd" clip-rule="evenodd" d="M66.738 41.5083C66.519 41.5912 66.2827 41.6325 66.0284 41.632C65.4904 41.6306 65.0314 41.4391 64.6511 41.057C64.52 40.9247 64.4114 40.7835 64.3253 40.6332C64.3012 40.5925 64.2783 40.5506 64.257 40.5081C64.139 40.2557 64.0806 39.9791 64.0813 39.6775C64.0825 39.1396 64.2743 38.6803 64.6563 38.3004C65.038 37.9198 65.4979 37.7298 66.0358 37.7306C66.5738 37.732 67.033 37.9236 67.4131 38.3056C67.7937 38.6871 67.9837 39.1472 67.9829 39.685C67.9821 40.0814 67.8783 40.4346 67.6705 40.7446L66.983 39.9171C66.9997 39.8425 67.008 39.7648 67.0076 39.6832C67.0081 39.4144 66.9131 39.1842 66.7228 38.9938C66.5327 38.8026 66.3032 38.7068 66.034 38.7063C65.7649 38.7059 65.5351 38.8008 65.3443 38.9912C65.153 39.1811 65.0573 39.4108 65.0568 39.6796C65.0572 39.8112 65.0798 39.9335 65.1245 40.0466C65.1409 40.0855 65.1595 40.1231 65.1809 40.1597C65.2231 40.2342 65.2766 40.3041 65.3418 40.3695C65.532 40.5603 65.7612 40.6565 66.0305 40.657L66.738 41.5083Z" fill="#303030"/>
<path fill-rule="evenodd" clip-rule="evenodd" d="M69.4462 42.8913L70.6565 44.3528L69.7121 45.1008L66.7282 41.5081L66.0204 40.6563C65.7514 40.6559 65.522 40.5597 65.3318 40.3689C65.2668 40.3037 65.2131 40.2335 65.1709 40.1591C65.1496 40.1225 65.1309 40.0846 65.1145 40.0459C65.0697 39.9329 65.0472 39.8106 65.0467 39.679C65.0473 39.4101 65.143 39.1804 65.3343 38.9906C65.5251 38.8002 65.7549 38.705 66.0239 38.7056C66.293 38.7062 66.5225 38.8019 66.7128 38.9931C66.903 39.1837 66.9981 39.4137 66.9976 39.6825C66.9981 39.7642 66.9897 39.8419 66.973 39.9164L67.6605 40.7439L69.4462 42.8913Z" fill="#A2A2A2"/>
<path fill-rule="evenodd" clip-rule="evenodd" d="M44.3202 25.8958L43.992 26.8909L42.7679 30.5806C42.3171 31.6262 42.315 32.6728 42.762 33.7203L45.4805 39.07C43.1284 40.2263 40.7766 41.4067 38.4242 42.6115L37.522 33.7828C37.4129 32.3543 37.7594 31.0652 38.561 29.9154L42.3118 24.413C42.9382 23.4935 43.5096 23.1963 44.0264 23.5213C44.5535 23.8547 44.7002 24.4959 44.4662 25.4447L44.3202 25.8958ZM43.378 25.4185C43.261 25.3021 43.1177 25.2439 42.9471 25.2445C42.7768 25.2432 42.6317 25.301 42.5114 25.4169C42.3949 25.5366 42.3368 25.6817 42.3372 25.8516C42.336 26.0223 42.3937 26.1659 42.5096 26.2834C42.6293 26.4042 42.7744 26.4649 42.9447 26.4656C43.1151 26.4655 43.2589 26.4055 43.3762 26.285C43.4971 26.1681 43.5577 26.0247 43.5583 25.8539C43.5585 25.6839 43.4982 25.5387 43.378 25.4185ZM41.9645 37.5317C41.9652 37.3172 41.8904 37.1345 41.7398 36.9831C41.5924 36.8354 41.4112 36.7615 41.1962 36.7605C40.9832 36.7608 40.8017 36.8341 40.6516 36.9811C40.504 37.1319 40.4299 37.3145 40.4289 37.5289C40.429 37.7424 40.5027 37.9226 40.6496 38.0693C40.7992 38.2201 40.9805 38.296 41.1934 38.2961C41.4085 38.2968 41.59 38.2216 41.738 38.0714C41.8889 37.9252 41.9645 37.7452 41.9645 37.5317Z" fill="#B3B3B3"/>
<path fill-rule="evenodd" clip-rule="evenodd" d="M43.3779 25.4184C43.4982 25.5385 43.5585 25.6838 43.5585 25.8538C43.5579 26.0244 43.497 26.1679 43.3763 26.2849C43.2588 26.4053 43.1152 26.4654 42.9448 26.4655C42.7746 26.4648 42.6295 26.4041 42.5098 26.2833C42.3937 26.166 42.3361 26.0222 42.3373 25.8515C42.3369 25.6816 42.3951 25.5364 42.5116 25.4168C42.6318 25.3009 42.777 25.2431 42.9473 25.2444C43.1176 25.2437 43.261 25.302 43.3779 25.4184ZM41.9645 37.5315C41.9645 37.745 41.8889 37.925 41.7378 38.0711C41.5898 38.2214 41.4083 38.2965 41.1932 38.2959C40.9803 38.2958 40.799 38.2199 40.6494 38.0691C40.5025 37.9224 40.429 37.7422 40.4287 37.5287C40.4297 37.3143 40.504 37.1318 40.6514 36.9809C40.8015 36.8339 40.983 36.7605 41.1959 36.7603C41.4109 36.7613 41.5922 36.8352 41.7396 36.9829C41.8904 37.1344 41.9654 37.3171 41.9645 37.5315Z" fill="#303030"/>
<path fill-rule="evenodd" clip-rule="evenodd" d="M49.8016 29.0978L49.2881 29.9837L43.9938 26.8903L44.3221 25.8952L49.8016 29.0978Z" fill="#A2A2A2"/>
<path fill-rule="evenodd" clip-rule="evenodd" d="M49.2913 29.9838L49.8049 29.0982L50.1565 28.4983L58.064 33.1159C57.1777 33.5191 56.2916 33.9262 55.4055 34.3365L48.9516 30.5677L49.2913 29.9838Z" fill="#666666"/>
<path fill-rule="evenodd" clip-rule="evenodd" d="M77.3631 58.3233C77.4691 58.646 77.5654 58.9723 77.6515 59.3035L75.784 59.9769C74.9852 58.055 73.79 56.2954 72.1987 54.6984C70.0788 52.5711 67.6644 51.1464 64.956 50.4244C63.5793 50.0587 62.1259 49.8746 60.5959 49.8721C59.5548 49.8689 58.5484 49.9504 57.5767 50.1165L57.0369 47.826C57.2477 47.765 57.46 47.7078 57.6742 47.6541L57.9661 48.8922C58.9377 48.7259 59.9442 48.6446 60.9852 48.6478C62.5153 48.6503 63.9686 48.8346 65.3452 49.2003C68.054 49.922 70.4684 51.3468 72.5882 53.4743C74.1793 55.0713 75.3746 56.8305 76.1735 58.7528L77.3631 58.3233Z" fill="#303030"/>
<path fill-rule="evenodd" clip-rule="evenodd" d="M57.6756 47.6534C58.9804 47.3356 60.351 47.1782 61.7876 47.1815C63.3648 47.1843 64.8611 47.3804 66.2763 47.7704C68.9324 48.5015 71.3036 49.9139 73.3902 52.0075C75.2637 53.8872 76.5885 55.9922 77.3647 58.3228L76.1748 58.7519C75.3758 56.8295 74.1808 55.0702 72.5895 53.4733C70.4696 51.3459 68.0553 49.921 65.3465 49.1993C63.9699 48.8336 62.5165 48.6496 60.9865 48.6469C59.9454 48.6437 58.9391 48.7248 57.9674 48.8912L57.6756 47.6534Z" fill="#666666"/>
<path fill-rule="evenodd" clip-rule="evenodd" d="M81.1038 52.1591L81.1012 53.4729L88.3402 53.4866L88.3428 52.1728L81.1038 52.1591ZM76.0932 50.3722C75.9762 50.1159 75.8694 49.8538 75.7724 49.5857L88.3436 49.6093C89.723 49.6525 90.4335 50.4198 90.4753 51.9107L98.3551 51.9255C98.3764 51.9259 98.3979 51.926 98.4196 51.9257L98.6089 51.9301L98.5731 70.95L88.3074 70.9306L88.3383 54.4861L81.0993 54.4724L81.0976 55.3995C80.0558 54.8603 79.1488 54.2324 78.3766 53.5161C77.3995 52.6099 76.6383 51.5619 76.0932 50.3722Z" fill="#303030"/>
<path fill-rule="evenodd" clip-rule="evenodd" d="M85.4328 65.0163L85.4319 65.5723L82.7233 65.5673L82.7276 63.3504L85.436 63.3556L85.4352 63.8152L85.4328 65.0163Z" fill="#666666"/>
<path d="M88.3259 65.0233L88.3281 63.8223L85.4421 63.8168L85.4399 65.0179L88.3259 65.0233Z" fill="#A2A2A2"/>
<path d="M85.7856 61.5452L85.7891 59.7236L82.7419 59.7179L82.7385 61.5395L85.7856 61.5452Z" fill="#A2A2A2"/>
<path fill-rule="evenodd" clip-rule="evenodd" d="M85.7803 61.543L85.7837 59.7216L85.7848 59.165L88.3321 59.1699L88.3264 62.1446L85.7791 62.1397L85.7803 61.543Z" fill="#666666"/>
<path fill-rule="evenodd" clip-rule="evenodd" d="M98.5971 58.6623L90.4635 58.647C90.4646 58.1217 90.4655 57.5961 90.4665 57.071L98.6001 57.0863L98.5971 58.6623ZM98.4204 51.9269L98.6098 51.9313L98.6069 53.5031L90.4732 53.4878C90.4741 52.9623 90.4752 52.437 90.4762 51.9119L98.3559 51.9267C98.3771 51.9271 98.3987 51.9272 98.4204 51.9269ZM90.4567 62.2219L98.5904 62.2372L98.5874 63.8131L90.4538 63.7978C90.4548 63.2725 90.4558 62.7474 90.4567 62.2219ZM98.5807 67.3885L98.5778 68.9643L90.4442 68.9489C90.4452 68.4236 90.4462 67.8985 90.4471 67.3732L98.5807 67.3885Z" fill="#CCCCCC"/>
<path fill-rule="evenodd" clip-rule="evenodd" d="M113.158 22.0472L106.602 29.4025C105.115 31.0774 104.315 33.2175 104.204 35.8225C104.204 35.8267 104.204 35.8306 104.204 35.8347L104.19 45.3628L104.186 45.3628L104.175 51.0578C104.102 51.206 104.03 51.355 103.961 51.5048L103.574 51.5041L103.604 35.8213C103.603 35.8179 103.603 35.8138 103.604 35.8093C103.718 33.0449 104.567 30.7761 106.151 29.0026L112.715 21.6391C112.717 21.6366 112.72 21.6341 112.723 21.6309C113.701 20.6135 114.681 20.1654 115.664 20.2863L117.752 20.2902C118.152 20.2796 118.445 20.381 118.63 20.5942C118.829 20.7914 118.917 21.095 118.894 21.5057L118.888 24.4603C118.688 24.4543 118.486 24.4485 118.284 24.4427L118.289 21.4885C118.289 21.4835 118.289 21.4778 118.289 21.4724C118.302 21.2667 118.269 21.1121 118.19 21.0086C118.095 20.925 117.951 20.8856 117.759 20.891L115.651 20.887C115.639 20.8862 115.626 20.8847 115.614 20.8827C114.802 20.8015 113.986 21.1867 113.166 22.0388C113.163 22.0419 113.16 22.0444 113.158 22.0472Z" fill="#303030"/>
<path fill-rule="evenodd" clip-rule="evenodd" d="M99.3901 53.2099L104.235 53.2191C104.712 52.1534 105.306 51.1538 106.018 50.2197C106.871 49.0959 107.894 48.0672 109.087 47.1343C109.962 46.4495 110.866 45.8655 111.799 45.382C112.618 44.9563 113.46 44.6083 114.324 44.3388C116.476 43.6666 118.763 43.4786 121.185 43.7752C122.303 43.9123 123.369 44.1427 124.384 44.4664L124.958 43.2344C125.236 43.3433 125.51 43.4593 125.78 43.5824L124.768 45.7569C123.754 45.4333 122.688 45.2028 121.569 45.0656C119.466 44.8082 117.464 44.9159 115.563 45.389C113.401 45.9274 111.371 46.9395 109.471 48.4247C108.279 49.3577 107.256 50.3864 106.402 51.5102C105.691 52.4443 105.096 53.4439 104.619 54.5096L99.3874 54.4996L99.3901 53.2099Z" fill="#303030"/>
<path fill-rule="evenodd" clip-rule="evenodd" d="M124.957 43.2342L124.383 44.4661C123.368 44.1425 122.302 43.9122 121.184 43.7749C118.762 43.4784 116.475 43.6662 114.323 44.3385C113.459 44.608 112.617 44.956 111.798 45.3817C110.865 45.8652 109.962 46.4492 109.086 47.134C107.894 48.0669 106.87 49.0956 106.017 50.2194C105.305 51.1537 104.711 52.1531 104.234 53.2188L99.3892 53.2096L99.3924 51.4965L103.963 51.5052C104.032 51.3554 104.104 51.2064 104.177 51.0582C105.227 48.9649 106.75 47.138 108.746 45.5773C108.833 45.5092 108.921 45.4424 109.008 45.3763C109.514 44.9946 110.029 44.6464 110.554 44.3313C113.66 42.4646 117.09 41.762 120.844 42.2224C122.305 42.401 123.676 42.7383 124.957 43.2342Z" fill="#666666"/>
<path fill-rule="evenodd" clip-rule="evenodd" d="M155.954 59.1037C154.016 60.6336 151.947 62.0108 149.747 63.2353C148.364 64.005 146.929 64.7142 145.443 65.3634C145.171 65.4818 144.898 65.5982 144.624 65.7125L144.629 62.9516L146.683 61.7261L147.357 61.0623L147.385 48.6323L150.313 49.6171L150.304 54.5102L151.069 54.7333L155.959 56.1615L155.954 59.1037Z" fill="#DEDEDE"/>
<path fill-rule="evenodd" clip-rule="evenodd" d="M144.626 65.7124C144.901 65.5979 145.173 65.4817 145.445 65.3632C146.931 64.7143 148.366 64.0049 149.749 63.2351C151.949 62.0105 154.018 60.6334 155.956 59.1035L155.953 60.4254C154.016 61.9555 151.947 63.3327 149.747 64.5573C148.363 65.327 146.929 66.0364 145.442 66.6854C145.171 66.8036 144.898 66.9203 144.623 67.0343L144.626 65.7124Z" fill="#666666"/>
<path fill-rule="evenodd" clip-rule="evenodd" d="M151.072 54.733L150.306 54.51L150.316 49.6169L147.387 48.6322L147.36 61.0622L146.686 61.726L146.713 46.9339L148.896 47.7804L148.9 47.7804L151.083 48.6269L151.072 54.733Z" fill="#D3D3D3"/>
<path fill-rule="evenodd" clip-rule="evenodd" d="M150.02 48.2143L148.9 47.7807L148.896 47.7807L148.919 35.6168L148.923 35.6169L148.933 30.3611C149.057 30.4202 149.18 30.4796 149.303 30.539L149.293 35.7948C149.464 35.878 149.633 35.9614 149.801 36.0458C149.881 36.0856 149.962 36.1261 150.042 36.1672L150.02 48.2143Z" fill="#303030"/>
<path fill-rule="evenodd" clip-rule="evenodd" d="M149.303 30.5394C149.474 30.6226 149.643 30.7063 149.811 30.7901C150.998 31.3875 152.117 32.0266 153.169 32.7071L153.135 50.6911L151.083 48.6316L151.083 48.6275L150.02 48.2146L150.042 36.1674C149.962 36.1263 149.882 36.0858 149.801 36.046C149.633 35.9616 149.464 35.8781 149.294 35.795L149.303 30.5394Z" fill="#DEDEDE"/>
<path fill-rule="evenodd" clip-rule="evenodd" d="M153.134 50.6907L153.134 50.7068C152.481 51.6112 151.794 52.4616 151.073 53.2585L151.082 48.6314L153.134 50.6907Z" fill="#666666"/>
<path fill-rule="evenodd" clip-rule="evenodd" d="M149.301 32.2637C149.472 32.3469 149.641 32.4305 149.808 32.5147C150.995 33.1122 152.114 33.7513 153.166 34.4316L153.16 37.9583C152.18 37.3251 151.141 36.7281 150.043 36.167C149.963 36.1259 149.883 36.0854 149.802 36.0456C149.634 35.9612 149.465 35.8777 149.294 35.7946L149.301 32.2637Z" fill="#D3D3D3"/>
<path fill-rule="evenodd" clip-rule="evenodd" d="M129.994 11.7882L131.184 13.3219L127.531 16.1488L127.517 23.5649L131.023 23.5715L131.806 25.548C131.783 25.5445 131.76 25.5419 131.737 25.5398C128.192 25.0233 124.366 24.6804 120.26 24.5106L120.584 23.552L124.176 23.5589L125.804 23.562L125.82 15.0214L129.994 11.7882Z" fill="#303030"/>
<path fill-rule="evenodd" clip-rule="evenodd" d="M124.172 23.558L124.19 13.9453L128.861 10.3266L129.99 11.7875L125.817 15.0204L125.8 23.5611L124.172 23.558Z" fill="#666666"/>
<path fill-rule="evenodd" clip-rule="evenodd" d="M77.4607 9.5663L109.695 10.3604L108.031 12.3522L83.9689 12.307L83.6407 13.1811L77.4607 9.5663Z" fill="#303030"/>
<path fill-rule="evenodd" clip-rule="evenodd" d="M109.697 10.3601L77.462 9.56599C77.9972 6.98582 80.0389 5.74977 83.5873 5.85712C91.2026 6.06915 98.6463 6.39488 105.919 6.83435C108.613 7.06698 109.873 8.24219 109.697 10.3601Z" fill="#DEDEDE"/>
<path fill-rule="evenodd" clip-rule="evenodd" d="M83.9733 12.3061L87.8828 12.3135C86.8845 12.3564 86.2024 12.9354 85.836 14.0509L79.1394 34.4006C78.6457 35.8597 78.4024 37.3803 78.4095 38.9616L78.3995 44.2659L76.0699 44.2615L76.0905 33.2985L83.9733 12.3061Z" fill="#D3D3D3"/>
<path fill-rule="evenodd" clip-rule="evenodd" d="M79.7748 16.1156C79.4121 16.115 79.1027 16.2431 78.8471 16.5008L78.8429 16.5048C78.5842 16.7593 78.4548 17.0683 78.4542 17.4312L78.4475 20.9699C78.4466 21.3314 78.575 21.6421 78.8328 21.9017C79.0889 22.158 79.3988 22.286 79.7631 22.2864L80.2267 22.2873L79.9269 23.0886L79.7617 23.0883C79.1766 23.0879 78.6786 22.8812 78.2676 22.4689C77.8516 22.0506 77.6442 21.5508 77.6457 20.9683L77.6523 17.4295C77.6527 16.8444 77.8605 16.3468 78.2759 15.9353L78.2801 15.9313C78.693 15.5177 79.1918 15.3116 79.7767 15.3134L82.8438 15.3193L82.5441 16.1207L79.7748 16.1156Z" fill="#303030"/>
<path fill-rule="evenodd" clip-rule="evenodd" d="M102.365 26.9005L101.11 27.4706L101.13 16.9387C101.13 16.4563 100.959 16.0436 100.617 15.7007C100.275 15.3564 99.8627 15.1839 99.3802 15.1823L90.775 15.166C90.2926 15.1658 89.8798 15.3369 89.5367 15.6798C89.1926 16.0215 89.0199 16.4336 89.0183 16.916L88.9881 32.9698L87.7336 33.5395L87.7649 16.9137C87.7665 16.0853 88.0621 15.3779 88.6515 14.7915C89.2404 14.2041 89.949 13.9109 90.7773 13.9126L99.3824 13.9288C100.211 13.9304 100.918 14.2261 101.505 14.8158C102.092 15.4044 102.385 16.1129 102.384 16.9413L102.365 26.9005Z" fill="#666666"/>
<path fill-rule="evenodd" clip-rule="evenodd" d="M87.7318 33.5403L88.9863 32.9706L88.9727 40.2375C88.9725 40.7199 89.1435 41.1326 89.4864 41.476C89.8282 41.821 90.2404 41.9951 90.7229 41.9981L99.3279 42.0143C99.8105 42.013 100.223 41.8406 100.566 41.4969C100.91 41.1549 101.083 40.7428 101.084 40.2603L101.109 27.4716L102.363 26.9015L102.338 40.2627C102.336 41.0925 102.041 41.8013 101.451 42.3891C100.862 42.9765 100.154 43.2695 99.3253 43.2681L90.7202 43.2518C89.892 43.2503 89.1845 42.9545 88.5979 42.365C88.0106 41.7749 87.7177 41.0651 87.7192 40.2353L87.7318 33.5403Z" fill="#303030"/>
</svg>
