<svg width="18" height="18" viewBox="0 0 18 18" fill="none" xmlns="http://www.w3.org/2000/svg">
<path d="M3.75 5.25C4.57843 5.25 5.25 4.57843 5.25 3.75C5.25 2.92157 4.57843 2.25 3.75 2.25C2.92157 2.25 2.25 2.92157 2.25 3.75C2.25 4.57843 2.92157 5.25 3.75 5.25ZM3.75 5.25V9M3.75 9V12.75M3.75 9H13.5C13.9142 9 14.25 8.66422 14.25 8.25V5.25M9 12.75C8.17155 12.75 7.5 13.4216 7.5 14.25C7.5 15.0784 8.17155 15.75 9 15.75C9.82845 15.75 10.5 15.0784 10.5 14.25C10.5 13.4216 9.82845 12.75 9 12.75ZM9 12.75V5.25M9 5.25C9.82845 5.25 10.5 4.57843 10.5 3.75C10.5 2.92157 9.82845 2.25 9 2.25C8.17155 2.25 7.5 2.92157 7.5 3.75C7.5 4.57843 8.17155 5.25 9 5.25ZM3.75 12.75C2.92157 12.75 2.25 13.4216 2.25 14.25C2.25 15.0784 2.92157 15.75 3.75 15.75C4.57843 15.75 5.25 15.0784 5.25 14.25C5.25 13.4216 4.57843 12.75 3.75 12.75ZM14.25 5.25C15.0784 5.25 15.75 4.57843 15.75 3.75C15.75 2.92157 15.0784 2.25 14.25 2.25C13.4216 2.25 12.75 2.92157 12.75 3.75C12.75 4.57843 13.4216 5.25 14.25 5.25Z" stroke="#343434"/>
</svg>
