<svg width="82" height="65" viewBox="0 0 82 65" fill="none" xmlns="http://www.w3.org/2000/svg">
<path d="M74.8475 11.7932C74.5732 11.4641 74.1893 11.0802 73.915 10.7511C65.6872 1.91983 52.2484 0 40.9488 0C29.5395 0 15.7167 1.91983 7.59856 11.2996C7.48886 11.4641 7.3243 11.6287 7.2146 11.7932C3.26523 16.5654 0.796875 23.3122 0.796875 32.4177C0.796875 60.5021 23.6154 65 40.9488 65C58.337 65 81.2104 60.5021 81.2104 32.4177C81.2104 23.3122 78.7969 16.5105 74.8475 11.7932ZM14.7842 16.2363C20.2146 7.89873 30.472 5.8692 40.9488 5.8692C51.4256 5.8692 61.5184 7.78903 67.0036 15.962C67.1133 16.1266 67.223 16.346 67.3327 16.5654C57.953 22.1055 47.3116 22.3249 40.9488 36.038C33.9825 22.7089 23.4509 22.5992 14.2357 17.2785C14.4003 16.9494 14.6197 16.6203 14.7842 16.2363ZM40.9488 59.1308C25.3707 59.2405 10.8348 54.7426 10.8348 32.4177C10.8348 30.7722 10.8348 29.0717 11.1091 27.6456C11.164 27.3165 11.2737 26.9873 11.3285 26.6582C16.5395 28.5232 21.6956 30.2785 26.9614 32.0338C33.1049 34.557 37.2188 38.1772 40.9488 46.2954C44.6787 38.1772 48.683 34.0633 54.8813 31.5401C60.2019 29.6751 65.4129 27.7553 70.7336 25.8903C70.7884 26 70.7884 26.1646 70.8433 26.2743C71.1175 28.0844 71.2273 30.2236 71.2273 32.4177C71.2821 54.7426 56.5268 59.2954 40.9488 59.1308Z" fill="#343434"/>
</svg>
