<svg width="125" height="48" viewBox="0 0 125 48" fill="none" xmlns="http://www.w3.org/2000/svg">
<path d="M91.9342 39.7032L93.6096 40.6948C93.6096 40.6948 95.0847 39.827 95.9522 40.199C96.8197 40.5708 112.253 40.1154 112.253 40.1154C112.253 40.1154 115.449 40.5415 115.997 38.5927C116.545 36.6441 117.955 23.0722 103.029 25.777C88.1038 28.4817 91.6147 36.9179 91.9342 39.7032Z" fill="black"/>
<path d="M10.4297 39.11L13.4361 41.4018C13.4361 41.4018 15.6348 40.5711 16.1829 40.7538C16.7308 40.9365 32.3008 42.0729 32.3008 42.0729C32.3008 42.0729 36.4559 42.461 37.6429 41.4018C38.8302 40.3429 32.5291 22.7162 23.5341 24.4522C14.539 26.1882 10.4297 39.11 10.4297 39.11Z" fill="black"/>
<path d="M3.45782 28.3957L2.8125 26.4944C2.8125 26.4944 6.41573 19.818 13.0369 20.5686C19.658 21.3194 3.45782 28.3957 3.45782 28.3957Z" fill="#CBCDCC"/>
<path d="M112.609 2.72363L120.089 19.2173H123.543C122.705 15.1293 120.178 8.44725 112.609 2.72363Z" fill="#BA1F25"/>
<path d="M120.086 19.2168L121.73 22.842L123.09 23.0634C123.09 23.0634 123.668 23.0753 123.759 22.9878C123.898 22.8555 124.015 21.5366 123.539 19.2168H120.086Z" fill="#BA1F25"/>
<path d="M22.8906 17.5382L23.5563 16.3399C23.5563 16.3399 45.6118 1.78418 54.5761 2.05049C63.5404 2.31679 25.287 22.1091 22.8906 17.5382Z" fill="#C9CDD6"/>
<path d="M124.014 32.9663C124.014 32.9663 123.807 32.0388 123.936 29.8073C120.832 29.8073 115.83 29.8073 114.847 29.8073C113.402 29.8073 111.647 28.6705 111.647 27.655C111.647 26.6396 112.193 26.7941 112.193 26.7941H123.35V22.9857L122.795 22.9186C122.795 22.9186 122.879 20.6333 122.039 16.7017C121.199 12.7698 117.536 7.86357 115.453 4.80558C113.369 1.74758 111.991 1.98288 106.514 1.17625C101.036 0.369619 77.4121 0 77.4121 0C77.4121 0 63.0629 0.470494 56.3756 1.44501C49.6882 2.41953 42.7992 6.11617 40.3796 7.42659C37.9599 8.73727 28.3965 15.9806 28.3965 15.9806C27.906 16.2872 24.2739 15.9806 24.2739 15.9806C19.6612 16.3025 9.82182 20.808 9.82182 20.808C10.113 20.7773 11.5677 21.0992 11.5677 21.0992C12.7324 21.8197 10.8607 23.0455 10.2017 23.5514C9.54278 24.0574 6.16714 26.0033 5.01766 26.3866C3.86831 26.7698 2.81788 26.494 2.81788 26.494C2.40402 26.9844 1.75897 29.2831 1.75897 29.2831C1.75897 29.2831 0.834232 29.7323 0.328125 30.6115L12.5618 30.454C12.5618 30.454 13.7037 30.3841 13.5871 30.92C13.4706 31.456 12.6549 33.0638 11.1171 33.1804C9.81243 33.2792 2.52212 33.311 0.339966 33.3183C0.638433 33.9766 1.02863 34.3773 1.02863 34.3773V36.1945C0.491004 36.7921 0.599071 37.5802 0.599071 37.5802C1.23267 41.3812 13.4378 41.4019 13.4378 41.4019C12.3713 34.1108 14.5377 27.3877 23.947 27.3877C32.4495 27.3877 34.2288 35.4806 34.4931 38.0576L93.7898 37.7923C94.3521 33.9812 96.5407 27.7599 104.834 27.69C116.797 27.5893 114.705 39.855 114.705 39.855C114.705 39.855 120.88 38.8469 122.963 37.7379C125.047 36.629 124.014 32.9663 124.014 32.9663Z" fill="#E5E5E3"/>
<path d="M13.582 30.9201C13.6986 30.3842 12.5567 30.4542 12.5567 30.4542L0.323002 30.6117C0.148553 30.9148 0.0235113 31.2688 0.0038279 31.6736C-0.027048 32.3103 0.132995 32.8733 0.334717 33.3186C2.517 33.3111 9.80731 33.2794 11.1118 33.1807C12.6498 33.064 13.4655 31.4561 13.582 30.9201Z" fill="#2C2D32"/>
<path d="M34.5332 38.6786C34.5332 40.0564 35.2724 42.0727 35.2724 42.0727L93.6102 40.695C93.6102 40.695 93.5509 39.6522 93.7399 38.1582L34.5234 38.423C34.5294 38.5241 34.5332 38.6136 34.5332 38.6786Z" fill="#E5E5E3"/>
<path d="M34.5219 38.4228L93.7384 38.158C93.7537 38.0389 93.7705 37.9168 93.7889 37.792L34.4922 38.0573C34.5063 38.1975 34.5156 38.3173 34.5219 38.4228Z" fill="#252428"/>
<path d="M35.6767 31.9917L90.8892 30.5803C90.8892 30.5803 93.4767 30.7817 94.2161 28.8328C94.2161 28.8328 94.4848 28.2951 92.8047 28.3287C91.1243 28.3624 35.2061 30.3114 35.2061 30.3114C35.2061 30.3114 34.4333 31.1851 35.6767 31.9917Z" fill="#28272D"/>
<path d="M71.5353 21.2718C71.5353 21.8552 68.2028 21.9177 64.0917 21.9177C59.981 21.9177 56.6484 21.9522 56.6484 21.2718C56.6484 20.626 59.981 20.626 64.0917 20.626C68.2028 20.626 71.5353 20.6897 71.5353 21.2718Z" fill="#C1B8BD"/>
<path d="M111.406 27.5991C111.406 28.6147 113.398 29.9417 114.843 29.9417C115.825 29.9417 120.828 29.9417 123.932 29.9417C123.938 29.6728 123.943 29.7438 123.95 29.6392C124.118 27.1861 123.346 26.7155 123.346 26.7155H112.189C112.189 26.7155 111.406 26.5837 111.406 27.5991Z" fill="#2C2D32"/>
<path d="M28.2578 19.2172L64.1342 17.1583L111.002 15.2523C111.002 15.2523 115.668 15.3181 115.997 13.872C116.325 12.4263 114.002 6.44551 112.601 4.99974C111.199 3.55372 111.462 3.42225 110.608 3.15942C109.753 2.89646 93.3227 1.77914 86.4877 1.71353C79.6525 1.64779 58.5559 1.2536 52.1151 3.48811C45.6743 5.72263 34.3043 11.9436 28.2578 19.2172Z" fill="#252428"/>
<path d="M30.1641 18.2235C30.1641 18.2235 39.2205 10.196 42.0605 9.17773L41.1497 17.5374L30.1641 18.2235Z" fill="#C9CDD6"/>
<path d="M43.1074 8.29356L42.4375 17.3767L61.5685 16.3049L63.5513 2.50587C63.5513 2.50587 50.8239 2.45261 43.1074 8.29356Z" fill="#C9CDD6"/>
<path d="M68.5058 2.50652L67.8359 16.0375L90.8252 15.2606L88.8156 2.26545C88.8156 2.26545 73.2215 1.80988 68.5058 2.50652Z" fill="#C9CDD6"/>
<path d="M93.6328 2.41797L95.5467 14.4749H112.002C112.002 14.4749 114.008 14.3143 114.571 13.6178C115.133 12.9213 114.946 11.2241 114.356 10.0718C113.767 8.91952 111.837 3.96754 110.283 3.69944C108.729 3.43159 93.6328 2.41797 93.6328 2.41797Z" fill="#C9CDD6"/>
<path d="M63.4581 37.9407C63.1473 35.7277 64.0087 17.9105 64.0455 17.153L64.0463 17.1454L66.2234 0.436523L66.4105 0.460708L64.2337 17.1658C64.2168 17.5174 63.3379 35.7291 63.6449 37.9143L63.4581 37.9407Z" fill="#1C1B21"/>
<path d="M91.9571 37.8476L91.8042 37.7373C94.2772 34.3065 95.3747 23.9054 95.4649 21.2685C95.5571 18.5751 93.7335 16.0328 93.715 16.0074L93.7014 15.9885L93.6981 15.9655L91.6958 2.07902L90.75 0.497286L90.912 0.400391L91.8771 2.0147L93.8816 15.916C94.0528 16.1603 95.7435 18.6437 95.6535 21.2751C95.5628 23.9245 94.4555 34.3812 91.9571 37.8476Z" fill="#1C1B21"/>
<path d="M95.5306 20.7783C95.4806 20.7783 95.5483 20.6509 95.543 20.4806C95.5376 20.3069 95.3939 20.1949 95.5212 20.1776L122.004 19.3633C122.008 19.3633 122.011 19.3633 122.014 19.3633C122.183 19.3633 122.323 19.5043 122.328 19.6746C122.334 19.848 122.197 19.9735 122.024 19.9789L95.5406 20.7783C95.5373 20.7783 95.5339 20.7783 95.5306 20.7783Z" fill="#1C1B21"/>
<path d="M11.9256 21.9389L11.8906 21.7536C12.0064 21.7316 23.5357 19.5498 28.2601 19.123L28.2771 19.311C23.5616 19.7367 12.0414 21.9169 11.9256 21.9389Z" fill="#1C1B21"/>
<path d="M35.3359 20.1268L38.321 16.1782C38.321 16.1782 39.2141 13.4986 41.447 13.2637C43.6799 13.0285 46.5004 13.0521 46.6649 15.144C46.8295 17.2358 45.8659 17.5415 44.9491 17.5179C44.0325 17.4943 40.3659 17.9174 40.3659 17.9174L40.6714 19.5627C40.6714 19.5627 35.5945 21.02 35.3359 20.1268Z" fill="#E5E5E3"/>
<path d="M33.2974 38.5923C33.2974 43.779 29.0928 47.9832 23.9063 47.9832C18.72 47.9832 14.5156 43.779 14.5156 38.5923C14.5156 33.4054 18.72 29.2012 23.9063 29.2012C29.0928 29.2012 33.2974 33.4054 33.2974 38.5923Z" fill="#27262C"/>
<path d="M16.8281 38.5922C16.8281 42.5103 20.0045 45.6863 23.9228 45.6863C27.8405 45.6863 31.0161 42.5103 31.0161 38.5922C31.0161 34.6743 27.8405 31.498 23.9228 31.498C20.0046 31.4982 16.8281 34.6743 16.8281 38.5922Z" fill="#C3BFBE"/>
<path d="M21.4627 33.8359L23.1043 35.702C23.1043 35.702 23.388 36.1496 23.776 36.1496C24.1643 36.1496 24.4478 35.8361 24.4478 35.8361L26.1642 33.8358C26.1642 33.8358 26.4028 33.552 26.1642 33.3585C25.9256 33.1643 25.088 32.8809 23.9251 32.8809C22.761 32.881 21.0445 33.1941 21.4627 33.8359Z" fill="#27262C"/>
<path d="M21.4625 43.3484L23.1042 41.4824C23.1042 41.4824 23.3883 41.0352 23.7763 41.0352C24.1639 41.0352 24.4481 41.3485 24.4481 41.3485L26.1644 43.3484C26.1644 43.3484 26.4031 43.6321 26.1644 43.8259C25.9259 44.0203 25.088 44.304 23.9251 44.304C22.7613 44.304 21.0448 43.9904 21.4625 43.3484Z" fill="#27262C"/>
<path d="M28.7433 36.2205L26.8775 37.8624C26.8775 37.8624 26.4297 38.1456 26.4297 38.5336C26.4297 38.9223 26.7432 39.2056 26.7432 39.2056L28.7435 40.9223C28.7435 40.9223 29.0273 41.1608 29.2206 40.9223C29.4151 40.6837 29.6987 39.8455 29.6987 38.6824C29.6984 37.519 29.385 35.8022 28.7433 36.2205Z" fill="#27262C"/>
<path d="M19.2214 36.2205L21.087 37.8624C21.087 37.8624 21.5346 38.1456 21.5346 38.5336C21.5346 38.9219 21.221 39.2055 21.221 39.2055L19.2214 40.9223C19.2214 40.9223 18.9377 41.1608 18.743 40.9223C18.5492 40.6831 18.2656 39.8455 18.2656 38.6824C18.2656 37.519 18.5797 35.8022 19.2214 36.2205Z" fill="#27262C"/>
<path d="M113.469 38.5928C113.469 43.7795 109.265 47.9837 104.078 47.9837C98.8918 47.9837 94.6875 43.7795 94.6875 38.5928C94.6875 33.4059 98.8918 29.2017 104.078 29.2017C109.265 29.2017 113.469 33.4059 113.469 38.5928Z" fill="#27262C"/>
<path d="M97.0078 38.5924C97.0078 42.5106 100.184 45.6865 104.102 45.6865C108.02 45.6865 111.196 42.5106 111.196 38.5924C111.196 34.6745 108.02 31.4983 104.102 31.4983C100.184 31.4984 97.0078 34.6745 97.0078 38.5924Z" fill="#C3BFBE"/>
<path d="M101.634 33.8362L103.276 35.7023C103.276 35.7023 103.56 36.1499 103.948 36.1499C104.336 36.1499 104.62 35.8363 104.62 35.8363L106.336 33.836C106.336 33.836 106.575 33.5523 106.336 33.3588C106.098 33.1645 105.26 32.8811 104.097 32.8811C102.933 32.8812 101.217 33.1943 101.634 33.8362Z" fill="#27262C"/>
<path d="M101.634 43.3486L103.276 41.4827C103.276 41.4827 103.56 41.0354 103.948 41.0354C104.336 41.0354 104.62 41.3487 104.62 41.3487L106.336 43.3486C106.336 43.3486 106.575 43.6323 106.336 43.8262C106.098 44.0206 105.26 44.3042 104.097 44.3042C102.933 44.3042 101.217 43.9906 101.634 43.3486Z" fill="#27262C"/>
<path d="M108.915 36.2208L107.049 37.8626C107.049 37.8626 106.602 38.1459 106.602 38.5339C106.602 38.9225 106.915 39.2058 106.915 39.2058L108.915 40.9225C108.915 40.9225 109.199 41.161 109.392 40.9225C109.587 40.684 109.871 39.8458 109.871 38.6826C109.87 37.5193 109.557 35.8024 108.915 36.2208Z" fill="#27262C"/>
<path d="M99.401 36.2208L101.267 37.8626C101.267 37.8626 101.714 38.1459 101.714 38.5339C101.714 38.9222 101.401 39.2057 101.401 39.2057L99.401 40.9225C99.401 40.9225 99.1174 41.161 98.9226 40.9225C98.7289 40.6833 98.4453 39.8458 98.4453 38.6826C98.4453 37.5193 98.7592 35.8024 99.401 36.2208Z" fill="#27262C"/>
</svg>
