<svg width="134" height="52" viewBox="0 0 134 52" fill="none" xmlns="http://www.w3.org/2000/svg">
<g clip-path="url(#clip0_2065_6627)">
<path d="M10.4465 41.983C10.4465 41.983 12.018 41.5726 12.3008 41.7619C12.3008 41.7619 12.128 35.8433 18.0692 34.5649C18.0692 34.5649 22.8788 33.8547 25.0008 38.4952L25.3308 39.5368L26.0853 38.3529C26.0853 38.3529 24.4346 33.476 20.0498 32.8605C20.0498 32.8605 16.1831 32.1503 13.6842 33.8547C13.6842 33.8547 10.3363 35.654 10.7136 41.3358L10.2891 41.9839L10.4465 41.983Z" fill="black"/>
<path d="M34.7523 40.8627C34.7523 38.7706 32.5778 37.0747 29.8959 37.0747C27.2134 37.0747 25.0391 38.7706 25.0391 40.8627C25.0391 42.9545 27.2134 44.6504 29.8959 44.6504C32.5778 44.6504 34.7523 42.9545 34.7523 40.8627Z" fill="#231F20"/>
<path d="M100.008 44.6504C100.008 44.6504 100.951 43.6565 101.093 42.1411C101.093 42.1411 101.045 39.205 98.4521 36.5539C98.4521 36.5539 94.8683 32.0558 87.7485 35.1333C87.7485 35.1333 83.5518 36.8851 83.7406 43.4668L84.9192 43.6089C84.9192 43.6089 84.4007 38.1641 90.0119 36.128C90.0119 36.128 94.2553 34.6598 97.3203 37.5484C97.3203 37.5484 100.48 40.1995 100.008 44.6504Z" fill="black"/>
<path d="M130.619 29.42C130.619 29.42 130.148 16.0991 128.45 5.5879C128.45 5.5879 127.853 2.90472 126.093 1.07391C126.093 1.07391 125.339 0.000789642 121.818 0.000789642L38.3907 1.13717C38.3907 1.13717 37.133 1.13733 36.3785 0.88456C36.3785 0.88456 32.5432 0.0640564 18.3349 2.21045C18.3349 2.21045 13.0538 3.09422 11.2935 4.86206C11.2935 4.86206 9.15642 7.26092 8.71643 7.89238C8.71643 7.89238 5.63541 12.9425 1.92617 22.9174C1.92617 22.9174 0.542807 25.7578 1.04619 32.0709L1.18748 35.8907C1.18748 35.8907 0.794585 35.5751 0.63718 36.2063C0.63718 36.2063 0.354532 37.3116 0.951462 39.2688C0.951462 39.2688 1.64358 40.3422 1.67481 41.6679C1.67481 41.6679 1.70597 41.7942 2.17736 41.8573L10.2877 41.9838C10.2877 41.9838 10.948 42.0467 10.8221 41.0054C10.8221 41.0054 10.5706 35.1962 14.6885 33.523C14.6885 33.523 19.0267 31.7242 22.7043 34.0282C22.7043 34.0282 25.0464 35.3227 26.4609 40.6731C26.4609 40.6731 27.1208 42.3302 27.734 42.4247L83.7504 43.4666C83.7504 43.4666 83.7504 38.0687 86.9096 35.8907C86.9096 35.8907 89.7857 33.2394 95.2084 34.7072C95.2084 34.7072 99.4991 35.7017 100.961 41.8093C100.961 41.8093 101.479 43.5611 101.668 43.6559C101.668 43.6559 121.566 44.1925 127.539 43.1824C127.539 43.1824 129.299 43.1193 130.556 41.0993C130.556 41.0993 131.939 36.9957 130.117 36.0487C130.117 36.0487 129.865 31.8189 130.619 29.42Z" fill="#E6E7E8"/>
<path d="M85.609 37.0972L24.8047 36.2979C24.8047 36.2979 26.1778 38.8725 26.4552 40.6735C26.4552 40.6735 27.1174 42.422 27.7283 42.4252L83.7447 43.467C83.7447 43.467 83.6506 40.1699 85.609 37.0972Z" fill="#B3B3B3"/>
<path d="M11.8654 36.2363L3.12015 36.0801C3.12015 36.0801 2.75174 37.0325 3.66708 40.7521C3.66708 40.7521 3.8785 41.3681 3.83222 41.8328L10.2872 41.9839C10.2872 41.9839 10.9306 41.9382 10.8472 41.1769C10.8472 41.1769 10.5188 38.7868 11.8654 36.2363Z" fill="#B3B3B3"/>
<path d="M125.337 6.15583L25.8154 7.32393L25.3281 23.0593L125.149 23.3907C125.149 23.3907 127.365 23.8168 127.365 21.4022C127.365 21.4022 127.082 10.0385 126.516 7.19769C126.516 7.19769 126.374 6.09286 125.337 6.15583Z" fill="#231F20"/>
<path d="M81.2394 22.2355L81.475 7.71429L109.012 7.43134L108.918 22.3298L81.2394 22.2355ZM80.3438 23.1312L109.814 23.2256L110.049 6.58276L80.6264 6.86572L80.3438 23.1312Z" fill="#F1F1F2"/>
<path d="M95.3165 7.54463L95.3007 22.3962H94.6406L94.8292 7.57618L95.3165 7.54463Z" fill="#BBBDBF"/>
<path d="M53.2021 22.139L53.4257 7.94135L79.556 7.66507L79.467 22.2314L53.2021 22.139ZM52.3516 23.0152L80.317 23.1072L80.5409 6.83516L52.6201 7.11174L52.3516 23.0152Z" fill="#F1F1F2"/>
<path d="M66.5174 7.77714L66.5025 22.3203H65.875L66.0542 7.8081L66.5174 7.77714Z" fill="#BBBDBF"/>
<path d="M26.316 22.0809L26.5307 8.2L51.6197 7.92979L51.5342 22.1712L26.316 22.0809ZM25.5 22.9374L52.3503 23.0273L52.565 7.11839L25.7576 7.38891L25.5 22.9374Z" fill="#F1F1F2"/>
<path d="M44.0774 8.94942H34.0812C34.0812 8.94942 33.6096 8.6654 33.5625 10.228C33.5625 10.228 33.7509 15.1994 34.1755 14.584C34.1755 14.584 35.7316 13.8265 35.213 15.1994C35.213 15.1994 35.0243 20.2183 35.4014 21.0232L40.0224 21.0705C40.0224 21.0705 41.0596 21.1179 41.531 19.9816C41.531 19.9816 43.2286 16.2884 44.5961 16.2884C44.5961 16.2884 44.5961 11.4115 44.0774 8.94942Z" fill="#3B3A3C"/>
<path d="M22.3962 11.5066L9.14668 11.6488C9.14668 11.6488 6.8361 15.1998 5.13887 21.7813C5.13887 21.7813 4.90297 22.8228 5.98751 23.249L20.0858 23.3437C20.0858 23.3437 21.4532 23.4384 21.7362 21.8286L22.3962 11.5066Z" fill="#231F20"/>
<path d="M18.6387 12.2168C18.6387 12.2168 9.63286 12.0036 9.11419 12.2878C9.11419 12.2878 8.00627 14.742 7.94346 15.1207C7.94346 15.1207 7.88043 16.1622 7.59743 16.8568C7.59743 16.8568 6.9374 18.6561 6.37158 18.5614C6.37158 18.5614 6.24588 18.9399 6.52876 18.9399C6.52876 18.9399 7.81763 18.7507 7.84921 19.8556C7.84921 19.8556 9.01232 18.7507 9.82939 19.4453C9.82939 19.4453 10.6783 19.1927 10.961 19.5083C10.961 19.5083 11.1339 19.6664 11.3381 19.3192C11.3381 19.3192 11.0082 19.1615 10.3008 19.1455C10.3008 19.1455 9.9234 18.7667 10.4895 18.6247C10.4895 18.6247 12.2027 18.7272 13.2163 19.4846C13.2163 19.4846 13.4994 19.6268 13.4286 19.1297C13.4286 19.1297 13.1457 16.644 13.7114 15.9338C13.7114 15.9338 14.7253 15.2709 15.456 16.1704C15.456 16.1704 15.8806 18.3246 15.574 19.3192C15.574 19.3192 15.6446 19.8163 14.631 19.9109C14.631 19.9109 14.466 19.982 14.7253 20.1713C14.7253 20.1713 15.291 20.6212 15.6683 20.5975L18.7333 12.3826C18.7333 12.3826 18.8039 12.2404 18.6387 12.2168Z" fill="#3B3A3C"/>
<path d="M5.92548 21.2231C6.84784 16.7305 9.52287 12.1916 9.52287 12.1916L21.6992 12.099L21.0997 21.5934C20.8688 22.8903 19.8544 22.7051 19.8544 22.7051L6.5247 22.7515C5.60258 22.7515 5.92548 21.2231 5.92548 21.2231ZM6.15589 23.1218L19.9465 23.2145C19.9465 23.2145 21.2841 23.3072 21.5609 21.7325L22.2067 11.6358L9.24617 11.7748C9.24617 11.7748 6.98606 15.2485 5.32589 21.6861C5.32589 21.6861 5.09519 22.7051 6.15589 23.1218Z" fill="#F1F1F2"/>
<path d="M1.03551 32.0706C1.03551 32.0706 1.91532 32.2604 2.92138 32.2921C2.92138 32.2921 3.04691 35.1648 3.10994 36.0798C3.10994 36.0798 1.31857 36.0798 1.1768 35.8905C1.1768 35.8905 0.972476 32.2912 1.03551 32.0706Z" fill="#E6E7E8"/>
<path d="M1.03906 32.6166C1.03906 32.6166 1.81246 32.6631 2.04825 32.7336C2.04825 32.7336 2.23687 32.6866 2.23687 33.2783C2.23687 33.2783 2.30746 35.7642 2.51982 36.0244L3.08552 36.0718C3.08552 36.0718 2.8495 32.5916 2.89702 32.2841C2.89702 32.2841 1.58895 32.2216 1.04691 32.0879L1.03906 32.6166Z" fill="#404041"/>
<path d="M1.1875 33.1367C1.1875 33.1367 1.47038 32.9234 1.47038 33.4208C1.47038 33.4208 1.58818 34.1784 1.1875 33.9179V33.1367Z" fill="#F6921E"/>
<path d="M2.12138 33.9022C2.12138 33.9022 1.8149 34.2572 1.55526 33.9494C1.55526 33.9494 1.31965 33.1448 1.62608 32.9791C1.62608 32.9791 2.12138 32.8606 2.16848 33.3342C2.16848 33.3342 2.26279 33.7837 2.12138 33.9022Z" fill="#F6921E"/>
<path d="M130.493 29.9877C130.493 29.9877 129.172 30.3667 128.826 30.8402C128.826 30.8402 128.386 31.1241 128.135 32.7021C128.135 32.7021 127.789 35.5117 127.789 36.6798C127.789 36.6798 129.927 37.1213 130.21 36.1114C130.21 36.1114 130.964 34.9118 130.43 33.2391C130.43 33.2391 131.058 30.9032 130.493 29.9877Z" fill="#404041"/>
<path d="M130.654 34.549C130.654 33.6339 130.14 32.8919 129.507 32.8919C128.873 32.8919 128.359 33.6339 128.359 34.549C128.359 35.4643 128.873 36.2061 129.507 36.2061C130.14 36.2061 130.654 35.4643 130.654 34.549Z" fill="#BE1E2D"/>
<path d="M100.074 43.2775C100.074 39.0409 96.654 35.6071 92.4353 35.6071C88.2165 35.6071 84.7969 39.0409 84.7969 43.2775C84.7969 47.5135 88.2165 50.9478 92.4353 50.9478C96.654 50.9478 100.074 47.5135 100.074 43.2775Z" fill="#323031"/>
<path d="M96.5498 43.372C96.5498 40.9665 94.6359 39.0159 92.275 39.0159C89.9139 39.0159 88 40.9665 88 43.372C88 45.7782 89.9139 47.728 92.275 47.728C94.6359 47.728 96.5498 45.7782 96.5498 43.372Z" fill="#D0D2D3"/>
<path d="M96.2128 43.372C96.2128 41.1757 94.4651 39.3946 92.3097 39.3946C90.1542 39.3946 88.4062 41.1757 88.4062 43.372C88.4062 45.5688 90.1542 47.3494 92.3097 47.3494C94.4651 47.3494 96.2128 45.5688 96.2128 43.372Z" fill="#58595B"/>
<path d="M96.0913 43.3951C96.0913 41.3159 94.4024 39.6307 92.3192 39.6307C90.2358 39.6307 88.5469 41.3159 88.5469 43.3951C88.5469 45.4738 90.2358 47.1589 92.3192 47.1589C94.4024 47.1589 96.0913 45.4738 96.0913 43.3951Z" fill="#BBBDBF"/>
<path d="M95.6246 43.3486C95.6246 41.5313 94.1576 40.0579 92.3476 40.0579C90.5376 40.0579 89.0703 41.5313 89.0703 43.3486C89.0703 45.1661 90.5376 46.6394 92.3476 46.6394C94.1576 46.6394 95.6246 45.1661 95.6246 43.3486Z" fill="#231F20"/>
<path d="M25.696 41.5251C25.696 37.6287 22.6877 34.4703 18.9769 34.4703C15.2662 34.4703 12.2578 37.6287 12.2578 41.5251C12.2578 45.4215 15.2662 48.5801 18.9769 48.5801C22.6877 48.5801 25.696 45.4215 25.696 41.5251Z" fill="#323031"/>
<path d="M22.5377 41.7936C22.5377 39.492 20.8065 37.6265 18.6713 37.6265C16.5358 37.6265 14.8047 39.492 14.8047 41.7936C14.8047 44.0946 16.5358 45.96 18.6713 45.96C20.8065 45.96 22.5377 44.0946 22.5377 41.7936Z" fill="#A6A8AB"/>
<path d="M22.1917 41.7305C22.1917 39.621 20.538 37.911 18.4986 37.911C16.4584 37.911 14.8047 39.621 14.8047 41.7305C14.8047 43.8397 16.4584 45.5496 18.4986 45.5496C20.538 45.5496 22.1917 43.8397 22.1917 41.7305Z" fill="#BBBDBF"/>
<path d="M50.4369 36.9798L36.7156 36.7904C36.7156 36.7904 36.134 36.775 36.1653 37.5641L36.3226 40.8465C36.3226 40.8465 36.3538 41.3204 37.1397 41.3204L50.5939 41.4463C50.5939 41.4463 50.9397 41.4149 50.9397 40.6572L50.8767 37.532C50.8767 37.532 50.8767 37.1217 50.4369 36.9798Z" fill="white"/>
<path d="M36.238 37.7219C36.2068 36.9651 36.7822 36.98 36.7822 36.98L50.3536 37.1616C50.7888 37.2978 50.7888 37.6917 50.7888 37.6917L50.8512 40.6897C50.8512 41.4163 50.509 41.4465 50.509 41.4465L37.2018 41.3256C36.4244 41.3256 36.3934 40.8713 36.3934 40.8713L36.238 37.7219ZM36.1653 37.6584L36.3226 40.9415C36.3226 40.9415 36.3538 41.4151 37.1397 41.4151L50.5939 41.541C50.5939 41.541 50.9397 41.5099 50.9397 40.7522L50.8767 37.627C50.8767 37.627 50.8767 37.2167 50.4369 37.0747L36.7156 36.885C36.7156 36.885 36.134 36.8697 36.1653 37.6584Z" fill="#BBBDBF"/>
<path d="M21.7798 41.6828C21.7798 39.774 20.3447 38.2266 18.5736 38.2266C16.8027 38.2266 15.3672 39.774 15.3672 41.6828C15.3672 43.592 16.8027 45.1394 18.5736 45.1394C20.3447 45.1394 21.7798 43.592 21.7798 41.6828Z" fill="#231F20"/>
<path d="M48.8278 37.1849L38.2656 36.9955L38.3919 41.0991L49.0165 41.2253L48.8278 37.1849Z" fill="#231F20"/>
<path d="M6.54291 24.2436L4.90824 24.2121C4.90824 24.2121 4.6256 24.3067 4.5625 24.8433V25.7586C4.5625 25.7586 4.68821 26.0428 4.97116 26.1375L6.60566 26.1692C6.60566 26.1692 7.07693 26.1059 7.04571 25.5693C7.04571 25.5693 7.20276 24.5593 6.54291 24.2436Z" fill="#231F20"/>
<path d="M129.313 43.112C129.467 42.8635 130.009 43.0054 130.009 43.0054C130.15 43.0644 130.009 43.2537 130.009 43.2537C129.16 43.3485 129.313 43.112 129.313 43.112ZM128.673 43.3408C128.673 43.3408 128.798 43.246 129.27 43.435C129.27 43.435 130.842 43.6878 130.056 42.7725C130.056 42.7725 131.282 42.8987 131.565 42.8987C131.565 42.8987 132.099 42.8673 132.068 42.4569L132.284 42.4727L132.272 42.733L132.638 42.7212L132.649 42.3937L132.854 42.3468L132.869 41.9362L133.294 41.8889C133.294 41.8889 133.372 41.652 133.058 41.5733L133.027 41.3361L132.822 41.3522L132.791 41.0049C132.791 41.0049 133.168 40.6893 132.791 40.1841C132.791 40.1841 131.91 39.9003 132.099 40.847C132.099 40.847 132.256 40.9729 132.193 41.2891C132.193 41.2891 131.942 41.6681 131.628 41.4153L130.465 41.5102C130.465 41.5102 130.402 41.8254 130.119 41.6675C130.119 41.6675 129.553 42.362 128.516 42.8987C128.516 42.8987 128.767 43.1515 128.673 43.3408Z" fill="#231F20"/>
<path d="M127.964 51.0386C127.964 51.0386 127.548 51.0174 127.689 50.7992C127.689 50.7992 127.767 50.7844 127.757 50.6982C127.757 50.6982 127.684 50.6021 127.558 50.6021C127.542 50.6021 127.525 50.6036 127.508 50.6069L126.986 50.4606C126.986 50.4606 126.977 50.3836 126.859 50.3836C126.853 50.3836 126.846 50.3839 126.838 50.3844C126.838 50.3844 126.631 50.1606 126.211 49.9224C126.216 49.9118 126.22 49.9009 126.224 49.8901C126.252 49.8767 126.285 49.8556 126.284 49.8291C126.288 49.8261 126.291 49.8229 126.295 49.8195C126.324 49.8304 126.396 49.8493 126.556 49.851C126.556 49.851 127.283 49.9535 126.873 50.1002C126.873 50.1002 127.437 50.1979 127.565 50.2279C127.565 50.2279 127.806 50.292 127.768 50.3918L127.867 50.4105L127.876 50.344L128.042 50.3853L128.028 50.4689L128.118 50.5023L128.102 50.6069L128.291 50.6638C128.291 50.6638 128.309 50.7198 128.201 50.7198C128.191 50.7198 128.179 50.7192 128.166 50.718L128.138 50.7743L128.046 50.7485L128.012 50.8327C128.012 50.8327 128.165 50.9515 127.964 51.0386ZM126.593 49.9119C126.538 49.9119 126.556 49.9366 126.556 49.9366C126.611 50.0154 126.866 50.0368 126.866 50.0368C126.866 50.0368 126.866 50.0368 126.866 50.0368C126.933 50.0368 126.88 49.9743 126.88 49.9743C126.717 49.9257 126.635 49.9119 126.593 49.9119Z" fill="#A2A2A3"/>
<path d="M126.209 49.9221C126.199 49.9166 126.19 49.9111 126.18 49.9059C126.18 49.9059 126.199 49.9001 126.222 49.8898C126.218 49.9005 126.213 49.9115 126.209 49.9221ZM126.282 49.8288C126.282 49.8233 126.28 49.8176 126.277 49.8116C126.277 49.8116 126.281 49.8147 126.293 49.8192C126.289 49.8225 126.285 49.8257 126.282 49.8288Z" fill="#737374"/>
<path d="M103.109 43.6556C103.109 43.6556 102.198 43.9077 102.732 44.6342C102.732 44.6342 103.172 45.4232 103.518 45.8653C103.518 45.8653 103.706 46.1175 103.204 46.3225L101.977 47.0959C101.977 47.0959 101.915 46.6855 101.318 46.4334C101.318 46.4334 100.626 46.2441 101.003 42.4874L101.098 42.1405L101.663 43.6556H103.109Z" fill="#231F20"/>
<path d="M2.875 31.7723L127.246 32.9557C127.246 32.9557 127.552 33.2159 127.309 33.6658L2.92234 32.2929L2.875 31.7723Z" fill="#EAEBEC"/>
<path d="M4.06739 41.8567L3.85745 41.8353C3.85751 41.8347 3.85757 41.8339 3.85763 41.8333L4.06532 41.8381C4.06674 41.8503 4.06739 41.8567 4.06739 41.8567ZM3.49672 40.029C3.40767 39.6806 3.33631 39.4419 3.33631 39.4419C3.12726 38.5141 3.00202 37.2738 2.92712 36.0784C2.9927 36.0793 3.04463 36.0798 3.07793 36.0799C3.08122 36.1256 3.08441 36.1702 3.08772 36.2146C3.02834 36.5525 2.95251 37.5909 3.49672 40.029ZM2.88705 32.2837C2.87365 32.2831 2.84987 32.2819 2.8174 32.2801C2.8177 32.1854 2.81817 32.1341 2.81817 32.1341C2.34642 25.5215 3.47796 22.5386 3.47796 22.5386C4.4211 17.2355 8.88495 9.72289 8.88495 9.72289C9.92223 7.86052 11.5883 7.57649 11.5883 7.57649C13.7261 7.32403 17.876 7.28185 20.4047 7.28185C21.6686 7.28185 22.5277 7.29232 22.5277 7.29232C23.9106 7.32403 23.6276 8.90223 23.6276 8.90223C23.0616 14.016 22.8811 28.8359 22.8811 28.8359C22.8576 29.6879 22.6218 30.3513 22.6218 30.3513C22.4919 30.7929 22.2516 31.4006 22.018 31.9539L21.8588 31.9524L22.2447 31.0851C22.7398 29.9486 22.7161 28.623 22.7161 28.623C22.6689 19.5556 23.4702 9.16273 23.4702 9.16273L23.4939 8.42871C23.4939 7.62384 22.8104 7.50549 22.8104 7.50549L14.5825 7.52916C12.9556 7.55283 11.9891 7.69484 11.9891 7.69484C10.2914 7.97901 9.38775 9.28199 9.38775 9.28199C4.79842 16.9041 3.59606 22.2782 3.59606 22.2782C2.45638 27.0055 2.86516 31.5823 2.86516 31.5823C2.87211 31.8229 2.87944 32.0569 2.88705 32.2837Z" fill="#C5C8CB"/>
<path d="M4.06577 41.8379L3.85808 41.833C3.87018 41.7073 3.87898 41.4421 3.7947 41.1157C3.84616 41.1204 3.89839 41.1251 3.9508 41.1298C4.02635 41.5123 4.05797 41.769 4.06577 41.8379ZM3.86498 40.7296C3.79417 40.7172 3.72358 40.7044 3.65334 40.6912C3.602 40.4512 3.5468 40.223 3.49717 40.0288C2.95295 37.5907 3.02879 36.5523 3.08816 36.2144C3.25613 38.4984 3.43155 39.2523 3.43155 39.2523C3.62884 39.802 3.76814 40.3106 3.86498 40.7296Z" fill="#4E4F52"/>
<path d="M3.07506 36.0798C3.04176 36.0797 2.98983 36.0792 2.92426 36.0783C2.92385 36.0716 2.92343 36.0651 2.92296 36.0583L3.07446 36.071C3.07464 36.0738 3.07488 36.0771 3.07506 36.0798ZM2.93665 33.6368C2.91098 33.1513 2.89203 32.716 2.89062 32.471C2.90502 32.882 2.92042 33.2703 2.93665 33.6368Z" fill="#C5C8CB"/>
<path d="M3.0726 36.0708L2.9211 36.0581C2.81558 34.3618 2.81127 32.7606 2.81268 32.2798C2.84515 32.2816 2.86893 32.2828 2.88233 32.2834C2.88445 32.3464 2.88664 32.4089 2.88877 32.4708C2.89017 32.7158 2.90912 33.1511 2.93479 33.6366C2.97689 34.5891 3.02427 35.394 3.0726 36.0708Z" fill="black"/>
<path d="M21.3991 33.3572L21.2578 33.3104L21.6191 32.4986L21.7859 32.5004C21.5685 32.9956 21.3991 33.3572 21.3991 33.3572Z" fill="#C5C8CB"/>
<path d="M21.784 32.5L21.6172 32.4982L21.8603 31.9518L22.0195 31.9534C21.9386 32.1453 21.8585 32.3304 21.784 32.5Z" fill="#CED1D4"/>
<path d="M4.87287 18.5299C4.87287 18.5299 5.31292 20.8658 5.5644 21.8127C5.5644 21.8127 5.87892 23.1069 5.40723 23.1384L4.58992 23.2016C4.58992 23.2016 4.58992 24.0856 4.90433 24.2119L4.65283 24.4326C4.65283 24.4326 4.1497 23.8961 4.30715 23.2331C4.30715 23.2331 3.55253 23.2647 3.67818 22.3492C3.67818 22.3492 3.70959 21.8127 4.02386 21.4656C4.02386 21.4656 3.8039 19.3506 3.92973 19.0349C3.92973 19.0349 4.55858 18.1826 4.87287 18.5299Z" fill="#231F20"/>
<mask id="mask0_2065_6627" style="mask-type:luminance" maskUnits="userSpaceOnUse" x="9" y="8" width="14" height="4">
<path d="M9.14062 11.6008L22.4845 11.4113L22.6025 9.06771C22.6025 9.06771 22.6025 8.38102 21.7066 8.38102C21.7066 8.38102 13.7614 8.23886 11.9699 8.73604C11.9699 8.73604 10.1072 9.18605 9.14062 11.6008Z" fill="white"/>
</mask>
<g mask="url(#mask0_2065_6627)">
<path d="M9.14062 11.6008L22.4845 11.4113L22.6025 9.06771C22.6025 9.06771 22.6025 8.38102 21.7066 8.38102C21.7066 8.38102 13.7614 8.23886 11.9699 8.73604C11.9699 8.73604 10.1072 9.18605 9.14062 11.6008Z" fill="url(#paint0_linear_2065_6627)"/>
</g>
<path d="M11.7421 9.439C11.7421 9.439 18.2802 8.99689 21.8324 9.28106C21.8324 9.28106 22.3668 9.8491 21.9265 10.6068C21.9265 10.6068 16.3314 10.9225 11.3331 10.6382C11.3331 10.6382 11.0187 9.84925 11.7421 9.439ZM11.2074 11.2065L21.5495 11.1117C21.5495 11.1117 22.2412 11.0172 22.2412 10.1019C22.2412 10.1019 22.3669 8.8705 21.5181 8.93377C21.5181 8.93377 16.174 8.49181 11.9305 9.18639C11.9305 9.18639 9.85562 9.97548 11.2074 11.2065Z" fill="#E6E7E8"/>
<path d="M25.8168 7.32408L22.9766 7.33546L23.1651 7.43848H25.8056L25.8168 7.32408Z" fill="#404041"/>
<path d="M126.818 36.4907L99.9096 36.2696L99.375 36.301C99.375 36.301 99.8153 37.0904 100.224 37.1219L126.849 37.3904L126.818 36.4907Z" fill="#F1F1F2"/>
<path d="M100.152 37.1084L100.068 37.1076C99.7106 36.9339 99.375 36.3326 99.375 36.3326L99.393 36.3315C99.4735 36.468 99.8139 37.0136 100.152 37.1084Z" fill="#D4D6D9"/>
<path d="M126.859 37.3352L100.165 37.1087C99.8272 37.0139 99.4868 36.4683 99.4062 36.3318L99.9228 36.3012L126.831 36.5223L126.859 37.3352ZM100.06 36.4042L99.5298 36.4296C99.5298 36.4296 99.9662 37.0627 100.371 37.0882L126.768 37.3036L126.737 36.5815L100.06 36.4042Z" fill="#E7E7EA"/>
<path d="M85.1831 36.1751L25.6932 35.4177C25.6932 35.4177 24.8602 35.4174 25.3161 35.9066C25.3161 35.9066 25.8189 36.3487 26.1178 36.3487L84.5231 37.0273C84.5231 37.0273 84.9791 36.8697 85.1831 36.1751Z" fill="#F1F1F2"/>
<path d="M84.558 37.0828L48.1954 36.6048L84.5231 37.0269C84.5231 37.0269 84.9477 36.8801 85.1607 36.2459L85.1831 36.246C85.0131 36.8242 84.6683 37.0301 84.558 37.0828ZM25.9457 36.3125L25.787 36.3104C25.5459 36.1794 25.3161 35.9773 25.3161 35.9773C25.1999 35.8526 25.1674 35.7598 25.1836 35.6906C25.1955 35.749 25.2357 35.82 25.3161 35.9062C25.3161 35.9062 25.6581 36.207 25.9457 36.3125Z" fill="#D4D6D9"/>
<path d="M84.5329 37.0974L26.1276 36.4191C26.0308 36.4191 25.9125 36.3726 25.7969 36.31L25.9555 36.3121C26.0166 36.3344 26.0752 36.3479 26.1276 36.3479L48.2052 36.6045L84.5679 37.0824C84.5456 37.093 84.5329 37.0974 84.5329 37.0974Z" fill="#7B7D7F"/>
<path d="M84.5192 37.0273L48.1915 36.6052L26.1139 36.3487C26.0615 36.3487 26.0028 36.3352 25.9418 36.3129C25.6543 36.2074 25.3122 35.9066 25.3122 35.9066C25.2318 35.8204 25.1916 35.7494 25.1797 35.691C25.2268 35.4884 25.6893 35.4884 25.6893 35.4884L85.1568 36.2463C84.9438 36.8805 84.5192 37.0273 84.5192 37.0273ZM25.8762 35.6926C25.8365 35.6926 25.0615 35.6966 25.5012 36.0047C25.5012 36.0047 25.9998 36.2906 26.2964 36.2918L84.3314 37.0196C84.3314 37.0196 84.7851 36.9207 84.9903 36.4768L25.8777 35.6926C25.8777 35.6926 25.8773 35.6926 25.8762 35.6926Z" fill="#E7E7EA"/>
<path d="M11.4008 35.3223L3.73077 35.2278C3.73077 35.2278 3.38485 35.9535 3.82502 36.0797L10.9293 36.1746C10.9293 36.1746 11.8726 35.7327 11.4008 35.3223Z" fill="#F1F1F2"/>
<path d="M11.0223 36.2207L3.68315 36.0896C3.61298 36.0118 3.59556 35.8992 3.60323 35.7842C3.61339 35.9182 3.67123 36.0355 3.82504 36.0796L3.92909 36.081C3.93564 36.0828 3.94237 36.0845 3.94932 36.0861L5.69656 36.1045L10.9293 36.1744C10.9293 36.1744 11.4744 35.9191 11.5286 35.6162C11.5774 35.8775 11.2026 36.1203 11.0223 36.2207Z" fill="#D4D6D9"/>
<path d="M10.9258 36.27L3.82158 36.1752C3.7599 36.1574 3.71362 36.128 3.67969 36.0904L11.0189 36.2215C10.963 36.2526 10.9258 36.27 10.9258 36.27Z" fill="#7B7D7F"/>
<path d="M10.9276 36.1746L5.69488 36.1046L10.816 36.1588C10.816 36.1588 11.7278 35.8201 11.272 35.5055L3.85653 35.4328C3.85653 35.4328 3.53298 35.9713 3.92742 36.0811L3.82336 36.0797C3.66955 36.0356 3.61172 35.9183 3.60156 35.7843C3.61673 35.5581 3.72911 35.3223 3.72911 35.3223L11.3992 35.4172C11.4754 35.4835 11.5146 35.5505 11.5269 35.6164C11.4727 35.9192 10.9276 36.1746 10.9276 36.1746Z" fill="#E7E7EA"/>
<path d="M125.787 0.820993C125.787 0.820993 125.158 0.126571 121.764 0.000339508L38.9334 1.13672C38.9334 1.13672 36.89 1.51542 35.7585 1.32622C35.7585 1.32622 34.4381 0.820996 33.4952 0.884111C33.4952 0.884111 24.6307 1.19984 20.9844 2.14673C20.9844 2.14673 32.7409 1.95738 36.8273 2.08361L123.807 0.757879C123.807 0.757879 124.797 0.694762 125.787 0.820993Z" fill="#F7F7F8"/>
<path d="M124.558 1.04273L33.744 2.17927C33.744 2.17927 28.0855 1.61108 20.1641 2.74731L34.4984 2.46314L124.57 1.44525L124.558 1.04273Z" fill="#D0D2D3"/>
<path d="M127.047 43.3408C127.047 43.3408 127.707 41.5413 128.022 37.0276C128.022 37.0276 128.127 36.7236 128.63 36.7553C128.63 36.7553 130.009 36.9094 130.209 36.1123C130.209 36.1123 131.008 35.986 131.039 37.1221C131.039 37.1221 131.613 40.8156 129.499 42.4252C129.499 42.4252 128.462 43.1986 127.047 43.3408Z" fill="#404041"/>
<path d="M2.93338 36.1838C2.93338 36.1838 0.372208 36.2046 1.03246 35.8259C1.03246 35.8259 0.596365 35.7488 0.398058 36.3961C0.398058 36.3961 0.272228 38.2584 0.743561 39.1421C0.743561 39.1421 1.46667 40.1524 1.62396 41.6672C1.62396 41.6672 1.74194 41.9911 3.84783 41.9122C3.84783 41.9122 3.94988 41.3836 3.66711 40.7521C3.66711 40.7521 3.11304 39.5129 2.93338 36.1838Z" fill="#404041"/>
<path d="M50.1426 37.2002H45.8987C45.8987 37.2002 45.7809 37.4213 46.0009 37.4369L50.2131 37.4524C50.2131 37.4524 50.3076 37.279 50.1426 37.2002Z" fill="#E6E7E8"/>
<path d="M50.1583 37.6901H45.9145C45.9145 37.6901 45.7963 37.9112 46.0166 37.927L50.2287 37.9426C50.2287 37.9426 50.3234 37.7694 50.1583 37.6901Z" fill="#E6E7E8"/>
<path d="M50.1583 38.1318H45.9145C45.9145 38.1318 45.7963 38.3529 46.0166 38.3683L50.2287 38.3843C50.2287 38.3843 50.3234 38.211 50.1583 38.1318Z" fill="#E6E7E8"/>
<path d="M50.2204 38.6052H45.977C45.977 38.6052 45.8588 38.8263 46.0788 38.8417L50.291 38.8577C50.291 38.8577 50.3858 38.6841 50.2204 38.6052Z" fill="#E6E7E8"/>
<path d="M50.2204 39.1259H45.977C45.977 39.1259 45.8588 39.3467 46.0788 39.3625L50.291 39.3784C50.291 39.3784 50.3858 39.2043 50.2204 39.1259Z" fill="#E6E7E8"/>
<path d="M50.2829 39.5682H46.0393C46.0393 39.5682 45.9215 39.789 46.1415 39.8047L50.3536 39.8203C50.3536 39.8203 50.4482 39.6471 50.2829 39.5682Z" fill="#E6E7E8"/>
<path d="M50.2987 40.042H46.055C46.055 40.042 45.937 40.2627 46.157 40.2789L50.3692 40.2944C50.3692 40.2944 50.4639 40.1212 50.2987 40.042Z" fill="#E6E7E8"/>
<path d="M50.3146 40.4994H46.0708C46.0708 40.4994 45.9526 40.7208 46.1726 40.7361L50.3849 40.7522C50.3849 40.7522 50.4796 40.5788 50.3146 40.4994Z" fill="#E6E7E8"/>
<path d="M50.3304 40.9575H46.0864C46.0864 40.9575 45.9682 41.1786 46.1883 41.1944L50.4006 41.2097C50.4006 41.2097 50.4953 41.0364 50.3304 40.9575Z" fill="#E6E7E8"/>
<path d="M45.5487 37.1691H41.305C41.305 37.1691 41.187 37.3905 41.407 37.4061L45.6192 37.4219C45.6192 37.4219 45.7139 37.2485 45.5487 37.1691Z" fill="#E6E7E8"/>
<path d="M45.5877 37.6587H41.3442C41.3442 37.6587 41.226 37.8797 41.4462 37.8958L45.6584 37.9111C45.6584 37.9111 45.7529 37.7379 45.5877 37.6587Z" fill="#E6E7E8"/>
<path d="M45.5877 38.1H41.3442C41.3442 38.1 41.226 38.3214 41.4462 38.3368L45.6584 38.3528C45.6584 38.3528 45.7529 38.1795 45.5877 38.1Z" fill="#E6E7E8"/>
<path d="M45.6345 38.5734H41.3909C41.3909 38.5734 41.2729 38.7945 41.4934 38.8102L45.7055 38.8262C45.7055 38.8262 45.8001 38.6523 45.6345 38.5734Z" fill="#E6E7E8"/>
<path d="M45.6345 39.0944H41.3909C41.3909 39.0944 41.2729 39.3155 41.4934 39.3312L45.7055 39.3469C45.7055 39.3469 45.8001 39.1732 45.6345 39.0944Z" fill="#E6E7E8"/>
<path d="M45.6971 39.5365H41.4534C41.4534 39.5365 41.3356 39.7572 41.5555 39.7733L45.7678 39.7886C45.7678 39.7886 45.8625 39.6153 45.6971 39.5365Z" fill="#E6E7E8"/>
<path d="M45.7128 40.0095H41.4691C41.4691 40.0095 41.3511 40.2306 41.5711 40.2467L45.7834 40.262C45.7834 40.262 45.8778 40.0887 45.7128 40.0095Z" fill="#E6E7E8"/>
<path d="M45.7282 40.468H41.4848C41.4848 40.468 41.3666 40.689 41.5868 40.7047L45.7989 40.7205C45.7989 40.7205 45.8938 40.547 45.7282 40.468Z" fill="#E6E7E8"/>
<path d="M45.7441 40.9257H41.5004C41.5004 40.9257 41.3823 41.1465 41.6024 41.1626L45.8144 41.1782C45.8144 41.1782 45.9093 41.0046 45.7441 40.9257Z" fill="#E6E7E8"/>
<path d="M40.9627 37.1369H36.7192C36.7192 37.1369 36.601 37.3577 36.821 37.3736L41.0334 37.3894C41.0334 37.3894 41.1279 37.2157 40.9627 37.1369Z" fill="#E6E7E8"/>
<path d="M40.9941 37.6262H36.7503C36.7503 37.6262 36.6324 37.847 36.8524 37.8628L41.0645 37.8784C41.0645 37.8784 41.1591 37.7055 40.9941 37.6262Z" fill="#E6E7E8"/>
<path d="M40.9941 38.0685H36.7503C36.7503 38.0685 36.6324 38.2899 36.8524 38.3056L41.0645 38.3213C41.0645 38.3213 41.1591 38.1477 40.9941 38.0685Z" fill="#E6E7E8"/>
<path d="M41.0411 38.5422H36.7973C36.7973 38.5422 36.6791 38.763 36.8995 38.7787L41.1114 38.7947C41.1114 38.7947 41.2062 38.6211 41.0411 38.5422Z" fill="#E6E7E8"/>
<path d="M41.0411 39.063H36.7973C36.7973 39.063 36.6791 39.2838 36.8995 39.2994L41.1114 39.3152C41.1114 39.3152 41.2062 39.1418 41.0411 39.063Z" fill="#E6E7E8"/>
<path d="M41.1033 39.5046H36.8598C36.8598 39.5046 36.7416 39.7253 36.9618 39.7414L41.1739 39.7571C41.1739 39.7571 41.2689 39.5835 41.1033 39.5046Z" fill="#E6E7E8"/>
<path d="M41.1191 39.9783H36.8755C36.8755 39.9783 36.7572 40.1991 36.9772 40.2152L41.1895 40.2305C41.1895 40.2305 41.2844 40.0572 41.1191 39.9783Z" fill="#E6E7E8"/>
<path d="M41.1343 40.4362H36.8911C36.8911 40.4362 36.7728 40.6573 36.9931 40.6732L41.2054 40.689C41.2054 40.689 41.2998 40.5153 41.1343 40.4362Z" fill="#E6E7E8"/>
<path d="M41.1504 40.894H36.9067C36.9067 40.894 36.7885 41.1151 37.0087 41.1308L41.2209 41.1465C41.2209 41.1465 41.3157 40.9729 41.1504 40.894Z" fill="#E6E7E8"/>
<path d="M127.223 22.2231C127.223 22.2231 127.286 23.6121 124.52 23.4226C121.754 23.2331 25.375 23.0436 25.375 23.0436C25.375 23.0436 26.4443 23.7382 32.6053 23.7382L126.092 24.4326C126.092 24.4326 127.412 24.3064 127.223 22.2231Z" fill="#F1F1F2"/>
<mask id="mask1_2065_6627" style="mask-type:luminance" maskUnits="userSpaceOnUse" x="2" y="30" width="21" height="2">
<path d="M21.8145 31.9133L2.85943 31.677L2.8125 30.3511L22.2977 30.7178C22.2977 30.7178 21.9088 31.2506 21.8145 31.9133Z" fill="white"/>
</mask>
<g mask="url(#mask1_2065_6627)">
<path d="M21.8145 31.9133L2.85943 31.677L2.8125 30.3511L22.2977 30.7178C22.2977 30.7178 21.9088 31.2506 21.8145 31.9133Z" fill="url(#paint1_linear_2065_6627)"/>
</g>
<path d="M127.722 37.3418L98.7734 37.0963C98.7734 37.0963 99.7277 37.5546 101.668 43.6554C101.668 43.6554 120.499 43.9912 127.048 43.3398C127.048 43.3398 128.151 39.124 127.722 37.3418Z" fill="#B3B3B3"/>
<mask id="mask2_2065_6627" style="mask-type:luminance" maskUnits="userSpaceOnUse" x="22" y="30" width="107" height="3">
<path d="M22.125 31.9131L127.957 32.7969L128.004 31.4713L22.5573 30.7807C22.5573 30.7807 22.243 31.2976 22.125 31.9131Z" fill="white"/>
</mask>
<g mask="url(#mask2_2065_6627)">
<path d="M22.125 31.9131L127.957 32.7969L128.004 31.4713L22.5573 30.7807C22.5573 30.7807 22.243 31.2976 22.125 31.9131Z" fill="url(#paint2_linear_2065_6627)"/>
</g>
<path d="M127.754 36.6331C127.754 36.6331 127.629 40.8946 127.031 42.8203C127.031 42.8203 127.11 43.041 127.298 42.9464C127.298 42.9464 127.99 40.0738 128.124 36.8385C128.124 36.8385 130.67 36.9094 130.222 36.199C130.222 36.199 129.625 36.8071 127.754 36.6331Z" fill="#231F20"/>
<path d="M2.55733 35.8353L1.30769 35.8118C1.30769 35.8118 1.14273 35.9538 1.30769 35.9775L2.69855 36.0247L2.55733 35.8353Z" fill="#404041"/>
<path d="M5.88858 38.9916L4.56836 38.9683C4.56836 38.9683 4.30908 39.5597 4.56836 39.9625C4.56836 39.9625 4.63901 40.1755 5.88858 40.1043C5.88858 40.1043 6.05354 40.1043 6.00638 39.6072C6.00638 39.6072 5.99044 38.9916 5.88858 38.9916Z" fill="#404041"/>
<path d="M5.75843 39.1143L4.73036 39.0956C4.73036 39.0956 4.52846 39.5561 4.73036 39.8699C4.73036 39.8699 4.7856 40.0356 5.75843 39.9805C5.75843 39.9805 5.88704 39.9805 5.85008 39.5935C5.85008 39.5935 5.83769 39.1143 5.75843 39.1143Z" fill="#F6921E"/>
<path d="M5.8544 39.696C5.85369 39.6653 5.85164 39.6313 5.84803 39.5935C5.84803 39.5935 5.84561 39.4988 5.83594 39.3937C5.86526 39.5022 5.86007 39.6296 5.8544 39.696Z" fill="#F8AD57"/>
<path d="M5.4962 39.9219C5.34829 39.9219 5.21095 39.8996 5.21095 39.8996L5.19531 39.2366L5.63531 39.2045C5.75482 39.2045 5.81389 39.2904 5.84182 39.3936C5.85149 39.4987 5.8539 39.5934 5.8539 39.5934C5.85752 39.6312 5.85957 39.6652 5.86028 39.696C5.85786 39.7243 5.85532 39.7415 5.85532 39.7415C5.87256 39.8887 5.67649 39.9219 5.4962 39.9219Z" fill="#FFD038"/>
<path d="M58.5747 39.5922L57.1479 39.5686C57.1479 39.5686 56.8678 40.1603 57.1479 40.5628C57.1479 40.5628 57.2244 40.7761 58.5747 40.7049C58.5747 40.7049 58.753 40.7049 58.7019 40.2078C58.7019 40.2078 58.6847 39.5922 58.5747 39.5922Z" fill="#404041"/>
<path d="M58.4344 39.7137L57.3236 39.6953C57.3236 39.6953 57.1053 40.1561 57.3236 40.4689C57.3236 40.4689 57.3831 40.6352 58.4344 40.5801C58.4344 40.5801 58.5731 40.5801 58.5332 40.1928C58.5332 40.1928 58.5199 39.7137 58.4344 39.7137Z" fill="#F6921E"/>
<path d="M57.3869 40.5173C57.3355 40.5114 57.3048 40.5073 57.3048 40.5073L57.3047 40.4494C57.3089 40.4562 57.3135 40.4632 57.3183 40.4699C57.3183 40.4699 57.3261 40.492 57.3869 40.5173ZM58.5293 40.208C58.5288 40.2033 58.5284 40.1986 58.5279 40.1937C58.5279 40.1937 58.5264 40.1383 58.521 40.0654C58.5296 40.1148 58.5311 40.164 58.5293 40.208Z" fill="#F8AD57"/>
<path d="M57.9718 40.554C57.7471 40.554 57.5103 40.5309 57.3893 40.5171C57.3286 40.4917 57.3207 40.4696 57.3207 40.4696C57.3159 40.4629 57.3113 40.4559 57.3071 40.4491L57.3047 39.7495L58.1222 39.7424C58.4001 39.7523 58.4963 39.9102 58.5234 40.0651C58.5288 40.1381 58.5303 40.1934 58.5303 40.1934C58.5308 40.1983 58.5312 40.203 58.5317 40.2077C58.5278 40.3 58.5087 40.3692 58.5087 40.3692C58.5312 40.5156 58.2614 40.554 57.9718 40.554Z" fill="#FFD038"/>
<path d="M117.364 40.5631L115.937 40.5392C115.937 40.5392 115.657 41.1314 115.937 41.5337C115.937 41.5337 116.013 41.7465 117.364 41.6754C117.364 41.6754 117.542 41.6754 117.491 41.1784C117.491 41.1784 117.474 40.5631 117.364 40.5631Z" fill="#404041"/>
<path d="M117.239 40.6855L116.128 40.6668C116.128 40.6668 115.91 41.1276 116.128 41.4412C116.128 41.4412 116.188 41.6069 117.239 41.5514C117.239 41.5514 117.378 41.5514 117.338 41.1643C117.338 41.1643 117.325 40.6855 117.239 40.6855Z" fill="#F6921E"/>
<path d="M116.19 41.4878C116.14 41.482 116.11 41.478 116.11 41.478L116.109 41.4206C116.114 41.4276 116.118 41.4344 116.123 41.4412C116.123 41.4412 116.131 41.4628 116.19 41.4878ZM117.334 41.1778C117.334 41.1734 117.333 41.1689 117.333 41.1643C117.333 41.1643 117.331 41.1099 117.326 41.0378C117.334 41.0863 117.336 41.1346 117.334 41.1778Z" fill="#F8AD57"/>
<path d="M116.615 41.5212C116.438 41.5145 116.272 41.4979 116.177 41.4869C116.117 41.4619 116.11 41.4403 116.11 41.4403C116.105 41.4335 116.101 41.4267 116.096 41.4197L116.094 40.7197L116.911 40.7126C117.19 40.7224 117.286 40.8814 117.313 41.0369C117.318 41.109 117.319 41.1635 117.319 41.1635C117.32 41.168 117.32 41.1726 117.321 41.177C117.317 41.2697 117.298 41.3393 117.298 41.3393C117.314 41.4462 117.175 41.4956 116.986 41.5144L116.615 41.5212Z" fill="#FFD038"/>
<mask id="mask3_2065_6627" style="mask-type:luminance" maskUnits="userSpaceOnUse" x="34" y="42" width="50" height="2">
<path d="M83.4793 43.5605L34.2422 42.5639C34.246 42.5579 34.25 42.5517 34.2538 42.5457L83.5449 43.4625C83.5237 43.5005 83.5018 43.5333 83.4793 43.5605Z" fill="white"/>
</mask>
<g mask="url(#mask3_2065_6627)">
<path d="M83.4793 43.5605L34.2422 42.5639C34.246 42.5579 34.25 42.5517 34.2538 42.5457L83.5449 43.4625C83.5237 43.5005 83.5018 43.5333 83.4793 43.5605Z" fill="url(#paint3_linear_2065_6627)"/>
</g>
<mask id="mask4_2065_6627" style="mask-type:luminance" maskUnits="userSpaceOnUse" x="27" y="42" width="8" height="1">
<path d="M34.2332 42.5637L27.3281 42.424L27.2344 42.1551L27.2735 42.1557C27.4196 42.3166 27.5734 42.4236 27.7242 42.4243L34.2449 42.5455C34.2411 42.5516 34.237 42.5578 34.2332 42.5637Z" fill="white"/>
</mask>
<g mask="url(#mask4_2065_6627)">
<path d="M34.2332 42.5637L27.3281 42.424L27.2344 42.1551L27.2735 42.1557C27.4196 42.3166 27.5734 42.4236 27.7242 42.4243L34.2449 42.5455C34.2411 42.5516 34.237 42.5578 34.2332 42.5637Z" fill="url(#paint4_linear_2065_6627)"/>
</g>
<mask id="mask5_2065_6627" style="mask-type:luminance" maskUnits="userSpaceOnUse" x="27" y="42" width="57" height="2">
<path d="M83.5437 43.4629L34.2526 42.5461L27.732 42.4248C27.5812 42.4241 27.4274 42.3171 27.2812 42.1563L83.6611 43.1899C83.6246 43.2949 83.5855 43.3884 83.5437 43.4629Z" fill="white"/>
</mask>
<g mask="url(#mask5_2065_6627)">
<path d="M83.5437 43.4629L34.2526 42.5461L27.732 42.4248C27.5812 42.4241 27.4274 42.3171 27.2812 42.1563L83.6611 43.1899C83.6246 43.2949 83.5855 43.3884 83.5437 43.4629Z" fill="url(#paint5_linear_2065_6627)"/>
</g>
<mask id="mask6_2065_6627" style="mask-type:luminance" maskUnits="userSpaceOnUse" x="83" y="41" width="1" height="2">
<path d="M83.7812 42.7639C83.8045 42.4673 83.844 42.0915 83.9098 41.6663L83.9792 41.667C83.9792 41.667 83.9083 42.236 83.7812 42.7639Z" fill="white"/>
</mask>
<g mask="url(#mask6_2065_6627)">
<path d="M83.7812 42.7639C83.8045 42.4673 83.844 42.0915 83.9098 41.6663L83.9792 41.667C83.9792 41.667 83.9083 42.236 83.7812 42.7639Z" fill="url(#paint6_linear_2065_6627)"/>
</g>
<mask id="mask7_2065_6627" style="mask-type:luminance" maskUnits="userSpaceOnUse" x="83" y="41" width="1" height="2">
<path d="M83.7656 42.8171C83.7865 42.5163 83.8262 42.1238 83.9015 41.6668H83.9072C83.8413 42.092 83.8019 42.4678 83.7786 42.7644C83.7744 42.7819 83.77 42.7995 83.7656 42.8171Z" fill="white"/>
</mask>
<g mask="url(#mask7_2065_6627)">
<path d="M83.7656 42.8171C83.7865 42.5163 83.8262 42.1238 83.9015 41.6668H83.9072C83.8413 42.092 83.8019 42.4678 83.7786 42.7644C83.7744 42.7819 83.77 42.7995 83.7656 42.8171Z" fill="url(#paint7_linear_2065_6627)"/>
</g>
<mask id="mask8_2065_6627" style="mask-type:luminance" maskUnits="userSpaceOnUse" x="26" y="41" width="58" height="3">
<path d="M83.6811 43.115L83.677 43.0408L27.1884 42.0166L26.8906 41.1621L36.5175 41.2473C36.6366 41.3387 36.8306 41.4151 37.1462 41.4151L50.6005 41.5411C50.6005 41.5411 50.7169 41.5306 50.8147 41.3739L83.9006 41.6667C83.8254 42.1236 83.7856 42.5162 83.7648 42.817C83.739 42.9202 83.711 43.0212 83.6811 43.115ZM50.5155 41.4465L37.2083 41.3256C37.1447 41.3256 37.0863 41.3225 37.0323 41.317C37.0684 41.3194 37.1064 41.3206 37.1462 41.3206L50.5207 41.4458C50.5173 41.4464 50.5155 41.4465 50.5155 41.4465Z" fill="white"/>
</mask>
<g mask="url(#mask8_2065_6627)">
<path d="M83.6811 43.115L83.677 43.0408L27.1884 42.0166L26.8906 41.1621L36.5175 41.2473C36.6366 41.3387 36.8306 41.4151 37.1462 41.4151L50.6005 41.5411C50.6005 41.5411 50.7169 41.5306 50.8147 41.3739L83.9006 41.6667C83.8254 42.1236 83.7856 42.5162 83.7648 42.817C83.739 42.9202 83.711 43.0212 83.6811 43.115ZM50.5155 41.4465L37.2083 41.3256C37.1447 41.3256 37.0863 41.3225 37.0323 41.317C37.0684 41.3194 37.1064 41.3206 37.1462 41.3206L50.5207 41.4458C50.5173 41.4464 50.5155 41.4465 50.5155 41.4465Z" fill="url(#paint8_linear_2065_6627)"/>
</g>
<mask id="mask9_2065_6627" style="mask-type:luminance" maskUnits="userSpaceOnUse" x="36" y="41" width="15" height="1">
<path d="M50.5306 41.4453L37.1561 41.3201C37.1162 41.3201 37.0783 41.3189 37.0422 41.3165C36.9242 41.3044 36.8283 41.2801 36.75 41.2488L50.6656 41.3719C50.6038 41.4289 50.5476 41.4424 50.5306 41.4453Z" fill="white"/>
</mask>
<g mask="url(#mask9_2065_6627)">
<path d="M50.5306 41.4453L37.1561 41.3201C37.1162 41.3201 37.0783 41.3189 37.0422 41.3165C36.9242 41.3044 36.8283 41.2801 36.75 41.2488L50.6656 41.3719C50.6038 41.4289 50.5476 41.4424 50.5306 41.4453Z" fill="url(#paint9_linear_2065_6627)"/>
</g>
<mask id="mask10_2065_6627" style="mask-type:luminance" maskUnits="userSpaceOnUse" x="36" y="41" width="15" height="1">
<path d="M50.5985 41.541L37.1443 41.4151C36.8287 41.4151 36.6347 41.3386 36.5156 41.2473L36.7382 41.2492C36.8164 41.2805 36.9124 41.3048 37.0304 41.3169C37.0843 41.3225 37.1428 41.3256 37.2064 41.3256L50.5136 41.4465C50.5136 41.4465 50.5154 41.4463 50.5188 41.4457C50.5358 41.4428 50.592 41.4293 50.6538 41.3723L50.8128 41.3738C50.715 41.5305 50.5985 41.541 50.5985 41.541Z" fill="white"/>
</mask>
<g mask="url(#mask10_2065_6627)">
<path d="M50.5985 41.541L37.1443 41.4151C36.8287 41.4151 36.6347 41.3386 36.5156 41.2473L36.7382 41.2492C36.8164 41.2805 36.9124 41.3048 37.0304 41.3169C37.0843 41.3225 37.1428 41.3256 37.2064 41.3256L50.5136 41.4465C50.5136 41.4465 50.5154 41.4463 50.5188 41.4457C50.5358 41.4428 50.592 41.4293 50.6538 41.3723L50.8128 41.3738C50.715 41.5305 50.5985 41.541 50.5985 41.541Z" fill="url(#paint10_linear_2065_6627)"/>
</g>
<mask id="mask11_2065_6627" style="mask-type:luminance" maskUnits="userSpaceOnUse" x="100" y="41" width="20" height="3">
<path d="M112.781 43.7974C108.728 43.7974 104.954 43.7297 103.017 43.6881C103.026 43.6842 103.035 43.6807 103.043 43.6776C104.878 43.7031 108.334 43.7428 112.148 43.7428C114.719 43.7428 117.451 43.7248 119.961 43.6725C118.665 43.7254 117.296 43.7688 115.913 43.7825C114.868 43.7929 113.815 43.7974 112.781 43.7974ZM101.66 43.6562L101.095 42.1412L101.089 42.1636L100.953 41.8096L101.044 41.808C101.237 42.3578 101.443 42.9715 101.66 43.6562Z" fill="white"/>
</mask>
<g mask="url(#mask11_2065_6627)">
<path d="M112.781 43.7974C108.728 43.7974 104.954 43.7297 103.017 43.6881C103.026 43.6842 103.035 43.6807 103.043 43.6776C104.878 43.7031 108.334 43.7428 112.148 43.7428C114.719 43.7428 117.451 43.7248 119.961 43.6725C118.665 43.7254 117.296 43.7688 115.913 43.7825C114.868 43.7929 113.815 43.7974 112.781 43.7974ZM101.66 43.6562L101.095 42.1412L101.089 42.1636L100.953 41.8096L101.044 41.808C101.237 42.3578 101.443 42.9715 101.66 43.6562Z" fill="url(#paint11_linear_2065_6627)"/>
</g>
<mask id="mask12_2065_6627" style="mask-type:luminance" maskUnits="userSpaceOnUse" x="101" y="42" width="3" height="2">
<path d="M103.022 43.6877C102.163 43.6692 101.665 43.6559 101.665 43.6559L101.094 42.1632L101.1 42.1408L101.665 43.6559C101.665 43.6559 102.173 43.665 103.049 43.6773C103.04 43.6803 103.031 43.6838 103.022 43.6877Z" fill="white"/>
</mask>
<g mask="url(#mask12_2065_6627)">
<path d="M103.022 43.6877C102.163 43.6692 101.665 43.6559 101.665 43.6559L101.094 42.1632L101.1 42.1408L101.665 43.6559C101.665 43.6559 102.173 43.665 103.049 43.6773C103.04 43.6803 103.031 43.6838 103.022 43.6877Z" fill="url(#paint12_linear_2065_6627)"/>
</g>
<mask id="mask13_2065_6627" style="mask-type:luminance" maskUnits="userSpaceOnUse" x="127" y="43" width="1" height="1">
<path d="M127.047 43.3298C127.05 43.3168 127.057 43.2911 127.066 43.2542C127.069 43.2537 127.071 43.2535 127.073 43.2531C127.061 43.2913 127.052 43.3166 127.048 43.3297C127.048 43.3297 127.047 43.3298 127.047 43.3298Z" fill="white"/>
</mask>
<g mask="url(#mask13_2065_6627)">
<path d="M127.047 43.3298C127.05 43.3168 127.057 43.2911 127.066 43.2542C127.069 43.2537 127.071 43.2535 127.073 43.2531C127.061 43.2913 127.052 43.3166 127.048 43.3297C127.048 43.3297 127.047 43.3298 127.047 43.3298Z" fill="url(#paint13_linear_2065_6627)"/>
</g>
<mask id="mask14_2065_6627" style="mask-type:luminance" maskUnits="userSpaceOnUse" x="127" y="42" width="1" height="2">
<path d="M127.062 43.2549C127.079 43.1887 127.105 43.0863 127.136 42.954C127.142 42.9572 127.149 42.96 127.156 42.9623C127.119 43.0951 127.09 43.1916 127.07 43.2538C127.067 43.2542 127.065 43.2544 127.062 43.2549Z" fill="white"/>
</mask>
<g mask="url(#mask14_2065_6627)">
<path d="M127.062 43.2549C127.079 43.1887 127.105 43.0863 127.136 42.954C127.142 42.9572 127.149 42.96 127.156 42.9623C127.119 43.0951 127.09 43.1916 127.07 43.2538C127.067 43.2542 127.065 43.2544 127.062 43.2549Z" fill="url(#paint14_linear_2065_6627)"/>
</g>
<mask id="mask15_2065_6627" style="mask-type:luminance" maskUnits="userSpaceOnUse" x="128" y="42" width="1" height="2">
<path d="M128.375 43.0122C128.433 42.9897 128.488 42.9668 128.542 42.9439C128.544 42.946 128.546 42.9483 128.548 42.9506C128.497 42.9697 128.439 42.9905 128.375 43.0122Z" fill="white"/>
</mask>
<g mask="url(#mask15_2065_6627)">
<path d="M128.375 43.0122C128.433 42.9897 128.488 42.9668 128.542 42.9439C128.544 42.946 128.546 42.9483 128.548 42.9506C128.497 42.9697 128.439 42.9905 128.375 43.0122Z" fill="url(#paint15_linear_2065_6627)"/>
</g>
<mask id="mask16_2065_6627" style="mask-type:luminance" maskUnits="userSpaceOnUse" x="128" y="42" width="1" height="1">
<path d="M128.552 42.9502C128.551 42.9479 128.549 42.9456 128.547 42.9436C128.654 42.8977 128.754 42.8515 128.845 42.8061C128.841 42.8164 128.837 42.8261 128.833 42.8353C128.833 42.8353 128.733 42.8829 128.552 42.9502Z" fill="white"/>
</mask>
<g mask="url(#mask16_2065_6627)">
<path d="M128.552 42.9502C128.551 42.9479 128.549 42.9456 128.547 42.9436C128.654 42.8977 128.754 42.8515 128.845 42.8061C128.841 42.8164 128.837 42.8261 128.833 42.8353C128.833 42.8353 128.733 42.8829 128.552 42.9502Z" fill="url(#paint16_linear_2065_6627)"/>
</g>
<mask id="mask17_2065_6627" style="mask-type:luminance" maskUnits="userSpaceOnUse" x="127" y="41" width="3" height="3">
<path d="M127.047 43.3298C127.051 43.3168 127.06 43.2915 127.072 43.2533C127.092 43.191 127.122 43.0945 127.159 42.9618C127.173 42.9665 127.188 42.9692 127.205 42.9692C127.232 42.9692 127.261 42.9624 127.295 42.9457C127.295 42.9457 127.446 42.3183 127.62 41.3197L129.369 41.2877C129.369 41.2877 129.008 42.3995 128.847 42.8058C128.755 42.8512 128.656 42.8974 128.548 42.9433C128.494 42.9662 128.438 42.9891 128.381 43.0116C128.066 43.1185 127.604 43.2493 127.047 43.3298Z" fill="white"/>
</mask>
<g mask="url(#mask17_2065_6627)">
<path d="M127.047 43.3298C127.051 43.3168 127.06 43.2915 127.072 43.2533C127.092 43.191 127.122 43.0945 127.159 42.9618C127.173 42.9665 127.188 42.9692 127.205 42.9692C127.232 42.9692 127.261 42.9624 127.295 42.9457C127.295 42.9457 127.446 42.3183 127.62 41.3197L129.369 41.2877C129.369 41.2877 129.008 42.3995 128.847 42.8058C128.755 42.8512 128.656 42.8974 128.548 42.9433C128.494 42.9662 128.438 42.9891 128.381 43.0116C128.066 43.1185 127.604 43.2493 127.047 43.3298Z" fill="url(#paint17_linear_2065_6627)"/>
</g>
<mask id="mask18_2065_6627" style="mask-type:luminance" maskUnits="userSpaceOnUse" x="101" y="41" width="27" height="3">
<path d="M112.151 43.7419C108.337 43.7419 104.881 43.7022 103.046 43.6767C102.171 43.6644 101.663 43.6554 101.663 43.6554C101.445 42.9706 101.24 42.3569 101.047 41.8071L115.944 41.5337C115.949 41.5445 116.031 41.6893 116.865 41.6893C117.01 41.6893 117.177 41.6849 117.37 41.6748C117.37 41.6748 117.457 41.6748 117.492 41.5053L127.35 41.3244C127.262 41.8868 127.156 42.4065 127.028 42.8192C127.028 42.8192 127.062 42.9148 127.139 42.9532C127.107 43.0854 127.082 43.1879 127.065 43.2541C127.056 43.291 127.049 43.3167 127.046 43.3297C126.773 43.3692 126.476 43.3965 126.163 43.4029C124.648 43.4338 122.441 43.5703 119.964 43.6716C117.453 43.7239 114.721 43.7419 112.151 43.7419Z" fill="white"/>
</mask>
<g mask="url(#mask18_2065_6627)">
<path d="M112.151 43.7419C108.337 43.7419 104.881 43.7022 103.046 43.6767C102.171 43.6644 101.663 43.6554 101.663 43.6554C101.445 42.9706 101.24 42.3569 101.047 41.8071L115.944 41.5337C115.949 41.5445 116.031 41.6893 116.865 41.6893C117.01 41.6893 117.177 41.6849 117.37 41.6748C117.37 41.6748 117.457 41.6748 117.492 41.5053L127.35 41.3244C127.262 41.8868 127.156 42.4065 127.028 42.8192C127.028 42.8192 127.062 42.9148 127.139 42.9532C127.107 43.0854 127.082 43.1879 127.065 43.2541C127.056 43.291 127.049 43.3167 127.046 43.3297C126.773 43.3692 126.476 43.3965 126.163 43.4029C124.648 43.4338 122.441 43.5703 119.964 43.6716C117.453 43.7239 114.721 43.7419 112.151 43.7419Z" fill="url(#paint18_linear_2065_6627)"/>
</g>
<mask id="mask19_2065_6627" style="mask-type:luminance" maskUnits="userSpaceOnUse" x="127" y="41" width="1" height="2">
<path d="M127.209 42.97C127.192 42.97 127.177 42.9672 127.162 42.9626C127.155 42.9602 127.149 42.9574 127.142 42.9542C127.065 42.9158 127.031 42.8203 127.031 42.8203C127.159 42.4075 127.266 41.8878 127.354 41.3255L127.624 41.3205C127.449 42.3191 127.298 42.9464 127.298 42.9464C127.265 42.9632 127.235 42.97 127.209 42.97Z" fill="white"/>
</mask>
<g mask="url(#mask19_2065_6627)">
<path d="M127.209 42.97C127.192 42.97 127.177 42.9672 127.162 42.9626C127.155 42.9602 127.149 42.9574 127.142 42.9542C127.065 42.9158 127.031 42.8203 127.031 42.8203C127.159 42.4075 127.266 41.8878 127.354 41.3255L127.624 41.3205C127.449 42.3191 127.298 42.9464 127.298 42.9464C127.265 42.9632 127.235 42.97 127.209 42.97Z" fill="url(#paint19_linear_2065_6627)"/>
</g>
<mask id="mask20_2065_6627" style="mask-type:luminance" maskUnits="userSpaceOnUse" x="115" y="41" width="3" height="1">
<path d="M116.859 41.6899C116.025 41.6899 115.942 41.5451 115.938 41.5343L116.324 41.5271C116.431 41.5471 116.591 41.5625 116.831 41.5625C116.943 41.5625 117.074 41.5592 117.224 41.5511C117.224 41.5511 117.256 41.5511 117.284 41.5095L117.486 41.5059C117.451 41.6754 117.364 41.6754 117.364 41.6754C117.171 41.6856 117.004 41.6899 116.859 41.6899Z" fill="white"/>
</mask>
<g mask="url(#mask20_2065_6627)">
<path d="M116.859 41.6899C116.025 41.6899 115.942 41.5451 115.938 41.5343L116.324 41.5271C116.431 41.5471 116.591 41.5625 116.831 41.5625C116.943 41.5625 117.074 41.5592 117.224 41.5511C117.224 41.5511 117.256 41.5511 117.284 41.5095L117.486 41.5059C117.451 41.6754 117.364 41.6754 117.364 41.6754C117.171 41.6856 117.004 41.6899 116.859 41.6899Z" fill="url(#paint20_linear_2065_6627)"/>
</g>
<mask id="mask21_2065_6627" style="mask-type:luminance" maskUnits="userSpaceOnUse" x="116" y="41" width="2" height="1">
<path d="M116.842 41.5627C116.602 41.5627 116.442 41.5473 116.336 41.5274L116.63 41.5221C116.679 41.5239 116.728 41.5249 116.777 41.5249C116.855 41.5249 116.932 41.5222 117.001 41.5153L117.296 41.5098C117.267 41.5514 117.236 41.5514 117.236 41.5514C117.085 41.5594 116.955 41.5627 116.842 41.5627Z" fill="white"/>
</mask>
<g mask="url(#mask21_2065_6627)">
<path d="M116.842 41.5627C116.602 41.5627 116.442 41.5473 116.336 41.5274L116.63 41.5221C116.679 41.5239 116.728 41.5249 116.777 41.5249C116.855 41.5249 116.932 41.5222 117.001 41.5153L117.296 41.5098C117.267 41.5514 117.236 41.5514 117.236 41.5514C117.085 41.5594 116.955 41.5627 116.842 41.5627Z" fill="url(#paint21_linear_2065_6627)"/>
</g>
<mask id="mask22_2065_6627" style="mask-type:luminance" maskUnits="userSpaceOnUse" x="116" y="41" width="2" height="1">
<path d="M116.78 41.5242C116.731 41.5242 116.681 41.5231 116.633 41.5213L117.004 41.5145C116.934 41.5215 116.858 41.5242 116.78 41.5242Z" fill="white"/>
</mask>
<g mask="url(#mask22_2065_6627)">
<path d="M116.78 41.5242C116.731 41.5242 116.681 41.5231 116.633 41.5213L117.004 41.5145C116.934 41.5215 116.858 41.5242 116.78 41.5242Z" fill="url(#paint22_linear_2065_6627)"/>
</g>
<mask id="mask23_2065_6627" style="mask-type:luminance" maskUnits="userSpaceOnUse" x="10" y="41" width="1" height="1">
<path d="M10.8125 41.5735C10.8224 41.5442 10.8307 41.513 10.8372 41.4794C10.8493 41.5284 10.8636 41.5577 10.8636 41.5577C10.853 41.5639 10.8359 41.5691 10.8125 41.5735Z" fill="white"/>
</mask>
<g mask="url(#mask23_2065_6627)">
<path d="M10.8125 41.5735C10.8224 41.5442 10.8307 41.513 10.8372 41.4794C10.8493 41.5284 10.8636 41.5577 10.8636 41.5577C10.853 41.5639 10.8359 41.5691 10.8125 41.5735Z" fill="url(#paint23_linear_2065_6627)"/>
</g>
<mask id="mask24_2065_6627" style="mask-type:luminance" maskUnits="userSpaceOnUse" x="3" y="40" width="1" height="1">
<path d="M3.65623 40.748C3.65282 40.7402 3.64473 40.7208 3.63281 40.6896C3.63635 40.6902 3.6396 40.6909 3.64313 40.6916C3.64591 40.7028 3.64868 40.7142 3.65152 40.7256C3.65304 40.733 3.65465 40.7406 3.65623 40.748Z" fill="white"/>
</mask>
<g mask="url(#mask24_2065_6627)">
<path d="M3.65623 40.748C3.65282 40.7402 3.64473 40.7208 3.63281 40.6896C3.63635 40.6902 3.6396 40.6909 3.64313 40.6916C3.64591 40.7028 3.64868 40.7142 3.65152 40.7256C3.65304 40.733 3.65465 40.7406 3.65623 40.748Z" fill="url(#paint24_linear_2065_6627)"/>
</g>
<mask id="mask25_2065_6627" style="mask-type:luminance" maskUnits="userSpaceOnUse" x="3" y="40" width="8" height="2">
<path d="M10.4568 41.5923H10.421C9.27027 41.5894 6.17048 41.33 3.94708 41.1297C3.92312 41.0083 3.89473 40.8742 3.86126 40.7295C6.12249 41.1278 8.64129 41.1874 9.9477 41.1874C10.5064 41.1874 10.8434 41.1764 10.8434 41.1764C10.8251 41.235 10.8185 41.2907 10.8185 41.3406C10.8186 41.3947 10.8264 41.4421 10.8355 41.4787C10.829 41.5122 10.8207 41.5434 10.8108 41.5727C10.7426 41.5856 10.6217 41.5919 10.4568 41.5923ZM3.65682 40.7249C3.65398 40.7136 3.65122 40.7022 3.64844 40.6909C3.64874 40.6909 3.64933 40.6911 3.64962 40.6911C3.65197 40.7023 3.65441 40.7136 3.65682 40.7249Z" fill="white"/>
</mask>
<g mask="url(#mask25_2065_6627)">
<path d="M10.4568 41.5923H10.421C9.27027 41.5894 6.17048 41.33 3.94708 41.1297C3.92312 41.0083 3.89473 40.8742 3.86126 40.7295C6.12249 41.1278 8.64129 41.1874 9.9477 41.1874C10.5064 41.1874 10.8434 41.1764 10.8434 41.1764C10.8251 41.235 10.8185 41.2907 10.8185 41.3406C10.8186 41.3947 10.8264 41.4421 10.8355 41.4787C10.829 41.5122 10.8207 41.5434 10.8108 41.5727C10.7426 41.5856 10.6217 41.5919 10.4568 41.5923ZM3.65682 40.7249C3.65398 40.7136 3.65122 40.7022 3.64844 40.6909C3.64874 40.6909 3.64933 40.6911 3.64962 40.6911C3.65197 40.7023 3.65441 40.7136 3.65682 40.7249Z" fill="url(#paint25_linear_2065_6627)"/>
</g>
<mask id="mask26_2065_6627" style="mask-type:luminance" maskUnits="userSpaceOnUse" x="3" y="40" width="1" height="1">
<path d="M3.67067 40.7522C3.67067 40.7522 3.67001 40.7508 3.66882 40.7479C3.66722 40.7404 3.6656 40.7327 3.66406 40.7252C3.6662 40.7341 3.66847 40.7431 3.67067 40.7522Z" fill="white"/>
</mask>
<g mask="url(#mask26_2065_6627)">
<path d="M3.67067 40.7522C3.67067 40.7522 3.67001 40.7508 3.66882 40.7479C3.66722 40.7404 3.6656 40.7327 3.66406 40.7252C3.6662 40.7341 3.66847 40.7431 3.67067 40.7522Z" fill="url(#paint26_linear_2065_6627)"/>
</g>
<mask id="mask27_2065_6627" style="mask-type:luminance" maskUnits="userSpaceOnUse" x="3" y="40" width="1" height="2">
<path d="M3.96153 41.1299C3.90912 41.1251 3.85688 41.1205 3.80542 41.1158C3.77573 41.0009 3.73453 40.8783 3.67781 40.7518C3.67564 40.7428 3.67338 40.7339 3.67127 40.7251C3.66885 40.7137 3.66642 40.7025 3.66406 40.6913C3.7343 40.7045 3.80489 40.7172 3.87571 40.7297C3.90918 40.8744 3.93757 41.0085 3.96153 41.1299Z" fill="white"/>
</mask>
<g mask="url(#mask27_2065_6627)">
<path d="M3.96153 41.1299C3.90912 41.1251 3.85688 41.1205 3.80542 41.1158C3.77573 41.0009 3.73453 40.8783 3.67781 40.7518C3.67564 40.7428 3.67338 40.7339 3.67127 40.7251C3.66885 40.7137 3.66642 40.7025 3.66406 40.6913C3.7343 40.7045 3.80489 40.7172 3.87571 40.7297C3.90918 40.8744 3.93757 41.0085 3.96153 41.1299Z" fill="url(#paint27_linear_2065_6627)"/>
</g>
<mask id="mask28_2065_6627" style="mask-type:luminance" maskUnits="userSpaceOnUse" x="1" y="40" width="3" height="2">
<path d="M3.7983 41.116C2.47678 40.9965 1.50182 40.9015 1.50182 40.9015C1.40757 40.4203 1.20312 40.0025 1.20312 40.0025C1.90647 40.2985 2.75163 40.5215 3.64544 40.6893C3.65736 40.7205 3.66544 40.7399 3.66886 40.7477C3.67004 40.7506 3.67068 40.752 3.67068 40.752C3.7274 40.8785 3.76861 41.0011 3.7983 41.116Z" fill="white"/>
</mask>
<g mask="url(#mask28_2065_6627)">
<path d="M3.7983 41.116C2.47678 40.9965 1.50182 40.9015 1.50182 40.9015C1.40757 40.4203 1.20312 40.0025 1.20312 40.0025C1.90647 40.2985 2.75163 40.5215 3.64544 40.6893C3.65736 40.7205 3.66544 40.7399 3.66886 40.7477C3.67004 40.7506 3.67068 40.752 3.67068 40.752C3.7274 40.8785 3.76861 41.0011 3.7983 41.116Z" fill="url(#paint28_linear_2065_6627)"/>
</g>
<path d="M130.206 36.1064C130.205 36.1058 130.204 36.1051 130.203 36.1045C130.231 36.058 130.389 35.7821 130.5 35.3396C130.502 35.3348 130.504 35.3299 130.505 35.3251C130.398 35.7649 130.242 36.0453 130.206 36.1064ZM130.42 33.2421C130.419 33.2412 130.419 33.2401 130.419 33.2391C130.419 33.2391 130.677 32.2814 130.714 31.3521C130.679 32.2474 130.439 33.1717 130.42 33.2421Z" fill="#BE1E2D"/>
<path d="M127.789 36.636C127.789 36.6014 127.79 36.5657 127.791 36.5287C127.79 36.5657 127.789 36.6015 127.789 36.636ZM130.152 36.2554C130.176 36.2111 130.195 36.1633 130.21 36.1119C130.21 36.1119 130.211 36.1095 130.214 36.1049C130.215 36.1055 130.216 36.1063 130.217 36.1069C130.216 36.1084 130.215 36.1099 130.214 36.1112C130.211 36.1116 130.21 36.1119 130.21 36.1119C130.198 36.1565 130.183 36.1982 130.165 36.2371C130.163 36.2418 130.161 36.2463 130.159 36.2509C130.157 36.2523 130.154 36.2538 130.152 36.2554Z" fill="#AB1B29"/>
<path d="M128.398 36.6636C128.212 36.6636 128.01 36.6549 127.789 36.6354C127.789 36.6009 127.79 36.5651 127.791 36.5281C127.818 35.2834 128.135 32.71 128.135 32.71C128.386 31.1318 128.826 30.8478 128.826 30.8478C129.172 30.3744 130.492 29.9956 130.492 29.9956C130.695 30.3232 130.744 30.8328 130.724 31.352C130.687 32.2813 130.43 33.2389 130.43 33.2389C130.43 33.24 130.43 33.241 130.43 33.242C130.43 33.2448 130.429 33.2464 130.429 33.2464C130.523 33.5392 130.577 33.8174 130.602 34.0773C130.462 33.3917 130.022 32.8916 129.502 32.8916C128.868 32.8916 128.355 33.6337 128.355 34.5487C128.355 35.4641 128.868 36.2058 129.502 36.2058C129.938 36.2058 130.316 35.8556 130.511 35.3395C130.4 35.7819 130.241 36.0579 130.214 36.1043C130.211 36.1089 130.21 36.1113 130.21 36.1113C130.195 36.1627 130.176 36.2105 130.152 36.2548C129.98 36.3788 129.467 36.6636 128.398 36.6636Z" fill="#30080B"/>
<path d="M129.507 36.2061C128.873 36.2061 128.359 35.4643 128.359 34.549C128.359 33.6339 128.873 32.8919 129.507 32.8919C130.027 32.8919 130.466 33.3919 130.607 34.0776C130.655 34.5675 130.602 34.992 130.521 35.3252C130.519 35.33 130.517 35.3349 130.515 35.3397C130.321 35.8559 129.942 36.2061 129.507 36.2061Z" fill="#8E0408"/>
<path d="M130.172 36.2366C130.19 36.1977 130.205 36.156 130.216 36.1114C130.216 36.1114 130.218 36.1111 130.221 36.1106C130.218 36.1163 130.216 36.1191 130.216 36.1191C130.204 36.1606 130.19 36.1999 130.172 36.2366Z" fill="#30080B"/>
<path d="M128.78 36.7839C128.255 36.7838 127.789 36.6877 127.789 36.6877C127.789 36.6707 127.789 36.6533 127.789 36.6357C128.01 36.6553 128.213 36.6639 128.398 36.6639C129.467 36.6639 129.98 36.3792 130.153 36.2552C130.155 36.2535 130.157 36.252 130.159 36.2506C129.941 36.6791 129.328 36.7839 128.78 36.7839Z" fill="#1A0406"/>
<path d="M130.609 30.5241C130.609 30.5241 129.131 30.6194 128.785 31.7869C128.785 31.7869 128.502 32.86 129.54 32.86C129.54 32.86 130.2 32.9862 130.514 32.7341C130.514 32.7341 130.892 31.6291 130.609 30.5241Z" fill="#D0D2D3"/>
<path d="M89.1279 44.2259C89.0335 44.0366 89.3004 44.0051 89.3004 44.0051C89.772 44.21 90.1339 44.5101 90.1339 44.5101C90.6208 44.9048 90.5738 45.7094 90.5738 45.7094C90.605 46.0884 90.3538 45.9779 90.3538 45.9779C89.3793 45.2675 89.1279 44.2259 89.1279 44.2259ZM90.5738 41.5249C90.244 42.2196 89.5993 42.3928 89.5993 42.3928C89.2377 42.5822 89.1279 42.3458 89.1279 42.3458C89.3004 41.3986 90.3694 40.6098 90.3694 40.6098C90.8881 40.5311 90.5738 41.5249 90.5738 41.5249ZM92.1452 40.089C92.1452 40.089 93.4187 39.9155 94.346 40.8937C94.346 40.8937 94.4085 41.1305 93.7171 41.1939C93.7171 41.1939 93.1513 41.3041 92.727 40.9411C92.727 40.9411 91.9726 40.2783 92.1452 40.089ZM92.2555 46.262C92.2555 46.262 92.68 45.6147 93.2772 45.6623C93.2772 45.6623 94.566 45.7411 94.346 45.9779C94.346 45.9779 93.387 46.7193 92.1928 46.609C92.1928 46.609 92.0038 46.5302 92.2555 46.262ZM94.9591 42.6002C95.1948 42.1267 95.3674 42.4106 95.3674 42.4106C95.8389 43.5627 95.3205 44.5729 95.3205 44.5729C95.1001 44.636 94.7544 43.7838 94.7544 43.7838C94.5974 43.3579 94.9591 42.6002 94.9591 42.6002ZM88.6406 43.4194C88.6406 45.4456 90.2766 47.0881 92.2948 47.0881C94.313 47.0881 95.9491 45.4456 95.9491 43.4194C95.9491 41.3924 94.313 39.7492 92.2948 39.7492C90.2766 39.7492 88.6406 41.3924 88.6406 43.4194Z" fill="#D0D2D3"/>
<path d="M93.5653 43.9259C93.5653 43.9259 92.7949 45.0943 91.8048 44.605C91.8048 44.605 91.2389 44.2259 90.9402 43.6262C90.9402 43.6262 90.6734 43.342 90.532 44.0997C90.532 44.0997 90.3745 45.0943 91.4118 45.5989C91.4118 45.5989 92.4336 45.8671 93.361 45.3464C93.361 45.3464 94.2408 44.715 94.0053 44.1152C94.0053 44.1152 93.8008 43.8628 93.5653 43.9259Z" fill="#E6E7E8"/>
<path d="M92.8268 43.2319C92.8268 43.2319 92.3866 42.7112 92.0409 42.9006C92.0409 42.9006 91.7895 43.2476 91.5067 43.1373C91.5067 43.1373 91.2078 42.9477 91.8524 42.6481C91.8524 42.6481 92.4339 42.3325 92.7325 42.6164C92.7325 42.6164 93.251 43.0742 93.0625 43.2476C93.0625 43.2476 92.9214 43.3268 92.8268 43.2319Z" fill="#E6E7E8"/>
<path d="M93.7765 42.8055C93.7765 42.8055 93.3992 41.2276 91.8119 41.6694C91.8119 41.6694 91.2303 41.9378 90.9319 42.6161C90.9319 42.6161 90.6331 42.8055 90.6172 42.4107C90.6172 42.4107 90.9946 41.3377 91.9849 41.2432C91.9849 41.2432 93.2578 41.0063 93.9022 42.2057C93.9022 42.2057 94.1696 42.9159 93.7765 42.8055Z" fill="#E6E7E8"/>
<path d="M94.6976 43.7365C94.6976 43.7365 94.4776 43.7207 94.6347 44.0521C94.6347 44.0521 94.7763 44.5573 95.122 44.8885C95.122 44.8885 95.4675 44.936 95.4521 44.7466C95.4521 44.7466 95.4246 44.5548 95.2832 44.5667C95.2832 44.5667 95.1375 44.6932 94.6976 43.7365Z" fill="#E6E7E8"/>
<path d="M92.1239 40.1989C92.1239 40.1989 91.8881 40.1836 92.0296 40.436C92.0296 40.436 92.5639 41.3828 93.3029 41.3986C93.3029 41.3986 94.2609 41.4776 94.5601 41.0829C94.5601 41.0829 94.5758 40.8304 94.2773 41.0355C94.2773 41.0355 93.6226 41.3277 93.1392 41.167C93.1202 41.1608 93.1012 41.154 93.0826 41.146C92.5955 40.9407 92.2182 40.4674 92.1239 40.1989Z" fill="#E6E7E8"/>
<path d="M90.5016 42.1087C90.5016 42.1087 89.2131 43.0716 88.9141 42.5035C88.9141 42.5035 88.9299 42.377 89.181 42.4404C89.181 42.4404 89.3699 42.5983 89.6842 42.409C89.6842 42.409 90.439 41.9197 90.439 42.03L90.5016 42.1087Z" fill="#E6E7E8"/>
<path d="M94.4253 46.1811C94.4253 46.1811 93.2779 46.9545 92.2094 46.7966C92.2094 46.7966 91.9735 46.6546 92.2564 46.6546C92.2564 46.6546 93.0422 46.7811 94.0481 46.2445C94.0481 46.2445 94.3469 46.1019 94.4253 46.1811Z" fill="#E6E7E8"/>
<path d="M15.3536 41.304C15.4006 39.9312 16.3439 39.1497 16.3439 39.1497C16.3908 39.3157 16.4381 40.2154 16.4381 40.2154C16.3201 41.0673 15.8014 41.2803 15.8014 41.2803C15.5657 41.4696 15.3536 41.304 15.3536 41.304ZM15.7307 43.1268C15.7307 43.1268 16.556 42.9374 16.9568 43.5057C16.9568 43.5057 17.7582 44.8315 17.334 44.8315C17.334 44.8315 16.1316 44.2395 15.7307 43.1268ZM17.7818 38.3448C18.9608 37.7291 20.1393 38.6998 20.1393 38.6998C20.2808 38.9603 19.1966 39.2679 19.1966 39.2679C18.607 39.4102 17.9231 38.8421 17.9231 38.8421C17.6166 38.6525 17.7818 38.3448 17.7818 38.3448ZM19.6443 43.8611C20.0687 43.6478 20.8941 43.8133 20.8941 43.8133C21.3184 44.0026 19.6914 44.9738 19.6914 44.9738C19.2436 45.1395 19.102 44.7841 19.102 44.7841C18.8427 44.145 19.6443 43.8611 19.6443 43.8611ZM20.9175 41.7302C20.2573 40.5937 21.059 39.8837 21.059 39.8837C21.3891 39.6707 21.4598 39.9782 21.4598 39.9782C21.6719 40.2858 21.7898 40.9016 21.7898 40.9016C21.8841 41.8486 21.7662 42.393 21.7662 42.393C21.4598 42.5826 20.9175 41.7302 20.9175 41.7302ZM15.0234 41.7183C15.0234 43.7781 16.6175 45.447 18.5835 45.447C20.5496 45.447 22.1435 43.7781 22.1435 41.7183C22.1435 39.6589 20.5496 37.9897 18.5835 37.9897C16.6175 37.9897 15.0234 39.6589 15.0234 41.7183Z" fill="#D0D2D3"/>
<path d="M20.0832 40.2864C20.0832 40.0123 19.8828 39.7895 19.6352 39.7895C19.3878 39.7895 19.1875 40.0123 19.1875 40.2864C19.1875 40.5614 19.3878 40.7837 19.6352 40.7837C19.8828 40.7837 20.0832 40.5614 20.0832 40.2864Z" fill="#231F20"/>
<path d="M18.1078 40.0028C18.1078 39.6888 17.8549 39.4348 17.5421 39.4348C17.2295 39.4348 16.9766 39.6888 16.9766 40.0028C16.9766 40.3168 17.2295 40.5706 17.5421 40.5706C17.8549 40.5706 18.1078 40.3168 18.1078 40.0028Z" fill="#231F20"/>
<path d="M17.0985 41.9672C17.0985 41.7317 16.9085 41.5409 16.6743 41.5409C16.4398 41.5409 16.25 41.7317 16.25 41.9672C16.25 42.2022 16.4398 42.3931 16.6743 42.3931C16.9085 42.3931 17.0985 42.2022 17.0985 41.9672Z" fill="#231F20"/>
<path d="M18.6465 43.6718C18.6465 43.397 18.425 43.1749 18.1514 43.1749C17.8779 43.1749 17.6562 43.397 17.6562 43.6718C17.6562 43.9464 17.8779 44.1689 18.1514 44.1689C18.425 44.1689 18.6465 43.9464 18.6465 43.6718Z" fill="#231F20"/>
<path d="M20.5057 42.5833C20.5057 42.2696 20.2844 42.015 20.0106 42.015C19.7374 42.015 19.5156 42.2696 19.5156 42.5833C19.5156 42.8969 19.7374 43.1514 20.0106 43.1514C20.2844 43.1514 20.5057 42.8969 20.5057 42.5833Z" fill="#231F20"/>
<path d="M16.4533 39.2448C16.4533 39.2448 17.2314 38.5579 17.6082 38.6056C17.6082 38.6056 18.4571 39.4105 19.0229 39.2682C19.0229 39.2682 19.8636 39.1422 20.1308 38.7952C20.1308 38.7952 20.4295 38.6842 20.6652 38.9055C20.6652 38.9055 21.2471 39.2367 21.5142 39.6156C21.5142 39.6156 22.0953 40.452 22.0642 41.1941C22.0642 41.1941 21.9068 41.3042 21.8282 41.1463C21.8282 41.1463 21.6395 40.0733 21.3095 39.7735C21.3095 39.7735 20.9954 39.7578 20.7284 40.2626C20.7284 40.2626 20.6652 40.3419 20.3038 39.8523C20.3038 39.8523 19.8953 39.4105 19.7223 39.3473C19.7223 39.3473 19.2979 39.2845 19.0306 39.4578C19.0306 39.4578 18.7323 39.5525 18.3078 39.3943C18.3078 39.3943 17.7729 39.1108 17.6634 38.9846C17.6634 38.9846 17.6319 38.8741 17.4432 39.032C17.4432 39.032 16.6103 39.6001 16.5 39.5844C16.5 39.5844 16.3431 39.5209 16.4533 39.2448Z" fill="#E6E7E8"/>
<path d="M17.879 41.5097C17.879 41.5097 18.1934 41.0208 18.5864 41.2729C18.5864 41.2729 18.7907 41.6991 18.9164 41.7148C18.9164 41.7148 19.2622 41.8102 19.2151 41.494C19.2151 41.494 18.838 40.9731 18.6495 40.8628C18.6495 40.8628 18.461 40.7049 18.0991 41.0045C18.0991 41.0045 17.4547 41.4469 17.879 41.5097Z" fill="#E6E7E8"/>
<path d="M16.1795 42.1575C16.1795 42.1575 16.3211 42.6788 16.8396 42.5051C16.8396 42.5051 17.0907 42.1419 17.2482 42.4261C17.2482 42.4261 17.5939 43.0099 17.8769 43.0099C17.8769 43.0099 18.1127 43.2783 17.6411 43.3889C17.6411 43.3889 17.1383 43.2944 17.0752 42.7891C17.0752 42.7891 17.0125 42.6157 16.8079 42.742C16.8079 42.742 15.8965 42.5523 16.1795 42.1575Z" fill="#E6E7E8"/>
<path d="M19.1965 42.884C19.1965 42.884 18.9766 43.0572 18.7722 43.1047C18.7722 43.1047 18.4575 43.1682 18.6462 43.4676C18.6462 43.4676 18.9136 43.846 19.0235 43.5782C19.0235 43.5782 19.1021 43.3417 19.2752 43.3572C19.4477 43.3728 19.3379 43.3258 19.3379 43.3258C19.3379 43.3258 19.5735 42.9154 19.1965 42.884Z" fill="#E6E7E8"/>
<path d="M20.7068 41.2271C20.7068 41.2271 20.4085 41.2271 20.5028 41.4792C20.5028 41.4792 20.7853 42.3788 21.367 42.5842C21.367 42.5842 22.027 42.5842 21.7442 42.458C21.7442 42.458 21.1155 42.4105 20.7068 41.2271Z" fill="#E6E7E8"/>
<path d="M8.76049 7.82897C8.76049 7.82897 9.05753 8.12027 8.43647 8.8549C7.72935 9.69164 3.32811 19.4292 2.16512 22.7437C2.16512 22.7437 2.09465 22.9056 1.92969 22.8819C1.92969 22.8819 5.62316 13.0066 8.76049 7.82897Z" fill="#3B3A3C"/>
<path d="M126.294 6.69275C126.294 6.69275 125.997 6.56652 125.898 8.01849L126.227 18.1193C126.227 18.1193 126.74 22.5386 127.334 22.0335C127.334 22.0335 127.037 7.51341 126.294 6.69275Z" fill="#3B3A3C"/>
<path d="M50.6413 11.4273H47.8748C47.8748 11.4273 47.1203 11.8061 47.1834 12.5006L47.3722 22.0964H51.3956L51.5843 13.8265C51.5843 13.8265 51.6474 11.743 50.6413 11.4273Z" fill="#3B3A3C"/>
<path d="M53.1431 22.3489C53.1431 22.3489 53.0803 12.7532 53.5837 11.6799C53.5837 11.6799 53.788 11.4115 54.5425 11.4115L56.9002 11.5062C56.9002 11.5062 57.3244 11.601 57.3244 12.4531C57.3244 12.4531 57.2301 21.8754 57.2774 22.2069L53.1431 22.3489Z" fill="#3B3A3C"/>
<path d="M48.4197 8.33459L48.2783 9.51831H44.0817C44.0817 9.51831 43.9403 8.87107 43.4688 8.83967L43.5313 8.36615L48.4197 8.33459Z" fill="#3B3A3C"/>
<path d="M60.8392 11.4271C60.8392 11.4271 60.3359 11.9953 60.3988 13.1948L60.3359 19.0659C60.3359 19.0659 60.4619 17.8035 61.7822 17.9928C61.7822 17.9928 62.7253 18.3084 62.5996 18.8767C62.5996 18.8767 63.9824 17.2351 65.7429 18.4348L65.8687 11.0484C65.8687 11.0484 62.4109 10.9853 60.8392 11.4271Z" fill="#3B3A3C"/>
<path d="M66.5391 17.8035C66.5391 17.8035 68.6767 16.4145 68.4251 18.4348L68.2994 19.4449C68.2994 19.4449 69.8082 20.581 69.8082 19.6973C69.8082 19.6973 71.0658 16.7935 72.3228 17.5509C72.3228 17.5509 72.826 18.3084 72.4485 19.3187C72.4485 19.3187 72.4487 21.8439 74.4603 20.96C74.4603 20.96 75.0893 19.4449 75.2149 18.4348C75.2149 18.4348 75.4667 17.5509 76.7237 17.4246C76.7237 17.4246 78.924 17.33 79.207 17.8035L79.4351 10.0856C79.4351 10.0856 67.9845 10.1329 67.136 11.08L66.5391 17.8035Z" fill="#3B3A3C"/>
<path d="M83.1964 10.1329L83.0234 16.7934L83.0314 18.9397C83.0314 18.9397 90.793 19.1849 90.8823 19.6025C90.8823 19.6025 91.0935 17.71 91.6587 17.2366C92.2247 16.7623 92.9562 16.4769 93.6173 17.2351L94.0415 9.42255C94.0415 9.42255 85.1454 9.47004 83.1964 10.1329Z" fill="#3B3A3C"/>
<path d="M108.916 19.3185L108.869 8.57014C108.869 8.57014 97.5052 8.75964 95.7132 9.51718C95.7132 9.51718 95.3047 15.7039 95.3047 17.2193C95.3047 17.2193 95.619 16.288 97.4109 16.9509C97.4109 16.9509 97.5995 18.8448 97.5052 19.697C97.5052 19.697 98.165 17.1402 98.9197 17.3297C98.9197 17.3297 100.334 16.9509 100.617 18.8448C100.617 18.8448 102.518 19.9669 102.928 19.0816C103.387 18.0873 104.786 18.2806 104.908 19.0342C104.908 19.0342 105.002 19.4603 106.134 18.8921C106.134 18.8921 108.256 17.5189 108.916 19.3185Z" fill="#3B3A3C"/>
<path d="M122.272 7.8609L111.364 8.55563C111.364 8.55563 110.61 8.55563 110.516 10.2601L110.704 19.2246C110.704 19.2246 112.307 19.8875 112.402 19.1299C112.402 19.1299 113.286 17.887 114.005 18.5617C114.005 18.5617 114.288 18.9404 114.288 19.3194C114.288 19.698 114.759 19.9348 115.891 19.9348C115.891 19.9348 116.327 18.7038 117.259 19.7453C117.259 19.7453 118.814 20.4555 119.569 18.9404C119.569 18.9404 120.701 18.1829 121.549 18.1829C121.549 18.1829 122.209 17.9936 122.209 17.3307C122.209 16.6678 122.272 7.8609 122.272 7.8609Z" fill="#3B3A3C"/>
<path d="M27.2138 9.02853C27.2138 9.02853 32.4948 8.77592 32.872 9.02853C32.872 9.02853 33.6893 19.3188 33.6263 20.9603C33.6263 20.9603 32.8095 21.1498 33.0606 20.329C33.0606 20.329 33.9406 17.6142 32.6833 17.5513C32.6833 17.5513 30.7343 17.1724 30.1686 19.1296C30.1686 19.1296 29.4772 21.0237 29.0998 21.0867C29.0998 21.0867 30.64 17.9459 29.1785 17.6617C29.1785 17.6617 28.7541 17.5196 29.2728 17.2829C29.2728 17.2829 30.4043 16.3361 29.2256 14.4421C29.2256 14.4421 28.5655 13.5424 26.7266 14.2527C26.7266 14.2527 26.852 9.3916 27.2138 9.02853Z" fill="#3B3A3C"/>
<path d="M21.5803 12.216L20.7633 12.153C20.7633 12.153 19.2699 16.1222 19.4115 16.3355C19.4115 16.3355 19.5528 16.5248 19.8593 16.288C19.8593 16.288 20.4722 16.0038 20.4016 16.5722C20.4016 16.5722 20.3779 17.0929 20.0952 17.0219C20.0952 17.0219 19.9186 16.9626 19.9538 16.8089C19.9538 16.8089 19.3053 16.6905 19.2228 16.797C19.2228 16.797 18.1067 20.0128 18.201 20.5019C18.201 20.5019 20.0556 21.0704 21.0303 20.8967C21.0303 20.8967 21.7691 13.8575 21.5803 12.216Z" fill="#3B3A3C"/>
<path d="M19.9505 12.185H19.0388L16.0526 20.4867C16.0526 20.4867 15.8639 21.0233 16.0526 21.0865C16.0526 21.0865 17.0823 21.1655 17.483 21.4023C17.483 21.4023 17.6717 21.4497 17.6954 20.7867C17.6954 20.7867 17.6247 20.1001 17.884 19.4609L20.2178 12.2876C20.2178 12.2876 20.1078 12.1296 19.9505 12.185Z" fill="#3B3A3C"/>
<path d="M83.6854 43.1909L83.6562 43.1903C83.6647 43.1659 83.673 43.1408 83.6813 43.1152L83.6854 43.1909Z" fill="#686868"/>
<path d="M27.236 42.1553L27.0822 42.1524L27.0781 42.0141L27.159 42.0155C27.1757 42.0375 27.1927 42.0591 27.2097 42.08L27.236 42.1553Z" fill="black"/>
<path d="M27.2226 42.0803C27.2056 42.0594 27.1886 42.0378 27.1719 42.0158L27.2003 42.0163L27.2226 42.0803Z" fill="#686868"/>
<mask id="mask29_2065_6627" style="mask-type:luminance" maskUnits="userSpaceOnUse" x="27" y="42" width="1" height="1">
<path d="M27.2842 42.1562L27.245 42.1557L27.2188 42.0804C27.2404 42.1068 27.2621 42.1321 27.2842 42.1562Z" fill="white"/>
</mask>
<g mask="url(#mask29_2065_6627)">
<path d="M27.2842 42.1562L27.245 42.1557L27.2188 42.0804C27.2404 42.1068 27.2621 42.1321 27.2842 42.1562Z" fill="url(#paint29_linear_2065_6627)"/>
</g>
<mask id="mask30_2065_6627" style="mask-type:luminance" maskUnits="userSpaceOnUse" x="27" y="42" width="57" height="2">
<path d="M83.6551 43.1899L27.2753 42.1563C27.2532 42.1322 27.2315 42.1069 27.2099 42.0804L27.1875 42.0164L83.6761 43.0406L83.6802 43.1149C83.6719 43.1405 83.6636 43.1655 83.6551 43.1899Z" fill="white"/>
</mask>
<g mask="url(#mask30_2065_6627)">
<path d="M83.6551 43.1899L27.2753 42.1563C27.2532 42.1322 27.2315 42.1069 27.2099 42.0804L27.1875 42.0164L83.6761 43.0406L83.6802 43.1149C83.6719 43.1405 83.6636 43.1655 83.6551 43.1899Z" fill="url(#paint30_linear_2065_6627)"/>
</g>
<path d="M73.6988 43.2455C73.6988 43.2455 73.2903 43.7348 72.6773 43.7187C72.6773 43.7187 71.4513 43.719 71.7969 43.7821C71.7969 43.7821 73.8874 44.1925 74.3903 44.429C74.3903 44.429 75.1449 45.108 74.3591 45.676C74.3591 45.676 74.1681 45.8221 73.9502 45.6917C73.9502 45.6917 70.7753 44.9343 70.3195 44.3189C70.3195 44.3189 69.691 43.5611 70.6496 43.1981C70.6496 43.1981 72.5354 42.8505 73.6988 43.2455Z" fill="#383738"/>
<path d="M74.3854 44.4288C74.3854 44.4288 73.6621 45.0447 74.0867 45.7231C74.0867 45.7231 74.8884 45.6286 74.6525 44.7922C74.6525 44.7922 74.5741 44.6813 74.3854 44.4288Z" fill="black"/>
<path d="M70.625 43.3246C70.625 43.3246 71.5915 43.5972 71.7095 43.751C71.7095 43.751 73.2186 43.6681 73.301 43.4906C73.301 43.4906 73.9727 43.2183 73.1124 43.1235C73.1124 43.1235 70.8019 43.0526 70.625 43.3246Z" fill="#231F20"/>
<path d="M75.0465 43.2296L74.0875 44.3032L72.5945 43.9556C72.5945 43.9556 73.0187 43.7035 72.8303 43.5141C72.8303 43.5141 72.4058 43.2139 72.6257 43.0876C72.6257 43.0876 74.8732 42.9772 75.0465 43.2296Z" fill="#404041"/>
<path d="M15.59 12.1452C15.59 12.1452 14.8591 14.8913 14.0104 22.7039H13.5859C13.5859 22.7039 14.8513 15.3965 14.977 12.1452H15.59Z" fill="#A6A8AB"/>
<path d="M39.1312 8.03812L39.1171 22.2166H38.5156L38.6876 8.06816L39.1312 8.03812Z" fill="#BBBDBF"/>
<path d="M58.6328 20.696C58.6328 20.696 59.4664 18.8526 60.2415 18.2215C60.2415 18.2215 61.561 17.6116 62.671 17.6747C62.671 17.6747 63.111 17.738 63.0271 18.4529L62.6503 20.6613L58.6328 20.696Z" fill="#231F20"/>
<path d="M69.375 21.2642C69.375 21.2642 70.2084 18.9017 70.9835 18.0931C70.9835 18.0931 72.3031 17.3112 73.4132 17.3919C73.4132 17.3919 73.853 17.473 73.7695 18.3892L73.3925 21.2199L69.375 21.2642Z" fill="#231F20"/>
<path d="M82.9922 19.6548C82.9922 19.6548 83.8253 17.8114 84.6006 17.1802C84.6006 17.1802 85.9202 16.5703 87.0301 16.6334C87.0301 16.6334 87.4702 16.6964 87.3865 17.4114L87.0096 19.6202L82.9922 19.6548Z" fill="#231F20"/>
<path d="M87.7578 21.6111C87.7578 21.6111 88.5914 19.768 89.3663 19.1368C89.3663 19.1368 90.686 18.5269 91.7959 18.5899C91.7959 18.5899 92.236 18.653 92.1524 19.368L91.7752 21.5765L87.7578 21.6111Z" fill="#231F20"/>
<path d="M85.6328 21.6111C85.6328 21.6111 86.4661 19.768 87.2415 19.1368C87.2415 19.1368 88.5611 18.5269 89.6709 18.5899C89.6709 18.5899 90.111 18.653 90.0271 19.368L89.6503 21.5765L85.6328 21.6111Z" fill="#231F20"/>
<path d="M104.422 20.4751C104.422 20.4751 105.255 18.6317 106.031 18.0007C106.031 18.0007 107.35 17.3906 108.46 17.4534C108.46 17.4534 108.9 17.5169 108.816 18.2319L108.439 20.4402L104.422 20.4751Z" fill="#231F20"/>
<path d="M100.32 21.8489C100.32 21.8489 101.154 20.0055 101.929 19.3745C101.929 19.3745 103.248 18.7644 104.358 18.8272C104.358 18.8272 104.798 18.8906 104.715 19.6057L104.337 21.8141L100.32 21.8489Z" fill="#231F20"/>
<path d="M111.477 20.2227C111.477 20.2227 112.31 18.3793 113.085 17.7482C113.085 17.7482 114.405 17.1383 115.515 17.2011C115.515 17.2011 115.955 17.2644 115.871 17.9795L115.494 20.1878L111.477 20.2227Z" fill="#231F20"/>
<path d="M117.562 20.4121C117.562 20.4121 118.396 18.5686 119.171 17.9377C119.171 17.9377 120.49 17.3276 121.601 17.3904C121.601 17.3904 122.041 17.4539 121.957 18.1689L121.58 20.3772L117.562 20.4121Z" fill="#231F20"/>
</g>
<defs>
<linearGradient id="paint0_linear_2065_6627" x1="15.8936" y1="16.9877" x2="15.8619" y2="7.39138" gradientUnits="userSpaceOnUse">
<stop stop-color="white"/>
<stop offset="0.135711" stop-color="white"/>
<stop offset="1" stop-color="#D0D2D3"/>
</linearGradient>
<linearGradient id="paint1_linear_2065_6627" x1="12.5351" y1="36.5532" x2="12.5663" y2="27.2998" gradientUnits="userSpaceOnUse">
<stop stop-color="#BBBDBF"/>
<stop offset="0.746536" stop-color="#F1F1F2"/>
<stop offset="1" stop-color="#F1F1F2"/>
</linearGradient>
<linearGradient id="paint2_linear_2065_6627" x1="75.0936" y1="40.373" x2="75.0441" y2="25.719" gradientUnits="userSpaceOnUse">
<stop stop-color="#BBBDBF"/>
<stop offset="0.746536" stop-color="#F1F1F2"/>
<stop offset="1" stop-color="#F1F1F2"/>
</linearGradient>
<linearGradient id="paint3_linear_2065_6627" x1="55.445" y1="47.0932" x2="55.4352" y2="36.8857" gradientUnits="userSpaceOnUse">
<stop stop-color="#BBBDBF"/>
<stop offset="1" stop-color="#F1F1F2"/>
</linearGradient>
<linearGradient id="paint4_linear_2065_6627" x1="55.436" y1="47.093" x2="55.4262" y2="36.8856" gradientUnits="userSpaceOnUse">
<stop stop-color="#231F20"/>
<stop offset="1" stop-color="#231F20"/>
</linearGradient>
<linearGradient id="paint5_linear_2065_6627" x1="55.4437" y1="47.0936" x2="55.434" y2="36.8861" gradientUnits="userSpaceOnUse">
<stop stop-color="#B3B3B3"/>
<stop offset="1" stop-color="#B3B3B3"/>
</linearGradient>
<linearGradient id="paint6_linear_2065_6627" x1="55.4419" y1="47.0934" x2="55.4322" y2="36.8859" gradientUnits="userSpaceOnUse">
<stop/>
<stop offset="1"/>
</linearGradient>
<linearGradient id="paint7_linear_2065_6627" x1="55.4392" y1="47.0939" x2="55.4294" y2="36.8864" gradientUnits="userSpaceOnUse">
<stop stop-color="#BBBDBF"/>
<stop offset="1" stop-color="#E6E7E8"/>
</linearGradient>
<linearGradient id="paint8_linear_2065_6627" x1="55.4387" y1="47.0937" x2="55.4289" y2="36.8863" gradientUnits="userSpaceOnUse">
<stop stop-color="#B3B3B3"/>
<stop offset="1" stop-color="#B3B3B3"/>
</linearGradient>
<linearGradient id="paint9_linear_2065_6627" x1="55.4486" y1="47.0933" x2="55.4388" y2="36.8858" gradientUnits="userSpaceOnUse">
<stop stop-color="#BBBDBF"/>
<stop offset="1" stop-color="#F1F1F2"/>
</linearGradient>
<linearGradient id="paint10_linear_2065_6627" x1="55.4368" y1="47.0937" x2="55.427" y2="36.8862" gradientUnits="userSpaceOnUse">
<stop stop-color="#BBBDBF"/>
<stop offset="1" stop-color="#BBBDBF"/>
</linearGradient>
<linearGradient id="paint11_linear_2065_6627" x1="115.165" y1="47.3584" x2="115.155" y2="36.9838" gradientUnits="userSpaceOnUse">
<stop stop-color="#BBBDBF"/>
<stop offset="1" stop-color="#E6E7E8"/>
</linearGradient>
<linearGradient id="paint12_linear_2065_6627" x1="115.17" y1="47.358" x2="115.161" y2="36.9835" gradientUnits="userSpaceOnUse">
<stop stop-color="#231F20"/>
<stop offset="1" stop-color="#231F20"/>
</linearGradient>
<linearGradient id="paint13_linear_2065_6627" x1="115.171" y1="47.3576" x2="115.161" y2="36.983" gradientUnits="userSpaceOnUse">
<stop stop-color="#BBBDBF"/>
<stop offset="1" stop-color="#F1F1F2"/>
</linearGradient>
<linearGradient id="paint14_linear_2065_6627" x1="115.165" y1="47.3583" x2="115.155" y2="36.9838" gradientUnits="userSpaceOnUse">
<stop stop-color="#BBBDBF"/>
<stop offset="1" stop-color="#E6E7E8"/>
</linearGradient>
<linearGradient id="paint15_linear_2065_6627" x1="115.162" y1="47.3584" x2="115.152" y2="36.9838" gradientUnits="userSpaceOnUse">
<stop stop-color="#BBBDBF"/>
<stop offset="1" stop-color="#F1F1F2"/>
</linearGradient>
<linearGradient id="paint16_linear_2065_6627" x1="115.167" y1="47.358" x2="115.157" y2="36.9835" gradientUnits="userSpaceOnUse">
<stop stop-color="#231F20"/>
<stop offset="1" stop-color="#231F20"/>
</linearGradient>
<linearGradient id="paint17_linear_2065_6627" x1="115.168" y1="47.3577" x2="115.158" y2="36.9832" gradientUnits="userSpaceOnUse">
<stop stop-color="#404041"/>
<stop offset="1" stop-color="#404041"/>
</linearGradient>
<linearGradient id="paint18_linear_2065_6627" x1="115.168" y1="47.3575" x2="115.158" y2="36.9829" gradientUnits="userSpaceOnUse">
<stop stop-color="#B3B3B3"/>
<stop offset="1" stop-color="#B3B3B3"/>
</linearGradient>
<linearGradient id="paint19_linear_2065_6627" x1="115.172" y1="47.3585" x2="115.162" y2="36.984" gradientUnits="userSpaceOnUse">
<stop stop-color="#231F20"/>
<stop offset="1" stop-color="#231F20"/>
</linearGradient>
<linearGradient id="paint20_linear_2065_6627" x1="115.162" y1="47.3581" x2="115.152" y2="36.9835" gradientUnits="userSpaceOnUse">
<stop stop-color="#404041"/>
<stop offset="1" stop-color="#404041"/>
</linearGradient>
<linearGradient id="paint21_linear_2065_6627" x1="115.173" y1="47.3583" x2="115.163" y2="36.9838" gradientUnits="userSpaceOnUse">
<stop stop-color="#BB921E"/>
<stop offset="1" stop-color="#F1921E"/>
</linearGradient>
<linearGradient id="paint22_linear_2065_6627" x1="115.176" y1="47.3574" x2="115.166" y2="36.9831" gradientUnits="userSpaceOnUse">
<stop stop-color="#BBBD38"/>
<stop offset="1" stop-color="#F1D038"/>
</linearGradient>
<linearGradient id="paint23_linear_2065_6627" x1="5.9634" y1="41.773" x2="6.10928" y2="38.4055" gradientUnits="userSpaceOnUse">
<stop stop-color="#808080"/>
<stop offset="1" stop-color="#212121"/>
</linearGradient>
<linearGradient id="paint24_linear_2065_6627" x1="5.95645" y1="41.7729" x2="6.10233" y2="38.4054" gradientUnits="userSpaceOnUse">
<stop stop-color="#808080"/>
<stop offset="1" stop-color="#CCCDCD"/>
</linearGradient>
<linearGradient id="paint25_linear_2065_6627" x1="5.96175" y1="41.7722" x2="6.10763" y2="38.4047" gradientUnits="userSpaceOnUse">
<stop stop-color="#808080"/>
<stop offset="1" stop-color="#A6A6A6"/>
</linearGradient>
<linearGradient id="paint26_linear_2065_6627" x1="5.99114" y1="41.7856" x2="6.13926" y2="38.376" gradientUnits="userSpaceOnUse">
<stop stop-color="#808080"/>
<stop offset="1" stop-color="#B3B6B8"/>
</linearGradient>
<linearGradient id="paint27_linear_2065_6627" x1="5.97619" y1="41.7724" x2="6.12207" y2="38.4049" gradientUnits="userSpaceOnUse">
<stop stop-color="#808080"/>
<stop offset="1" stop-color="#5B5B5E"/>
</linearGradient>
<linearGradient id="paint28_linear_2065_6627" x1="5.96907" y1="41.7726" x2="6.11495" y2="38.4051" gradientUnits="userSpaceOnUse">
<stop stop-color="#808080"/>
<stop offset="1" stop-color="#505051"/>
</linearGradient>
<linearGradient id="paint29_linear_2065_6627" x1="55.4464" y1="47.0936" x2="55.4366" y2="36.8861" gradientUnits="userSpaceOnUse">
<stop/>
<stop offset="1"/>
</linearGradient>
<linearGradient id="paint30_linear_2065_6627" x1="55.4378" y1="47.0936" x2="55.428" y2="36.8861" gradientUnits="userSpaceOnUse">
<stop stop-color="#686868"/>
<stop offset="1" stop-color="#686868"/>
</linearGradient>
<clipPath id="clip0_2065_6627">
<rect width="133.294" height="51.5" fill="white"/>
</clipPath>
</defs>
</svg>
