<svg width="82" height="67" viewBox="0 0 82 67" fill="none" xmlns="http://www.w3.org/2000/svg">
<path d="M69.6159 43.3598L69.5826 43.4532C65.4217 55.6087 53.9503 63.7601 41.0175 63.7601C28.0846 63.7601 16.5932 55.592 12.449 43.4399L12.4157 43.3431H3.32996V44.4409L7.11039 44.8847C9.44605 45.1516 9.93654 46.1859 10.5738 47.4872L10.734 47.8076C16.1994 59.4692 28.0979 67 41.0308 67C53.967 67 65.8655 59.4692 71.331 47.8242L71.4911 47.5073C72.1251 46.206 72.6189 45.1716 74.9546 44.9013L78.7383 44.4542V43.3598H69.6159ZM12.449 23.5301C16.6098 11.3747 28.0846 3.20986 41.0175 3.20986C53.9503 3.20986 65.4384 11.3747 69.5859 23.5301L69.6193 23.6235H78.7216V22.5291L74.9379 22.0853C72.6022 21.815 72.1117 20.784 71.4744 19.4794L71.3176 19.1591C65.8522 7.53083 53.947 0 41.0175 0C28.0679 0 16.1828 7.53083 10.7173 19.1924L10.5572 19.5094C9.92319 20.8107 9.42936 21.8451 7.09371 22.1153L3.31328 22.5591V23.6569H12.4023L12.449 23.5301ZM58.7017 28.822L52.8859 38.148H55.3951L56.4295 36.4796H63.2129L64.2472 38.148H66.7397L60.9239 28.822H58.7017ZM62.1485 34.7145H57.4939L59.8295 30.9641L62.1485 34.7145ZM71.5245 31.1577L78.4347 38.148H81.0406V28.822H78.9919V35.7789L72.1117 28.822H69.4591V38.148H71.5245V31.1577ZM0.960938 38.148H3.02633V31.1577L9.95322 38.148H12.5591V28.822H10.4938V35.7789L3.61358 28.822H0.960938V38.148ZM17.1203 28.822H19.1857V38.148H17.117L17.1203 28.822ZM32.0886 36.176C32.0218 36.1927 31.7683 36.1927 31.6748 36.1927H23.46V38.1012H31.8016C31.865 38.1012 32.3588 38.1012 32.4523 38.0846C34.154 37.9244 34.9314 36.5097 34.9314 35.2718C34.9314 34.0005 34.1206 32.6358 32.5791 32.4923C32.2788 32.459 32.0252 32.459 31.9117 32.459H26.463C26.2606 32.4655 26.058 32.4499 25.859 32.4122C25.4286 32.2988 25.2718 31.9184 25.2718 31.6014C25.2718 31.3145 25.4286 30.9341 25.8724 30.8073C26.0609 30.7674 26.2538 30.7517 26.4463 30.7606H34.3108V28.8854H26.3195C25.9858 28.8854 25.7323 28.8988 25.5254 28.9321C24.8745 29.0123 24.2766 29.3316 23.848 29.828C23.4194 30.3244 23.1907 30.9625 23.2064 31.6181C23.2064 32.7626 23.9205 34.0973 25.492 34.3208C25.779 34.3508 26.176 34.3508 26.3529 34.3508H31.6581C31.7549 34.3508 31.9918 34.3508 32.0385 34.3675C32.6425 34.4443 32.8493 34.8914 32.8493 35.2884C32.8544 35.5042 32.7796 35.7142 32.6391 35.8781C32.4987 36.0419 32.3026 36.148 32.0886 36.176ZM47.6274 36.176C47.5606 36.1927 47.3071 36.1927 47.1969 36.1927H38.9988V38.1012H47.3404C47.4038 38.1012 47.8976 38.1012 47.9911 38.0846C49.6928 37.9244 50.4702 36.5097 50.4702 35.2718C50.4702 34.0005 49.6594 32.6358 48.1179 32.4923C47.8176 32.459 47.564 32.459 47.4505 32.459H42.0018C41.7994 32.4655 41.5968 32.4499 41.3978 32.4122C40.9674 32.2988 40.8106 31.9184 40.8106 31.6014C40.8106 31.3145 40.9674 30.9341 41.4112 30.8073C41.5997 30.7674 41.7926 30.7517 41.9851 30.7606H49.8496V28.8854H41.8583C41.5246 28.8854 41.271 28.8988 41.0642 28.9321C40.4132 29.0123 39.8154 29.3316 39.3868 29.828C38.9582 30.3244 38.7295 30.9625 38.7452 31.6181C38.7452 32.7626 39.4592 34.0973 41.0341 34.3208C41.3178 34.3508 41.7148 34.3508 41.8917 34.3508H47.1969C47.2937 34.3508 47.5306 34.3508 47.5773 34.3675C48.1813 34.4443 48.3881 34.8914 48.3881 35.2884C48.3896 35.5032 48.3135 35.7113 48.1737 35.8744C48.0339 36.0375 47.8399 36.1446 47.6274 36.176Z" fill="#343434"/>
</svg>
