<svg width="147" height="49" viewBox="0 0 147 49" fill="none" xmlns="http://www.w3.org/2000/svg">
<path d="M127.352 36.2156L128.009 36.6285C128.009 36.6285 131.81 36.3754 132.355 36.4221C132.9 36.4688 134.107 36.1184 135.275 37.4033C135.275 37.4033 137.261 36.8971 137.417 36.605C137.573 36.313 135.829 35.3105 135.042 35.0087C134.254 34.7067 128.929 34.7165 128.344 34.8528C127.76 34.9889 127.352 36.2156 127.352 36.2156Z" fill="#C3BFBE"/>
<path d="M142.691 29.4629C142.691 29.4629 146.157 29.5561 146.312 30.1017C146.468 30.6475 145.311 33.9772 145.311 33.9772C145.311 33.9772 144.988 35.0668 144.307 35.1447C143.625 35.2226 137.999 34.8332 137.162 33.9766C136.325 33.12 142.691 29.4629 142.691 29.4629Z" fill="black"/>
<path d="M10.713 21.6561C10.713 21.6561 7.09234 21.8738 6.71848 21.8158C6.34474 21.758 6.57665 21.5318 6.89595 20.5021C7.14594 19.6968 6.64645 18.8788 6.41714 18.5605C5.7896 18.6835 5.22589 18.9034 4.87212 19.277C4.87212 19.277 3.80295 20.7064 3.29131 21.9575C3.17041 22.2527 3.08078 22.538 3.04358 22.7921C2.84815 24.1237 2.54645 28.0294 2.91925 28.3845C3.29216 28.7394 7.62371 28.6468 7.62371 28.6468L10.4822 25.7746L12.2454 21.8188L10.713 21.6561Z" fill="#C9CDD6"/>
<path d="M6.90838 20.5018C6.58896 21.5315 6.35717 21.7578 6.73091 21.8155C7.10477 21.8735 10.7255 21.6558 10.7255 21.6558L12.258 21.8187L13.2644 19.5608L10.0687 18.5667C10.0687 18.5667 8.03842 18.2451 6.42969 18.5604C6.659 18.8785 7.15837 19.6965 6.90838 20.5018Z" fill="#B95E25"/>
<path d="M5.53931 24.4873H12.2317L11.3897 28.4071H5.73072C5.73072 28.4071 5.33591 27.0699 5.407 26.0403C5.47773 25.0106 5.31702 24.5855 5.53931 24.4873Z" fill="#B95E25"/>
<path d="M4.82003 19.3646L4.5 19.8456C4.5 19.8456 5.84971 19.4001 6.15154 19.3646C6.45324 19.3291 9.54232 18.9918 10.0397 20.3765C10.5366 21.7613 7.68859 24.5763 7.35503 28.6458L8.45961 28.1349L12.7204 22.5958L12.0814 20.0215L10.4835 19.1516C10.4835 19.1516 6.13395 18.1398 4.82014 19.2937" fill="black"/>
<path d="M3.50988 22.0625C3.45782 22.0625 3.41539 22.0138 3.41408 21.9618C3.41301 21.9091 3.45484 21.8616 3.50762 21.8604L9.72109 21.7217C9.77257 21.7202 9.81774 21.7613 9.81881 21.8142C9.82 21.8669 9.77805 21.9176 9.72527 21.9187L3.5118 22.0625C3.51132 22.0625 3.51024 22.0625 3.50988 22.0625Z" fill="black"/>
<path d="M8.59984 24.2019H3.15026C3.0976 24.2019 3.05469 24.1952 3.05469 24.1426C3.05469 24.0898 3.09748 24.083 3.15026 24.083H8.59984C8.65286 24.083 8.69541 24.0898 8.69541 24.1426C8.69541 24.1952 8.65286 24.2019 8.59984 24.2019Z" fill="black"/>
<path d="M6.49618 22.1445H9.26869L8.49638 23.6742H6.30469L6.49618 22.1445Z" fill="black"/>
<path d="M0.680372 30.9183C0.680372 30.9183 -0.204535 31.55 0.0440323 32.5797C0.292481 33.6094 0.791034 35.5409 0.791034 35.5409C0.791034 35.5409 0.762516 36.1604 2.37802 36.3735C3.99365 36.5865 4.44144 36.7267 4.44144 36.7267V37.6794C4.44144 37.6794 3.21822 37.9161 3.25388 38.431C3.28955 38.9459 4.57945 39.3541 9.62141 39.3541L9.75195 37.6144L13.6073 37.65L31.4865 37.3126C31.4865 37.3126 35.1621 38.4132 36.5292 38.6796C37.8963 38.946 39.672 39.2406 40.1159 39.2176C40.5598 39.1945 41.0038 35.7858 41.0038 35.7858L35.5534 21.7073L13.77 20.5L10.9904 25.9681L9.04773 28.5422L8.58613 28.6449L4.49969 28.6133C4.49969 28.6133 2.30145 29.4478 1.85745 29.9271C1.41381 30.4063 0.680372 30.9183 0.680372 30.9183Z" fill="#010101"/>
<path d="M92.8212 18.9364L89.73 14.4961C89.73 14.4961 88.4861 15.0227 87.8362 14.927C87.1861 14.8314 57.6453 21.428 57.6453 21.428L34.9116 34.4531C34.9116 34.4531 34.4141 37.9676 35.8481 38.5413C37.2821 39.1148 45.7914 39.2104 45.7914 39.2104L91.2035 38.5413C91.2035 38.5413 92.8287 39.305 94.8366 39.2094C96.8441 39.114 98.2784 38.348 98.2784 38.348H100.573C100.573 38.348 104.971 38.2445 107.074 37.9577C109.177 37.6707 123.613 36.8026 123.613 36.8026H127.997V35.0039V19.3248L92.8212 18.9364Z" fill="black"/>
<path d="M54.0214 2.34062L52.517 1.98828C52.517 1.98828 36.0606 11.9572 34.5515 16.455C33.0424 20.9525 39.6741 13.093 39.6741 13.093L54.0214 2.34062Z" fill="#C5D6E2"/>
<path d="M47.6851 5.77252C49.3608 4.6828 53.0839 2.36771 53.0839 2.36771L52.6955 1.92871C52.5498 1.97032 52.476 1.99373 52.5091 1.98826C52.7003 1.95641 52.9232 2.33907 52.9232 2.33907C48.8759 4.09188 40.1756 11.3585 39.4746 11.9639C38.7734 12.5694 36.2554 14.2597 35.5863 14.3844C35.5693 14.3876 35.5505 14.3906 35.5312 14.3936C36.4227 14.9329 45.3111 7.31623 47.6851 5.77252Z" fill="#222222"/>
<path d="M87.8781 36.3949C87.4957 36.1719 87.6971 35.0195 87.6971 35.0195L87.0279 35.9596C87.2192 35.4816 88.5575 17.3485 88.5257 13.9387C88.4936 10.5288 87.6335 2.62565 86.773 1.25515C85.9126 -0.115124 82.5026 -0.0832616 72.4321 0.0761495C62.3621 0.235561 57.1353 1.09597 56.4025 1.09597C55.7958 1.09597 53.4002 1.72899 52.7009 1.92906L53.0894 2.36806C53.0894 2.36806 49.3662 4.68314 47.6906 5.77287C45.3165 7.3167 36.4281 14.9332 35.5368 14.3939C34.8001 14.5083 32.4795 14.4831 31.7031 14.3899C30.906 14.2943 13.1535 16.8168 10.3173 17.3267C7.48103 17.8365 6.48962 18.0888 5.4459 18.5147C4.40217 18.9405 4.50262 19.8456 4.50262 19.8456C7.19275 18.0723 10.0346 19.6749 10.3214 20.1212C10.6082 20.5673 9.58845 22.7661 8.91918 23.9772C8.24992 25.1882 7.35753 28.6459 7.35753 28.6459H11.5323C12.6794 25.5866 14.1774 24.3837 15.6752 23.7144C17.1729 23.0451 28.3268 21.5553 31.1631 23.5949C33.9993 25.6345 34.9872 34.9719 35.0508 35.6411C35.1147 36.3104 35.6564 36.8521 35.6564 36.8521C35.7202 37.6169 36.3975 37.8719 36.3975 37.8719L88.7645 37.3939V36.6279C88.7645 36.6279 88.2608 36.6179 87.8781 36.3949Z" fill="#DEDEDE"/>
<path d="M140.45 14.7588L143.396 16.3835C143.396 16.3835 144.012 17.8728 144.053 20.0915C144.093 22.3102 144.236 26.9103 143.503 27.8058C142.77 28.7014 138.333 25.119 138.313 24.7934C138.292 24.4678 140.45 14.7588 140.45 14.7588Z" fill="#AE222F"/>
<path d="M89.7395 14.4955C89.7395 14.4955 89.1904 14.3327 89.1904 15.2114C89.1904 16.0902 89.0623 23.2507 88.9648 25.5943C88.8671 27.9377 87.5543 36.0354 87.9023 36.2481C88.2506 36.4609 89.2918 36.6486 89.2918 36.6486L89.2597 37.5154H97.3276C97.3276 37.5154 98.6336 36.9148 99.3497 36.9148C100.066 36.9148 100.293 36.4134 100.293 35.9578C100.293 35.5021 101.205 26.1543 105.469 24.299C109.733 22.4437 120.636 22.5543 120.636 22.5543C120.636 22.5543 124.379 22.4143 125.584 26.4178C126.788 30.4212 127.211 34.3872 126.56 35.6567L134.502 34.6777C134.502 34.6777 141.174 34.4161 142.216 32.3656C143.258 30.315 143.68 27.4827 143.68 27.4827C143.68 27.4827 142.346 27.0594 141.955 25.2041C141.565 23.349 140.686 20.9724 140.653 20.3867C140.621 19.8008 139.944 17.2294 140.758 16.7738C141.572 16.3181 143.337 16.3831 143.337 16.3831V14.7354C143.337 14.7354 143.466 13.9746 142.75 13.9746C142.034 13.9745 89.7395 14.4955 89.7395 14.4955Z" fill="#DEDEDE"/>
<path d="M10.9989 29.1719H3.35052C3.35052 29.1719 0.76537 29.2537 0.552346 30.4431C0.339203 31.6326 0.623316 32.0765 0.818508 32.112C1.01394 32.1474 10.3165 32.112 10.3165 32.112C10.3165 32.112 10.4562 30.4571 10.9989 29.1719Z" fill="#DEDEDE"/>
<path d="M89.0547 27.0688V29.411H96.9423C96.9423 29.411 97.3307 29.4116 97.4468 29.2957C97.5627 29.1798 97.5635 28.7697 97.5635 28.7697V27.6423C97.5635 27.6423 97.5463 27.1003 97.1593 27.0687C96.7729 27.0371 89.0547 27.0688 89.0547 27.0688Z" fill="#222222"/>
<path d="M96.9375 29.4108C96.9375 29.4108 97.511 29.8429 98.4035 28.2327C99.2957 26.6224 100.698 20.3763 103.502 19.6114C106.307 18.8465 131.037 16.7433 131.037 16.7433C131.037 16.7433 104.968 16.2334 102.1 19.0378C99.2319 21.8422 98.7861 28.694 96.9375 29.4108Z" fill="#D3D3D3"/>
<path d="M40.7925 14.8864C40.7925 14.8864 40.4563 13.4662 41.8765 12.3824C43.2965 11.2986 50.6213 5.46862 50.6213 5.46862C50.6213 5.46862 54.0597 2.70324 58.5441 2.32938C63.0289 1.95563 68.7466 1.88098 68.7466 1.88098C68.7466 1.88098 70.0918 1.8062 70.1295 2.88998C70.1669 3.97376 69.3821 13.5409 69.3821 13.5409C69.3821 13.5409 69.6065 14.3256 68.9336 14.7368C68.261 15.1479 66.7661 15.0732 66.7661 15.0732L43.035 16.1943C43.035 16.1943 41.0542 16.0822 40.7925 14.8864Z" fill="#1E1E1E"/>
<path d="M68.5544 13.7279L69.4138 3.48806C69.4138 3.48806 69.7127 2.70312 68.9841 2.70312C68.2555 2.70312 58.651 2.70313 55.1379 4.23542C51.625 5.76772 43.7768 10.4391 42.6185 13.7278C41.4599 17.0166 44.5619 14.9985 44.5619 14.9985L49.1212 14.9237L66.6111 14.1389C66.611 14.1391 68.5008 14.3681 68.5544 13.7279Z" fill="#C9CDD6"/>
<path d="M84.8013 11.8486C84.8013 13.3836 83.5571 14.8089 82.0219 14.8089H76.1086C74.5735 14.8089 72.9609 13.2027 72.9609 11.6676V4.12873C72.9609 2.59382 74.5734 1.85156 76.1086 1.85156H81.2572C82.7921 1.85156 83.8037 2.34205 84.3161 4.3861L84.8013 11.8486Z" fill="#C9CDD6"/>
<path d="M81.2482 2.30514C82.4761 2.30514 83.2793 2.6311 83.7378 4.40887L84.2186 11.888C84.2096 13.145 83.1826 14.2556 82.0129 14.2556H76.0996C74.8885 14.2556 73.5111 12.8783 73.5111 11.6675V4.12856C73.5111 2.95729 74.8508 2.30526 76.0996 2.30526H81.2551M81.2482 1.73145H76.0996C74.5644 1.73145 72.9375 2.59353 72.9375 4.12844V11.6674C72.9375 13.2024 74.5644 14.8292 76.0996 14.8292H82.0129C83.548 14.8292 84.7923 13.3937 84.7923 11.8585L84.3071 4.33089C83.7947 2.28696 82.7831 1.73145 81.2482 1.73145Z" fill="#1E1E1E"/>
<path d="M40.4678 27.0684C39.8171 27.0684 39.6719 27.5959 39.6719 28.2465V28.2803C39.6719 28.9311 39.8173 29.4586 40.4678 29.4586H71.3172V27.0685H40.4678V27.0684Z" fill="#222222"/>
<path d="M87.3828 28.2465C87.3828 27.5959 87.4288 27.0684 86.7779 27.0684H72.0859V29.4585H86.7779C87.4288 29.4585 87.3828 28.931 87.3828 28.2802V28.2465Z" fill="#222222"/>
<path d="M41.0066 15.1067C41.0066 15.1067 40.7774 13.775 42.1469 13.4454L42.3117 11.7335C42.3117 11.7335 42.2483 10.8458 42.7682 10.6175C43.2883 10.3892 45.9639 9.74257 47.0672 9.90745C48.1705 10.0722 47.8406 12.9889 47.8155 13.4328C47.7897 13.8766 47.9295 14.6882 47.1938 14.9545C46.4584 15.2207 43.9858 16.0451 43.6434 16.1719C43.3009 16.2988 40.9567 16.6917 41.0066 15.1067Z" fill="#040404"/>
<path d="M71.7673 34.3063H71.6484V18.3689L72.0559 0.0800781L72.2463 0.0850699L71.7673 18.3713V34.3063Z" fill="#222222"/>
<path d="M38.8035 35.0058L38.7798 34.9423C38.3452 33.7627 37.0443 24.9467 37.3085 21.7081C37.5611 18.6135 39.0459 12.3467 39.061 12.2826L39.2975 12.1113C39.2822 12.175 37.7502 18.6436 37.4988 21.7237C37.2484 24.7935 38.4949 33.437 38.9377 34.8126L87.2176 34.1216L87.2204 34.3127L38.8035 35.0058Z" fill="#222222"/>
<path d="M32.1956 37.5815C32.4642 31.9338 28.1037 27.1378 22.4561 26.8692C16.8086 26.6007 12.0126 30.9613 11.7441 36.609C11.4755 42.2566 15.8361 47.0527 21.4836 47.3212C27.1311 47.5898 31.9271 43.2292 32.1956 37.5815Z" fill="#27262C"/>
<path d="M14.2578 37.0934C14.2578 41.3643 17.7201 44.8266 21.9916 44.8266C26.2623 44.8266 29.7243 41.3643 29.7243 37.0934C29.7243 32.8226 26.2623 29.3604 21.9916 29.3604C17.7201 29.3604 14.2578 32.8226 14.2578 37.0934Z" fill="#C3BFBE"/>
<path d="M19.3044 31.9091L21.0943 33.943C21.0943 33.943 21.4032 34.4311 21.8266 34.4311C22.2494 34.4311 22.5581 34.0893 22.5581 34.0893L24.4299 31.9091C24.4299 31.9091 24.69 31.5998 24.4299 31.3886C24.1697 31.177 23.256 30.8682 21.9884 30.8682C20.72 30.868 18.8484 31.2097 19.3044 31.9091Z" fill="#27262C"/>
<path d="M19.3044 42.2778L21.0939 40.2439C21.0939 40.2439 21.4032 39.7559 21.8261 39.7559C22.2491 39.7559 22.5582 40.0975 22.5582 40.0975L24.4292 42.2778C24.4292 42.2778 24.6899 42.5869 24.4292 42.7981C24.1688 43.0098 23.2558 43.319 21.9877 43.319C20.7193 43.3191 18.8484 42.9774 19.3044 42.2778Z" fill="#27262C"/>
<path d="M27.2325 34.5074L25.1991 36.297C25.1991 36.297 24.7109 36.6063 24.7109 37.0291C24.7109 37.4526 25.0525 37.7614 25.0525 37.7614L27.2326 39.6325C27.2326 39.6325 27.5422 39.8931 27.7534 39.6325C27.9647 39.3723 28.2745 38.4591 28.2745 37.191C28.2742 35.9228 27.9322 34.0519 27.2325 34.5074Z" fill="#27262C"/>
<path d="M16.8614 34.5085L18.8956 36.2979C18.8956 36.2979 19.3834 36.6071 19.3834 37.03C19.3834 37.4533 19.0421 37.7622 19.0421 37.7622L16.8614 39.6333C16.8614 39.6333 16.5524 39.8938 16.3409 39.6333C16.1295 39.373 15.8203 38.4598 15.8203 37.1917C15.8203 35.9238 16.1621 34.0526 16.8614 34.5085Z" fill="#27262C"/>
<path d="M32.1956 37.5815C32.4642 31.9338 28.1037 27.1378 22.4561 26.8692C16.8086 26.6007 12.0126 30.9613 11.7441 36.609C11.4755 42.2566 15.8361 47.0527 21.4836 47.3212C27.1311 47.5898 31.9271 43.2292 32.1956 37.5815Z" fill="#27262C"/>
<path d="M14.2578 37.0934C14.2578 41.3643 17.7201 44.8266 21.9916 44.8266C26.2623 44.8266 29.7243 41.3643 29.7243 37.0934C29.7243 32.8226 26.2623 29.3604 21.9916 29.3604C17.7201 29.3604 14.2578 32.8226 14.2578 37.0934Z" fill="#C3BFBE"/>
<path d="M19.3044 31.9091L21.0943 33.943C21.0943 33.943 21.4032 34.4311 21.8266 34.4311C22.2494 34.4311 22.5581 34.0893 22.5581 34.0893L24.4299 31.9091C24.4299 31.9091 24.69 31.5998 24.4299 31.3886C24.1697 31.177 23.256 30.8682 21.9884 30.8682C20.72 30.868 18.8484 31.2097 19.3044 31.9091Z" fill="#27262C"/>
<path d="M19.3044 42.2778L21.0939 40.2439C21.0939 40.2439 21.4032 39.7559 21.8261 39.7559C22.2491 39.7559 22.5582 40.0975 22.5582 40.0975L24.4292 42.2778C24.4292 42.2778 24.6899 42.5869 24.4292 42.7981C24.1688 43.0098 23.2558 43.319 21.9877 43.319C20.7193 43.3191 18.8484 42.9774 19.3044 42.2778Z" fill="#27262C"/>
<path d="M27.2325 34.5074L25.1991 36.297C25.1991 36.297 24.7109 36.6063 24.7109 37.0291C24.7109 37.4526 25.0525 37.7614 25.0525 37.7614L27.2326 39.6325C27.2326 39.6325 27.5422 39.8931 27.7534 39.6325C27.9647 39.3723 28.2745 38.4591 28.2745 37.191C28.2742 35.9228 27.9322 34.0519 27.2325 34.5074Z" fill="#27262C"/>
<path d="M16.8614 34.5085L18.8956 36.2979C18.8956 36.2979 19.3834 36.6071 19.3834 37.03C19.3834 37.4533 19.0421 37.7622 19.0421 37.7622L16.8614 39.6333C16.8614 39.6333 16.5524 39.8938 16.3409 39.6333C16.1295 39.373 15.8203 38.4598 15.8203 37.1917C15.8203 35.9238 16.1621 34.0526 16.8614 34.5085Z" fill="#27262C"/>
<path d="M124.053 38.7334C124.959 33.1524 121.169 27.8939 115.588 26.9882C110.007 26.0825 104.749 29.8725 103.843 35.4534C102.937 41.0344 106.727 46.2928 112.308 47.1986C117.889 48.1043 123.148 44.3143 124.053 38.7334Z" fill="#27262C"/>
<path d="M106.219 37.0934C106.219 41.3643 109.681 44.8266 113.953 44.8266C118.223 44.8266 121.686 41.3643 121.686 37.0934C121.686 32.8226 118.223 29.3604 113.953 29.3604C109.681 29.3604 106.219 32.8226 106.219 37.0934Z" fill="#C3BFBE"/>
<path d="M111.273 31.9101L113.063 33.944C113.063 33.944 113.372 34.4321 113.795 34.4321C114.218 34.4321 114.527 34.0903 114.527 34.0903L116.398 31.9101C116.398 31.9101 116.659 31.6008 116.398 31.3896C116.138 31.178 115.225 30.8691 113.957 30.8691C112.688 30.869 110.817 31.2107 111.273 31.9101Z" fill="#27262C"/>
<path d="M111.273 42.2788L113.062 40.2448C113.062 40.2448 113.372 39.7568 113.795 39.7568C114.218 39.7568 114.527 40.0985 114.527 40.0985L116.398 42.2788C116.398 42.2788 116.659 42.5878 116.398 42.7991C116.138 43.0108 115.225 43.32 113.957 43.32C112.688 43.32 110.818 42.9784 111.273 42.2788Z" fill="#27262C"/>
<path d="M119.201 34.5094L117.168 36.2989C117.168 36.2989 116.68 36.6082 116.68 37.0311C116.68 37.4545 117.021 37.7633 117.021 37.7633L119.201 39.6344C119.201 39.6344 119.511 39.895 119.722 39.6344C119.933 39.3742 120.243 38.461 120.243 37.193C120.243 35.9247 119.901 34.0539 119.201 34.5094Z" fill="#27262C"/>
<path d="M108.831 34.5075L110.864 36.2969C110.864 36.2969 111.352 36.6061 111.352 37.029C111.352 37.4523 111.011 37.7612 111.011 37.7612L108.831 39.6323C108.831 39.6323 108.521 39.8928 108.31 39.6323C108.098 39.372 107.789 38.4588 107.789 37.1908C107.789 35.9229 108.131 34.0516 108.831 34.5075Z" fill="#27262C"/>
<path d="M143.501 30.0264H145.986C145.986 30.0264 146.57 30.0699 146.473 30.6928C146.376 31.3158 146.178 34.019 144.992 34.097C143.806 34.1747 141.645 34.6891 141.567 34.3777C141.489 34.0662 142.443 33.424 142.755 32.7038C143.066 31.9834 143.331 30.0264 143.501 30.0264Z" fill="#DEDEDE"/>
<path d="M62.2601 18.4092C62.2601 18.4092 62.2959 17.7064 62.6886 17.6793C63.081 17.6522 63.7027 17.5561 63.7027 17.5561C63.7027 17.5561 64.3379 16.7421 65.0419 16.7421C65.7459 16.7421 66.5403 16.7421 66.5403 16.7421C66.5403 16.7421 67.8307 16.5511 68.4129 17.5071H69.6954C69.6954 17.5071 70.3351 17.5298 70.3619 18.3972C70.3892 19.2647 69.7395 19.1023 69.7395 19.1023L68.4263 19.1264C68.4263 19.1264 67.8307 19.9929 67.3297 19.9929C66.8289 19.9929 65.871 19.9929 65.871 19.9929C65.871 19.9929 64.4866 20.0905 64.1616 19.6437C63.8369 19.197 63.5255 19.1835 63.5255 19.1835L62.8215 19.1428C62.8215 19.1428 62.1225 18.9275 62.2601 18.4092Z" fill="#1A1A1A"/>
</svg>
