<svg width="40" height="34" viewBox="0 0 40 34" fill="none" xmlns="http://www.w3.org/2000/svg">
<path d="M7.59516 17.1907C3.0237 18.2066 0.737968 20.8732 0.737968 25.1907C0.737968 27.6987 1.49989 29.7304 3.02375 31.2861C4.57937 32.8732 6.61115 33.6669 9.11906 33.667C11.6269 33.667 13.6269 32.8892 15.1191 31.3336C16.6428 29.778 17.4047 27.7145 17.4047 25.1431C17.4047 19.1113 13.0237 10.8415 4.26187 0.333553L0.5 3.19074C4.24594 8.27011 6.61099 12.9368 7.59516 17.1907ZM29.7856 17.1907C25.2143 18.2066 22.9286 20.8732 22.9286 25.1907C22.9286 27.6987 23.6905 29.7304 25.2142 31.2861C26.7698 32.8732 28.8016 33.6669 31.3095 33.667C33.7856 33.667 35.7856 32.8892 37.3095 31.3336C38.8333 29.778 39.5952 27.7145 39.5952 25.1431C39.5952 19.0162 35.2142 10.7464 26.4523 0.333553L22.6905 3.19074C26.4365 8.23834 28.8016 12.905 29.7856 17.1907Z" fill="white"/>
</svg>
