<svg width="144" height="47" viewBox="0 0 144 47" fill="none" xmlns="http://www.w3.org/2000/svg">
<path d="M3.78906 37.3774L8.42722 40.3424C8.42722 40.3424 9.37498 37.9248 12.9356 38.644C16.4964 39.3631 31.0279 40.4901 31.0279 40.4901C31.0279 40.4901 36.2626 41.9592 38.6833 40.2578C41.1037 38.5562 94.7562 38.6364 94.7562 38.6364L102.474 40.5784C102.474 40.5784 105 39.6992 106.786 39.6322C108.573 39.5647 123.902 39.2284 123.902 39.2284L126.601 38.7587L132.979 33.1255L120.171 15.6797L26.1656 19.092L7.05021 24.4963L3.78906 37.3774Z" fill="#050505"/>
<path d="M137.219 34.8204H142.708C142.708 34.8204 143.434 34.7814 143.312 36.1665C143.19 37.551 142.05 37.3675 142.05 37.3675H136.742L137.219 34.8204Z" fill="#DFE4E8"/>
<path d="M14.6218 18.1654L12.0638 17.8359C12.0638 17.8359 7.78676 18.5077 5.38022 20.5747C2.97367 22.6418 1.96262 26.6851 2.10727 27.2628C2.25178 27.8404 10.0495 24.7605 10.2418 24.4955C10.4343 24.2303 14.6218 18.1654 14.6218 18.1654Z" fill="#C9CDD6"/>
<path d="M37.4922 14.2361C37.4922 14.2361 38.5303 13.6547 39.2777 13.4054C40.0251 13.1561 42.6418 12.7825 42.4754 12.9902C42.3093 13.1978 41.2712 13.6547 41.4786 14.2361C41.6863 14.8174 37.4922 14.2361 37.4922 14.2361Z" fill="#5C5F66"/>
<path d="M40.3594 14.2773C40.3594 14.2773 57.5196 4.65409 63.3335 2.61914L65.5666 2.73255L52.6518 9.83396L44.5537 15.191L40.3594 14.2773Z" fill="#C9CDD6"/>
<path d="M136.208 13.6416C136.208 13.6416 138.278 13.0163 138.615 14.4119C138.952 15.8077 138.952 17.1553 139.529 18.5995C140.107 20.0435 140.492 20.9098 140.01 21.9206C139.529 22.9314 131.539 20.9581 131.539 20.9581C131.539 20.9581 131.491 13.7379 136.208 13.6416Z" fill="#AE222F"/>
<path d="M36.1283 41.1157C40.6445 40.7116 92.4811 40.5969 101.225 40.5806L101.176 38.1484L36.1172 39.276C36.1196 39.987 36.1235 40.5983 36.1283 41.1157Z" fill="#9D9E9B"/>
<path d="M140.893 24.2695C140.893 23.7979 140.219 21.035 140.219 21.035C140.219 21.035 139.343 21.0025 136.816 20.935C134.289 20.8677 133.784 18.5446 133.211 17.4326C132.638 16.3205 137.254 14.6058 137.794 13.797C138.333 12.9883 129.942 12.221 128.156 12.0185C126.37 11.8164 121.249 8.76503 114.509 5.46286C107.77 2.16042 99.2446 0 83.0029 0C66.7613 0 62.2942 2.91274 62.2942 2.91274H64.234C51.3954 8.87857 44.1153 13.8783 44.1153 13.8783C42.7673 14.2827 38.5877 13.7914 38.5877 13.7914C19.0771 15.7794 12.0657 17.8366 12.0657 17.8366C12.0657 17.8366 13.8462 18.649 13.4757 19.1882C13.1049 19.7272 7.70262 23.6432 6.01768 25.1258C4.33289 26.6086 2.02017 26.5215 2.02017 26.5215C0.257887 27.325 -0.059277 28.751 0.00828652 29.6944C0.0755819 30.6378 0.783385 35.1533 0.817032 35.7599C0.850412 36.3665 -0.0930707 36.299 0.210563 37.411C0.514063 38.523 3.17572 39.8373 3.17572 39.8373L7.55113 40.2579C7.28704 38.9589 6.53861 34.6351 7.6329 31.8991C8.93296 28.6495 12.2598 22.0606 21.4994 22.0606C28.9686 22.0606 36.1179 26.9455 36.1179 37.233C36.1179 37.9955 36.1192 38.6713 36.1211 39.2761L101.18 38.1486L101.147 36.5017C101.147 36.5017 103.14 21.8445 115.947 22.4808C126.943 23.0271 128.916 32.834 127.612 38.6711C130.019 38.4629 135.985 37.957 136.816 37.9838C137.86 38.0175 138.299 37.1414 138.299 37.1414C144.128 35.4566 142.106 33.536 142.106 33.536C143.387 30.975 143.286 29.2904 143.455 26.8979C143.623 24.5052 140.893 24.2695 140.893 24.2695Z" fill="#E5E5E3"/>
<path d="M115.948 22.4811C103.141 21.8447 101.148 36.502 101.148 36.502L101.23 40.5811C102.039 40.5795 102.48 40.5788 102.48 40.5788C102.278 37.8495 102.38 24.2246 116.06 24.0746C128.359 23.9396 126.608 38.759 126.608 38.759C126.608 38.759 126.995 38.7249 127.614 38.6714C128.917 32.8342 126.944 23.0272 115.948 22.4811Z" fill="#9D9E9B"/>
<path d="M21.4988 22.0605C12.2591 22.0605 8.93237 28.6495 7.63231 31.8991C6.53802 34.6351 7.28645 38.9589 7.55054 40.2579L8.43181 40.3425C7.08402 32.862 10.2177 22.2812 22.7866 23.3258C35.3556 24.3706 35.5915 38.4218 35.5915 39.5675C35.5915 40.713 35.861 41.1513 35.861 41.1513C35.9104 41.1392 36.0032 41.1274 36.1319 41.1159C36.1226 40.1582 36.1174 38.8918 36.1174 37.2328C36.1173 26.9455 28.968 22.0605 21.4988 22.0605Z" fill="#9D9E9B"/>
<path d="M46.3672 15.6796C46.3672 15.6796 63.124 4.1126 65.5692 3.68818C65.5692 3.68818 76.6174 0.601845 85.6241 1.45899C94.6306 2.31613 111.275 3.68135 111.752 8.90478C112.23 14.1285 111.454 13.1739 111.454 13.1739L46.3672 15.6796Z" fill="#C9CDD6"/>
<path d="M81.0836 1.95801L78.5781 14.5835L83.9474 14.3223L84.8424 1.95801H81.0836Z" fill="#313D49"/>
<path d="M21.7446 46.4874C27.6015 46.341 32.2307 41.4743 32.0842 35.6174C31.9377 29.7605 27.0711 25.1313 21.2142 25.2778C15.3573 25.4242 10.7281 30.2909 10.8746 36.1478C11.021 42.0047 15.8877 46.6339 21.7446 46.4874Z" fill="#27262C"/>
<path d="M13.4844 35.8843C13.4844 40.3099 17.0723 43.8976 21.4982 43.8976C25.9237 43.8976 29.511 40.3099 29.511 35.8843C29.511 31.4588 25.9236 27.8711 21.4982 27.8711C17.0722 27.8711 13.4844 31.4587 13.4844 35.8843Z" fill="#C3BFBE"/>
<path d="M18.721 30.5114L20.5755 32.619C20.5755 32.619 20.8955 33.1247 21.3344 33.1247C21.7726 33.1247 22.0926 32.7707 22.0926 32.7707L24.0318 30.5115C24.0318 30.5115 24.3016 30.1911 24.0318 29.9722C23.7621 29.7529 22.816 29.4326 21.502 29.4326C20.1876 29.4325 18.2486 29.7865 18.721 30.5114Z" fill="#27262C"/>
<path d="M18.721 41.2568L20.5751 39.1492C20.5751 39.1492 20.8956 38.6436 21.3338 38.6436C21.7723 38.6436 22.0927 38.9975 22.0927 38.9975L24.0314 41.2568C24.0314 41.2568 24.3017 41.5772 24.0314 41.7961C23.7616 42.0154 22.8155 42.3357 21.5017 42.3357C20.1874 42.3357 18.2487 41.9816 18.721 41.2568Z" fill="#27262C"/>
<path d="M26.9336 33.2053L24.8262 35.0597C24.8262 35.0597 24.3203 35.3802 24.3203 35.8183C24.3203 36.2571 24.6743 36.5772 24.6743 36.5772L26.9337 38.516C26.9337 38.516 27.2542 38.786 27.4731 38.516C27.6921 38.2463 28.0129 37.3 28.0129 35.9861C28.0129 34.6717 27.6587 32.7332 26.9336 33.2053Z" fill="#27262C"/>
<path d="M16.1883 33.2053L18.2959 35.0597C18.2959 35.0597 18.8014 35.3801 18.8014 35.8184C18.8014 36.2571 18.4476 36.5771 18.4476 36.5771L16.1883 38.5162C16.1883 38.5162 15.8677 38.786 15.6486 38.5162C15.4296 38.2462 15.1094 37.3001 15.1094 35.986C15.1092 34.6719 15.4634 32.7332 16.1883 33.2053Z" fill="#27262C"/>
<path d="M125.388 35.8844C125.388 41.743 120.638 46.4924 114.78 46.4924C108.921 46.4924 104.172 41.743 104.172 35.8844C104.172 30.0257 108.921 25.2764 114.78 25.2764C120.638 25.2762 125.388 30.0257 125.388 35.8844Z" fill="#27262C"/>
<path d="M106.789 35.8843C106.789 40.3099 110.377 43.8976 114.803 43.8976C119.228 43.8976 122.816 40.3099 122.816 35.8843C122.816 31.4588 119.228 27.8711 114.803 27.8711C110.377 27.8711 106.789 31.4587 106.789 35.8843Z" fill="#C3BFBE"/>
<path d="M112.018 30.5114L113.872 32.619C113.872 32.619 114.192 33.1247 114.631 33.1247C115.069 33.1247 115.39 32.7707 115.39 32.7707L117.329 30.5115C117.329 30.5115 117.598 30.1911 117.329 29.9722C117.059 29.7529 116.113 29.4326 114.799 29.4326C113.484 29.4325 111.545 29.7865 112.018 30.5114Z" fill="#27262C"/>
<path d="M112.018 41.2568L113.872 39.1492C113.872 39.1492 114.193 38.6436 114.631 38.6436C115.069 38.6436 115.39 38.9975 115.39 38.9975L117.328 41.2568C117.328 41.2568 117.599 41.5772 117.328 41.7961C117.058 42.0154 116.112 42.3357 114.799 42.3357C113.484 42.3357 111.546 41.9816 112.018 41.2568Z" fill="#27262C"/>
<path d="M120.238 33.2053L118.131 35.0597C118.131 35.0597 117.625 35.3802 117.625 35.8183C117.625 36.2571 117.979 36.5772 117.979 36.5772L120.239 38.516C120.239 38.516 120.559 38.786 120.778 38.516C120.997 38.2463 121.318 37.3 121.318 35.9861C121.318 34.6717 120.963 32.7332 120.238 33.2053Z" fill="#27262C"/>
<path d="M109.494 33.2053L111.601 35.0597C111.601 35.0597 112.107 35.3801 112.107 35.8184C112.107 36.2571 111.753 36.5771 111.753 36.5771L109.493 38.5162C109.493 38.5162 109.173 38.786 108.954 38.5162C108.735 38.2462 108.414 37.3001 108.414 35.986C108.414 34.6719 108.768 32.7332 109.494 33.2053Z" fill="#27262C"/>
<path d="M105.782 4.19012C105.782 4.19012 97.0596 0.967589 83.0316 1.34871C83.0316 1.34871 71.2403 1.2676 65.653 3.20764C65.653 3.20764 57.0188 6.45511 44.8672 16.1564H46.2384H46.7763L47.4219 16.0908L112.75 13.5013C112.721 12.8947 112.838 11.7617 112.659 10.4306C112.29 7.69404 111.334 5.55051 105.782 4.19012ZM110.808 12.9289L81.3156 14.0291L47.1253 15.586C50.4279 13.2849 62.8028 5.07194 66.4872 3.69721C70.7833 2.09418 83.9044 1.99793 85.3203 2.06884C86.7363 2.13949 101.697 2.56458 108.412 6.03365C108.412 6.03365 112.761 7.14791 110.808 12.9289Z" fill="#F0F4F7"/>
<path d="M42.7378 37.3774L42.7279 37.2679C42.7168 37.146 41.6247 25.0601 42.3688 21.374C43.0936 17.7821 43.6073 16.9019 46.0322 15.0953L46.1545 15.0037C55.9741 7.68405 63.3418 3.36092 67.461 2.50217C71.1539 1.73203 77.9847 1.21484 84.4583 1.21484C89.2779 1.21484 96.1099 1.49033 101.286 2.80313C110.976 5.26075 112.185 6.72636 112.632 9.48413C113.059 12.1218 112.969 21.1175 112.22 22.7916L112.195 22.8458L112.137 22.859C112.039 22.8817 102.278 25.2432 101.375 36.6291L101.367 36.738L42.7378 37.3774ZM84.4583 1.45346C77.9994 1.45346 71.1883 1.96877 67.5093 2.73569C63.4824 3.57528 55.9492 8.00029 46.2971 15.195L46.1745 15.2864C43.8127 17.0463 43.3119 17.9062 42.6025 21.4213C41.9028 24.8863 42.8475 35.9126 42.9557 37.1362L101.147 36.5015C102.077 25.4996 111.191 22.8594 112.024 22.6416C112.722 20.9045 112.805 12.0442 112.396 9.5222C111.967 6.87181 110.781 5.45713 101.227 3.03437C96.0752 1.72774 89.2643 1.45346 84.4583 1.45346Z" fill="#1D1D1D"/>
<path d="M12.9393 25.793L6.93021 25.8211C6.93021 25.8211 6.68356 26.983 8.11821 27.0727C9.55233 27.1623 11.4621 27.1975 11.4621 27.1975C11.4621 27.1975 12.3353 26.2305 12.9393 25.793Z" fill="#BC4926"/>
<path d="M103.233 27.6855C103.241 28.1014 90.0176 28.3395 73.7061 28.6485C57.3943 28.9575 44.1713 29.2203 44.1641 28.8046C44.1556 28.3887 57.4257 27.948 73.7372 27.6393C90.0488 27.3303 103.225 27.2698 103.233 27.6855Z" fill="#9D9E9B"/>
<path d="M80.1829 36.865C79.2006 29.7264 81.2247 13.8561 81.2453 13.6966L82.8028 1.31934L83.0398 1.34936L81.4819 13.7269C81.4614 13.8864 79.4412 29.7251 80.4194 36.8321L80.1829 36.865Z" fill="#1D1D1D"/>
<path d="M70.657 18.8253C70.657 18.8253 70.5958 17.9024 72.1958 17.4959C73.7959 17.0896 74.2516 17.0527 74.7808 17.0527C75.3099 17.0527 78.6457 17.2742 78.6704 18.5052C78.6952 19.7361 76.1966 20.1423 75.224 20.2162C74.2517 20.2902 70.5954 20.401 70.657 18.8253Z" fill="#9D9E9B"/>
<path d="M102.165 18.1102C102.165 18.1102 102.103 17.1871 103.703 16.7811C105.303 16.3748 105.759 16.3379 106.288 16.3379C106.818 16.3379 110.154 16.5594 110.178 17.7902C110.203 19.0213 107.704 19.4273 106.732 19.5012C105.759 19.5752 102.103 19.686 102.165 18.1102Z" fill="#9D9E9B"/>
<path d="M77.3263 18.419C77.333 18.7157 77.0985 18.9615 76.8018 18.9685L72.3884 19.0716C72.0921 19.0784 71.846 18.8437 71.839 18.5474L71.8361 18.428C71.8296 18.1317 72.064 17.8859 72.3606 17.8786L76.774 17.7755C77.0704 17.7687 77.3165 18.0034 77.3235 18.2997L77.3263 18.419Z" fill="#DCE4F1"/>
<path d="M108.826 17.7035C108.833 17.9998 108.598 18.2458 108.302 18.2527L103.888 18.3558C103.592 18.3626 103.346 18.128 103.339 17.8316L103.336 17.7122C103.329 17.4158 103.564 17.1699 103.86 17.1629L108.274 17.0597C108.57 17.0528 108.816 17.2876 108.823 17.5839L108.826 17.7035Z" fill="#DCE4F1"/>
</svg>
