<svg width="127" height="53" viewBox="0 0 127 53" fill="none" xmlns="http://www.w3.org/2000/svg">
<path d="M6.28065 42.8381C6.28065 42.8381 9.24418 45.082 9.42709 44.9522C9.61 44.8225 9.28793 44.0447 9.42709 43.9079C9.56625 43.7713 11.4936 43.2962 11.4936 43.2962L31.207 44.472C31.207 44.472 34.073 44.7352 34.6114 44.4942C35.1499 44.253 91.3551 42.6321 91.3551 42.6321L91.9914 43.3187C91.9914 43.3187 93.6332 42.8008 94.6407 44.0964C95.6484 45.392 118.772 42.6689 119.261 43.3187C119.75 43.9686 117.96 25.1371 117.96 25.1371L70.8095 27.6497L16.3088 24.9336C16.3088 24.9336 4.35303 33.8441 6.28065 42.8381Z" fill="#010101"/>
<path d="M55.2266 2.67996C55.2266 2.67996 57.5528 0.789733 60.3737 0.52804C63.1945 0.266347 99.8926 -0.547864 108.413 0.586297C116.933 1.72034 83.9569 10.3569 83.9569 10.3569L55.2266 2.67996Z" fill="#C9CDD6"/>
<path d="M30.6797 17.5101C30.6797 17.5101 51.1227 3.58115 52.6346 3.34847C54.1469 3.11579 54.9026 4.45338 54.9026 4.45338L31.8138 19.3711L30.6797 17.5101Z" fill="#9599A5"/>
<path d="M33.9375 17.5054C33.9375 17.5054 45.6748 8.2229 53.1546 3.505L51.3902 3.88851C51.3902 3.88851 54.3433 0.321277 77.3577 1.0501C100.372 1.77893 110.153 1.28031 116.022 1.93248C116.022 1.93248 116.937 1.75994 117.019 3.8503C117.019 3.8503 114.679 4.96265 114.756 5.57637C114.833 6.19009 103.978 16.2397 103.978 16.2397L58.2561 18.8095L33.9375 17.5054Z" fill="#2C3033"/>
<path d="M123.917 34.8027L124.217 28.9238C124.217 28.9238 125.795 29.1688 126.013 30.2846C126.23 31.4005 127.483 37.3366 126.013 38.0142C124.543 38.6917 125.931 40.518 125.931 40.518L123.999 42.8587C123.999 42.8587 121.93 36.0274 123.917 34.8027Z" fill="#222526"/>
<path d="M2.76001 29.8555C2.76001 29.8555 1.10364 30.0692 0.836407 32.4199C0.569406 34.7706 0.248879 39.3652 1.2105 41.9831C2.17213 44.601 2.97348 42.4958 2.97348 42.4958L2.76001 29.8555Z" fill="#222526"/>
<path d="M1.13491 38.9074C1.22336 40.3183 1.14802 41.4716 0.965581 41.4832C0.783375 41.4946 0.563417 40.36 0.474732 38.9488C0.38581 37.5378 0.461651 36.3845 0.643857 36.3731C0.826299 36.3617 1.04599 37.4962 1.13491 38.9074Z" fill="#BABABA"/>
<path d="M120.392 13.8682C120.392 13.8682 121.272 13.466 121.422 13.8682C121.573 14.2706 120.969 14.7132 120.661 14.7533C120.352 14.7935 120.392 13.8682 120.392 13.8682Z" fill="#252527"/>
<path d="M117.082 3.38536C117.082 3.38536 115.036 2.75595 114.433 5.90334C113.83 9.05074 113.987 17.1552 113.987 17.1552L118.21 23.3975L122.408 24.6628C122.408 24.6628 121.961 23.9747 121.777 22.0599C121.777 22.0599 121.541 21.7453 121.541 21.1157C121.541 20.4862 120.57 15.3717 121.016 15.2406C121.016 15.2406 119.731 8.81452 117.082 3.38536Z" fill="#6C6A6B"/>
<path d="M7.4674 21.1291C7.4674 21.1291 5.66244 22.0632 5.47457 22.4399C5.28659 22.8166 3.79652 25.2493 4.13605 27.704C4.47582 30.1586 7.69751 28.8108 7.69751 28.8108L11.8508 26.4328L18.0199 20.3292C18.0199 20.3292 9.1661 19.7923 7.4674 21.1291Z" fill="#B6B5BD"/>
<path d="M116.605 4.89844L117.773 7.34095C117.773 7.34095 117.175 8.04654 117.393 9.02373C117.61 10.0008 118.858 15.8903 119.211 16.4602C119.563 17.0301 120.486 17.9801 120.514 18.3873C120.541 18.7944 120.839 21.617 120.839 21.617C120.839 21.617 117.067 18.8757 116.605 17.6273C116.144 16.3789 115.194 7.09683 115.52 6.22825C115.845 5.35979 116.605 4.89844 116.605 4.89844Z" fill="#BA1F25"/>
<path d="M118.151 8.66992C118.151 8.66992 117.831 8.96841 118.021 9.72837C118.211 10.4883 119.215 15.7536 119.568 16.1335C119.921 16.5135 120.057 16.8391 120.138 16.6491C120.22 16.4593 118.736 9.6582 118.151 8.66992Z" fill="#E1E1EA"/>
<path d="M121.109 18.6833C121.109 18.6833 120.59 15.2903 120.843 15.1562C121.095 15.0222 121.712 16.6315 121.94 18.7236C122.168 20.8157 122.114 22.036 121.819 22.0898C121.524 22.1434 121.256 19.8233 121.109 18.6833Z" fill="#BA1F25"/>
<path d="M20.82 25.9013C34.8711 25.9013 36.8478 41.0209 36.8478 41.0209L88.8311 40.4866C88.8311 40.4866 89.4725 25.1367 106.408 25.1367C118.182 25.1367 121.422 38.2427 121.422 38.2427L124.033 38.1035C123.978 38.1006 123.942 38.1065 123.942 38.1065C123.852 37.9263 124.077 35.5846 124.212 35.1792C124.347 34.774 124.483 32.7024 124.483 32.7024C124.483 32.7024 124.618 31.8916 124.483 29.1446C124.347 26.3976 123.041 25.677 122.906 25.4969C122.771 25.3169 122.186 24.2867 122.186 24.2867C122.186 24.2867 119.349 22.0294 117.277 20.3182C115.206 18.6068 115.025 17.3459 114.8 15.4545C114.575 13.5631 114.518 5.49918 114.518 5.49918L107.1 5.1416C107.73 5.90722 103.992 11.8516 103.137 13.2928C102.281 14.7338 99.9843 14.6438 99.9843 14.6438L71.2077 15.6344L38.4228 16.92C38.4228 16.92 32.0281 17.3458 30.4971 17.1657C28.9661 16.9855 20.5896 18.2465 14.1948 19.1473C7.79985 20.048 5.95374 21.9394 5.95374 21.9394C5.95374 21.9394 4.64752 23.1553 6.35896 21.8043C8.07017 20.4533 14.375 20.4986 15.1404 20.5436C15.9062 20.5887 16.3112 21.1743 16.3112 21.1743C15.3656 21.4446 10.2314 25.4532 8.83533 26.3088C7.43924 27.1645 6.17771 27.571 5.09697 27.571C4.016 27.571 4.10491 26.8279 4.10491 26.8279C2.93407 28.5144 2.57413 27.7842 1.98859 29.3155C1.40306 30.8466 2.11643 39.8816 2.11643 39.8816L6.29104 40.0354C6.29081 40.0351 6.76927 25.9013 20.82 25.9013Z" fill="#E5E5E3"/>
<path d="M125.062 38.1917C125.062 39.552 125.328 40.6548 125.656 40.6548C125.984 40.6548 126.25 39.552 126.25 38.1917C126.25 36.8313 125.984 35.7285 125.656 35.7285C125.328 35.7285 125.062 36.8313 125.062 38.1917Z" fill="#C4C3C8"/>
<path d="M45.2606 16.0697L68.6628 15.2238L71.5203 4.37207H55.8671C55.8671 4.37207 45.4209 11.6686 44.8503 12.7339C44.2795 13.7992 45.2606 16.0697 45.2606 16.0697Z" fill="#C9CDD6"/>
<path d="M75.6309 4.47656L74.1094 14.9166L96.7847 14.221L97.3934 8.29653L95.7575 4.89699L75.6309 4.47656Z" fill="#C9CDD6"/>
<path d="M97.3906 4.89844L101.271 13.69C101.271 13.69 101.462 14.0811 102.337 13.0537C103.212 12.0267 106.141 6.77628 106.141 6.77628C106.141 6.77628 106.56 6.16752 106.141 5.63481C105.723 5.10223 104.353 5.17912 104.353 5.17912L97.3906 4.89844Z" fill="#C9CDD6"/>
<path d="M29.1016 20.223C29.1016 20.223 29.8454 22.1458 32.1112 22.0749C34.3771 22.0042 35.8911 21.8272 35.8911 21.8272C35.8911 21.8272 36.2806 19.9769 36.43 19.7363L29.1016 20.223Z" fill="#9D9E9B"/>
<path d="M36.8919 41.0501C34.7387 34.5559 35.8238 22.4569 35.8591 22.0726C35.8477 21.8752 35.7573 19.3675 38.2251 16.7258C40.7174 14.0582 55.338 3.50568 55.4852 3.39942L55.5138 3.37891L55.549 3.37926L92.6527 3.83542C93.1215 3.83259 104.201 3.77044 106.103 4.19311C106.704 4.32661 107.125 4.60659 107.353 5.02513C107.732 5.71869 107.441 6.53161 107.428 6.56592L107.228 6.49233C107.23 6.48479 107.498 5.73367 107.165 5.12632C106.967 4.76497 106.594 4.5212 106.056 4.40162C104.178 3.98426 92.7673 4.04841 92.652 4.04924L55.5817 3.59343C54.8499 4.12177 40.8072 14.2754 38.3814 16.8717C35.9322 19.4936 36.0713 22.0417 36.0732 22.0671L36.0737 22.0758L36.073 22.0844C36.0612 22.2074 34.9319 34.4593 37.0948 40.9829L36.8919 41.0501Z" fill="#161616"/>
<path d="M36.4179 19.6358L16.3047 21.0918L16.3201 21.3049L36.4333 19.849L36.4179 19.6358Z" fill="#161616"/>
<path d="M35.465 20.5586H30.5495C30.5495 20.5586 30.4429 21.3934 31.5826 21.7205C31.5826 21.7205 35.2399 21.7205 35.465 21.5081C35.6896 21.2956 35.465 20.5586 35.465 20.5586Z" fill="white"/>
<path d="M45 11.6401L45.4925 11.209H46.1491C46.1491 11.209 46.5414 11.3845 46.5801 13.3996C46.6192 15.4146 46.3531 15.9211 45.79 16.0199C45.2269 16.1187 45 11.6401 45 11.6401Z" fill="#1C181A"/>
<path d="M41.3672 14.5427C41.3672 14.5427 41.8518 16.0937 42.7824 16.21C43.7128 16.3264 45.6515 16.113 45.9229 15.9774C46.1945 15.8417 46.1928 13.0856 46.0384 12.6025C45.8841 12.1196 43.4026 12.4879 43.4026 12.4879L42.3751 13.147L42.1426 14.1358C42.1429 14.1356 41.3865 14.2132 41.3672 14.5427Z" fill="#2A2426"/>
<path d="M42.3076 14.0622C42.3076 14.0622 42.3871 14.2413 42.6391 14.0622C42.8913 13.8829 43.5816 13.3973 46.1248 13.5141L46.0412 12.7236C46.0412 12.7236 41.8015 12.2058 42.3076 14.0622Z" fill="#E3E8EB"/>
<path d="M42 14.2127C42 14.2127 42.0969 11.5567 44.3071 11.3242C46.5172 11.0915 45.5867 11.2078 45.5867 11.2078C45.5867 11.2078 45.9161 10.9171 46.0519 12.8556C46.0519 12.8556 43.4738 12.8555 42.9888 13.0494C42.5043 13.2433 42.2909 13.476 42.3103 13.9606C42.3296 14.4455 42 14.2127 42 14.2127Z" fill="#E5E5E3"/>
<path d="M69.8364 40.8699C69.6678 40.2514 69.5455 36.6283 69.4647 34.2307C69.4417 33.5452 69.4217 32.9532 69.4055 32.5832C69.3394 31.0664 69.7513 21.0158 70.0481 19.3518C70.3226 17.8131 71.3456 15.2999 71.4205 15.1165L73.5387 3.70898L73.7488 3.74814L71.6267 15.1773L71.6223 15.1876C71.6119 15.2139 70.5381 17.8224 70.2586 19.3893C69.9868 20.9109 69.5435 30.838 69.619 32.574C69.6351 32.9448 69.6549 33.5374 69.6782 34.2235C69.7538 36.466 69.8804 40.2192 70.0426 40.8135L69.8364 40.8699Z" fill="#161616"/>
<path d="M36.8504 41.021C36.8504 41.021 34.8736 25.9014 20.8226 25.9014C6.77172 25.9014 6.29338 40.0352 6.29338 40.0352L2.11877 39.8814C1.11823 39.8098 1.31838 40.4033 1.31838 40.5834C1.31838 40.7635 1.04818 41.0789 0.868094 41.304C0.687775 41.5291 0.327742 41.0337 0.0123895 42.745C-0.302963 44.4562 5.50641 44.5914 5.50641 44.5914C5.64144 44.8616 6.22661 44.9517 6.22661 44.9517C8.74885 45.357 9.42413 44.9517 9.42413 44.9517C5.95667 40.0431 11.2253 27.3434 21.6281 28.8747C34.91 30.8295 33.8585 44.4936 33.8585 44.4936H92.6462C92.3383 43.4711 92.277 42.053 92.4972 40.4866H88.8337L36.8504 41.021Z" fill="#2C3033"/>
<path d="M126.469 41.529C126.154 41.2138 126.018 39.5926 126.018 39.5926C126.018 39.5926 125.658 40.9436 125.298 40.8987C124.938 40.8536 124.623 39.3676 124.548 38.6919C124.492 38.1928 124.191 38.1119 124.038 38.1036L121.427 38.2427C121.427 38.2427 118.187 25.1367 106.413 25.1367C89.4772 25.1367 88.8359 40.4866 88.8359 40.4866H92.4994C93.2464 35.1773 97.2397 28.1589 105.933 29.0283C120.586 30.4935 118.408 44.096 118.408 44.096C118.408 44.096 123.001 43.6908 124.938 43.2854C126.874 42.8802 126.784 41.8443 126.469 41.529Z" fill="#2C3033"/>
<path d="M90.7756 40.6624L90.5625 40.6464C91.125 33.1082 96.1926 29.8535 99.2207 27.9089C99.6639 27.6243 100.047 27.3784 100.366 27.1501C102.481 25.6396 102.503 21.2636 102.516 18.6489C102.518 18.2267 102.52 17.8622 102.53 17.5459C102.598 15.2872 100.711 14.1016 100.692 14.0899L100.664 14.0726L100.651 14.0424L96.1957 4.0581L96.3905 3.97095L100.833 13.9265C101.08 14.0908 102.811 15.3256 102.743 17.5523C102.734 17.8658 102.732 18.2292 102.73 18.6499C102.716 21.3054 102.694 25.75 100.49 27.324C100.166 27.5554 99.7816 27.8025 99.3361 28.0886C96.3417 30.0118 91.33 33.2305 90.7756 40.6624Z" fill="#161616"/>
<path d="M34.6094 42.8184C34.6313 43.2901 35.0707 43.7618 35.6104 43.7618H90.5558C91.0959 43.7618 91.5353 43.2901 91.5571 42.8184H34.6094Z" fill="#C4C3C8"/>
<path d="M66.5646 21.4449C66.6219 22.4005 65.9865 23.1858 65.1473 23.2364L64.1337 23.2975C63.2944 23.3482 62.5688 22.645 62.5115 21.6894C62.4537 20.7338 63.0891 19.9485 63.9288 19.8977L64.9423 19.8365C65.7814 19.7861 66.5069 20.4893 66.5646 21.4449Z" fill="#9D9E9B"/>
<path d="M69.0131 21.3663C69.0227 21.6792 68.7915 21.9401 68.4967 21.9493L61.0205 22.1815C60.7257 22.1907 60.4787 21.9446 60.469 21.6318C60.4594 21.3189 60.6904 21.0581 60.9855 21.049L68.4616 20.8167C68.7567 20.8075 69.0034 21.0536 69.0131 21.3663Z" fill="#C4C3C8"/>
<path d="M98.0802 20.1614C98.1377 21.117 97.5023 21.9023 96.6629 21.953L95.6496 22.0142C94.8101 22.0649 94.0846 21.3617 94.0271 20.4061C93.9695 19.4505 94.6047 18.6652 95.4444 18.6146L96.4577 18.5534C97.297 18.5026 98.0226 19.2059 98.0802 20.1614Z" fill="#9D9E9B"/>
<path d="M100.529 20.0851C100.538 20.3978 100.307 20.6588 100.012 20.6679L92.5361 20.9002C92.2413 20.9094 91.9946 20.6632 91.9847 20.3506C91.975 20.0378 92.206 19.7768 92.5011 19.7677L99.9772 19.5354C100.272 19.5262 100.519 19.7723 100.529 20.0851Z" fill="#C4C3C8"/>
<path d="M32.4213 41.2409C32.4213 47.2622 27.5404 52.1434 21.5192 52.1434C15.4981 52.1434 10.6172 47.2622 10.6172 41.2409C10.6172 35.2198 15.4981 30.3389 21.5192 30.3389C27.5404 30.3389 32.4213 35.2198 32.4213 41.2409Z" fill="#27262C"/>
<path d="M13.3125 41.2412C13.3125 45.7897 17 49.4772 21.5489 49.4772C26.0969 49.4772 29.784 45.7898 29.784 41.2412C29.784 36.693 26.0969 33.0059 21.5489 33.0059C17 33.0057 13.3125 36.693 13.3125 41.2412Z" fill="#C3BFBE"/>
<path d="M18.6917 35.719L20.5978 37.885C20.5978 37.885 20.9267 38.405 21.377 38.405C21.8279 38.405 22.1569 38.041 22.1569 38.041L24.1497 35.719C24.1497 35.719 24.4268 35.3899 24.1497 35.1648C23.8725 34.9394 22.8998 34.6104 21.5499 34.6104C20.1991 34.6102 18.2063 34.9741 18.6917 35.719Z" fill="#27262C"/>
<path d="M18.6917 46.7619L20.597 44.5958C20.597 44.5958 20.9269 44.0762 21.3769 44.0762C21.8276 44.0762 22.157 44.4399 22.157 44.4399L24.1495 46.7619C24.1495 46.7619 24.4271 47.0911 24.1495 47.3163C23.8724 47.5415 22.8996 47.8708 21.5499 47.8708C20.199 47.8708 18.2065 47.5068 18.6917 46.7619Z" fill="#27262C"/>
<path d="M27.1388 38.4876L24.9732 40.3934C24.9732 40.3934 24.4531 40.7227 24.4531 41.1729C24.4531 41.6239 24.8173 41.9527 24.8173 41.9527L27.1389 43.9457C27.1389 43.9457 27.4685 44.2232 27.6931 43.9457C27.9188 43.6684 28.2484 42.6958 28.2484 41.3455C28.2483 39.9949 27.8841 38.0023 27.1388 38.4876Z" fill="#27262C"/>
<path d="M16.094 38.4876L18.2598 40.3935C18.2598 40.3935 18.7794 40.7227 18.7794 41.1729C18.7794 41.6238 18.4155 41.9527 18.4155 41.9527L16.0939 43.9455C16.0939 43.9455 15.7645 44.223 15.5385 43.9455C15.3138 43.6683 14.9844 42.6958 14.9844 41.3454C14.9845 39.995 15.3483 38.0023 16.094 38.4876Z" fill="#27262C"/>
<path d="M115.781 41.2409C115.781 47.2622 110.9 52.1434 104.879 52.1434C98.8574 52.1434 93.9766 47.2622 93.9766 41.2409C93.9766 35.2198 98.8575 30.3389 104.879 30.3389C110.9 30.3389 115.781 35.2198 115.781 41.2409Z" fill="#27262C"/>
<path d="M96.6641 41.2412C96.6641 45.7897 100.351 49.4772 104.9 49.4772C109.448 49.4772 113.135 45.7898 113.135 41.2412C113.135 36.693 109.448 33.0059 104.9 33.0059C100.351 33.0057 96.6641 36.693 96.6641 41.2412Z" fill="#C3BFBE"/>
<path d="M102.043 35.7188L103.949 37.8848C103.949 37.8848 104.278 38.4047 104.728 38.4047C105.179 38.4047 105.509 38.0408 105.509 38.0408L107.501 35.7188C107.501 35.7188 107.779 35.3896 107.501 35.1645C107.224 34.9391 106.252 34.6101 104.901 34.6101C103.551 34.61 101.558 34.9738 102.043 35.7188Z" fill="#27262C"/>
<path d="M102.043 46.7628L103.949 44.5968C103.949 44.5968 104.278 44.0771 104.728 44.0771C105.179 44.0771 105.509 44.4409 105.509 44.4409L107.501 46.7628C107.501 46.7628 107.779 47.0921 107.501 47.3172C107.224 47.5425 106.251 47.8718 104.901 47.8718C103.551 47.8718 101.558 47.5078 102.043 46.7628Z" fill="#27262C"/>
<path d="M110.491 38.4876L108.325 40.3934C108.325 40.3934 107.805 40.7227 107.805 41.1729C107.805 41.6239 108.169 41.9527 108.169 41.9527L110.491 43.9457C110.491 43.9457 110.82 44.2232 111.044 43.9457C111.27 43.6684 111.6 42.6958 111.6 41.3455C111.6 39.9949 111.235 38.0023 110.491 38.4876Z" fill="#27262C"/>
<path d="M99.4458 38.4876L101.612 40.3935C101.612 40.3935 102.131 40.7227 102.131 41.1729C102.131 41.6238 101.767 41.9527 101.767 41.9527L99.4457 43.9455C99.4457 43.9455 99.1163 44.223 98.8904 43.9455C98.6656 43.6683 98.3359 42.6958 98.3359 41.3454C98.3361 39.995 98.7002 38.0023 99.4458 38.4876Z" fill="#27262C"/>
</svg>
