<svg width="80" height="51" viewBox="0 0 80 51" fill="none" xmlns="http://www.w3.org/2000/svg">
<path d="M39.9986 0C18.233 0 0.585938 11.4165 0.585938 25.4934C0.585938 39.5802 18.233 51 39.9986 51C61.7643 51 79.4113 39.5835 79.4113 25.4934C79.4113 11.4034 61.7643 0 39.9986 0ZM39.9986 40.0564C36.7602 40.0564 34.1196 33.6781 33.9553 25.6544C37.9765 26.0065 42.0207 26.0065 46.0419 25.6544C45.8777 33.6748 43.237 40.0564 39.9986 40.0564ZM34.3527 19.2859C35.233 13.6138 37.4302 9.58713 39.9986 9.58713C42.567 9.58713 44.761 13.6138 45.6445 19.2859C41.888 19.6195 38.1093 19.6195 34.3527 19.2859ZM39.9986 3.68508C35.7716 3.68508 32.1653 10.0174 30.8352 18.8557C22.8213 17.6076 17.2279 14.7568 17.2279 11.4461C17.2279 6.97933 27.4227 3.36322 39.9986 3.36322C52.5778 3.36322 62.7693 6.98261 62.7693 11.4461C62.7693 14.7568 57.176 17.6076 49.1621 18.8557C47.8319 10.0207 44.2256 3.68837 39.9986 3.68837V3.68508ZM6.23509 24.541C6.23509 20.222 7.90027 16.1658 10.7938 12.6843C10.7643 12.9274 10.7446 13.177 10.7446 13.4266C10.7446 18.8688 18.9063 23.5097 30.2965 25.2175C30.2867 25.6117 30.2867 26.0124 30.2867 26.4131C30.2867 36.5618 33.131 45.1505 37.0624 48.067C19.7865 47.0259 6.23509 36.8903 6.23509 24.541ZM42.9349 48.067C46.8663 45.1505 49.7106 36.5585 49.7106 26.4131C49.7106 26.0091 49.704 25.615 49.7007 25.2208C61.0844 23.5129 69.2527 18.8754 69.2527 13.4266C69.2527 13.177 69.233 12.9274 69.2034 12.6843C72.097 16.1756 73.7589 20.222 73.7589 24.541C73.7589 36.8903 60.2108 47.0259 42.9349 48.067Z" fill="#343434"/>
</svg>
