<svg width="133" height="53" viewBox="0 0 133 53" fill="none" xmlns="http://www.w3.org/2000/svg">
<path d="M6.07649 41.1897L7.75344 42.7089C7.75344 42.7089 8.40668 42.0711 9.68241 41.9492C10.9579 41.8274 28.6679 43.3237 28.6679 43.3237C28.6679 43.3237 31.0226 42.9283 31.9547 42.709C32.8867 42.4897 92.5522 41.9746 92.5522 41.9746L93.2476 42.8967C93.2476 42.8967 94.5391 42.0236 96.3785 41.8029C98.2184 41.5822 114.996 40.6501 114.996 40.6501C114.996 40.6501 115.958 41.461 116.606 41.215C117.253 40.969 119.51 39.0067 119.51 39.0067L117.155 27.3555L102.07 25.1233L83.1957 24.2402L27.6863 26.0554L6.85065 27.2327L5.24219 35.9896L6.07649 41.1897Z" fill="black"/>
<path d="M17.8529 18.4994C17.8529 18.4994 17.4874 17.1692 17.6245 17.0841C17.7619 16.999 21.0582 15.8169 21.4447 15.5894C21.8314 15.362 36.04 1.83539 38.6544 2.08546C41.2687 2.33552 36.2901 10.747 36.2901 10.747L20.9672 19.9543L17.8529 18.4994Z" fill="#2D2D2B"/>
<path d="M129.81 34.3396C129.81 34.3396 131.906 34.7129 131.935 35.718C131.963 36.7231 133.198 40.5136 126.852 40.2265C120.505 39.9393 126.335 33.8227 129.81 34.3396Z" fill="#2E2E2E"/>
<path d="M5.10621 23.1602L4.01348 23.756C4.01348 23.756 2.65092 26.8431 2.69643 28.0934C2.74193 29.3437 2.68422 32.929 2.88339 33.2733C3.08279 33.6177 5.10632 33.5722 5.10632 33.5722L6.85667 33.2995C6.85645 33.2995 6.49286 23.8195 5.10621 23.1602Z" fill="#2D2D2B"/>
<path d="M127.82 15.9251C128.049 15.1776 125.76 7.57843 125.76 7.57843H127.681C127.008 5.46445 126.175 3.65034 125.147 2.49145C125.147 2.49145 124.83 -0.207636 118.228 0.373731L98.4693 0L52.9607 0.498263C52.9607 0.498263 39.5081 0.0414366 36.9336 2.90672L21.2389 17.6484C21.2389 17.6484 18.16 18.098 17.623 17.0842L4.58782 22.7632C4.58782 22.7632 4.1033 22.8694 4.00471 23.7559C4.00471 23.7559 5.43664 23.9567 5.53545 25.3849C5.63383 26.8131 5.83277 33.0695 5.43882 33.2173C5.04486 33.365 2.9774 33.2183 2.82956 32.8243C2.82956 32.8243 2.70819 33.133 2.9332 33.3398C3.15821 33.5467 3.93733 33.7598 4.37526 33.7781C4.81318 33.7963 9.59536 33.9303 9.59536 33.9303C9.59536 33.9303 13.411 28.881 20.0758 29.9192C26.7408 30.9574 28.8795 34.5908 29.876 37.9753C30.8726 41.3597 30.8311 42.7715 32.2222 42.8962C33.6135 43.0207 93.2447 42.8962 93.2447 42.8962C93.2447 42.8962 94.0543 41.7127 93.8675 41.0275C93.6805 40.3423 93.9297 27.8223 105.702 28.632C117.475 29.4416 116.603 41.2143 116.603 41.2143L128.033 40.28C128.033 40.28 128.687 39.5948 128.687 38.5359C128.687 37.4769 128.687 35.1722 128.687 35.1722C128.687 35.1722 130.431 35.6082 130.431 34.051V25.7042C130.431 25.7042 130.249 21.1275 129.486 15.9249H127.82V15.9251Z" fill="#E5E5E3"/>
<path d="M32.0781 10.2597C32.0781 10.2597 36.9691 5.30233 38.0821 4.72536C39.195 4.14828 40.878 2.87343 43.6393 2.91454C46.4008 2.95576 48.9082 2.62886 48.9082 2.62886H51.8889C51.8889 2.62886 52.7 2.51477 52.9061 3.29784C53.1122 4.08102 52.9061 15.8759 52.9061 15.8759C52.9061 15.8759 52.9473 16.6215 52.4939 16.745C52.0407 16.8687 32.6693 17.159 32.6693 17.159L32.0781 10.2597Z" fill="#2D2D2B"/>
<path d="M3.44082 32.5391C3.44082 32.5391 0 33.194 0 34.3961C0 35.5979 0 40.5306 0 40.5306C0 40.5306 0.447152 42.6102 2.76756 42.7099C5.08765 42.8094 7.75245 42.7098 7.75245 42.7098C7.75245 42.7098 6.3172 35.3131 9.5738 33.9319C10.1946 33.6684 3.44082 32.5391 3.44082 32.5391Z" fill="#393B3A"/>
<path d="M127.826 15.9258H129.493C129.081 13.1185 128.5 10.1302 127.687 7.5791H125.766C125.766 7.5791 128.055 15.1783 127.826 15.9258Z" fill="#BA1F25"/>
<path d="M29.1227 42.7087C29.1227 48.3129 24.5797 52.8561 18.9753 52.8561C13.3711 52.8561 8.82812 48.3129 8.82812 42.7087C8.82812 37.1044 13.3711 32.5615 18.9753 32.5615C24.5797 32.5615 29.1227 37.1044 29.1227 42.7087Z" fill="#27262C"/>
<path d="M11.3438 42.7081C11.3438 46.9416 14.7758 50.3735 19.0098 50.3735C23.243 50.3735 26.6745 46.9416 26.6745 42.7081C26.6745 38.4748 23.2429 35.043 19.0098 35.043C14.7757 35.043 11.3438 38.4748 11.3438 42.7081Z" fill="#C3BFBE"/>
<path d="M16.3506 37.569L18.1246 39.5851C18.1246 39.5851 18.431 40.0689 18.8503 40.0689C19.2698 40.0689 19.5763 39.7302 19.5763 39.7302L21.4308 37.569C21.4308 37.569 21.6889 37.2626 21.4308 37.0531C21.1729 36.8433 20.2676 36.5371 19.011 36.5371C17.7536 36.537 15.8989 36.8757 16.3506 37.569Z" fill="#27262C"/>
<path d="M16.3506 47.8473L18.1241 45.8313C18.1241 45.8313 18.4311 45.3477 18.85 45.3477C19.2695 45.3477 19.5765 45.6863 19.5765 45.6863L21.4308 47.8475C21.4308 47.8475 21.6891 48.1539 21.4308 48.3633C21.1727 48.573 20.2676 48.8796 19.011 48.8796C17.7536 48.8795 15.899 48.5407 16.3506 47.8473Z" fill="#27262C"/>
<path d="M24.2105 40.1455L22.195 41.9194C22.195 41.9194 21.7109 42.2258 21.7109 42.645C21.7109 43.0647 22.0497 43.3709 22.0497 43.3709L24.2105 45.2258C24.2105 45.2258 24.5175 45.4839 24.7264 45.2258C24.9363 44.9677 25.2431 44.0625 25.2431 42.8056C25.2432 41.5484 24.9042 39.6939 24.2105 40.1455Z" fill="#27262C"/>
<path d="M13.9312 40.1456L15.9469 41.9196C15.9469 41.9196 16.4306 42.226 16.4306 42.6451C16.4306 43.0647 16.092 43.3708 16.092 43.3708L13.9312 45.2257C13.9312 45.2257 13.6242 45.484 13.4145 45.2257C13.2052 44.9675 12.8984 44.0625 12.8984 42.8055C12.8984 41.5486 13.2372 39.6938 13.9312 40.1456Z" fill="#27262C"/>
<path d="M115.584 42.0856C115.584 47.69 111.04 52.2331 105.436 52.2331C99.8319 52.2331 95.2891 47.69 95.2891 42.0856C95.2891 36.4815 99.8318 31.9385 105.436 31.9385C111.04 31.9386 115.584 36.4815 115.584 42.0856Z" fill="#27262C"/>
<path d="M97.7969 42.0851C97.7969 46.3187 101.229 49.7506 105.463 49.7506C109.696 49.7506 113.127 46.3187 113.127 42.0851C113.127 37.8518 109.696 34.4199 105.463 34.4199C101.229 34.42 97.7969 37.8518 97.7969 42.0851Z" fill="#C3BFBE"/>
<path d="M102.796 36.9471L104.57 38.9631C104.57 38.9631 104.876 39.447 105.295 39.447C105.715 39.447 106.021 39.1082 106.021 39.1082L107.876 36.9471C107.876 36.9471 108.134 36.6406 107.876 36.431C107.618 36.2213 106.713 35.915 105.456 35.915C104.199 35.915 102.344 36.2538 102.796 36.9471Z" fill="#27262C"/>
<path d="M102.796 47.2244L104.569 45.2083C104.569 45.2083 104.877 44.7246 105.295 44.7246C105.715 44.7246 106.022 45.0632 106.022 45.0632L107.876 47.2244C107.876 47.2244 108.134 47.5309 107.876 47.7403C107.618 47.95 106.713 48.2564 105.456 48.2564C104.199 48.2564 102.345 47.9177 102.796 47.2244Z" fill="#27262C"/>
<path d="M110.664 39.5225L108.648 41.2963C108.648 41.2963 108.164 41.6027 108.164 42.0218C108.164 42.4415 108.503 42.7477 108.503 42.7477L110.664 44.6026C110.664 44.6026 110.971 44.8607 111.18 44.6026C111.39 44.3445 111.696 43.4393 111.696 42.1824C111.696 40.9254 111.357 39.0709 110.664 39.5225Z" fill="#27262C"/>
<path d="M100.384 39.5225L102.4 41.2965C102.4 41.2965 102.884 41.6029 102.884 42.0221C102.884 42.4417 102.545 42.7478 102.545 42.7478L100.384 44.6027C100.384 44.6027 100.077 44.8609 99.8675 44.6027C99.6582 44.3445 99.3516 43.4395 99.3516 42.1825C99.3516 40.9254 99.6903 39.0707 100.384 39.5225Z" fill="#27262C"/>
<path d="M56.1552 41.775H33.2844C32.4046 41.775 32.2021 41.3775 32.1818 41.3323L32.1728 41.3022C32.0712 40.7018 31.6434 39.5646 31.1013 38.1251C30.1219 35.5231 28.7803 31.9595 28.3799 28.8938C27.7665 24.1962 28.6545 10.7115 28.6637 10.5759L28.9121 10.5924C28.9031 10.7278 28.0167 24.1881 28.627 28.8615C29.0235 31.8986 30.3593 35.4466 31.3344 38.0373C31.875 39.4731 32.3032 40.6104 32.4147 41.2393C32.4474 41.2876 32.6402 41.5258 33.2844 41.5258H56.0838C56.1829 41.4565 56.5289 41.1842 56.5289 40.7566C56.5289 40.1868 56.121 0.895551 56.1167 0.49863L56.3659 0.496094C56.37 0.892905 56.7781 40.1856 56.7781 40.7566C56.7781 41.3972 56.209 41.743 56.1848 41.7574L56.1552 41.775Z" fill="#CCCCCC"/>
<path d="M34.5671 16.1359C34.5671 17.0169 33.8531 17.7312 32.972 17.7312H32.9233C32.0422 17.7312 31.3281 17.0169 31.3281 16.1359V11.4781C31.3281 10.5971 32.0422 9.88281 32.9233 9.88281H32.972C33.8531 9.88281 34.5671 10.5971 34.5671 11.4781V16.1359Z" fill="#D8D8D6"/>
<path d="M55.6459 23.0564C55.6459 23.7652 55.0935 24.2827 54.3845 24.2827H54.3135C53.6049 24.2827 53.0078 23.7652 53.0078 23.0564V19.7975C53.0078 19.0887 53.6049 18.457 54.3135 18.457H54.3845C55.0934 18.457 55.6459 19.0887 55.6459 19.7975V23.0564Z" fill="#D8D8D6"/>
<path d="M55.098 22.7628C55.098 22.9948 54.9099 23.1827 54.6781 23.1827H54.6386C54.4068 23.1827 54.2188 22.9948 54.2188 22.7628V19.4258C54.2188 19.1938 54.4068 19.0059 54.6386 19.0059H54.6781C54.9099 19.0059 55.098 19.1938 55.098 19.4258V22.7628Z" fill="white"/>
<path d="M123.559 19.1025H62.0596C60.7773 19.1025 59.6094 17.9346 59.6094 16.6524V6.60339C59.6094 5.38965 60.7086 4.40234 62.0596 4.40234H120.445C121.724 4.40234 122.263 5.22851 122.763 6.6556L125.885 16.6957V16.7146C125.885 18.009 124.82 19.1025 123.559 19.1025ZM62.0596 4.65153C60.846 4.65153 59.8587 5.52716 59.8587 6.60339V16.6524C59.8587 17.8042 60.9079 18.8533 62.0596 18.8533H123.559C124.679 18.8533 125.625 17.8844 125.635 16.7332L122.527 6.73374C122.054 5.3848 121.582 4.65142 120.445 4.65142L62.0596 4.65153Z" fill="#CCCCCC"/>
<path d="M35.1218 15.5871C35.1218 16.4681 34.4078 17.1824 33.5266 17.1824H33.478C32.5968 17.1824 31.8828 16.4681 31.8828 15.5871V10.9292C31.8828 10.0482 32.5968 9.33398 33.478 9.33398H33.5266C34.4078 9.33398 35.1218 10.0482 35.1218 10.9292V15.5871Z" fill="#E5E5E3"/>
</svg>
