<svg width="80" height="80" viewBox="0 0 80 80" fill="none" xmlns="http://www.w3.org/2000/svg">
<path d="M72.08 16L74 14.08C75.36 15.84 76.48 17.76 77.68 19.76H79.2V0.88H60.24V2.4C62.24 3.44 64 4.64 65.76 6.08L63.84 8C57.2 2.88 48.96 0 40 0C17.84 0 0 17.84 0 40C0 62.16 17.84 80 40 80C62.16 80 80 62.16 80 40C80 30.96 76.96 22.64 72.08 16ZM69.2 47.2C65.92 60.24 54.08 70.08 40 70.08C25.92 70.08 14 60.4 10.8 47.2H69.2ZM10.72 32.72C14 19.6 25.84 9.84 39.92 9.84C54 9.84 65.92 19.52 69.12 32.72H10.72ZM61.36 39.84C61.36 38.48 62.08 37.2 63.28 37.2C64.4 37.2 65.04 38.48 65.04 40C65.04 41.36 64.4 42.8 63.12 42.8C61.84 42.64 61.36 41.28 61.36 39.84ZM28.16 39.84C28.16 38.48 28.88 37.2 30.08 37.2C31.2 37.2 31.84 38.48 31.84 40C31.84 41.36 31.2 42.8 29.92 42.8C28.64 42.64 28.16 41.28 28.16 39.84ZM30.08 36C33.6 36 35.36 37.76 35.36 39.92C35.36 42.08 33.6 43.84 30.08 43.84C26.56 43.84 24.8 42 24.8 39.84C24.8 37.68 26.56 36 30.08 36ZM19.28 41.92L21.76 37.28H20.24V36.16H25.36V37.28H23.6L20.24 43.6H16.24L12.72 37.28H10.96V36.16H18.48V37.28H16.72L19.28 41.92ZM63.28 36C66.8 36 68.56 37.76 68.56 39.92C68.56 42.08 66.8 43.84 63.28 43.84C59.76 43.84 58 42.08 58 39.92C58 37.76 59.76 36 63.28 36ZM46 37.36H44.24V36.24H51.76V37.36H50L52.48 42L54.96 37.36H53.6V36.24H58.72V37.36H56.96L53.6 43.68H49.6C49.52 43.68 46 37.36 46 37.36ZM37.44 37.36H35.68V36.24H42.56V37.36H40.8V42.48H42.4C43.92 42.48 44.8 41.44 44.8 40.24H45.92V43.76H35.68V42.64H37.44V37.36Z" fill="#343434"/>
</svg>
