<svg width="128" height="51" viewBox="0 0 128 51" fill="none" xmlns="http://www.w3.org/2000/svg">
<path d="M101.273 2.14969C101.273 2.14969 102.403 -0.14799 105.557 0.00782529C105.557 0.00782529 106.531 1.17618 105.402 2.4223C104.272 3.66843 101.273 2.14969 101.273 2.14969Z" fill="#100607"/>
<path d="M127.537 28.4506C127.458 28.2333 127.365 28.0671 127.256 27.9688C126.283 27.086 126.14 26.2529 126.14 26.2529V21.6444C126.14 20.4011 123.284 20.4911 120.185 19.5903C117.086 18.6894 115.671 16.2749 115.725 15.4642C115.779 14.6534 117.419 14.1488 121.419 14.4011C125.419 14.6534 124.806 14.0227 124.806 14.0227C122.59 12.7615 123.275 13.7524 119.112 12.0588C114.95 10.3651 111.221 6.52719 111.221 6.52719C111.221 6.52719 116.734 4.22086 115.995 3.46418C115.256 2.70736 99.2564 1.33789 84.534 1.33789C69.8116 1.33789 64.4625 1.8784 61.0568 2.36496C57.6514 2.85139 46.1558 7.37409 41.6154 10.9597C37.0748 14.5453 31.6875 16.203 30.8947 16.5453C30.1019 16.8877 23.5614 17.6444 15.2732 19.14C6.98531 20.6354 3.66974 23.2839 3.66974 23.2839C3.66974 23.2839 1.3278 25.4464 0.30086 30.7797C0.161412 31.5029 0.0773301 32.1606 0.0343827 32.7621C-0.240061 36.5958 1.21008 38.0681 1.49042 38.5822C1.81475 39.1769 0.987097 39.8081 0.987097 39.8081C0.0863808 40.3488 0.124594 40.765 0.124594 40.765C0.0705168 42.4947 11.3187 43.9575 11.3187 43.9575C11.3187 43.9575 9.55641 26.9075 23.5777 27.2969C37.5984 27.6865 36.3939 43.3899 36.3939 43.3899L38.029 43.365C38.5718 42.9674 39.5919 42.5485 41.5153 42.3479C45.7541 41.9059 86.4781 40.6693 88.1769 41.0443C88.9429 41.2133 89.3202 41.8898 89.5047 42.5819L91.2542 42.5553C91.2542 42.5553 90.4197 24.417 104.385 25.5853C118.35 26.7537 116.518 40.5095 116.518 40.5095C117.491 39.9151 121.563 38.978 122.896 38.6538C124.23 38.3294 126.536 35.7889 127.257 35.4826C127.897 35.2101 128.167 30.1859 127.537 28.4506Z" fill="#E5E5E3"/>
<path d="M88.537 39.9111C88.6022 40.1295 91.2492 42.556 91.2492 42.556C91.2492 42.556 94.082 42.62 94.8438 42.1545C95.6053 41.6889 113.637 40.4191 113.637 40.4191C113.637 40.4191 116.21 40.8796 116.87 40.3318C117.531 39.7842 120.112 28.3135 120.112 28.3135L101.616 20.3984C101.616 20.3984 85.5741 30.0067 88.537 39.9111Z" fill="#040402"/>
<path d="M115.118 3.72C115.118 3.72 115.906 3.33047 116.04 3.72C116.175 4.10941 115.118 5.61165 119.791 9.00567C124.465 12.3997 123.908 14.1245 123.908 14.1245L110.444 10.6193C110.444 10.6193 107.495 4.55446 115.118 3.72Z" fill="#C9CDD6"/>
<path d="M123.019 13.8466C123.019 13.8466 125.411 13.8466 125.856 15.1263C126.302 16.4059 126.19 21.636 125.856 22.0255C125.522 22.415 112.336 17.2963 112.336 17.2963C112.336 17.2963 115.118 12.5669 123.019 13.8466Z" fill="#AE222F"/>
<path d="M9.47656 39.8681C9.47656 39.8681 10.6663 43.8566 11.3202 43.9574C11.9741 44.0583 13.8785 43.5504 14.4713 43.4657C15.0638 43.3811 31.5711 46.4008 31.5711 46.4008C31.5711 46.4008 35.5076 45.0336 36.9042 42.8952C38.301 40.7569 39.571 28.1433 39.571 28.1433L24.5237 25.5615L17.4764 26.8312L12.2704 31.5718L9.47656 39.8681Z" fill="#040402"/>
<path d="M86.7352 41.1408L86.6094 40.9494C86.6319 40.9346 88.8755 39.4486 89.3435 38.114C89.3842 37.9983 89.4414 37.7964 89.5136 37.5408C89.9082 36.1492 90.8313 32.8903 92.8822 29.9433C95.447 26.258 98.8731 24.3065 103.066 24.1432C108.634 23.9254 112.13 26.2391 114.081 28.2177C115.978 30.141 116.824 32.1328 116.984 32.5385C121.225 32.6287 127.544 32.3901 127.775 31.362L127.998 31.4122C127.941 31.6653 127.769 32.4357 122.275 32.6966C119.598 32.8238 116.928 32.7666 116.902 32.7658L116.823 32.764L116.796 32.6897C116.788 32.6678 115.993 30.4794 113.911 28.3714C111.993 26.429 108.554 24.159 103.075 24.3721C96.6394 24.6228 92.1506 29.0744 89.7339 37.6033C89.6577 37.8726 89.6027 38.0673 89.5595 38.1896C89.0659 39.5974 86.83 41.0785 86.7352 41.1408Z" fill="#080705"/>
<path d="M10.7526 31.4177C10.7526 31.4177 14.3298 22.9394 22.9152 24.0485C31.5008 25.1575 39.3706 31.4177 39.3706 31.4177C39.3706 31.4177 39.3706 35.5315 58.1514 34.2796C76.9317 33.0275 85.696 32.1332 85.696 32.1332C85.696 32.1332 88.3789 31.0599 79.6149 31.2387C70.8505 31.4176 46.7041 31.2387 46.7041 31.2387C46.7041 31.2387 39.3706 29.6992 39.9075 25.729C40.444 21.7589 57.7934 25.5587 69.0616 24.3742C80.3305 23.19 93.9239 25.686 93.9239 25.686C93.9239 25.686 99.8262 20.0092 105.729 21.7784C111.631 23.5476 117.78 29.2713 118.552 29.2713C119.182 29.2713 125.394 29.9481 127.541 28.4516C127.462 28.2343 127.369 28.0681 127.261 27.9698C126.288 27.087 126.144 26.2538 126.144 26.2538V21.6454C126.144 20.4021 123.288 20.4921 120.189 19.5912C117.09 18.6904 115.676 16.2759 115.73 15.4651C115.784 14.6544 117.424 14.1497 121.423 14.4021C125.423 14.6544 124.811 14.0237 124.811 14.0237C122.594 12.7625 123.279 13.7534 119.117 12.0597C114.955 10.3661 111.225 6.52817 111.225 6.52817C111.225 6.52817 116.738 4.22184 116 3.46516C115.261 2.70834 99.2611 1.33887 84.5387 1.33887C69.8164 1.33887 64.4672 1.87937 61.0615 2.36594C57.6561 2.85237 46.1605 7.37507 41.6201 10.9606C37.0795 14.5462 31.6922 16.204 30.8994 16.5463C30.1065 16.8887 23.5661 17.6454 15.2779 19.1409C6.99 20.6364 3.67442 23.2848 3.67442 23.2848C3.67442 23.2848 1.33248 25.4474 0.30554 30.7807C0.166092 31.5039 0.0820099 32.1616 0.0390625 32.7631C2.21956 31.9347 7.21167 30.3282 10.7526 31.4177Z" fill="#E5E5E3"/>
<path d="M118.547 29.2711C117.776 29.2711 111.626 23.5475 105.724 21.7782C99.8216 20.009 93.9193 25.6858 93.9193 25.6858C93.9193 25.6858 80.3259 23.1897 69.0571 24.3741C57.7888 25.5585 40.4394 21.7587 39.9029 25.7289C39.3661 29.6989 46.6996 31.2386 46.6996 31.2386C46.6996 31.2386 70.8459 31.4174 79.6103 31.2386C88.3745 31.0597 85.6915 32.133 85.6915 32.133C85.6915 32.133 76.9271 33.0273 58.1469 34.2795C39.3661 35.5313 39.366 31.4176 39.366 31.4176C39.366 31.4176 31.4962 25.1573 22.9107 24.0483C14.3254 22.9391 10.748 31.4176 10.748 31.4176C7.20712 30.328 2.21514 31.9344 0.0343827 32.7631C-0.240061 36.5968 1.21008 38.069 1.49042 38.5831C1.81475 39.1778 0.987097 39.8091 0.987097 39.8091C0.0863809 40.3497 0.124594 40.7659 0.124594 40.7659C0.0705168 42.4956 11.3187 43.9585 11.3187 43.9585C11.3187 43.9585 9.55641 26.9085 23.5777 27.2979C37.5984 27.6874 36.3939 43.3908 36.3939 43.3908L38.0291 43.366C38.5718 42.9683 39.5919 42.5494 41.5153 42.3488C45.7541 41.9068 86.4781 40.6702 88.1769 41.0452C88.9429 41.2143 89.3203 41.8907 89.5047 42.5828L91.2542 42.5562C91.2542 42.5562 90.4197 24.4179 104.385 25.5863C118.35 26.7546 116.518 40.5105 116.518 40.5105C117.491 39.916 121.563 38.9789 122.896 38.6547C124.23 38.3304 126.536 35.7898 127.257 35.4836C127.897 35.2113 128.167 30.187 127.537 28.4518C125.39 29.9481 119.177 29.2711 118.547 29.2711Z" fill="#E5E5E3"/>
<path d="M88.1713 41.0444C86.4724 40.6694 45.7485 41.906 41.5096 42.3481C39.5863 42.5487 38.5662 42.9675 38.0234 43.3652L89.4991 42.582C89.3146 41.8899 88.9371 41.2135 88.1713 41.0444Z" fill="#040402"/>
<path d="M1.97814 28.0865C1.97814 28.0865 1.86317 25.6186 4.11686 23.9569C6.37068 22.2953 15.6332 19.745 16.2914 20.5185C16.9493 21.2918 14.235 22.3609 13.4781 23.0686C12.7214 23.7761 8.70697 27.8892 6.66697 28.0865C4.62671 28.2838 1.79665 29.5052 1.97695 28.1524" fill="#C9CDD6"/>
<path d="M0.757848 33.8776C0.577024 33.7132 0.428687 33.4005 1.15277 33.2689C1.87672 33.1373 3.90047 32.9892 3.90047 32.9892C3.90047 32.9892 4.75563 32.9236 5.41398 33.8776C6.0722 34.8318 6.829 36.658 6.829 36.658C6.829 36.658 7.68441 38.073 6.35173 38.0894C5.01905 38.1059 1.67939 38.0894 1.67939 38.0894C1.67939 38.0894 2.41971 37.6943 2.27162 36.9705C2.12326 36.2468 1.4983 34.2724 1.4983 34.2724C1.4983 34.2724 0.938672 34.0422 0.757848 33.8776Z" fill="#D2CCCE"/>
<path d="M1.73032 33.7959L3.12872 37.0699C3.12872 37.0699 3.30981 37.5305 4.09963 37.4647C4.88931 37.3989 6.13964 37.5634 6.13964 37.5634C6.13964 37.5634 6.5839 37.7113 6.13964 36.8724C5.69537 36.0333 4.36281 33.6972 4.36281 33.6972C4.36281 33.6972 4.34619 33.5983 3.57287 33.5326C2.79969 33.4669 1.5 33.7137 1.5 33.7137C1.5 33.7137 1.5495 33.8453 1.73032 33.7959Z" fill="#1B1A20"/>
<path d="M35.5951 17.4389C35.5951 17.4389 43.6888 11.2989 48.4085 8.91386C53.1283 6.52897 55.7747 5.20756 62.2456 4.09014C68.7165 2.97272 75.6654 3.30216 75.6654 3.30216H90.2552C90.2552 3.30216 101.116 3.47408 103.618 5.05855C106.119 6.64289 107.771 8.24386 107.52 9.01102C107.27 9.77818 103.518 12.5801 100.732 12.9802C97.9475 13.3805 78.0006 15.4653 78.0006 15.4653L58.2378 17.2665L37.3063 18.8674C37.3063 18.8674 35.4895 19.1893 35.247 18.3538C35.0966 17.837 35.5951 17.4389 35.5951 17.4389Z" fill="#C9CDD6"/>
<path d="M39.0909 18.8258L40.2591 15.0702C40.2591 15.0702 48.4383 9.41014 50.775 8.48455C53.112 7.55882 59.1816 4.30386 71.378 4.55421C71.378 4.55421 81.6273 3.7839 93.9885 4.10522L97.1782 13.3174L98.263 13.1506L94.3406 3.54652C94.3406 3.54652 64.045 2.13397 55.532 5.72269C47.0195 9.31141 34.2501 17.0731 35.4186 18.5753L39.0909 18.8258Z" fill="#282C38"/>
<path d="M69.2545 4.0795L66.3125 16.3927L72.7182 15.8214V4.05371L69.2545 4.0795Z" fill="#292C3B"/>
<path d="M90.8827 14.1391L90.3828 14.1083L91.0008 4.0377L91.5006 3.86133L90.8827 14.1391Z" fill="#292C3B"/>
<path d="M94.3567 4.03345C94.3567 4.03345 95.7124 4.00595 96.8971 4.10547C98.082 4.20498 101.121 4.18939 104.067 6.20019C107.013 8.21086 106.714 9.77556 106.583 10.0298C106.452 10.2839 107.091 9.84758 107.091 9.84758L107.232 8.77206L105.003 5.85727L101.516 4.32439L94 3.45117L94.3567 4.03345Z" fill="#292C3B"/>
<path d="M99.3203 4.10827C99.3203 4.10827 102.844 4.34121 105.508 7.19367C107.626 9.4619 106.892 9.94558 105.508 10.8961C104.124 11.8467 101.705 12.864 101.705 12.864C101.705 12.864 107.476 11.0462 107.926 9.29508C108.376 7.54393 104.958 3.99161 99.3203 4.10827Z" fill="#D8D6E1"/>
<path d="M34.7772 39.4638C34.7772 45.6071 29.7976 50.587 23.6543 50.587C17.5112 50.587 12.5312 45.6071 12.5312 39.4638C12.5312 33.3206 17.5112 28.3408 23.6543 28.3408C29.7976 28.3408 34.7772 33.3206 34.7772 39.4638Z" fill="#27262C"/>
<path d="M15.2812 39.4638C15.2812 44.1043 19.0436 47.8664 23.6845 47.8664C28.3248 47.8664 32.0862 44.1043 32.0862 39.4638C32.0862 34.8235 28.3248 31.0615 23.6845 31.0615C19.0436 31.0615 15.2812 34.8235 15.2812 39.4638Z" fill="#C3BFBE"/>
<path d="M20.7636 33.8303L22.7078 36.0402C22.7078 36.0402 23.0437 36.5705 23.5033 36.5705C23.9632 36.5705 24.2989 36.1993 24.2989 36.1993L26.332 33.8303C26.332 33.8303 26.6148 33.4944 26.332 33.2647C26.0491 33.0349 25.0572 32.6992 23.6794 32.6992C22.3011 32.6991 20.2683 33.0703 20.7636 33.8303Z" fill="#27262C"/>
<path d="M20.7634 45.0975L22.7076 42.8876C22.7076 42.8876 23.0441 42.3574 23.5034 42.3574C23.9633 42.3574 24.2993 42.7286 24.2993 42.7286L26.3321 45.0975C26.3321 45.0975 26.6152 45.4335 26.3321 45.6632C26.0493 45.893 25.057 46.229 23.6795 46.229C22.3014 46.229 20.2686 45.8575 20.7634 45.0975Z" fill="#27262C"/>
<path d="M29.3809 36.6542L27.1711 38.5986C27.1711 38.5986 26.6406 38.9346 26.6406 39.3939C26.6406 39.854 27.012 40.1895 27.012 40.1895L29.3809 42.2228C29.3809 42.2228 29.7171 42.5058 29.946 42.2228C30.1764 41.9398 30.5124 40.9476 30.5124 39.5699C30.5124 38.1919 30.1408 36.159 29.3809 36.6542Z" fill="#27262C"/>
<path d="M18.1084 36.6542L20.3182 38.5986C20.3182 38.5986 20.8486 38.9346 20.8486 39.394C20.8486 39.854 20.477 40.1895 20.477 40.1895L18.1084 42.2228C18.1084 42.2228 17.7724 42.5059 17.5422 42.2228C17.3125 41.9398 16.9766 40.9479 16.9766 39.5699C16.9764 38.192 17.348 36.159 18.1084 36.6542Z" fill="#27262C"/>
<path d="M115.027 38.1512C115.027 44.2943 110.047 49.2744 103.904 49.2744C97.7611 49.2744 92.7812 44.2943 92.7812 38.1512C92.7812 32.008 97.7611 27.0283 103.904 27.0283C110.047 27.0282 115.027 32.008 115.027 38.1512Z" fill="#27262C"/>
<path d="M95.5312 38.1522C95.5312 42.7928 99.2933 46.5549 103.935 46.5549C108.575 46.5549 112.336 42.7928 112.336 38.1522C112.336 33.5118 108.575 29.75 103.935 29.75C99.2933 29.75 95.5312 33.5118 95.5312 38.1522Z" fill="#C3BFBE"/>
<path d="M101.021 32.5178L102.966 34.7277C102.966 34.7277 103.302 35.258 103.761 35.258C104.221 35.258 104.557 34.8868 104.557 34.8868L106.59 32.5178C106.59 32.5178 106.873 32.182 106.59 31.9522C106.307 31.7223 105.315 31.3867 103.938 31.3867C102.559 31.3866 100.526 31.7579 101.021 32.5178Z" fill="#27262C"/>
<path d="M101.021 43.7849L102.965 41.5751C102.965 41.5751 103.302 41.0449 103.761 41.0449C104.221 41.0449 104.557 41.416 104.557 41.416L106.59 43.7849C106.59 43.7849 106.873 44.1209 106.59 44.3506C106.307 44.5804 105.315 44.9163 103.937 44.9163C102.559 44.9163 100.526 44.5449 101.021 43.7849Z" fill="#27262C"/>
<path d="M109.639 35.3416L107.429 37.2861C107.429 37.2861 106.898 37.622 106.898 38.0815C106.898 38.5416 107.27 38.8771 107.27 38.8771L109.639 40.9104C109.639 40.9104 109.975 41.1934 110.204 40.9104C110.434 40.6274 110.77 39.6352 110.77 38.2575C110.77 36.8795 110.399 34.8466 109.639 35.3416Z" fill="#27262C"/>
<path d="M98.3662 35.3417L100.576 37.2861C100.576 37.2861 101.106 37.6221 101.106 38.0815C101.106 38.5415 100.735 38.877 100.735 38.877L98.3662 40.9103C98.3662 40.9103 98.0299 41.1933 97.8 40.9103C97.5701 40.6272 97.2344 39.6352 97.2344 38.2574C97.2342 36.8795 97.6056 34.8465 98.3662 35.3417Z" fill="#27262C"/>
<path d="M40.5744 43.0306C38.3254 38.3659 37.0816 34.4347 36.9498 27.0307C36.8125 19.3134 39.8476 14.1325 39.8785 14.0811L40.0752 14.1984C40.0448 14.2492 37.0429 19.3782 37.179 27.0267C37.3099 34.3883 38.5458 38.2958 40.7808 42.9309L40.5744 43.0306Z" fill="#080705"/>
<path d="M69.4086 41.4472C69.4008 41.4159 68.5893 38.3004 68.1847 36.6046C67.7806 34.9117 68.1381 31.7239 68.1381 31.5088V19.2544C68.1381 18.3693 69.2379 16.5845 69.3719 16.3624L71.2441 3.4668L71.4817 3.49927L69.6297 16.4412L69.6204 16.4611C69.6087 16.4804 68.4534 18.3935 68.4534 19.2543L68.4529 31.5295C68.4491 31.5627 68.051 34.8761 68.4512 36.5512C68.8553 38.2463 69.6228 41.3609 69.6308 41.3922L69.4086 41.4472Z" fill="#080705"/>
<path d="M98.3519 25.6313L98.1711 25.4907C98.7362 24.7636 99.0702 17.9183 99.0603 16.3921C99.052 15.1121 97.7169 13.3654 97.7034 13.3478L97.6867 13.3182L94.1484 3.90084L94.363 3.82031L97.8956 13.2219C98.034 13.4039 99.2812 15.0816 99.2895 16.3907C99.2953 17.314 99.0245 24.7663 98.3519 25.6313Z" fill="#080705"/>
<path d="M36.5484 19.0484C35.7441 19.0484 35.2528 18.82 35.1272 18.3879C34.9566 17.801 35.4922 17.3648 35.5155 17.3464C35.5986 17.2832 43.6746 11.1707 48.3497 8.80816C53.0793 6.41829 55.6845 5.10185 62.2201 3.9733C66.2167 3.28313 70.3809 3.20117 73.1705 3.20117C74.6894 3.20117 75.6562 3.30985 75.6663 3.30985H90.2502C90.6967 3.30985 101.175 3.43738 103.676 5.02146C105.794 6.36278 107.945 8.11039 107.629 9.08011C107.367 9.88394 103.547 12.712 100.745 13.1148C97.9891 13.5108 78.2077 15.5716 78.0081 15.5923L58.2433 17.3898L37.3105 18.9889C37.3075 18.99 36.9627 19.0484 36.5484 19.0484ZM73.1705 3.32058C70.3904 3.32058 66.2408 3.4929 62.2606 4.18019C55.7602 5.30271 53.1663 6.6274 48.4572 9.00679C43.8012 11.3596 35.7426 17.466 35.6619 17.5274C35.6603 17.529 35.2307 17.8852 35.3565 18.3177C35.4738 18.7215 36.0695 18.8082 36.5486 18.8082C36.9411 18.8082 37.2771 18.7505 37.2805 18.7499L58.2233 17.1481L77.9848 15.3472C78.1828 15.3265 97.9596 13.2584 100.711 12.863C103.508 12.4609 107.19 9.62389 107.402 8.97497C107.621 8.30431 106.036 6.67938 103.549 5.10408C101.104 3.55509 90.3568 3.30985 90.2481 3.30985H75.6604C75.6452 3.30985 74.6832 3.32058 73.1705 3.32058Z" fill="#D8D6E1"/>
<path d="M10.2672 38.7936H1.44269C1.37932 38.7936 1.32812 38.7259 1.32812 38.6626C1.32812 38.5995 1.37932 38.5317 1.44269 38.5317H10.1647C10.2332 37.877 10.6421 35.123 12.3208 32.3652C14.0506 29.5236 17.5176 26.1126 24.2113 26.1123C29.884 26.1123 33.1076 29.2201 34.8129 31.8375C36.6568 34.6671 37.169 37.5311 37.1738 37.5597C37.1846 37.6222 37.1432 37.6785 37.0807 37.6892C37.0183 37.6998 36.959 37.6568 36.9482 37.5944C36.9431 37.5661 36.4371 34.7357 34.6169 31.945C32.9424 29.3781 29.7779 26.3179 24.2112 26.3181C17.6239 26.3183 14.2157 29.6458 12.5164 32.4373C10.6728 35.4666 10.3841 38.5949 10.3813 38.6256C10.3762 38.6847 10.3265 38.7936 10.2672 38.7936Z" fill="#080705"/>
<path d="M40.6955 18.5044C40.6955 18.5044 41.3364 14.3887 43.9843 13.8684C46.6319 13.3483 47.1244 15.7916 47.1523 15.9494C47.1802 16.1074 47.6538 18.1791 45.5821 18.5044C43.5104 18.8296 40.6676 19.5448 40.6955 18.5044Z" fill="#3A394B"/>
<path d="M57.7971 20.737C57.7746 20.0448 59.338 19.5535 61.147 19.3524C62.956 19.1514 64.7655 19.2855 64.9214 19.8214C65.0779 20.3574 63.5144 21.6528 61.3593 21.608C59.2042 21.5635 57.8194 21.4296 57.7971 20.737Z" fill="#100607"/>
<path d="M58.392 20.782C58.392 20.782 58.5854 20.1791 61.109 19.8662C63.6328 19.5537 64.2804 19.5537 64.2804 19.8662C64.2804 20.1791 63.1639 20.7596 62.516 20.782C61.8685 20.8044 58.3102 21.3851 58.392 20.782Z" fill="#BEC0CC"/>
<path d="M88.4455 17.5184C88.4233 16.826 89.9867 16.3347 91.7957 16.1337C93.6047 15.9326 95.4139 16.0667 95.5703 16.6027C95.7263 17.1386 94.163 18.434 92.0079 18.3894C89.8526 18.3447 88.4681 18.2106 88.4455 17.5184Z" fill="#100607"/>
<path d="M89.0404 17.5632C89.0404 17.5632 89.2338 16.9603 91.7574 16.6476C94.2812 16.3349 94.9288 16.3349 94.9288 16.6476C94.9288 16.9603 93.812 17.541 93.1644 17.5632C92.5169 17.5856 88.9589 18.1663 89.0404 17.5632Z" fill="#BEC0CC"/>
</svg>
