<svg width="48" height="48" viewBox="0 0 48 48" fill="none" xmlns="http://www.w3.org/2000/svg">
<g clip-path="url(#clip0_227_7964)">
<g clip-path="url(#clip1_227_7964)">
<g clip-path="url(#clip2_227_7964)">
<path d="M48 24C48 10.7452 37.2548 0 24 0C10.7452 0 0 10.7452 0 24C0 37.2548 10.7452 48 24 48C37.2548 48 48 37.2548 48 24Z" fill="#FF0000"/>
<path d="M23.9922 12.6758C23.9922 12.6758 13.8772 12.6758 11.3384 13.3355C9.97911 13.7153 8.85981 14.8346 8.47999 16.2139C7.82033 18.7526 7.82031 24.0102 7.82031 24.0102C7.82031 24.0102 7.82033 29.2876 8.47999 31.7864C8.85981 33.1658 9.95911 34.265 11.3384 34.6448C13.8972 35.3246 23.9922 35.3246 23.9922 35.3246C23.9922 35.3246 34.1272 35.3246 36.666 34.6648C38.0452 34.285 39.1446 33.2056 39.5044 31.8064C40.184 29.2876 40.184 24.0302 40.184 24.0302C40.184 24.0302 40.204 18.7526 39.5044 16.2139C39.1446 14.8346 38.0452 13.7353 36.666 13.3755C34.1272 12.6758 23.9922 12.6758 23.9922 12.6758ZM20.7738 19.1527L29.1896 24.0102L20.7738 28.8476V19.1527Z" fill="white"/>
</g>
</g>
</g>
<defs>
<clipPath id="clip0_227_7964">
<rect width="48" height="48" fill="white"/>
</clipPath>
<clipPath id="clip1_227_7964">
<rect width="48" height="48" fill="white"/>
</clipPath>
<clipPath id="clip2_227_7964">
<rect width="48" height="48" fill="white"/>
</clipPath>
</defs>
</svg>
